<?xml version="1.0" encoding="UTF-8" standalone="no"?>
<svg width="364px" height="270px" viewBox="0 0 364 270" version="1.1" xmlns="http://www.w3.org/2000/svg" xmlns:xlink="http://www.w3.org/1999/xlink">
    <g id="portfolio---about-me" stroke="none" stroke-width="1" fill="none" fill-rule="evenodd" transform="translate(-538.000000, -1204.000000)">
        <g id="zone2" transform="translate(420.000000, 812.000000)" stroke="#26344D" stroke-width="6">
            <g id="about-me">
                <g id="remy">
                    <g id="illu" transform="translate(121.000000, 395.000000)">
                        <path d="M35.2957746,134.522293 L105.00099,134.522293" id="Line-Copy-6" stroke-linecap="round" stroke-linejoin="round"></path>
                        <ellipse id="Oval" cx="15.9671362" cy="133.681529" rx="15.9671362" ry="15.9745223"></ellipse>
                        <path d="M18.4882629,117.707006 L31.5830216,86.1290804" id="Line-Copy-6" stroke-linecap="round" stroke-linejoin="round"></path>
                        <path d="M30.2535211,123.782842 L72.5250697,92.4840764" id="Line-Copy-7" stroke-linecap="round" stroke-linejoin="round"></path>
                        <path d="M115.971831,118.69266 L125.223251,80.7133758" id="Line-Copy-10" stroke-linecap="round" stroke-linejoin="round"></path>
                        <path d="M221.859155,49.7499844 L231.110575,11.7707006" id="Line-Copy-19" stroke-linecap="round" stroke-linejoin="round"></path>
                        <path d="M205.640344,57.4569908 L184.882629,31.9490446" id="Line-Copy-20" stroke-linecap="round" stroke-linejoin="round"></path>
                        <path d="M264.624205,40.0238854 L233.624413,58.8535032" id="Line-Copy-21" stroke-linecap="round" stroke-linejoin="round"></path>
                        <path d="M112.610329,188.67496 L112.610329,147.974522" id="Line-Copy-12" stroke-linecap="round" stroke-linejoin="round"></path>
                        <path d="M141.98627,192.953225 L126.056338,151.33758" id="Line-Copy-14" stroke-linecap="round" stroke-linejoin="round"></path>
                        <path d="M220.513241,251.727906 L208.413146,220.280255" id="Line-Copy-15" stroke-linecap="round" stroke-linejoin="round"></path>
                        <path d="M245.269305,211.754379 L220.178404,206.828025" id="Line-Copy-16" stroke-linecap="round" stroke-linejoin="round"></path>
                        <path d="M224.264292,161.634753 L208.413146,188.33121" id="Line-Copy-17" stroke-linecap="round" stroke-linejoin="round"></path>
                        <path d="M192.106795,193.356091 L136.140845,144.611465" id="Line-Copy-13" stroke-linecap="round" stroke-linejoin="round"></path>
                        <path d="M137.821596,132.821441 L207.576053,79.0318471" id="Line-Copy-11" stroke-linecap="round" stroke-linejoin="round"></path>
                        <path d="M231.943662,77.3503185 L328.589043,142.045382" id="Line-Copy-18" stroke-linecap="round" stroke-linejoin="round"></path>
                        <path d="M30.2535211,144.611465 L50.8607779,163.587779" id="Line-Copy-8" stroke-linecap="round" stroke-linejoin="round"></path>
                        <path d="M15.1267606,149.656051 L32.7779306,207.202428" id="Line-Copy-9" stroke-linecap="round" stroke-linejoin="round"></path>
                        <ellipse id="Oval-Copy" cx="121.85446" cy="133.681529" rx="15.9671362" ry="15.9745223"></ellipse>
                        <ellipse id="Oval-Copy-2" cx="219.338028" cy="66.4203822" rx="15.9671362" ry="15.9745223"></ellipse>
                        <ellipse id="Oval-Copy-4" cx="204.211268" cy="204.305732" rx="15.9671362" ry="15.9745223"></ellipse>
                        <ellipse id="Oval-Copy-3" cx="342.032864" cy="150.496815" rx="15.9671362" ry="15.9745223"></ellipse>
                        <path d="M22.1287962,204.798368 L42.1599362,212.762639" id="Path-2" stroke-linecap="round" stroke-linejoin="round"></path>
                        <path d="M27.5756446,201.432026 L39.9408194,216.442625" id="Path-2" stroke-linecap="round" stroke-linejoin="round" transform="translate(33.758232, 208.937326) scale(-1, 1) translate(-33.758232, -208.937326) "></path>
                        <path d="M41.460389,159.39913 L59.8048692,170.722387" id="Path-2" stroke-linecap="round" stroke-linejoin="round"></path>
                        <path d="M57.0324759,156.752212 L47.4605139,173.682949" id="Path-2" stroke-linecap="round" stroke-linejoin="round"></path>
                        <path d="M66.6716566,85.4118691 L85.0161368,96.7351254" id="Path-2-Copy-2" stroke-linecap="round" stroke-linejoin="round"></path>
                        <path d="M82.2437435,82.7649506 L72.6717815,99.6956883" id="Path-2-Copy" stroke-linecap="round" stroke-linejoin="round"></path>
                        <path d="M113.732689,71.9596398 L132.07717,83.2828961" id="Path-2-Copy-2" stroke-linecap="round" stroke-linejoin="round"></path>
                        <path d="M129.304776,69.3127213 L119.732814,86.243459" id="Path-2-Copy" stroke-linecap="round" stroke-linejoin="round"></path>
                        <path d="M103.648182,184.62206 L121.992663,195.945316" id="Path-2-Copy-6" stroke-linecap="round" stroke-linejoin="round"></path>
                        <path d="M119.220269,181.975142 L109.648307,198.905879" id="Path-2-Copy-5" stroke-linecap="round" stroke-linejoin="round"></path>
                        <path d="M132.220952,189.666646 L150.565433,200.989902" id="Path-2-Copy-8" stroke-linecap="round" stroke-linejoin="round"></path>
                        <path d="M147.793039,187.019728 L138.221077,203.950465" id="Path-2-Copy-7" stroke-linecap="round" stroke-linejoin="round"></path>
                        <path d="M174.239732,23.1953086 L192.584212,34.5185649" id="Path-2-Copy-10" stroke-linecap="round" stroke-linejoin="round"></path>
                        <path d="M189.811819,20.5483901 L180.239857,37.4791278" id="Path-2-Copy-9" stroke-linecap="round" stroke-linejoin="round"></path>
                        <path d="M219.620013,3.0169646 L237.964494,14.3402209" id="Path-2-Copy-12" stroke-linecap="round" stroke-linejoin="round"></path>
                        <path d="M235.1921,0.37004615 L225.620138,17.3007839" id="Path-2-Copy-11" stroke-linecap="round" stroke-linejoin="round"></path>
                        <path d="M254.915788,33.2844805 L273.260268,44.6077368" id="Path-2-Copy-14" stroke-linecap="round" stroke-linejoin="round"></path>
                        <path d="M270.487875,30.6375621 L260.915913,47.5682998" id="Path-2-Copy-13" stroke-linecap="round" stroke-linejoin="round"></path>
                        <path d="M215.199895,161.725013 L235.661607,154.944274" id="Path-2-Copy-16" stroke-linecap="round" stroke-linejoin="round"></path>
                        <path d="M223.639136,149.382062 L230.450098,167.60087" id="Path-2-Copy-15" stroke-linecap="round" stroke-linejoin="round"></path>
                        <path d="M211.514667,252.000129 L232.623831,256.363426" id="Path-2-Copy-18" stroke-linecap="round" stroke-linejoin="round"></path>
                        <path d="M225.286478,244.746096 L222.079752,263.931103" id="Path-2-Copy-17" stroke-linecap="round" stroke-linejoin="round"></path>
                        <path d="M243.958428,202.0033 L257.32561,218.920764" id="Path-2-Copy-20" stroke-linecap="round" stroke-linejoin="round"></path>
                        <path d="M259.647224,204.301669 L244.864546,216.93604" id="Path-2-Copy-19" stroke-linecap="round" stroke-linejoin="round"></path>
                        <path d="M25.3497273,73.1744986 L35.5775027,92.1572092" id="Path-2-Copy-4" stroke-linecap="round" stroke-linejoin="round"></path>
                        <path d="M40.4529893,77.8855491 L23.7019723,87.7598032" id="Path-2-Copy-3" stroke-linecap="round" stroke-linejoin="round"></path>
                    </g>
                </g>
            </g>
        </g>
    </g>
</svg>