<svg width="300" height="300" viewBox="-120 0 460 360" xmlns="http://www.w3.org/2000/svg" xmlns:xlink="http://www.w3.org/1999/xlink"><defs><path d="M2.103 87.027l145.815-70.595c-15.852-15.31-38.807-19.33-68.865-12.06-13.949 15.11-39.599 42.662-76.95 82.655z" id="path-2"/><path d="M3.319 95.031c-3-4.521-3.179-7.372-.54-8.554 2.64-1.18 51.003-24.519 145.087-70.013 15.08 40.438 23.303 62.015 24.67 64.732 2.05 4.075-1.29 10.49-8.238 12.79-4.632 1.534-47.42 16.742-128.361 45.624-7.49 2.35-12.434 1.184-14.83-3.5-2.396-4.684-8.326-18.377-17.788-41.079z" id="path-3"/></defs><g id="loader30"><g id="carrote" transform="matrix(.5 0 0 .5 -50 -150)"><path d="M85.438 23.701l.1-.036c.163-.139.309-.3.447-.476-.63.422-1.438.635-2.57.7-10.271.586-18.565 4.881-24.494 13.574-11.828 17.337-23.773 34.6-35.71 51.862-6.415 9.275-12.942 18.477-19.37 27.745-1.977 2.852-3.554 5.916-3.82 9.473-.281 3.746 2.35 6.884 5.922 7.142 2.999.216 5.929-.147 8.575-1.572 2.805-1.51 5.616-3.075 8.174-4.956C48.112 108.48 72.44 88.42 96.888 68.51c3.71-3.022 6.135-6.904 7.512-11.453 1.84-6.072 1.84-12.242.68-18.408-.012-.069-.015-.127-.025-.192-8.918-2.088-19.617-14.756-19.617-14.756" id="Fill-1" fill="#F58600"/><path d="M125.234 20.364L110.5 8.546l-.01.008-3.333 2.457c.01-.1.03-.192.044-.29.174-1.264.499-2.358.992-3.367.582-1.186.29-1.768-1.007-2.399-1.461-.71-2.913-1.446-4.28-2.325A75.079 75.079 0 0 0 99.35.494c-2.01-1.144-4.57-.215-5.4 1.945-2.477 6.459-4.922 12.767-7.21 19.13-.266.744-.558 1.325-.917 1.78a3.329 3.329 0 0 1-.446.477l-.101.035s10.699 12.67 19.617 14.757a.12.12 0 0 1 .018.005l.075-.139.036-.072c.218-.414.607-.736 1.152-1.09 6.243-4.05 12.455-8.144 18.84-12.345 1.617-1.064 1.729-3.401.219-4.613" fill="#00BFA3"/><path d="M18.979 125.947a1.47 1.47 0 0 1-1.039-.43l-7.431-7.431a1.47 1.47 0 0 1 2.077-2.078l7.432 7.431a1.47 1.47 0 1 1-1.039 2.507" id="Fill-7" fill="#FFF"/><path d="M30.175 105.031a1.47 1.47 0 0 1-1.039-.43l-7.432-7.432a1.47 1.47 0 0 1 2.077-2.077l7.433 7.432a1.47 1.47 0 1 1-1.039 2.507" id="Fill-9" fill="#FFF"/><path d="M67.61 48.47a1.47 1.47 0 0 1-1.04-.43l-7.43-7.43a1.47 1.47 0 0 1 2.077-2.078l7.432 7.431a1.47 1.47 0 1 1-1.039 2.507" id="Fill-11" fill="#FFF"/><path d="M94.045 56.388c-.375 0-.752-.144-1.038-.43l-7.43-7.429a1.469 1.469 0 0 1 2.075-2.078l7.431 7.43a1.47 1.47 0 0 1-1.038 2.507" id="Fill-13" fill="#FFF"/><path d="M80.269 75.45a1.47 1.47 0 0 1-1.04-.43l-7.43-7.432a1.47 1.47 0 0 1 2.077-2.077l7.432 7.431a1.47 1.47 0 1 1-1.039 2.507" id="Fill-15" fill="#FFF"/><path d="M58.557 71.88c-.375 0-.752-.144-1.04-.43l-7.43-7.432a1.468 1.468 0 1 1 2.078-2.075l7.43 7.431a1.47 1.47 0 0 1-1.038 2.506" id="Fill-17" fill="#FFF"/><path d="M51.997 92.109c-.375 0-.752-.144-1.038-.43l-7.432-7.431a1.468 1.468 0 1 1 2.075-2.077l7.433 7.43a1.47 1.47 0 0 1-1.038 2.508" id="Fill-19" fill="#FFF"/><animateMotion path="M-50,-150 130,340" begin="0s" dur="1.2s" repeatCount="indefinite"/></g><g id="poisson" transform="matrix(.5 0 0 .5 180 -150)"><path fill="#00B49A" d="M165.929 94.533c5.366-26.883-3.874-48.811-27.72-65.784C118.359 7.812 107.375 1.4 99.461 2.593c-5.276.796-11.872 5.622-19.788 14.478-6.175-.478-14.171-.137-23.99 1.02-14.727 1.736-20.815 4.732-23.062 3.723C30.374 20.804 23.52-.502 19.001.009 14.483.519 1.232 31.003.124 34.959-.984 38.912 5.5 40.653 13.07 37.805c7.57-2.848 11.71-6.273 16.55 2.42 4.84 8.692 43.343 62.413 88.438 71.866 18.604 3.9 34.56-1.953 47.87-17.559z" id="path-1"/><circle id="Oval-2" fill="#6ACCBB" cx="140" cy="80" r="30"/><path d="M9.285 32.682c4.699-1.96 8.784-2.25 12.313-.934a1.5 1.5 0 1 0 1.049-2.81c-4.301-1.606-9.16-1.26-14.517.975a1.5 1.5 0 0 0 1.155 2.77z" id="Path-4" fill="#6ACCBB"/><path d="M15.674 10.968c1.966 6.036 5.303 11.055 9.997 15.03a1.5 1.5 0 1 0 1.939-2.29c-4.266-3.611-7.288-8.158-9.083-13.669a1.5 1.5 0 1 0-2.853.93z" id="Path-5" fill="#6ACCBB"/><path d="M51.648 30.704c5.34 0 9.978-5.146 8.525-9.045a1.5 1.5 0 1 0-2.811 1.047c.647 1.736-2.294 4.998-5.714 4.998a1.5 1.5 0 1 0 0 3z" id="Path-6" fill="#6ACCBB"/><path d="M41.648 50.704c5.34 0 9.978-5.146 8.525-9.045a1.5 1.5 0 1 0-2.811 1.047c.647 1.736-2.294 4.998-5.714 4.998a1.5 1.5 0 1 0 0 3z" id="Path-6-Copy" fill="#6ACCBB"/><path d="M61.648 49.704c5.34 0 9.978-5.146 8.525-9.045a1.5 1.5 0 1 0-2.811 1.047c.647 1.736-2.294 4.998-5.714 4.998a1.5 1.5 0 1 0 0 3z" id="Path-6-Copy-2" fill="#6ACCBB"/><path d="M81.648 39.704c5.34 0 9.978-5.146 8.525-9.045a1.5 1.5 0 1 0-2.811 1.047c.647 1.736-2.294 4.998-5.714 4.998a1.5 1.5 0 1 0 0 3z" id="Path-6-Copy-3" fill="#6ACCBB"/><path d="M71.648 64.704c5.34 0 9.978-5.146 8.525-9.045a1.5 1.5 0 1 0-2.811 1.047c.647 1.736-2.294 4.998-5.714 4.998a1.5 1.5 0 1 0 0 3z" id="Path-6-Copy-4" fill="#6ACCBB"/><path d="M91.648 54.704c5.34 0 9.978-5.146 8.525-9.045a1.5 1.5 0 0 0-2.811 1.047c.647 1.736-2.294 4.998-5.714 4.998a1.5 1.5 0 1 0 0 3z" id="Path-6-Copy-5" fill="#6ACCBB"/><path d="M116.648 44.704c5.34 0 9.978-5.146 8.525-9.045a1.5 1.5 0 0 0-2.811 1.047c.647 1.736-2.293 4.998-5.714 4.998a1.5 1.5 0 1 0 0 3z" id="Path-6-Copy-6" fill="#6ACCBB"/><path d="M87.648 83.704c5.34 0 9.978-5.146 8.525-9.045a1.5 1.5 0 1 0-2.811 1.047c.647 1.736-2.294 4.998-5.714 4.998a1.5 1.5 0 1 0 0 3z" id="Path-6-Copy-7" fill="#6ACCBB"/><animateMotion path="M180,-150 -120,330" begin="0.2s" dur="1.2s" repeatCount="indefinite"/></g><g id="fromage" transform="matrix(.5 0 0 .5 50 -150)"><mask id="mask-2" fill="#fff"><use xlink:href="#path-2"/></mask><use id="Path-7" fill="#F8D052" xlink:href="#path-2"/><ellipse id="Oval-3" fill="#F49E36" mask="url(#mask-2)" cx="36.5" cy="52" rx="8.5" ry="9"/><ellipse id="Oval-3-Copy" fill="#F49E36" mask="url(#mask-2)" cx="63.5" cy="24" rx="12.5" ry="13"/><ellipse id="Oval-3-Copy-2" fill="#F49E36" mask="url(#mask-2)" cx="98.5" cy="32" rx="12.5" ry="13"/><mask id="mask-3" fill="#fff"><use xlink:href="#path-3"/></mask><use id="Path-8" fill="#F49E36" xlink:href="#path-3"/><ellipse id="Oval-3-Copy-3" fill="#F8D052" mask="url(#mask-4)" cx="131.5" cy="68" rx="17.5" ry="16"/><ellipse id="Oval-3-Copy-4" fill="#F8D052" mask="url(#mask-4)" cx="83.5" cy="68" rx="7.5" ry="7"/><ellipse id="Oval-3-Copy-5" fill="#F8D052" mask="url(#mask-4)" cx="25" cy="82" rx="12" ry="11"/><ellipse id="Oval-3-Copy-6" fill="#F8D052" mask="url(#mask-4)" cx="88.5" cy="113" rx="15.5" ry="14"/><animateMotion path="M50,-150 35,330" begin="0.6s" dur="1.2s" repeatCount="indefinite"/></g><g id="panier" transform="matrix(.5 0 0 .5 50 150)"><path d="M84.014 75.749a645.418 645.418 0 0 1-.037-6.663c0-25.847 20.953-46.801 46.801-46.801 25.848 0 46.802 20.954 46.802 46.801 0 2.314-.015 4.515-.038 6.663h27.008c.002-.662.007-1.299.007-1.971C204.557 33.031 171.525 0 130.778 0S57 33.031 57 73.778c0 .672.005 1.309.006 1.971h27.008z" id="Fill-1" fill="#00BFA3"/><path d="M249.888 73H12.648c-9.11 0-15.225 9.349-11.576 17.696l36.1 112.477a12.633 12.633 0 0 0 11.575 7.574h165.04c5.023 0 9.567-2.973 11.578-7.574l36.1-112.477C265.114 82.349 258.998 73 249.888 73" id="Fill-1" fill="#F85E5E"/><path d="M216.249 195.378a3.848 3.848 0 1 0 0 7.696 3.848 3.848 0 0 0 0-7.696" id="Fill-1" fill="#FFF"/><path d="M233.142 139.137a3.847 3.847 0 1 0 0 7.696 3.848 3.848 0 1 0 0-7.696" id="Fill-3" fill="#FFF"/><path d="M216.249 172.92a3.847 3.847 0 1 0 0 7.695 3.848 3.848 0 1 0 0-7.696" id="Fill-5" fill="#FFF"/><path d="M216.249 150.46a3.848 3.848 0 1 0 0 7.695 3.848 3.848 0 0 0 0-7.695" id="Fill-7" fill="#FFF"/><path d="M216.249 128a3.848 3.848 0 0 0 0 7.698 3.85 3.85 0 0 0 0-7.698" id="Fill-9" fill="#FFF"/><path d="M199.034 184.055a3.848 3.848 0 1 0 0 7.696 3.848 3.848 0 0 0 0-7.696" id="Fill-11" fill="#FFF"/><path d="M199.034 161.596a3.847 3.847 0 1 0 0 7.696 3.85 3.85 0 0 0 0-7.696" id="Fill-13" fill="#FFF"/><path d="M199.034 139.137a3.847 3.847 0 1 0 0 7.696 3.848 3.848 0 1 0 0-7.696" id="Fill-15" fill="#FFF"/><path d="M182.14 195.378a3.849 3.849 0 1 0 0 7.697 3.849 3.849 0 0 0 0-7.697" id="Fill-17" fill="#FFF"/><path d="M148.031 195.378a3.848 3.848 0 1 0 0 7.697 3.848 3.848 0 0 0 0-7.697" id="Fill-19" fill="#FFF"/><path d="M182.14 172.92a3.848 3.848 0 1 0 0 7.695 3.848 3.848 0 1 0 0-7.696" id="Fill-21" fill="#FFF"/><path d="M182.14 150.46a3.849 3.849 0 1 0 0 7.697 3.849 3.849 0 0 0 0-7.697" id="Fill-23" fill="#FFF"/><path d="M182.14 128a3.849 3.849 0 1 0 0 7.698 3.849 3.849 0 0 0 0-7.698" id="Fill-25" fill="#FFF"/><path d="M164.925 184.055a3.849 3.849 0 1 0 0 7.697 3.849 3.849 0 0 0 0-7.697" id="Fill-27" fill="#FFF"/><path d="M164.925 161.596a3.848 3.848 0 1 0 0 7.696 3.85 3.85 0 0 0 0-7.696" id="Fill-29" fill="#FFF"/><path d="M164.925 139.137a3.848 3.848 0 1 0 0 7.696 3.848 3.848 0 1 0 0-7.696" id="Fill-31" fill="#FFF"/><path d="M148.031 172.92a3.848 3.848 0 1 0 0 7.695 3.848 3.848 0 1 0 0-7.696" id="Fill-33" fill="#FFF"/><path d="M148.031 150.46a3.848 3.848 0 1 0 0 7.697 3.848 3.848 0 0 0 0-7.697" id="Fill-35" fill="#FFF"/><path d="M148.031 128a3.849 3.849 0 1 0 .001 7.697 3.849 3.849 0 0 0-.001-7.697" id="Fill-37" fill="#FFF"/><path d="M130.817 184.055a3.849 3.849 0 1 0 0 7.697 3.849 3.849 0 0 0 0-7.697" id="Fill-39" fill="#FFF"/><path d="M130.817 161.596a3.848 3.848 0 1 0 0 7.696 3.85 3.85 0 0 0 0-7.696" id="Fill-41" fill="#FFF"/><path d="M130.817 139.137a3.848 3.848 0 1 0 0 7.696 3.848 3.848 0 1 0 0-7.696" id="Fill-43" fill="#FFF"/><path d="M113.28 195.378a3.848 3.848 0 1 0 0 7.696 3.85 3.85 0 1 0 0-7.696" id="Fill-45" fill="#FFF"/><path d="M79.172 195.378a3.848 3.848 0 1 0 0 7.696 3.849 3.849 0 1 0 0-7.696" id="Fill-47" fill="#FFF"/><path d="M113.28 172.92a3.847 3.847 0 1 0 0 7.695 3.848 3.848 0 0 0 0-7.695" id="Fill-49" fill="#FFF"/><path d="M113.28 150.46a3.848 3.848 0 1 0 0 7.695 3.848 3.848 0 1 0 0-7.695" id="Fill-51" fill="#FFF"/><path d="M113.28 128a3.848 3.848 0 0 0 0 7.698 3.85 3.85 0 0 0 0-7.698" id="Fill-53" fill="#FFF"/><path d="M96.065 184.055a3.849 3.849 0 1 0 3.85 3.849 3.849 3.849 0 0 0-3.85-3.85" id="Fill-55" fill="#FFF"/><path d="M96.065 161.596a3.848 3.848 0 1 0 0 7.696 3.848 3.848 0 0 0 0-7.696" id="Fill-57" fill="#FFF"/><path d="M96.065 139.137a3.848 3.848 0 1 0 0 7.696 3.848 3.848 0 1 0 0-7.696" id="Fill-59" fill="#FFF"/><path d="M79.172 172.92a3.847 3.847 0 1 0 0 7.695 3.849 3.849 0 1 0 0-7.696" id="Fill-61" fill="#FFF"/><path d="M79.172 150.46a3.848 3.848 0 1 0 0 7.695 3.848 3.848 0 1 0 0-7.695" id="Fill-63" fill="#FFF"/><path d="M79.172 128a3.848 3.848 0 1 0 0 7.698 3.849 3.849 0 1 0 0-7.698" id="Fill-65" fill="#FFF"/><path d="M61.957 184.055a3.848 3.848 0 1 0 0 7.695 3.848 3.848 0 1 0 0-7.695" id="Fill-67" fill="#FFF"/><path d="M61.957 161.596a3.847 3.847 0 1 0 0 7.696 3.848 3.848 0 1 0 0-7.696" id="Fill-69" fill="#FFF"/><path d="M61.957 139.137a3.847 3.847 0 1 0 0 7.696 3.848 3.848 0 1 0 0-7.696" id="Fill-71" fill="#FFF"/><path d="M45.064 195.378a3.849 3.849 0 1 0-.001 7.697 3.849 3.849 0 0 0 0-7.697" id="Fill-73" fill="#FFF"/><path d="M45.064 172.92a3.848 3.848 0 1 0 0 7.695 3.848 3.848 0 1 0 0-7.696" id="Fill-75" fill="#FFF"/><path d="M45.064 150.46a3.849 3.849 0 1 0-.001 7.697 3.849 3.849 0 0 0 0-7.697" id="Fill-77" fill="#FFF"/><path d="M45.064 128a3.849 3.849 0 1 0 0 7.698 3.849 3.849 0 0 0 0-7.698" id="Fill-79" fill="#FFF"/><path d="M27.849 139.137a3.847 3.847 0 1 0 0 7.696 3.848 3.848 0 1 0 0-7.696" id="Fill-81" fill="#FFF"/></g></g></svg>
