<?xml version="1.0" encoding="UTF-8" standalone="no"?>
<svg width="263px" height="34px" viewBox="0 0 263 34" version="1.1" xmlns="http://www.w3.org/2000/svg" xmlns:xlink="http://www.w3.org/1999/xlink">
    <!-- Generator: Sketch 48.2 (47327) - http://www.bohemiancoding.com/sketch -->
    <title>logo_auchandirect_beta</title>
    <desc>Created with Sketch.</desc>
    <defs></defs>
    <g id="Page-1" stroke="none" stroke-width="1" fill="none" fill-rule="evenodd">
        <g id="adi" transform="translate(-99.000000, -248.000000)" fill="#FFFFFF" fill-rule="nonzero">
            <g id="Group-10-Clipped">
                <g id="Group-10" transform="translate(39.000000, 248.000000)">
                    <g id="Group">
                        <g id="logo_auchandirect_beta" transform="translate(60.000000, 0.000000)">
                            <path d="M28.2672566,8.72666667 C27.997644,8.99339023 27.9989381,9.4237371 28.27015,9.68889699 C28.5413619,9.95405688 28.980237,9.95405688 29.2514489,9.68889699 C29.5226608,9.4237371 29.5239549,8.99339023 29.2543423,8.72666667 C29.1249256,8.5956138 28.9468394,8.52162994 28.7607995,8.52162994 C28.5747595,8.52162994 28.3966733,8.5956138 28.2672566,8.72666667" id="Shape"></path>
                            <path d="M49.5646186,26.807205 C48.7263587,27.6403671 47.5982976,28.1326018 46.4059442,28.1855072 C44.4554628,28.1855072 43.3420301,27.1401656 43.3420301,25.266294 L43.3420301,12.9235197 L36.6772271,12.9235197 L36.6772271,26.1412836 C36.6772271,30.9808282 38.8882992,33.3502692 43.5236538,33.3502692 C46.9666089,33.3502692 48.9644705,32.3049275 50.409564,30.7253002 L50.835985,32.9321325 L56.1899381,32.9321325 L56.1899381,12.9235197 L49.5646186,12.9235197 L49.5646186,26.807205 Z M70.3881794,27.806087 C67.1110548,27.806087 65.4132673,25.808323 65.4132673,22.7652174 C65.4132673,19.8460041 67.1110548,18.0573085 70.3407993,18.0573085 C71.8972917,18.0323053 73.4250901,18.4695934 74.72346,19.3117184 L75.655269,13.8527122 C73.4745023,12.9177829 71.1087872,12.4707606 68.7298754,12.5440994 C62.1361426,12.5440994 58.5273571,16.2531263 58.5273571,23.0517184 C58.5273571,29.8503106 61.9308288,33.3889855 68.564045,33.3889855 C71.1863662,33.4256125 73.7754128,32.8102394 76.0895867,31.6002899 L75.1498811,26.4819876 C73.7087833,27.3070263 72.079863,27.7649115 70.4118695,27.8138302 L70.3881794,27.806087 Z M90.6984557,12.5440994 C87.974099,12.5440994 86.189448,13.1713043 84.831218,14.2553623 L84.831218,5.46674948 L78.0242747,5.46674948 L78.0242747,32.9321325 L84.6574909,32.9321325 L84.6574909,19.0561905 C85.4969954,18.225873 86.624907,17.7364685 87.8161653,17.6856315 C89.7745434,17.6856315 90.8800795,18.7232298 90.8800795,20.6048447 L90.8800795,32.9321325 L97.5606758,32.9321325 L97.5606758,19.7221118 C97.5606758,14.8903106 95.3496037,12.5131263 90.7221458,12.5131263 L90.6984557,12.5440994 Z M135.267351,12.5131263 C131.824396,12.5131263 129.826535,13.5584679 128.381441,15.1380952 L127.95502,12.9312629 L122.601067,12.9312629 L122.601067,32.9321325 L129.234283,32.9321325 L129.234283,19.0561905 C130.073788,18.225873 131.201699,17.7364685 132.392958,17.6856315 C134.351336,17.6856315 135.456872,18.7232298 135.456872,20.6048447 L135.456872,32.9321325 L142.042708,32.9321325 L142.042708,19.7221118 C142.042708,14.8903106 139.831636,12.5131263 135.243661,12.5131263 L135.267351,12.5131263 Z M99.8744048,23.6789234 C99.8744048,30.4310559 102.425034,33.3502692 107.360463,33.3502692 C110.376997,33.3502692 112.461722,32.3513872 113.606742,30.7253002 L113.946299,32.9321325 L119.347632,32.9321325 L119.347632,13.759793 C116.348147,12.8504916 113.214672,12.4395903 110.076923,12.5440994 C103.48319,12.5440994 99.8744048,16.5086542 99.8744048,23.7176398 L99.8744048,23.6789234 Z M112.564379,26.8149482 C111.774326,27.7139986 110.615705,28.2195683 109.405705,28.1932505 C107.621054,28.1932505 106.641865,26.5671636 106.641865,23.438882 C106.641865,19.6033816 107.694756,17.6856315 109.800539,17.6856315 C110.730401,17.6565415 111.660025,17.7503024 112.564379,17.9643892 L112.564379,26.807205 L112.564379,26.8149482 Z M11.93691,14.9677433 L16.0194967,11.676853 C16.8723388,9.35387164 17.7646643,7.03089027 18.6964732,5.08732919 C19.1623777,6.13267081 19.5966954,7.17801242 20.0625999,8.30078675 C22.3052587,6.49660455 23.679282,5.42028986 25.5271066,4.90923395 C24.3899838,2.47784679 23.5845218,0.751097308 23.2054809,1.77635684e-15 L14.1479821,1.77635684e-15 C13.3583135,1.54865424 10.4918165,7.46451346 7.13572498,15.4245963 L10.4128497,15.4245963 C10.9621708,15.4728605 11.509006,15.3089409 11.93691,14.9677433 Z M1,32.9321325 L9.07830973,32.9321325 L11.8105631,24.553913 L3.91387712,24.553913 C3.01365492,27.0549896 2.0107758,29.8115942 1,32.9321325 Z M25.3691728,25.0417391 L28.2277732,32.9321325 L36.2113226,32.9321325 C34.5530186,28.1003313 32.7683676,23.5472878 31.1100635,19.3814079 C30.0321215,21.9391156 27.9652039,23.9742297 25.3612762,25.0417391 L25.3691728,25.0417391 Z M29.0648219,20.2176812 C31.5838647,16.2221532 32.4682935,9.88041408 32.4682935,9.88041408 L31.4970011,9.44679089 C31.3706542,9.40807453 31.323274,9.28418219 31.449621,9.15254658 L32.1761161,8.27755694 C31.1997329,6.79761013 29.5116746,5.91870932 27.7144886,5.95457557 C26.370265,5.96553192 25.0605208,6.37294607 23.9556661,7.12380952 C22.5850286,8.08758238 21.2670901,9.12144954 20.0073231,10.221118 C16.3732648,13.2651585 13.1040841,16.7046272 10.2628126,20.4732091 C10.2265146,20.5278867 10.2221153,20.5972242 10.2512218,20.6558918 C10.2803283,20.7145595 10.3386772,20.7539639 10.404953,20.7597101 L14.7007501,20.7597101 C17.5040736,20.7597101 21.1602392,20.2563975 24.9664419,16.3383023 C25.0224062,16.2622578 25.127381,16.2390143 25.2112391,16.2840994 C25.2485745,16.3050506 25.2755791,16.3400287 25.2860122,16.3809504 C25.2964453,16.4218722 25.2894042,16.4651963 25.2665159,16.500911 C24.2977854,18.9179071 22.628776,21.0040138 20.4653309,22.5019462 L24.1214965,22.5019462 C26.0674124,22.5718947 27.9252498,21.7043976 29.0964086,20.1789648 L29.0648219,20.2176812 Z M27.1617205,10.7786335 C26.7351184,10.3630504 26.6063198,9.73616664 26.8355327,9.19102523 C27.0647457,8.64588383 27.6066911,8.29017286 28.2080314,8.29017286 C28.8093718,8.29017286 29.3513172,8.64588383 29.5805302,9.19102523 C29.8097431,9.73616664 29.6809444,10.3630504 29.2543423,10.7786335 C28.9772389,11.0514708 28.6007214,11.2048435 28.2080314,11.2048435 C27.8153414,11.2048435 27.438824,11.0514708 27.1617205,10.7786335 Z" id="Shape"></path>
                            <path d="M23.5944824,18.1513458 C23.5106243,18.1062607 23.4056495,18.1295042 23.3496852,18.2055487 C19.5671726,22.1236439 16.5119703,21.7519669 13.6849567,21.7519669 L9.12492258,21.3301367 C9.05864679,21.3243904 9.00029791,21.284986 8.97119141,21.2263184 C8.9420849,21.1676507 8.94648422,21.0983132 8.98278224,21.0436356 C11.8104297,17.2550536 14.6232587,14.0454731 18.2498779,10.9803467 L11.055997,16.8729761 C10.4598652,17.388926 10.4209743,17.8365171 9.62606017,17.8183851 L0.568561388,17.8183851 C0.307970752,17.8183851 0.394834297,18.0274534 0.442214413,18.1513458 C1.1658825,20.3993309 3.34805644,21.8831659 5.74878737,21.7597101 L3.62457885,23.2759461 C3.57175046,23.3247083 3.55538748,23.4005269 3.58354165,23.466094 C3.61169581,23.5316611 3.67843778,23.573168 3.75092583,23.5701904 L11.8292356,23.5701904 C16.7907715,23.5701904 20.1882324,22.5817871 23.0180243,19.0805383 C23.2154415,18.7708075 23.4128586,18.4688199 23.5944824,18.1513458 Z M21.0999449,26.9322153 L23.6505744,33.9011594 L25.4905022,33.9011594 L22.8135257,26.5682816 C22.2382057,26.7094015 21.6556673,26.8205441 21.0683581,26.9012422 L21.0999449,26.9322153 Z M23.1214965,23.5096894 L19.4416408,23.5096894 C18.6381536,24.0010185 17.7830063,24.4060069 16.8910112,24.7176398 C16.8445168,24.7376255 16.8086746,24.77578 16.7921717,24.8228557 C16.7756689,24.8699314 16.7800117,24.9216311 16.8041477,24.9654244 L20.065479,33.9243892 L21.9369936,33.9243892 L18.9362529,25.7087785 C20.8867343,25.7087785 25.5378824,25.1977226 28.0648219,21.2099379 C26.8936631,22.7353707 25.0358256,23.6028678 23.0899097,23.5329193 L23.1214965,23.5096894 Z M36.1933526,8.30078675 L33.192612,8.30078675 L32.4661169,9.1757764 C32.3397699,9.29966874 32.3792533,9.42356108 32.513497,9.4700207 L33.492686,9.88815735 L36.2565261,8.63374741 C36.3413637,8.60863639 36.3933285,8.5249353 36.3771195,8.43950454 C36.3609106,8.35407378 36.2817236,8.29429897 36.1933526,8.30078675 Z" id="Shape"></path>
                            <path d="M151.968842,26.2496894 C151.917916,27.9577287 150.506613,29.3247497 148.764239,29.3537428 C147.021866,29.3827359 145.564074,28.0634567 145.454076,26.3580952 C145.378259,25.1826587 145.96747,24.0614959 146.987691,23.4399036 C148.007912,22.8183112 149.293993,22.7969109 150.335135,23.3842021 C151.376277,23.9714933 152.003943,25.0724072 151.968842,26.2496894 Z" id="Shape"></path>
                            <path d="M148.731201,18.8548654 C147.005305,18.7894244 145.635685,17.4070536 145.618815,15.7135045 C145.601944,14.0199554 146.943765,12.6116137 148.668027,12.5131263 C149.860122,12.4450355 150.993661,13.0258998 151.617307,14.0244372 C152.240952,15.0229747 152.253445,16.2770578 151.64981,17.2873504 C151.046176,18.2976431 149.924424,18.900109 148.731201,18.8548654 Z" id="Shape"></path>
                            <path d="M178.359566,19.4278675 C178.359566,27.5737888 172.405465,32.9398758 163.956011,32.9398758 L155.206483,32.9398758 L155.206483,5.91585921 L163.892838,5.91585921 C172.152771,5.91585921 178.359566,10.9954451 178.359566,19.4278675 Z M161.271138,11.7697723 L161.271138,27.0704762 L164.429812,27.0704762 C169.167824,27.0704762 172.326498,24.1512629 172.326498,19.4665839 C172.326498,15.0374327 168.946717,11.7233126 164.903614,11.7233126 L161.231655,11.7233126 L161.271138,11.7697723 Z" id="Shape"></path>
                            <path d="M185.21389,5.57515528 C187.010712,5.57515528 188.467324,7.00346889 188.467324,8.76538302 C188.467324,10.5272972 187.010712,11.9556108 185.21389,11.9556108 C183.417067,11.9556108 181.960455,10.5272972 181.960455,8.76538302 C181.960455,7.00346889 183.417067,5.57515528 185.21389,5.57515528 Z M188.230424,13.3184265 L188.230424,32.947619 L182.236839,32.947619 L182.236839,13.3184265 L188.230424,13.3184265 Z" id="Shape"></path>
                            <path d="M198.282905,13.3184265 L198.543496,16.0208282 C199.759585,14.5418634 201.962761,12.7763975 204.647634,12.7763975 L204.647634,18.6535404 C201.852207,18.6535404 199.467408,19.6601656 198.543496,21.8592547 L198.543496,32.947619 L192.549911,32.947619 L192.549911,13.3184265 L198.282905,13.3184265 Z" id="Shape"></path>
                            <path d="M225.400125,23.1446377 L225.400125,25.0185093 L211.359817,25.0185093 C211.956746,27.0401537 213.865069,28.4157913 216.010965,28.3713458 C217.671876,28.5043581 219.305343,27.8955288 220.456799,26.7142857 L224.539386,29.8115942 C222.300177,32.0841948 219.23307,33.3930231 216.010965,33.4509317 C209.322472,33.4509317 206.053244,27.9764389 206.053244,23.1446377 C206.053244,18.1734576 209.914723,12.7299379 216.010965,12.7299379 C222.328314,12.760911 225.400125,18.8548654 225.400125,23.1446377 Z M211.580924,20.5506418 L220.069862,20.5506418 C219.504358,18.802432 217.88007,17.5908405 216.010965,17.5230228 C214.025366,17.4975756 212.243805,18.7151465 211.580924,20.5506418 Z" id="Shape"></path>
                            <path d="M246.500069,29.2308489 C243.833,32.8485477 239.106376,34.3899008 234.760978,33.0589687 C230.41558,31.7280365 227.423958,27.8226967 227.330956,23.3596279 C227.237953,18.8965591 230.064385,14.874646 234.35071,13.3707647 C238.637035,11.8668834 243.423925,13.2176193 246.239479,16.7254658 L241.864715,19.9698965 C240.566399,18.2826975 238.294274,17.6285705 236.271862,18.3597574 C234.249449,19.0909444 232.954202,21.0348258 233.0836,23.1446377 C233.025192,25.3007809 234.42898,27.2345721 236.525768,27.8864035 C238.622555,28.5382348 240.906164,27.7507496 242.125305,25.9554451 L246.500069,29.2308489 Z" id="Shape"></path>
                            <path d="M256.015576,8.80409938 L256.015576,13.3184265 L261.235285,13.3184265 L261.235285,18.7929193 L256.015576,18.7929193 L256.015576,27.1091925 C256.015576,27.8293168 256.1972,28.26294 256.639414,28.26294 C257.302736,28.26294 258.218751,26.9620704 258.510929,26.5361905 L262.735656,29.633499 C260.643034,32.2662112 259.024213,33.5051346 256.631518,33.5051346 C253.36229,33.5051346 250.014095,31.4531677 250.014095,27.4498965 L250.014095,18.785176 L247.597709,18.785176 L247.597709,13.3184265 L250.021991,13.3184265 L250.021991,8.80409938 L256.015576,8.80409938 Z" id="Shape"></path>
                        </g>
                    </g>
                </g>
            </g>
        </g>
    </g>
</svg>