<?xml version="1.0" encoding="UTF-8" standalone="no"?>
<svg width="615px" height="64px" viewBox="0 0 615 64" version="1.1" xmlns="http://www.w3.org/2000/svg" xmlns:xlink="http://www.w3.org/1999/xlink">
    <!-- Generator: Sketch 48.2 (47327) - http://www.bohemiancoding.com/sketch -->
    <title>other works</title>
    <desc>Created with Sketch.</desc>
    <defs></defs>
    <g id="portfolio---ADI" stroke="none" stroke-width="1" fill="none" fill-rule="evenodd" transform="translate(-418.000000, -2638.000000)">
        <g id="zone-2" transform="translate(0.000000, 812.000000)" fill="#CACBCC">
            <g id="UI" transform="translate(250.000000, 1826.000000)">
                <path d="M223.225586,31.5820312 C223.162435,32.3398475 223.225585,33.0660773 223.415039,33.7607422 C223.604493,34.4554071 223.841307,35.134274 224.125488,35.7973633 C224.409669,36.4604525 224.678059,37.1393194 224.930664,37.8339844 C225.183269,38.5286493 225.372721,39.2233038 225.499023,39.9179688 C225.625326,40.8020878 225.625326,41.7651315 225.499023,42.8071289 C225.372721,43.8491263 225.151694,44.8595329 224.835938,45.8383789 C224.520181,46.8172249 224.109703,47.7013307 223.604492,48.4907227 C223.099281,49.2801146 222.499352,49.8642559 221.804688,50.2431641 C220.920568,51.3798885 219.847012,52.2639942 218.583984,52.8955078 C217.320957,53.5270214 216.152675,54.2848263 215.079102,55.1689453 C214.384437,55.6110048 213.610844,55.9267569 212.758301,56.1162109 C211.905757,56.305665 211.037439,56.4951162 210.15332,56.6845703 C209.458655,57.0634785 208.6377,57.4581685 207.69043,57.8686523 C206.743159,58.2791362 205.764328,58.6580386 204.753906,59.0053711 C203.743485,59.3527036 202.733078,59.6053052 201.722656,59.7631836 C200.712235,59.921062 199.828129,59.9684248 199.070312,59.9052734 C197.175772,60.5999384 195.328622,61.0577788 193.528809,61.2788086 C191.728995,61.4998383 189.629244,61.3577499 187.229492,60.8525391 C184.956043,61.1682958 182.856292,61.0735702 180.930176,60.5683594 C179.004059,60.0631485 177.298998,59.2579808 175.814941,58.152832 C174.330885,57.0476833 173.036301,55.7215247 171.931152,54.1743164 C170.826004,52.6271081 169.92611,51.0009851 169.231445,49.2958984 C168.726234,45.6962711 168.852535,42.4282373 169.610352,39.4916992 C170.368168,36.5551611 171.457512,33.8396935 172.878418,31.3452148 C174.299324,28.8507362 175.925447,26.5457463 177.756836,24.4301758 C179.588225,22.3146053 181.356437,20.2464294 183.061523,18.2255859 C183.440432,18.3518887 183.740396,18.336101 183.961426,18.1782227 C184.182456,18.0203443 184.387694,17.7993178 184.577148,17.5151367 C184.766603,17.2309556 184.971841,16.9625664 185.192871,16.7099609 C185.413901,16.4573555 185.68229,16.2994795 185.998047,16.2363281 C186.440106,15.2890578 187.087398,14.5786156 187.939941,14.1049805 C188.792485,13.6313453 189.471352,12.9524784 189.976562,12.0683594 C190.544925,11.9420567 191.018553,11.7526054 191.397461,11.5 C191.776369,11.2473946 192.139484,10.9632177 192.486816,10.6474609 C192.834149,10.3317042 193.197264,10.0317397 193.576172,9.74755859 C193.95508,9.46337749 194.397133,9.25813865 194.902344,9.13183594 L194.902344,8.08984375 C196.039068,7.58463289 196.875811,7.0004916 197.412598,6.33740234 C197.949384,5.67431309 198.596676,4.86914536 199.354492,3.921875 C199.922854,3.85872364 200.380695,3.82714844 200.728027,3.82714844 C201.07536,3.82714844 201.596351,3.76399803 202.291016,3.63769531 C202.796226,2.75357631 203.254067,2.090497 203.664551,1.6484375 C204.075035,1.206378 204.690751,0.732749922 205.511719,0.227539062 C206.269535,0.606447207 207.106278,0.859048848 208.021973,0.985351562 C208.937667,1.11165428 209.742835,1.52213194 210.4375,2.21679688 C210.500651,2.84831045 210.690103,3.33772613 211.005859,3.68505859 C211.321616,4.03239106 211.668943,4.34814311 212.047852,4.63232422 C212.42676,4.91650533 212.789875,5.21646978 213.137207,5.53222656 C213.484539,5.84798335 213.721354,6.29003622 213.847656,6.85839844 C214.100262,6.92154979 214.273925,6.88997459 214.368652,6.76367188 C214.463379,6.63736916 214.637043,6.60579396 214.889648,6.66894531 C215.079103,7.55306432 215.300129,8.13720561 215.552734,8.42138672 C215.80534,8.70556783 216.057941,9.25813392 216.310547,10.0791016 C215.99479,10.7106151 215.757976,11.3579068 215.600098,12.0209961 C215.442219,12.6840853 215.047529,13.173501 214.416016,13.4892578 C214.352864,13.9313173 214.479165,14.1681314 214.794922,14.199707 C215.110679,14.2312827 215.30013,14.4049463 215.363281,14.7207031 C215.426433,15.2890653 215.331707,15.699543 215.079102,15.9521484 C216.594734,18.4150514 217.952468,21.0200058 219.152344,23.7670898 C220.35222,26.5141739 221.709953,29.1191283 223.225586,31.5820312 Z M211.384766,40.5810547 C211.637371,39.8863898 211.968911,39.3180361 212.379395,38.8759766 C212.789878,38.4339171 213.026692,37.7708378 213.089844,36.8867188 C212.774087,36.3815079 212.584636,35.9868178 212.521484,35.7026367 C212.458333,35.4184556 212.426758,34.9606151 212.426758,34.3291016 C211.037428,32.3714095 209.83757,30.2716583 208.827148,28.0297852 C207.816727,25.787912 206.680019,23.6881608 205.416992,21.7304687 C205.290689,21.9830742 205.069663,22.2356758 204.753906,22.4882812 C204.438149,22.7408867 204.090822,22.6777363 203.711914,22.2988281 C203.585611,22.804039 203.364585,23.1671538 203.048828,23.3881836 C202.733071,23.6092133 202.385744,23.703939 202.006836,23.6723633 C201.627928,23.6407876 201.233238,23.546062 200.822754,23.3881836 C200.41227,23.2303052 200.049155,23.0250664 199.733398,22.7724609 C197.902009,24.2249422 196.070647,25.6458264 194.239258,27.0351562 C192.407868,28.4244861 190.765958,30.0348216 189.313477,31.8662109 C189.060871,31.9925137 188.902995,32.0398765 188.839844,32.0083008 C188.776692,31.9767251 188.587241,32.0240879 188.271484,32.1503906 C187.766274,33.3502664 187.150557,34.439611 186.424316,35.418457 C185.698076,36.3973031 184.987634,37.391922 184.292969,38.4023438 C183.598304,39.4127655 182.998375,40.4863224 182.493164,41.6230469 C181.987953,42.7597713 181.703776,44.0859299 181.640625,45.6015625 C182.714198,46.4856815 183.977206,47.02246 185.429688,47.2119141 C186.882169,47.4013681 188.381991,47.4329433 189.929199,47.3066406 C191.476407,47.1803379 192.992017,46.9750991 194.476074,46.690918 C195.960131,46.4067369 197.333653,46.2646484 198.59668,46.2646484 C201.249037,45.6331349 203.522451,44.7963919 205.416992,43.7543945 C207.311533,42.7123971 209.300771,41.6546278 211.384766,40.5810547 Z M282.90332,14.4365234 C281.324536,14.4365234 279.619475,14.5470367 277.788086,14.7680664 C275.956697,14.9890962 274.15691,15.2259102 272.388672,15.4785156 C271.125645,15.6679697 269.909999,15.8258457 268.741699,15.9521484 C267.573399,16.0784512 266.51563,16.1731768 265.568359,16.2363281 C265.1263,17.625658 264.684247,18.857091 264.242188,19.9306641 C263.800128,21.0042371 263.3265,22.0462189 262.821289,23.0566406 C262.316078,24.1302137 261.858238,25.2195583 261.447754,26.324707 C261.03727,27.4298558 260.64258,28.613926 260.263672,29.8769531 C259.632158,30.8873748 259.111167,31.8188434 258.700684,32.6713867 C258.2902,33.52393 257.95866,34.4869738 257.706055,35.5605469 C256.948238,36.5078172 256.379885,37.5024362 256.000977,38.5444336 C255.622068,39.586431 255.337892,40.4863243 255.148438,41.2441406 L254.769531,42.3808594 C254.390623,42.7597675 254.169597,43.059732 254.106445,43.2807617 C254.043294,43.5017915 253.885418,43.7070303 253.632812,43.8964844 C253.569661,44.5911493 253.348635,45.2858038 252.969727,45.9804688 C252.843424,46.2962255 252.748698,46.59619 252.685547,46.8803711 C252.622396,47.1645522 252.59082,47.369791 252.59082,47.4960938 C252.59082,48.1276073 252.432944,48.538085 252.117188,48.7275391 C252.180339,49.0432958 252.180339,49.3748355 252.117188,49.722168 C252.054036,50.0695004 251.990886,50.4010401 251.927734,50.7167969 C251.73828,51.4746132 251.67513,52.0745421 251.738281,52.5166016 C251.927735,52.769207 252.101399,52.9902334 252.259277,53.1796875 C252.417156,53.3691416 252.527669,53.6217432 252.59082,53.9375 C252.969728,54.1901054 253.253905,54.3479815 253.443359,54.4111328 C253.695965,54.6005869 254.074867,54.8216133 254.580078,55.0742188 L255.432617,56.0214844 C255.748374,57.8528737 255.464197,59.3053332 254.580078,60.3789062 C253.632808,61.578782 252.022472,62.1787109 249.749023,62.1787109 L248.612305,62.1787109 C248.296548,61.8629542 248.107097,61.6103525 248.043945,61.4208984 C247.538734,61.2314444 247.128257,61.0735683 246.8125,60.9472656 C246.496743,60.8209629 246.212566,60.5683613 245.959961,60.1894531 C245.138993,59.810545 244.475914,59.4947929 243.970703,59.2421875 L243.118164,58.7685547 L243.118164,57.6318359 C242.676105,57.0634737 242.344565,56.4319696 242.123535,55.7373047 C241.902505,55.0426398 241.728842,54.3479852 241.602539,53.6533203 C241.476236,53.0849581 241.334148,52.5481796 241.17627,52.0429688 C241.018391,51.5377579 240.813152,51.095705 240.560547,50.7167969 C240.434244,47.0540181 240.781571,43.959648 241.602539,41.4335938 C242.423507,38.9075395 243.276037,36.4762487 244.160156,34.1396484 C244.665367,32.8766213 245.17057,31.5978255 245.675781,30.3032227 C246.180992,29.0086198 246.623045,27.6666736 247.001953,26.2773438 L247.854492,25.3300781 C248.296552,24.3196564 248.659667,23.4829135 248.943848,22.8198242 C249.228029,22.156735 249.527993,21.4778681 249.84375,20.7832031 C250.033204,20.3411436 250.206868,19.9148784 250.364746,19.5043945 C250.522624,19.0939107 250.664713,18.7307958 250.791016,18.4150391 C250.412107,18.4150391 250.06478,18.4308267 249.749023,18.4624023 C249.433267,18.493978 249.117515,18.5413408 248.801758,18.6044922 C248.42285,18.6676435 248.075522,18.7150064 247.759766,18.746582 C247.444009,18.7781577 247.128257,18.7939453 246.8125,18.7939453 C246.37044,18.7939453 246.054688,18.7623701 245.865234,18.6992188 C245.170569,19.0149755 244.412765,19.1728516 243.591797,19.1728516 L242.644531,19.1728516 C242.455077,19.1728516 242.281414,19.157064 242.123535,19.1254883 C241.965657,19.0939126 241.823568,19.078125 241.697266,19.078125 C241.065752,19.078125 240.560549,19.1728506 240.181641,19.3623047 L237.055664,19.3623047 C236.929361,19.3623047 236.771485,19.3780923 236.582031,19.409668 C236.392577,19.4412436 236.234701,19.4570312 236.108398,19.4570312 C235.666339,19.4570312 235.192711,19.4096684 234.6875,19.3149414 C234.182289,19.2202144 233.645511,19.0149755 233.077148,18.6992188 C232.319332,17.688797 231.814129,17.1520185 231.561523,17.0888672 L230.708984,15.9521484 C230.645833,15.5732403 230.551107,15.2101254 230.424805,14.862793 C230.298502,14.5154605 230.172201,14.1207704 230.045898,13.6787109 C229.793293,13.0471974 229.556479,12.3683305 229.335449,11.6420898 C229.114419,10.9158492 229.003906,10.0475311 229.003906,9.03710938 C229.067058,8.53189852 229.193358,8.15299605 229.382812,7.90039062 C229.572267,7.6477852 229.730143,7.42675876 229.856445,7.23730469 L230.140625,5.81640625 L231.37207,5.91113281 L234.024414,5.91113281 C236.045257,5.91113281 238.097646,5.8321948 240.181641,5.67431641 C242.265635,5.51643801 244.412749,5.34277438 246.623047,5.15332031 C247.886074,5.0270176 249.16487,4.90071678 250.459473,4.77441406 C251.754075,4.64811135 253.096022,4.52181053 254.485352,4.39550781 C254.737957,3.8271456 254.990559,3.29036711 255.243164,2.78515625 L256.19043,2.31152344 C257.327154,2.24837208 258.132322,2.3904605 258.605957,2.73779297 C259.079592,3.08512543 259.474282,3.41666509 259.790039,3.73242188 C261.179369,3.60611916 262.584466,3.46403074 264.005371,3.30615234 C265.426277,3.14827395 266.862948,2.94303512 268.31543,2.69042969 C270.462576,2.3746729 272.625477,2.09049605 274.804199,1.83789062 C276.982921,1.5852852 279.082672,1.45898438 281.103516,1.45898438 C281.987635,1.45898438 282.840165,1.49055958 283.661133,1.55371094 C284.4821,1.61686229 285.239905,1.71158791 285.93457,1.83789062 L286.881836,2.50097656 C287.07129,2.87988471 287.339679,3.22721196 287.687012,3.54296875 C288.034344,3.85872554 288.397459,4.17447759 288.776367,4.49023438 C289.534183,5.18489931 290.291988,6.00585464 291.049805,6.953125 C291.807621,7.90039536 292.091798,9.28970438 291.902344,11.1210938 C291.397133,11.87891 291.01823,12.3209629 290.765625,12.4472656 L289.913086,13.5839844 L288.96582,13.4892578 C288.586912,13.4892578 288.239585,13.5366206 287.923828,13.6313477 C287.608071,13.7260747 287.292319,13.8365879 286.976562,13.9628906 C286.723957,14.0891933 286.471355,14.1997066 286.21875,14.2944336 C285.966145,14.3891606 285.681968,14.4680986 285.366211,14.53125 C284.797849,14.53125 284.340008,14.5154624 283.992676,14.4838867 C283.645343,14.452311 283.282228,14.4365234 282.90332,14.4365234 Z M324.014648,50.8115234 C324.140951,52.4534587 323.9515,53.8111925 323.446289,54.8847656 C322.941078,55.9583387 322.246424,56.8740196 321.362305,57.6318359 C320.478186,58.3896522 319.467779,58.9895811 318.331055,59.4316406 C317.19433,59.8737001 316.089198,60.2841778 315.015625,60.6630859 C314.510414,60.3473292 314.020998,60.0157895 313.547363,59.668457 C313.073728,59.3211246 312.521162,59.0527353 311.889648,58.8632812 C311.068681,57.3476487 310.279301,56.0057025 309.521484,54.8374023 C308.763668,53.6691022 308.416341,52.327156 308.479492,50.8115234 C308.479492,50.7483721 308.526855,50.4010448 308.621582,49.7695312 C308.716309,49.1380177 308.84261,48.4433632 309.000488,47.6855469 C309.158367,46.9277306 309.284667,46.2172885 309.379395,45.5541992 C309.474122,44.89111 309.521484,44.5279951 309.521484,44.4648438 C308.069003,44.5911465 306.553393,44.9068985 304.974609,45.4121094 C303.395825,45.9173202 301.864428,46.5172491 300.380371,47.2119141 C298.896314,47.906579 297.507005,48.6012335 296.212402,49.2958984 C294.9178,49.9905634 293.86003,50.5904923 293.039062,51.0957031 C293.039062,51.2851572 292.912762,51.7429977 292.660156,52.4692383 C292.407551,53.1954789 292.091799,53.9532838 291.712891,54.7426758 C291.333982,55.5320677 290.923505,56.2425099 290.481445,56.8740234 C290.039386,57.505537 289.597333,57.8212891 289.155273,57.8212891 C289.218425,58.0107431 289.31315,58.2001944 289.439453,58.3896484 C289.565756,58.5791025 289.565756,58.8317042 289.439453,59.1474609 C288.555334,59.4000664 287.765954,59.731606 287.071289,60.1420898 C286.376624,60.5525737 285.650394,60.8999009 284.892578,61.184082 C284.134762,61.4682631 283.313807,61.6103516 282.429688,61.6103516 C281.545568,61.6103516 280.503587,61.2945995 279.303711,60.6630859 C279.303711,60.2841778 279.145835,59.9526381 278.830078,59.668457 C278.514321,59.3842759 278.182782,59.1316743 277.835449,58.9106445 C277.488117,58.6896148 277.188152,58.5001635 276.935547,58.3422852 C276.682941,58.1844068 276.556641,58.0423183 276.556641,57.9160156 C276.240884,57.979167 276.114583,57.7581405 276.177734,57.2529297 C276.240886,56.7477188 276.493487,56.621418 276.935547,56.8740234 C276.240882,55.9899044 275.814617,55.2163119 275.656738,54.5532227 C275.49886,53.8901334 275.135745,53.0533905 274.567383,52.0429688 C274.693686,51.916666 274.804199,51.6956396 274.898926,51.3798828 C274.993653,51.064126 275.072591,50.7799492 275.135742,50.5273438 C275.198894,50.2747383 275.293619,50.0852871 275.419922,49.9589844 C275.546225,49.8326817 275.704101,49.8642569 275.893555,50.0537109 C275.767252,49.4853487 275.767252,49.0117206 275.893555,48.6328125 C276.019857,48.2539044 276.146158,47.9065771 276.272461,47.5908203 C276.398764,47.2750635 276.493489,46.9593115 276.556641,46.6435547 C276.619792,46.3277979 276.525066,45.9804706 276.272461,45.6015625 C277.282883,44.2122326 277.945962,42.7124104 278.261719,41.1020508 C278.577476,39.4916912 278.766927,38.0234441 278.830078,36.6972656 C279.272138,36.2552061 279.666828,35.623702 280.01416,34.8027344 C280.361493,33.9817667 280.629882,33.1450238 280.819336,32.2924805 C281.00879,31.4399371 281.087728,30.6189818 281.056152,29.8295898 C281.024577,29.0401979 280.914063,28.3929062 280.724609,27.8876953 C280.787761,27.5719385 281.135088,27.4772129 281.766602,27.6035156 C282.14551,25.5195208 281.760651,21.9527274 282.571777,20.5463867 C289.155273,9.13183594 288.567383,16.4731445 291.077637,12.4472656 C293.587891,8.42138672 294.44417,11.4999953 295.17041,12.4472656 C295.896651,13.394536 296.575518,14.468093 297.207031,15.6679688 C297.14388,16.8678445 297.017579,18.2571536 296.828125,19.8359375 C296.638671,21.4147214 296.401857,23.0250569 296.117676,24.6669922 C295.833495,26.3089275 295.549318,27.8876877 295.265137,29.4033203 C294.980956,30.9189529 294.712566,32.2135363 294.459961,33.2871094 C294.523112,33.6028662 294.696776,33.7923174 294.980957,33.8554688 C295.265138,33.9186201 295.312501,34.202797 295.123047,34.7080078 C296.638679,34.3290997 298.21744,33.9817724 299.859375,33.6660156 C301.50131,33.3502588 303.143221,33.0029316 304.785156,32.6240234 C306.427092,32.2451153 308.021639,31.81885 309.568848,31.3452148 C311.116056,30.8715797 312.552728,30.2874384 313.878906,29.5927734 C314.194663,27.1298705 314.605141,24.6670045 315.110352,22.2041016 C315.615562,19.7411986 315.678713,17.2151822 315.299805,14.6259766 C315.615561,14.3733711 315.868163,14.0576191 316.057617,13.6787109 C316.247071,13.2998028 316.562823,13.0472012 317.004883,12.9208984 C316.689126,11.7210226 316.562825,10.4580144 316.625977,9.13183594 C316.689128,7.80565743 316.925942,6.54264923 317.336426,5.34277344 C317.74691,4.14289765 318.346839,3.11670348 319.13623,2.26416016 C319.925622,1.41161683 320.888666,0.859050742 322.025391,0.606445312 C322.720056,1.61686703 323.319984,2.70621161 323.825195,3.87451172 C324.330406,5.04281183 324.851397,6.21109442 325.388184,7.37939453 C325.92497,8.54769464 326.493324,9.65282682 327.093262,10.6948242 C327.6932,11.7368216 328.466792,12.636715 329.414062,13.3945312 C329.603517,15.2259206 329.745605,17.1204329 329.840332,19.078125 C329.935059,21.0358171 330.013997,23.025055 330.077148,25.0458984 C329.571938,27.44565 329.019371,29.7664276 328.419434,32.0083008 C327.819496,34.250174 327.39323,36.634102 327.140625,39.1601562 C326.698565,39.6653671 326.351238,40.2337208 326.098633,40.8652344 C325.846027,41.4967479 325.593426,42.1440397 325.34082,42.8071289 C325.088215,43.4702182 324.804038,44.1017223 324.488281,44.7016602 C324.172524,45.3015981 323.793622,45.8225889 323.351562,46.2646484 C323.604168,47.0224647 323.651531,47.7329068 323.493652,48.3959961 C323.335774,49.0590853 323.509438,49.8642531 324.014648,50.8115234 Z M384.829102,6.66894531 C384.892253,7.11100481 384.908041,7.44254447 384.876465,7.66357422 C384.844889,7.88460397 384.813314,8.0898428 384.781738,8.27929688 C384.750163,8.46875095 384.734375,8.67398978 384.734375,8.89501953 C384.734375,9.11604928 384.797525,9.44758894 384.923828,9.88964844 C383.59765,12.0367946 382.066252,13.5050416 380.32959,14.2944336 C378.592928,15.0838256 376.714203,15.6521793 374.693359,15.9995117 C372.672516,16.3468442 370.60434,16.709959 368.48877,17.0888672 C366.373199,17.4677753 364.273448,18.2887307 362.189453,19.5517578 C361.368485,19.236001 360.626468,19.236001 359.963379,19.5517578 C359.30029,19.8675146 358.337246,19.9622402 357.074219,19.8359375 C356.695311,20.2148456 356.221683,20.4832349 355.65332,20.6411133 C355.084958,20.7989917 354.516604,20.9726553 353.948242,21.1621094 C354.200848,21.7304716 354.311361,22.3146129 354.279785,22.9145508 C354.248209,23.5144887 354.327147,24.0039044 354.516602,24.3828125 C356.726899,24.5722666 359.173977,24.5406914 361.85791,24.2880859 C364.541843,24.0354805 367.178372,23.8776045 369.767578,23.8144531 C369.830729,24.1302099 369.799154,24.3354487 369.672852,24.4301758 C369.546549,24.5249028 369.514974,24.6985664 369.578125,24.9511719 C370.020185,25.2669287 370.462237,25.6616187 370.904297,26.1352539 C371.346356,26.6088891 371.788409,27.0667296 372.230469,27.5087891 C372.672528,27.9508486 373.130369,28.3139634 373.604004,28.5981445 C374.077639,28.8823256 374.630205,28.9928389 375.261719,28.9296875 C375.514324,29.4348984 375.687988,29.9874644 375.782715,30.5874023 C375.877442,31.1873402 375.798504,31.8030567 375.545898,32.4345703 C374.535477,33.1292352 373.52507,33.8396774 372.514648,34.565918 C371.504227,35.2921586 370.446457,35.9394503 369.341309,36.5078125 C368.23616,37.0761747 367.067877,37.5340152 365.836426,37.8813477 C364.604974,38.2286801 363.231453,38.3707685 361.71582,38.3076172 L361.005371,38.3076172 C360.847493,38.3076172 360.642254,38.2128916 360.389648,38.0234375 C359.884438,38.3391943 359.173995,38.4339199 358.258301,38.3076172 C357.342606,38.1813145 356.632164,38.2760401 356.126953,38.5917969 C355.432288,38.2760401 354.595545,38.1339517 353.616699,38.1655273 C352.637853,38.197103 351.769535,38.0865898 351.011719,37.8339844 C350.001297,39.1601629 349.085616,40.5810471 348.264648,42.0966797 C347.443681,43.6123123 346.717451,45.2226477 346.085938,46.9277344 C348.233084,47.2434912 350.017083,47.369792 351.437988,47.3066406 C352.858894,47.2434893 354.20084,47.132976 355.463867,46.9750977 C356.726894,46.8172193 358.021478,46.6593432 359.347656,46.5014648 C360.673835,46.3435865 362.347321,46.2962236 364.368164,46.359375 C365.631191,45.6647101 367.131013,45.2068696 368.867676,44.9858398 C370.604338,44.7648101 372.198886,44.4016952 373.651367,43.8964844 C374.156578,44.0859384 374.598631,44.4174781 374.977539,44.8911133 C375.356447,45.3647485 375.719562,45.8068013 376.066895,46.2172852 C376.414227,46.627769 376.777342,46.9908838 377.15625,47.3066406 C377.535158,47.6223974 378.008786,47.7486982 378.577148,47.6855469 C378.829754,47.9381523 379.003417,48.2381168 379.098145,48.5854492 C379.192872,48.9327817 379.27181,49.2643213 379.334961,49.5800781 C379.398112,49.8958349 379.508626,50.1642242 379.666504,50.3852539 C379.824382,50.6062837 380.092772,50.6852217 380.47168,50.6220703 C379.524409,52.7060651 378.435065,54.300613 377.203613,55.4057617 C375.972162,56.5109105 374.567065,57.3476534 372.988281,57.9160156 C371.409497,58.4843778 369.657073,58.9264307 367.730957,59.2421875 C365.804841,59.5579443 363.673514,59.9368467 361.336914,60.3789062 C360.768552,60.505209 360.294924,60.4894214 359.916016,60.331543 C359.537107,60.1736646 359.095055,60.0947266 358.589844,60.0947266 C357.137363,60.4104833 355.400726,60.6946602 353.379883,60.9472656 C351.359039,61.1998711 349.306651,61.2945967 347.222656,61.2314453 C345.138661,61.168294 343.149424,60.8999047 341.254883,60.4262695 C339.360342,59.9526344 337.813157,59.1158914 336.613281,57.9160156 C336.10807,57.4739561 335.776531,56.9529652 335.618652,56.3530273 C335.460774,55.7530894 335.034509,55.295249 334.339844,54.9794922 C334.276692,54.1585245 334.150392,53.2428436 333.960938,52.2324219 C333.771483,51.2220002 333.582032,50.1642308 333.392578,49.059082 C333.203124,47.9539333 333.061036,46.8645887 332.966309,45.7910156 C332.871582,44.7174425 332.918944,43.7386112 333.108398,42.8544922 C333.297853,41.9072218 333.692543,41.0546913 334.29248,40.296875 C334.892418,39.5390587 335.097657,38.7181034 334.908203,37.8339844 C335.22396,37.770833 335.413411,37.5971694 335.476562,37.3129883 C335.539714,37.0288072 335.792315,36.918294 336.234375,36.9814453 C336.613283,35.8447209 337.023761,34.7711639 337.46582,33.7607422 C337.90788,32.7503205 338.36572,31.7714891 338.839355,30.8242188 C339.312991,29.8769484 339.786619,28.9139046 340.260254,27.9350586 C340.733889,26.9562126 341.19173,25.866868 341.633789,24.6669922 C340.74967,23.8460245 340.102378,22.9461312 339.691895,21.9672852 C339.281411,20.9884391 338.981446,20.0096078 338.791992,19.0307617 C338.602538,18.0519157 338.444662,17.0415091 338.318359,15.9995117 C338.192057,14.9575143 337.97103,13.899745 337.655273,12.8261719 C338.286787,11.8789015 339.06038,11.105309 339.976074,10.5053711 C340.891769,9.9054332 341.886388,9.41601752 342.959961,9.03710938 C344.033534,8.65820123 345.201817,8.34244918 346.464844,8.08984375 C347.727871,7.83723832 349.05403,7.55306147 350.443359,7.23730469 C352.969414,6.41633704 355.227041,5.78483294 357.216309,5.34277344 C359.205576,4.90071394 361.163239,4.53759908 363.089355,4.25341797 C365.015472,3.96923686 367.020497,3.70084762 369.104492,3.44824219 C371.188487,3.19563676 373.556627,2.8167343 376.208984,2.31152344 C376.777347,2.87988565 377.314125,3.1640625 377.819336,3.1640625 C378.071941,2.59570028 378.371906,2.42203666 378.719238,2.64306641 C379.066571,2.86409616 379.208659,2.69043253 379.145508,2.12207031 C379.777021,3.19564339 380.582189,4.09553673 381.561035,4.82177734 C382.539881,5.54801795 383.629226,6.16373445 384.829102,6.66894531 Z M397.806641,50.1484375 C397.111976,52.6744918 396.496259,54.5847917 395.959473,55.8793945 C395.422686,57.1739974 394.617518,58.5159436 393.543945,59.9052734 C392.722978,59.7789707 392.154624,59.8736963 391.838867,60.1894531 C391.52311,60.5052099 391.175783,60.7893868 390.796875,61.0419922 C390.228513,61.1682949 389.818035,61.1682949 389.56543,61.0419922 C389.312824,60.9156895 389.091798,60.773601 388.902344,60.6157227 C388.71289,60.4578443 388.476076,60.2999682 388.191895,60.1420898 C387.907713,59.9842115 387.481448,59.9052734 386.913086,59.9052734 C386.786783,59.4000626 386.644695,58.9264345 386.486816,58.484375 C386.328938,58.0423155 385.902673,57.8844395 385.208008,58.0107422 C385.334311,57.5055313 385.365886,57.0792661 385.302734,56.7319336 C385.239583,56.3846011 385.160645,56.0688491 385.065918,55.784668 C384.971191,55.5004869 384.892253,55.21631 384.829102,54.9321289 C384.76595,54.6479478 384.797525,54.2848329 384.923828,53.8427734 C384.608071,53.8427734 384.35547,53.621747 384.166016,53.1796875 C383.976562,52.737628 383.755535,52.2955751 383.50293,51.8535156 C383.692384,50.7167912 383.881835,49.6432342 384.071289,48.6328125 C384.260743,47.6223908 384.497557,46.6751346 384.781738,45.7910156 C385.065919,44.9068966 385.302733,44.0227909 385.492188,43.1386719 C385.681642,42.2545529 385.586916,41.3388719 385.208008,40.3916016 C385.460613,40.5810556 385.650064,40.5336928 385.776367,40.2495117 C385.90267,39.9653306 385.997396,39.5864281 386.060547,39.112793 C386.123698,38.6391578 386.155273,38.1655297 386.155273,37.6918945 C386.155273,37.2182594 386.123698,36.8235693 386.060547,36.5078125 C386.69206,34.8658772 387.213051,33.1766037 387.623535,31.4399414 C388.034019,29.7032791 388.412921,27.9824304 388.760254,26.2773438 C389.107586,24.5722571 389.470701,22.8987712 389.849609,21.2568359 C390.228518,19.6149006 390.733721,18.0992908 391.365234,16.7099609 C392.059899,16.5836582 392.833492,16.6625962 393.686035,16.9467773 C394.538578,17.2309585 395.059569,17.5940733 395.249023,18.0361328 C396.890959,16.7731057 398.343418,15.2417082 399.606445,13.4418945 C400.869472,11.6420808 402.164056,9.88965696 403.490234,8.18457031 C404.816413,6.47948366 406.28466,4.96387382 407.89502,3.63769531 C409.505379,2.31151681 411.54198,1.52213668 414.004883,1.26953125 C415.26791,2.21680161 416.673007,3.17984537 418.220215,4.15869141 C419.767423,5.13753745 421.046219,6.41633325 422.056641,7.99511719 C422.561851,8.24772262 422.988117,8.51611186 423.335449,8.80029297 C423.682782,9.08447408 424.109047,9.38443853 424.614258,9.70019531 L424.614258,10.8369141 C425.372074,11.531579 425.987791,12.3367467 426.461426,13.2524414 C426.935061,14.1681361 427.361326,15.1469674 427.740234,16.1889648 L428.876953,19.3149414 C429.255861,20.3569388 429.697914,21.3515578 430.203125,22.2988281 C430.076822,22.6145849 430.013672,22.8829742 430.013672,23.1040039 C430.013672,23.3250337 430.061035,23.5618477 430.155762,23.8144531 C430.250489,24.0670586 430.329427,24.3196602 430.392578,24.5722656 C430.455729,24.8248711 430.455729,25.1721983 430.392578,25.6142578 C430.203124,28.3929175 429.303231,30.6347571 427.692871,32.3398438 C426.082511,34.0449304 424.140636,35.450027 421.867188,36.5551758 C419.593739,37.6603245 417.162448,38.5917931 414.573242,39.3496094 C411.984037,40.1074257 409.647471,40.928381 407.563477,41.8125 C407.563477,42.0651054 407.67399,42.1914062 407.89502,42.1914062 C408.116049,42.1914062 408.194987,42.3492823 408.131836,42.6650391 C409.647469,43.6123094 410.847326,44.3701143 411.731445,44.9384766 C412.615564,45.5068388 413.452307,45.9804669 414.241699,46.359375 C415.031091,46.7382831 415.883622,47.0698228 416.799316,47.3540039 C417.715011,47.638185 418.993807,47.9697247 420.635742,48.3486328 C422.277677,48.727541 423.556473,49.0275054 424.472168,49.2485352 C425.387863,49.4695649 426.224606,49.6590161 426.982422,49.8168945 C427.740238,49.9747729 428.513831,50.1010737 429.303223,50.1958008 C430.092615,50.2905278 431.213534,50.401041 432.666016,50.5273438 C433.234378,51.095706 433.723794,51.7745729 434.134277,52.5639648 C434.544761,53.3533568 434.81315,54.1427369 434.939453,54.9321289 C435.065756,55.7215209 435.097331,56.4793258 435.03418,57.2055664 C434.971028,57.931807 434.750002,58.5159483 434.371094,58.9580078 C434.434245,59.1474619 434.576334,59.2263999 434.797363,59.1948242 C435.018393,59.1632485 435.255207,59.1790361 435.507812,59.2421875 C435.128904,59.4947929 434.813152,59.810545 434.560547,60.1894531 L433.802734,61.3261719 C433.550129,61.70508 433.265952,62.0366197 432.950195,62.3208008 C432.634439,62.6049819 432.192386,62.7786455 431.624023,62.8417969 C429.666331,63.5996132 427.203465,63.646976 424.235352,62.9838867 C421.267238,62.3207975 417.509788,61.1051521 412.962891,59.3369141 C410.689442,58.4527951 408.842292,57.6792025 407.421387,57.0161133 C406.000481,56.353024 404.769048,55.6899447 403.727051,55.0268555 C402.685053,54.3637662 401.737797,53.6533241 400.885254,52.8955078 C400.032711,52.1376915 399.006516,51.2220106 397.806641,50.1484375 Z M411.352539,17.6572266 C410.657874,18.6676483 409.884282,19.5833292 409.031738,20.4042969 C408.179195,21.2252645 407.35824,22.0620075 406.568848,22.9145508 C405.779456,23.7670941 405.069014,24.7143503 404.4375,25.7563477 C403.805986,26.7983451 403.363934,28.0139904 403.111328,29.4033203 C405.321626,29.1507149 407.626616,28.5349984 410.026367,27.5561523 C412.426119,26.5773063 414.699534,25.6458378 416.84668,24.7617188 C416.594074,22.8040267 415.915207,21.2252664 414.810059,20.0253906 C413.70491,18.8255148 412.552415,18.0361347 411.352539,17.6572266 Z M524.266602,61.2314453 C522.056304,60.2210236 520.30388,58.736989 519.009277,56.7792969 C517.714675,54.8216048 516.435879,52.6429156 515.172852,50.2431641 L514.604492,49.1064453 C514.415038,48.7275372 514.225587,48.3802099 514.036133,48.0644531 L512.709961,45.6015625 L511.952148,44.0859375 L510.81543,45.1279297 L509.110352,46.6435547 L508.163086,47.5908203 C506.521151,49.1064529 504.863452,50.6062751 503.189941,52.090332 C501.51643,53.5743889 499.748219,54.9005475 497.885254,56.0688477 C496.022289,57.2371478 494.064626,58.1844039 492.012207,58.9106445 C489.959788,59.6368851 487.733736,60.0315752 485.333984,60.0947266 L483.25,59.0527344 C482.050124,58.4212208 481.039718,57.8528671 480.21875,57.3476562 C479.397782,56.8424454 478.450526,56.0530653 477.376953,54.9794922 C477.061196,54.41113 476.792807,53.8743515 476.571777,53.3691406 C476.350748,52.8639298 476.113934,52.3587265 475.861328,51.8535156 C475.166663,50.5904885 474.59831,49.4537811 474.15625,48.4433594 C473.71419,47.4329377 473.272138,46.2962303 472.830078,45.0332031 C473.019532,44.1490841 473.303709,42.6492619 473.682617,40.5336914 C474.061525,38.4181209 474.519366,36.0973434 475.056152,33.5712891 C475.592939,31.0452348 476.161293,28.5034308 476.76123,25.9458008 C477.361168,23.3881708 477.976885,21.1621188 478.608398,19.2675781 C479.176761,17.6256428 479.824052,15.8890066 480.550293,14.0576172 C481.276534,12.2262278 482.065914,10.5369544 482.918457,8.98974609 C483.771,7.44253784 484.702469,6.11637922 485.712891,5.01123047 C486.723312,3.90608171 487.796869,3.25879001 488.933594,3.06933594 C489.249351,3.51139544 489.596678,3.82714749 489.975586,4.01660156 C490.354494,4.20605563 490.701821,4.36393166 491.017578,4.49023438 C491.901697,5.75326152 492.770015,6.8268185 493.622559,7.7109375 C494.475102,8.5950565 495.469721,9.47916225 496.606445,10.3632812 C496.290689,11.9420652 495.832848,13.6944891 495.23291,15.6206055 C494.632972,17.5467219 494.001468,19.4728094 493.338379,21.3989258 C492.67529,23.3250422 492.027998,25.2037669 491.396484,27.0351562 C490.764971,28.8665456 490.259768,30.4453059 489.880859,31.7714844 C489.501951,32.8450575 489.186199,34.0449152 488.933594,35.3710938 C488.365232,37.707694 487.828453,40.8967897 487.323242,44.9384766 C488.081058,44.7490225 488.902014,44.3385448 489.786133,43.7070312 C490.670252,43.0755177 491.522782,42.4124384 492.34375,41.7177734 C493.29102,40.9599571 494.238277,40.1074266 495.185547,39.1601562 C496.385423,37.9602805 497.395829,36.8551483 498.216797,35.8447266 C499.037765,34.8343048 499.811357,33.7923231 500.537598,32.71875 C501.263838,31.6451769 502.005856,30.4611067 502.763672,29.1665039 C503.521488,27.8719011 504.437169,26.3405036 505.510742,24.5722656 C506.458013,23.056633 507.452632,21.43051 508.494629,19.6938477 C509.536626,17.9571853 510.578608,16.2836995 511.620605,14.6733398 C512.662603,13.0629802 513.688797,11.5947332 514.699219,10.2685547 C515.70964,8.94237618 516.625321,7.90039441 517.446289,7.14257812 C517.9515,7.7740917 518.598792,8.3740206 519.388184,8.94238281 C520.177576,9.51074503 521.014318,9.9527979 521.898438,10.2685547 C522.277346,10.8369169 522.640461,11.3579078 522.987793,11.831543 C523.335125,12.3051781 523.666665,12.7314434 523.982422,13.1103516 C524.36133,13.6787138 524.724445,14.2154923 525.071777,14.7207031 C525.41911,15.225914 525.750649,15.7311173 526.066406,16.2363281 C526.003255,16.6783876 525.908529,17.2467413 525.782227,17.9414062 C525.655924,18.6360712 525.513835,19.3938761 525.355957,20.2148438 C525.198079,21.0358114 525.024415,21.8725543 524.834961,22.7250977 C524.645507,23.577641 524.456056,24.3828087 524.266602,25.140625 L523.129883,30.5400391 C522.877277,31.7399149 522.703614,32.687171 522.608887,33.3818359 C522.51416,34.0765009 522.451009,34.6606422 522.419434,35.1342773 C522.387858,35.6079125 522.37207,36.2552042 522.37207,37.0761719 C522.308919,37.7076854 522.340494,38.3391896 522.466797,38.9707031 C522.529948,39.5390653 522.656249,40.1389942 522.845703,40.7705078 C523.035157,41.4020214 523.287759,41.9703751 523.603516,42.4755859 L527.392578,39.5390625 C528.466151,38.7180949 529.492345,37.5971751 530.471191,36.1762695 C531.450037,34.755364 532.397294,33.1134533 533.312988,31.2504883 C534.228683,29.3875232 535.128576,27.3509225 536.012695,25.140625 C536.896814,22.9303275 537.78092,20.6884879 538.665039,18.4150391 C539.991218,15.0680171 541.333164,11.815771 542.690918,8.65820312 C544.048672,5.50063525 545.359043,3.06934446 546.62207,1.36425781 C548.0114,2.24837682 549.227046,3.14827016 550.269043,4.06396484 C551.31104,4.97965953 552.210934,5.97427849 552.96875,7.04785156 C553.726566,8.12142464 554.342283,9.35285764 554.815918,10.7421875 C555.289553,12.1315174 555.621093,13.773428 555.810547,15.6679688 C554.673822,17.8782663 553.584478,20.151681 552.54248,22.4882812 C551.500483,24.8248815 550.505864,27.1614467 549.558594,29.4980469 C548.295567,32.529312 546.985196,35.5605317 545.627441,38.5917969 C544.269687,41.623062 542.769865,44.5121933 541.12793,47.2592773 C539.485994,50.0063614 537.654632,52.5323778 535.633789,54.8374023 C533.612946,57.1424269 531.27638,59.084302 528.624023,60.6630859 C527.929359,60.4736319 527.32943,60.3789062 526.824219,60.3789062 C525.813797,60.3789062 524.961266,60.6630831 524.266602,61.2314453 Z M606.205078,31.5820312 C606.141927,32.3398475 606.205077,33.0660773 606.394531,33.7607422 C606.583985,34.4554071 606.820799,35.134274 607.10498,35.7973633 C607.389162,36.4604525 607.657551,37.1393194 607.910156,37.8339844 C608.162762,38.5286493 608.352213,39.2233038 608.478516,39.9179688 C608.604818,40.8020878 608.604818,41.7651315 608.478516,42.8071289 C608.352213,43.8491263 608.131186,44.8595329 607.81543,45.8383789 C607.499673,46.8172249 607.089195,47.7013307 606.583984,48.4907227 C606.078774,49.2801146 605.478845,49.8642559 604.78418,50.2431641 C603.900061,51.3798885 602.826504,52.2639942 601.563477,52.8955078 C600.300449,53.5270214 599.132167,54.2848263 598.058594,55.1689453 C597.363929,55.6110048 596.590336,55.9267569 595.737793,56.1162109 C594.88525,56.305665 594.016932,56.4951162 593.132812,56.6845703 C592.438148,57.0634785 591.617192,57.4581685 590.669922,57.8686523 C589.722652,58.2791362 588.74382,58.6580386 587.733398,59.0053711 C586.722977,59.3527036 585.71257,59.6053052 584.702148,59.7631836 C583.691727,59.921062 582.807621,59.9684248 582.049805,59.9052734 C580.155264,60.5999384 578.308114,61.0577788 576.508301,61.2788086 C574.708487,61.4998383 572.608736,61.3577499 570.208984,60.8525391 C567.935536,61.1682958 565.835784,61.0735702 563.909668,60.5683594 C561.983552,60.0631485 560.27849,59.2579808 558.794434,58.152832 C557.310377,57.0476833 556.015793,55.7215247 554.910645,54.1743164 C553.805496,52.6271081 552.905602,51.0009851 552.210938,49.2958984 C551.705727,45.6962711 551.832027,42.4282373 552.589844,39.4916992 C553.34766,36.5551611 554.437005,33.8396935 555.85791,31.3452148 C557.278816,28.8507362 558.904939,26.5457463 560.736328,24.4301758 C562.567717,22.3146053 564.335929,20.2464294 566.041016,18.2255859 C566.419924,18.3518887 566.719888,18.336101 566.940918,18.1782227 C567.161948,18.0203443 567.367187,17.7993178 567.556641,17.5151367 C567.746095,17.2309556 567.951334,16.9625664 568.172363,16.7099609 C568.393393,16.4573555 568.661782,16.2994795 568.977539,16.2363281 C569.419599,15.2890578 570.06689,14.5786156 570.919434,14.1049805 C571.771977,13.6313453 572.450844,12.9524784 572.956055,12.0683594 C573.524417,11.9420567 573.998045,11.7526054 574.376953,11.5 C574.755861,11.2473946 575.118976,10.9632177 575.466309,10.6474609 C575.813641,10.3317042 576.176756,10.0317397 576.555664,9.74755859 C576.934572,9.46337749 577.376625,9.25813865 577.881836,9.13183594 L577.881836,8.08984375 C579.01856,7.58463289 579.855303,7.0004916 580.39209,6.33740234 C580.928876,5.67431309 581.576168,4.86914536 582.333984,3.921875 C582.902347,3.85872364 583.360187,3.82714844 583.70752,3.82714844 C584.054852,3.82714844 584.575843,3.76399803 585.270508,3.63769531 C585.775719,2.75357631 586.233559,2.090497 586.644043,1.6484375 C587.054527,1.206378 587.670243,0.732749922 588.491211,0.227539062 C589.249027,0.606447207 590.08577,0.859048848 591.001465,0.985351562 C591.91716,1.11165428 592.722327,1.52213194 593.416992,2.21679688 C593.480144,2.84831045 593.669595,3.33772613 593.985352,3.68505859 C594.301108,4.03239106 594.648436,4.34814311 595.027344,4.63232422 C595.406252,4.91650533 595.769367,5.21646978 596.116699,5.53222656 C596.464032,5.84798335 596.700846,6.29003622 596.827148,6.85839844 C597.079754,6.92154979 597.253417,6.88997459 597.348145,6.76367188 C597.442872,6.63736916 597.616535,6.60579396 597.869141,6.66894531 C598.058595,7.55306432 598.279621,8.13720561 598.532227,8.42138672 C598.784832,8.70556783 599.037434,9.25813392 599.290039,10.0791016 C598.974282,10.7106151 598.737468,11.3579068 598.57959,12.0209961 C598.421711,12.6840853 598.027021,13.173501 597.395508,13.4892578 C597.332356,13.9313173 597.458657,14.1681314 597.774414,14.199707 C598.090171,14.2312827 598.279622,14.4049463 598.342773,14.7207031 C598.405925,15.2890653 598.311199,15.699543 598.058594,15.9521484 C599.574226,18.4150514 600.93196,21.0200058 602.131836,23.7670898 C603.331712,26.5141739 604.689446,29.1191283 606.205078,31.5820312 Z M594.364258,40.5810547 C594.616863,39.8863898 594.948403,39.3180361 595.358887,38.8759766 C595.769371,38.4339171 596.006185,37.7708378 596.069336,36.8867188 C595.753579,36.3815079 595.564128,35.9868178 595.500977,35.7026367 C595.437825,35.4184556 595.40625,34.9606151 595.40625,34.3291016 C594.01692,32.3714095 592.817062,30.2716583 591.806641,28.0297852 C590.796219,25.787912 589.659512,23.6881608 588.396484,21.7304687 C588.270182,21.9830742 588.049155,22.2356758 587.733398,22.4882812 C587.417642,22.7408867 587.070314,22.6777363 586.691406,22.2988281 C586.565104,22.804039 586.344077,23.1671538 586.02832,23.3881836 C585.712564,23.6092133 585.365236,23.703939 584.986328,23.6723633 C584.60742,23.6407876 584.21273,23.546062 583.802246,23.3881836 C583.391762,23.2303052 583.028647,23.0250664 582.712891,22.7724609 C580.881501,24.2249422 579.050139,25.6458264 577.21875,27.0351562 C575.387361,28.4244861 573.74545,30.0348216 572.292969,31.8662109 C572.040363,31.9925137 571.882487,32.0398765 571.819336,32.0083008 C571.756185,31.9767251 571.566733,32.0240879 571.250977,32.1503906 C570.745766,33.3502664 570.130049,34.439611 569.403809,35.418457 C568.677568,36.3973031 567.967126,37.391922 567.272461,38.4023438 C566.577796,39.4127655 565.977867,40.4863224 565.472656,41.6230469 C564.967445,42.7597713 564.683269,44.0859299 564.620117,45.6015625 C565.69369,46.4856815 566.956698,47.02246 568.40918,47.2119141 C569.861661,47.4013681 571.361483,47.4329433 572.908691,47.3066406 C574.4559,47.1803379 575.97151,46.9750991 577.455566,46.690918 C578.939623,46.4067369 580.313145,46.2646484 581.576172,46.2646484 C584.228529,45.6331349 586.501944,44.7963919 588.396484,43.7543945 C590.291025,42.7123971 592.280263,41.6546278 594.364258,40.5810547 Z M627.234375,50.1484375 C626.53971,52.6744918 625.923994,54.5847917 625.387207,55.8793945 C624.85042,57.1739974 624.045253,58.5159436 622.97168,59.9052734 C622.150712,59.7789707 621.582358,59.8736963 621.266602,60.1894531 C620.950845,60.5052099 620.603518,60.7893868 620.224609,61.0419922 C619.656247,61.1682949 619.245769,61.1682949 618.993164,61.0419922 C618.740559,60.9156895 618.519532,60.773601 618.330078,60.6157227 C618.140624,60.4578443 617.90381,60.2999682 617.619629,60.1420898 C617.335448,59.9842115 616.909183,59.9052734 616.34082,59.9052734 C616.214518,59.4000626 616.072429,58.9264345 615.914551,58.484375 C615.756672,58.0423155 615.330407,57.8844395 614.635742,58.0107422 C614.762045,57.5055313 614.79362,57.0792661 614.730469,56.7319336 C614.667317,56.3846011 614.588379,56.0688491 614.493652,55.784668 C614.398925,55.5004869 614.319987,55.21631 614.256836,54.9321289 C614.193685,54.6479478 614.22526,54.2848329 614.351562,53.8427734 C614.035806,53.8427734 613.783204,53.621747 613.59375,53.1796875 C613.404296,52.737628 613.183269,52.2955751 612.930664,51.8535156 C613.120118,50.7167912 613.309569,49.6432342 613.499023,48.6328125 C613.688478,47.6223908 613.925292,46.6751346 614.209473,45.7910156 C614.493654,44.9068966 614.730468,44.0227909 614.919922,43.1386719 C615.109376,42.2545529 615.01465,41.3388719 614.635742,40.3916016 C614.888348,40.5810556 615.077799,40.5336928 615.204102,40.2495117 C615.330404,39.9653306 615.42513,39.5864281 615.488281,39.112793 C615.551433,38.6391578 615.583008,38.1655297 615.583008,37.6918945 C615.583008,37.2182594 615.551433,36.8235693 615.488281,36.5078125 C616.119795,34.8658772 616.640786,33.1766037 617.05127,31.4399414 C617.461753,29.7032791 617.840656,27.9824304 618.187988,26.2773438 C618.535321,24.5722571 618.898436,22.8987712 619.277344,21.2568359 C619.656252,19.6149006 620.161455,18.0992908 620.792969,16.7099609 C621.487634,16.5836582 622.261226,16.6625962 623.11377,16.9467773 C623.966313,17.2309585 624.487304,17.5940733 624.676758,18.0361328 C626.318693,16.7731057 627.771153,15.2417082 629.03418,13.4418945 C630.297207,11.6420808 631.59179,9.88965696 632.917969,8.18457031 C634.244147,6.47948366 635.712394,4.96387382 637.322754,3.63769531 C638.933114,2.31151681 640.969714,1.52213668 643.432617,1.26953125 C644.695644,2.21680161 646.100741,3.17984537 647.647949,4.15869141 C649.195157,5.13753745 650.473953,6.41633325 651.484375,7.99511719 C651.989586,8.24772262 652.415851,8.51611186 652.763184,8.80029297 C653.110516,9.08447408 653.536781,9.38443853 654.041992,9.70019531 L654.041992,10.8369141 C654.799808,11.531579 655.415525,12.3367467 655.88916,13.2524414 C656.362795,14.1681361 656.789061,15.1469674 657.167969,16.1889648 L658.304688,19.3149414 C658.683596,20.3569388 659.125649,21.3515578 659.630859,22.2988281 C659.504557,22.6145849 659.441406,22.8829742 659.441406,23.1040039 C659.441406,23.3250337 659.488769,23.5618477 659.583496,23.8144531 C659.678223,24.0670586 659.757161,24.3196602 659.820312,24.5722656 C659.883464,24.8248711 659.883464,25.1721983 659.820312,25.6142578 C659.630858,28.3929175 658.730965,30.6347571 657.120605,32.3398438 C655.510246,34.0449304 653.568371,35.450027 651.294922,36.5551758 C649.021473,37.6603245 646.590182,38.5917931 644.000977,39.3496094 C641.411771,40.1074257 639.075206,40.928381 636.991211,41.8125 C636.991211,42.0651054 637.101724,42.1914062 637.322754,42.1914062 C637.543784,42.1914062 637.622722,42.3492823 637.55957,42.6650391 C639.075203,43.6123094 640.275061,44.3701143 641.15918,44.9384766 C642.043299,45.5068388 642.880042,45.9804669 643.669434,46.359375 C644.458826,46.7382831 645.311356,47.0698228 646.227051,47.3540039 C647.142745,47.638185 648.421541,47.9697247 650.063477,48.3486328 C651.705412,48.727541 652.984208,49.0275054 653.899902,49.2485352 C654.815597,49.4695649 655.65234,49.6590161 656.410156,49.8168945 C657.167973,49.9747729 657.941565,50.1010737 658.730957,50.1958008 C659.520349,50.2905278 660.641269,50.401041 662.09375,50.5273438 C662.662112,51.095706 663.151528,51.7745729 663.562012,52.5639648 C663.972496,53.3533568 664.240885,54.1427369 664.367188,54.9321289 C664.49349,55.7215209 664.525065,56.4793258 664.461914,57.2055664 C664.398763,57.931807 664.177736,58.5159483 663.798828,58.9580078 C663.861979,59.1474619 664.004068,59.2263999 664.225098,59.1948242 C664.446127,59.1632485 664.682941,59.1790361 664.935547,59.2421875 C664.556639,59.4947929 664.240887,59.810545 663.988281,60.1894531 L663.230469,61.3261719 C662.977863,61.70508 662.693686,62.0366197 662.37793,62.3208008 C662.062173,62.6049819 661.62012,62.7786455 661.051758,62.8417969 C659.094066,63.5996132 656.6312,63.646976 653.663086,62.9838867 C650.694972,62.3207975 646.937523,61.1051521 642.390625,59.3369141 C640.117176,58.4527951 638.270027,57.6792025 636.849121,57.0161133 C635.428216,56.353024 634.196783,55.6899447 633.154785,55.0268555 C632.112788,54.3637662 631.165532,53.6533241 630.312988,52.8955078 C629.460445,52.1376915 628.434251,51.2220106 627.234375,50.1484375 Z M640.780273,17.6572266 C640.085609,18.6676483 639.312016,19.5833292 638.459473,20.4042969 C637.606929,21.2252645 636.785974,22.0620075 635.996582,22.9145508 C635.20719,23.7670941 634.496748,24.7143503 633.865234,25.7563477 C633.233721,26.7983451 632.791668,28.0139904 632.539062,29.4033203 C634.74936,29.1507149 637.05435,28.5349984 639.454102,27.5561523 C641.853853,26.5773063 644.127268,25.6458378 646.274414,24.7617188 C646.021809,22.8040267 645.342942,21.2252664 644.237793,20.0253906 C643.132644,18.8255148 641.980149,18.0361347 640.780273,17.6572266 Z M721.582031,56.5898438 C718.550766,56.7161465 715.882661,56.6529961 713.577637,56.4003906 C711.272612,56.1477852 709.014985,55.5478563 706.804688,54.6005859 C706.678385,54.5374346 706.552084,54.3795586 706.425781,54.1269531 C706.299479,53.8743477 706.173178,53.6848965 706.046875,53.5585938 C705.667967,53.3691397 705.210126,53.2902017 704.67334,53.3217773 C704.136553,53.353353 703.678713,53.3059902 703.299805,53.1796875 C702.794594,52.9270821 702.005214,52.4376664 700.931641,51.7114258 C699.858068,50.9851852 698.879236,50.3063183 697.995117,49.6748047 C696.858393,48.7906857 695.784836,47.9065799 694.774414,47.0224609 C693.763992,46.1383419 692.879887,45.1910858 692.12207,44.1806641 C691.932616,43.9280586 691.680015,43.7859702 691.364258,43.7543945 C691.048501,43.7228189 690.764324,43.6438808 690.511719,43.5175781 C688.680329,44.6543026 687.133144,46.0751868 685.870117,47.7802734 C684.60709,49.4853601 683.407232,51.2219964 682.270508,52.9902344 C681.133783,54.7584724 679.933926,56.4319583 678.670898,58.0107422 C677.407871,59.5895261 675.797536,60.7893839 673.839844,61.6103516 C673.271482,61.6103516 672.766278,61.5156259 672.324219,61.3261719 C671.882159,61.1367178 671.471682,60.8999038 671.092773,60.6157227 C670.713865,60.3315415 670.334963,60.0631523 669.956055,59.8105469 C669.577147,59.5579414 669.166669,59.3684902 668.724609,59.2421875 C668.724609,58.4843712 668.582521,57.7897167 668.29834,57.1582031 C668.014159,56.5266896 667.729982,55.9267607 667.445801,55.3583984 C667.16162,54.7900362 666.956381,54.2374701 666.830078,53.7006836 C666.703775,53.1638971 666.830076,52.6429062 667.208984,52.1376953 C666.830076,51.7587872 666.261723,51.3483095 665.503906,50.90625 C665.882814,50.5273419 666.056478,50.1800146 666.024902,49.8642578 C665.993327,49.548501 665.914389,49.232749 665.788086,48.9169922 C665.661783,48.6012354 665.55127,48.2539081 665.456543,47.875 C665.361816,47.4960919 665.440754,47.1171894 665.693359,46.7382812 C666.009116,46.7382812 666.388019,46.6751308 666.830078,46.5488281 C666.45117,46.0436173 666.277506,45.7436528 666.309082,45.6489258 C666.340658,45.5541987 666.26172,45.4121103 666.072266,45.2226562 C665.945963,44.8437481 666.009113,44.6069341 666.261719,44.512207 C666.514324,44.41748 666.766926,44.3069668 667.019531,44.1806641 C667.272137,41.0862475 667.808915,38.2129039 668.629883,35.5605469 C669.45085,32.9081899 670.366531,30.3505983 671.376953,27.8876953 C672.387375,25.4247924 673.381994,22.9303512 674.36084,20.4042969 C675.339686,17.8782426 676.144854,15.1627749 676.776367,12.2578125 C677.471032,11.5631476 678.023598,10.7421922 678.434082,9.79492188 C678.844566,8.84765151 679.286619,7.90039536 679.760254,6.953125 C680.233889,6.00585464 680.770668,5.07438609 681.370605,4.15869141 C681.970543,3.24299672 682.807286,2.5009794 683.880859,1.93261719 C684.764978,1.99576854 685.554359,2.23258258 686.249023,2.64306641 C686.943688,3.05355023 687.796219,3.22721386 688.806641,3.1640625 C688.996095,3.47981929 689.169758,3.79557134 689.327637,4.11132812 C689.485515,4.42708491 689.690754,4.74283696 689.943359,5.05859375 L691.364258,4.77441406 C692.058923,5.34277628 692.674639,6.05321839 693.211426,6.90576172 C693.748212,7.75830504 694.111327,8.65819839 694.300781,9.60546875 C694.490235,10.5527391 694.45866,11.4526325 694.206055,12.3051758 C693.953449,13.1577191 693.35352,13.836586 692.40625,14.3417969 C692.469401,14.6575537 692.485189,14.8943677 692.453613,15.0522461 C692.422038,15.2101245 692.374675,15.3522129 692.311523,15.4785156 C692.248372,15.6048183 692.216797,15.7311192 692.216797,15.8574219 C692.216797,15.9837246 692.311522,16.1731758 692.500977,16.4257812 C691.237949,17.3730516 690.290693,18.6992102 689.65918,20.4042969 C689.027666,22.1093835 688.680339,23.6249934 688.617188,24.9511719 C689.375004,24.1933556 690.211747,23.4513383 691.127441,22.7250977 C692.043136,21.998857 692.990392,21.2884149 693.969238,20.59375 C694.948084,19.8990851 695.89534,19.2360058 696.811035,18.6044922 C697.72673,17.9729786 698.563473,17.3414745 699.321289,16.7099609 C701.405284,14.8154202 703.410309,13.2840228 705.336426,12.1157227 C707.262542,10.9474225 709.299143,9.63705153 711.446289,8.18457031 C711.9515,8.0582676 712.34619,8.04248 712.630371,8.13720703 C712.914552,8.23193407 713.214517,8.34244729 713.530273,8.46875 C713.530273,8.08984186 713.41976,7.86881542 713.19873,7.80566406 C712.977701,7.74251271 712.898763,7.48991106 712.961914,7.04785156 C713.909184,6.79524613 714.73014,6.49528168 715.424805,6.14794922 C716.11947,5.80061675 716.877275,5.4690771 717.698242,5.15332031 C718.266604,5.72168253 718.803383,6.30582382 719.308594,6.90576172 C719.813805,7.50569961 720.508459,7.86881447 721.392578,7.99511719 C721.708335,8.68978212 722.087237,9.210773 722.529297,9.55810547 C722.971356,9.90543793 723.413409,10.2369776 723.855469,10.5527344 C724.297528,10.8684912 724.692218,11.2473936 725.039551,11.6894531 C725.386883,12.1315126 725.592122,12.8261671 725.655273,13.7734375 C725.402668,14.215497 725.134279,14.6891251 724.850098,15.1943359 C724.565917,15.6995468 724.297527,16.2994757 724.044922,16.9941406 C722.781895,18.1308651 721.503099,19.1412716 720.208496,20.0253906 C718.913893,20.9095096 717.603522,21.7620402 716.277344,22.5830078 C714.951165,23.4039755 713.593431,24.2249308 712.204102,25.0458984 C710.814772,25.8668661 709.393887,26.8456974 707.941406,27.9824219 C707.625649,28.4244814 707.230959,28.8191714 706.757324,29.1665039 C706.283689,29.5138364 705.794273,29.8611636 705.289062,30.2084961 C704.783852,30.5558286 704.310224,30.9189434 703.868164,31.2978516 C703.426105,31.6767597 703.078777,32.1188126 702.826172,32.6240234 C702.636718,32.6871748 702.447267,32.71875 702.257812,32.71875 C702.068358,32.71875 701.878907,32.7503252 701.689453,32.8134766 C701.499999,33.2555361 701.200035,33.6028633 700.789551,33.8554688 C700.379067,34.1080742 700.110678,34.4554014 699.984375,34.8974609 C700.931645,36.9183044 702.163078,38.4654894 703.678711,39.5390625 C705.194344,40.6126356 706.899405,41.3862281 708.793945,41.8598633 C710.688486,42.3334985 712.740874,42.5861001 714.951172,42.6176758 C717.161469,42.6492515 719.466459,42.6650391 721.866211,42.6650391 C722.118816,42.6018877 722.22933,42.4597993 722.197754,42.2387695 C722.166178,42.0177398 722.308267,41.9388018 722.624023,42.0019531 C724.139656,42.507164 725.307939,43.2176061 726.128906,44.1333008 C726.949874,45.0489955 727.928705,45.9488888 729.06543,46.8330078 C728.939127,49.2327594 728.212897,51.2219973 726.886719,52.8007812 C725.56054,54.3795652 723.792329,55.6425734 721.582031,56.5898438 Z M728.591797,17.3730469 C729.033856,16.0468684 729.744298,14.910161 730.723145,13.9628906 C731.701991,13.0156203 732.775548,12.2104525 733.943848,11.5473633 C735.112148,10.884274 736.327793,10.3317079 737.59082,9.88964844 C738.853847,9.44758894 740.053705,9.06868647 741.19043,8.75292969 C743.716484,7.67935661 746.416164,6.65316245 749.289551,5.67431641 C752.162938,4.69547037 755.099432,3.82715223 758.099121,3.06933594 C761.098811,2.31151965 764.177393,1.82210397 767.334961,1.60107422 C770.492529,1.38004447 773.807925,1.77473453 777.28125,2.78515625 C777.470704,3.41666982 777.754881,4.01659872 778.133789,4.58496094 C778.512697,5.15332315 778.907387,5.72167685 779.317871,6.29003906 C779.728355,6.85840128 780.09147,7.41096737 780.407227,7.94775391 C780.722983,8.48454044 780.912435,9.03710653 780.975586,9.60546875 C781.6071,10.173831 782.112303,10.7895475 782.491211,11.4526367 C782.870119,12.115726 782.933269,12.9840441 782.680664,14.0576172 C782.04915,14.562828 781.433434,15.0206685 780.833496,15.4311523 C780.233558,15.8416362 779.586266,16.204751 778.891602,16.5205078 C776.555001,15.9521456 774.186861,15.7626944 771.787109,15.9521484 C769.387358,16.1416025 767.240244,16.2994785 765.345703,16.4257812 C764.777341,15.857419 764.098474,15.5732422 763.309082,15.5732422 C762.51969,15.5732422 761.698735,15.699543 760.846191,15.9521484 L758.288574,16.7099609 C757.436031,16.9625664 756.630863,17.0257168 755.873047,16.8994141 C755.241533,17.4046249 754.467941,17.7361646 753.552246,17.894043 C752.636551,18.0519214 751.641932,18.1940098 750.568359,18.3203125 C750.505208,18.6360693 750.568358,18.8413081 750.757812,18.9360352 C750.947267,19.0307622 750.978842,19.236001 750.852539,19.5517578 C751.231447,19.9938173 751.720863,20.3095694 752.320801,20.4990234 C752.920739,20.6884775 753.552243,20.8779287 754.215332,21.0673828 C754.878421,21.2568369 755.462563,21.4936509 755.967773,21.777832 C756.472984,22.0620131 756.820312,22.5198536 757.009766,23.1513672 C757.957036,23.1513672 758.777991,23.3723936 759.472656,23.8144531 C760.167321,24.2565126 760.735675,24.7932911 761.177734,25.4248047 C761.619794,26.0563183 761.951334,26.7351852 762.172363,27.4614258 C762.393393,28.1876664 762.503906,28.8349581 762.503906,29.4033203 C762.69336,29.9085312 762.914387,30.1295576 763.166992,30.0664062 C763.419598,30.0032549 763.703774,30.1295557 764.019531,30.4453125 C764.208985,31.2662801 764.682613,32.1030231 765.44043,32.9555664 C766.198246,33.8081097 766.798175,34.7395783 767.240234,35.75 C767.366537,37.3287839 767.461263,38.7338806 767.524414,39.965332 C767.587565,41.1967835 767.366539,42.4440041 766.861328,43.7070312 C765.914058,46.0436315 764.603687,48.127595 762.930176,49.9589844 C761.256665,51.7903737 759.362153,53.4164968 757.246582,54.8374023 C755.131012,56.2583079 752.873384,57.4739533 750.473633,58.484375 C748.073881,59.4947967 745.737316,60.3473273 743.463867,61.0419922 C743.211262,60.9788408 742.95866,60.9788408 742.706055,61.0419922 C742.453449,61.1051435 742.390299,60.9472675 742.516602,60.5683594 C742.011391,61.0104189 741.458825,61.2945957 740.858887,61.4208984 C740.258949,61.5472012 739.611657,61.594564 738.916992,61.5629883 C738.222327,61.5314126 737.511885,61.4840498 736.785645,61.4208984 C736.059404,61.3577471 735.380537,61.3893223 734.749023,61.515625 C734.306964,61.0735655 733.912274,60.6473002 733.564941,60.2368164 C733.217609,59.8263326 732.94922,59.3053417 732.759766,58.6738281 C732.444009,58.6738281 732.30192,58.5159521 732.333496,58.2001953 C732.365072,57.8844385 732.254559,57.7265625 732.001953,57.7265625 C732.380861,57.0950489 732.554525,56.7319341 732.522949,56.637207 C732.491374,56.54248 732.396648,56.463542 732.23877,56.4003906 C732.080891,56.3372393 731.938803,56.2583013 731.8125,56.1635742 C731.686197,56.0688472 731.654622,55.9267588 731.717773,55.7373047 C731.970379,55.2320938 732.065104,54.6479525 732.001953,53.9848633 C731.938802,53.321774 731.875651,52.6429071 731.8125,51.9482422 C731.749349,51.2535773 731.796711,50.5904979 731.95459,49.9589844 C732.112468,49.3274708 732.570309,48.8222675 733.328125,48.4433594 C735.475271,48.6959648 737.511872,48.6170268 739.437988,48.206543 C741.364105,47.7960591 743.179679,47.2119179 744.884766,46.4541016 C746.589852,45.6962853 748.215975,44.8753299 749.763184,43.9912109 C751.310392,43.1070919 752.841789,42.3177118 754.357422,41.6230469 C754.546876,41.0546847 754.815265,40.5810566 755.162598,40.2021484 C755.50993,39.8232403 755.873045,39.475913 756.251953,39.1601562 C756.630861,38.8443995 756.978189,38.4970722 757.293945,38.1181641 C757.609702,37.7392559 757.830729,37.2656278 757.957031,36.6972656 C758.020183,36.2552061 757.909669,35.9868169 757.625488,35.8920898 C757.341307,35.7973628 757.199219,35.5605488 757.199219,35.1816406 L756.157227,34.8974609 C754.957351,34.202796 753.599617,33.6186547 752.083984,33.1450195 C750.568352,32.6713844 749.273768,32.1503935 748.200195,31.5820312 C747.50553,31.9609394 746.858239,32.055665 746.258301,31.8662109 C745.658363,31.6767569 744.88477,31.4873056 743.9375,31.2978516 C741.790354,31.1715488 739.722178,30.9505224 737.73291,30.6347656 C735.743642,30.3190088 733.833342,29.7506551 732.001953,28.9296875 C731.87565,28.6139307 731.717774,28.3297539 731.52832,28.0771484 C731.338866,27.824543 730.991539,27.7613926 730.486328,27.8876953 C730.10742,27.3824845 729.728518,26.8930688 729.349609,26.4194336 C728.970701,25.9457984 728.623374,25.4248075 728.307617,24.8564453 C728.43392,24.098629 728.528646,23.4513373 728.591797,22.9145508 C728.654948,22.3777642 728.465497,21.8567734 728.023438,21.3515625 C728.276043,20.5305949 728.465494,19.8675155 728.591797,19.3623047 C728.7181,18.8570938 728.7181,18.1940145 728.591797,17.3730469 Z" id="other-works"></path>
            </g>
        </g>
    </g>
</svg>