<?xml version="1.0" encoding="UTF-8" standalone="no"?>
<svg width="460px" height="610px" viewBox="0 0 460 610" version="1.1" xmlns="http://www.w3.org/2000/svg" xmlns:xlink="http://www.w3.org/1999/xlink">
    <!-- Generator: Sketch 48.2 (47327) - http://www.bohemiancoding.com/sketch -->
    <title>auchanDirect</title>
    <desc>Created with Sketch.</desc>
    <defs>
        <linearGradient x1="8.77457403%" y1="0%" x2="99.2210296%" y2="100%" id="linearGradient-1">
            <stop stop-color="#FAB7B8" offset="0%"></stop>
            <stop stop-color="#F66B6C" offset="100%"></stop>
        </linearGradient>
        <rect id="path-2" x="0" y="0" width="460" height="610"></rect>
    </defs>
    <g id="Page-1" stroke="none" stroke-width="1" fill="none" fill-rule="evenodd">
        <g id="auchanDirect">
            <mask id="mask-3" fill="white">
                <use xlink:href="#path-2"></use>
            </mask>
            <use id="Rectangle-2" fill="url(#linearGradient-1)" xlink:href="#path-2"></use>
            <g id="Group-10" mask="url(#mask-3)">
                <g transform="translate(30.000000, 248.000000)">
                    <path d="M11.787,71.13 L9.697,67.61 L9.697,66.708 L11.787,63.21 L13.041,63.716 L11.347,67.17 L13.041,70.624 L11.787,71.13 Z M15.769,71.13 L13.679,67.61 L13.679,66.708 L15.769,63.21 L17.023,63.716 L15.329,67.17 L17.023,70.624 L15.769,71.13 Z M37.505,73 L35.789,69.018 L27.693,69.018 L25.977,73 L24.129,73 L30.949,57.49 L32.511,57.49 L39.331,73 L37.505,73 Z M28.331,67.522 L35.151,67.522 L31.741,59.58 L28.331,67.522 Z M41.377,73 L41.377,57.49 L43.159,57.49 L43.159,73 L41.377,73 Z M46.481,73 L46.481,57.49 L48.263,57.49 L48.263,73 L46.481,73 Z M53.356,72.472 C52.5859962,72.0173311 51.9920021,71.3683376 51.574,70.525 C51.1559979,69.6816625 50.947,68.7026722 50.947,67.588 C50.947,66.4733278 51.1559979,65.4943375 51.574,64.651 C51.9920021,63.8076625 52.5859962,63.1586689 53.356,62.704 C54.1260039,62.2493311 55.0169949,62.022 56.029,62.022 C57.0410051,62.022 57.9356628,62.2493311 58.713,62.704 C59.4903372,63.1586689 60.0879979,63.8076625 60.506,64.651 C60.9240021,65.4943375 61.133,66.4733278 61.133,67.588 C61.133,68.7026722 60.9240021,69.6816625 60.506,70.525 C60.0879979,71.3683376 59.4903372,72.0173311 58.713,72.472 C57.9356628,72.9266689 57.0410051,73.154 56.029,73.154 C55.0169949,73.154 54.1260039,72.9266689 53.356,72.472 Z M58.46,70.635 C59.0246695,69.9383299 59.307,68.9226733 59.307,67.588 C59.307,66.2826601 59.0210029,65.2743369 58.449,64.563 C57.8769971,63.8516631 57.0703385,63.496 56.029,63.496 C54.9876615,63.496 54.1810029,63.8516631 53.609,64.563 C53.0369971,65.2743369 52.751,66.2826601 52.751,67.588 C52.751,68.9080066 53.0333305,69.9199965 53.598,70.624 C54.1626695,71.3280035 54.9729947,71.68 56.029,71.68 C57.0850053,71.68 57.8953305,71.3316702 58.46,70.635 Z M78.205,62.286 L79.987,62.286 L76.005,73 L74.289,73 L71.275,64.706 L68.239,73 L66.545,73 L62.563,62.286 L64.411,62.286 L67.447,70.888 L70.549,62.286 L72.089,62.286 L75.147,70.888 L78.205,62.286 Z M96.883,62.286 L96.883,73 L95.145,73 L95.145,71.174 C94.807665,71.8193366 94.3346697,72.310665 93.726,72.648 C93.1173303,72.985335 92.4316705,73.154 91.669,73.154 C90.3929936,73.154 89.4323366,72.7983369 88.787,72.087 C88.1416634,71.3756631 87.819,70.3233403 87.819,68.93 L87.819,62.286 L89.601,62.286 L89.601,68.886 C89.601,69.8393381 89.7916648,70.5396644 90.173,70.987 C90.5543352,71.4343356 91.1556626,71.658 91.977,71.658 C92.9156714,71.658 93.6709971,71.3536697 94.243,70.745 C94.8150029,70.1363303 95.101,69.3333383 95.101,68.336 L95.101,62.286 L96.883,62.286 Z M99.545,71.768 L100.139,70.448 C100.711003,70.9026689 101.293997,71.228999 101.888,71.427 C102.482003,71.625001 103.152996,71.724 103.901,71.724 C104.693004,71.724 105.297998,71.5883347 105.716,71.317 C106.134002,71.0456653 106.343,70.6533359 106.343,70.14 C106.343,69.7146645 106.203668,69.3773346 105.925,69.128 C105.646332,68.8786654 105.184337,68.6806674 104.539,68.534 L102.735,68.116 C101.825662,67.9106656 101.129002,67.5586692 100.645,67.06 C100.160998,66.5613308 99.919,65.945337 99.919,65.212 C99.919,64.2586619 100.292996,63.4886696 101.041,62.902 C101.789004,62.3153304 102.786327,62.022 104.033,62.022 C104.781004,62.022 105.49233,62.1429988 106.167,62.385 C106.84167,62.6270012 107.406331,62.9753311 107.861,63.43 L107.267,64.728 C106.284328,63.8919958 105.206339,63.474 104.033,63.474 C103.284996,63.474 102.702002,63.6169986 102.284,63.903 C101.865998,64.1890014 101.657,64.5886641 101.657,65.102 C101.657,65.5273355 101.785332,65.868332 102.042,66.125 C102.298668,66.381668 102.712997,66.5759993 103.285,66.708 L105.111,67.148 C106.108338,67.3826678 106.848998,67.738331 107.333,68.215 C107.817002,68.6916691 108.059,69.3113295 108.059,70.074 C108.059,71.0126714 107.681337,71.7606639 106.926,72.318 C106.170663,72.8753361 105.14034,73.154 103.835,73.154 C102.030991,73.154 100.601005,72.6920046 99.545,71.768 Z M119.741,67.918 L111.909,67.918 C111.967667,69.1646729 112.304997,70.1069968 112.921,70.745 C113.537003,71.3830032 114.409661,71.702 115.539,71.702 C116.785673,71.702 117.929661,71.2766709 118.971,70.426 L119.565,71.724 C119.095664,72.1640022 118.494337,72.512332 117.761,72.769 C117.027663,73.0256679 116.27967,73.154 115.517,73.154 C113.844992,73.154 112.528671,72.6626716 111.568,71.68 C110.607329,70.6973284 110.127,69.3406753 110.127,67.61 C110.127,66.5099945 110.339665,65.5383375 110.765,64.695 C111.190335,63.8516625 111.787996,63.1953357 112.558,62.726 C113.328004,62.2566643 114.204328,62.022 115.187,62.022 C116.609674,62.022 117.724329,62.487662 118.531,63.419 C119.337671,64.350338 119.741,65.6299919 119.741,67.258 L119.741,67.918 Z M112.954,64.288 C112.389331,64.8746696 112.055667,65.703328 111.953,66.774 L118.179,66.774 C118.149667,65.6886612 117.878336,64.8563362 117.365,64.277 C116.851664,63.6976638 116.133005,63.408 115.209,63.408 C114.270329,63.408 113.518669,63.7013304 112.954,64.288 Z M128.431,63.562 L127.265,63.672 C126.164995,63.7746672 125.369336,64.1193304 124.878,64.706 C124.386664,65.2926696 124.141,66.0186623 124.141,66.884 L124.141,73 L122.359,73 L122.359,62.286 L124.097,62.286 L124.097,64.156 C124.698336,62.9093271 125.878991,62.2126674 127.639,62.066 L128.277,62.022 L128.431,63.562 Z M129.355,71.768 L129.949,70.448 C130.521003,70.9026689 131.103997,71.228999 131.698,71.427 C132.292003,71.625001 132.962996,71.724 133.711,71.724 C134.503004,71.724 135.107998,71.5883347 135.526,71.317 C135.944002,71.0456653 136.153,70.6533359 136.153,70.14 C136.153,69.7146645 136.013668,69.3773346 135.735,69.128 C135.456332,68.8786654 134.994337,68.6806674 134.349,68.534 L132.545,68.116 C131.635662,67.9106656 130.939002,67.5586692 130.455,67.06 C129.970998,66.5613308 129.729,65.945337 129.729,65.212 C129.729,64.2586619 130.102996,63.4886696 130.851,62.902 C131.599004,62.3153304 132.596327,62.022 133.843,62.022 C134.591004,62.022 135.30233,62.1429988 135.977,62.385 C136.65167,62.6270012 137.216331,62.9753311 137.671,63.43 L137.077,64.728 C136.094328,63.8919958 135.016339,63.474 133.843,63.474 C133.094996,63.474 132.512002,63.6169986 132.094,63.903 C131.675998,64.1890014 131.467,64.5886641 131.467,65.102 C131.467,65.5273355 131.595332,65.868332 131.852,66.125 C132.108668,66.381668 132.522997,66.5759993 133.095,66.708 L134.921,67.148 C135.918338,67.3826678 136.658998,67.738331 137.143,68.215 C137.627002,68.6916691 137.869,69.3113295 137.869,70.074 C137.869,71.0126714 137.491337,71.7606639 136.736,72.318 C135.980663,72.8753361 134.95034,73.154 133.645,73.154 C131.840991,73.154 130.411005,72.6920046 129.355,71.768 Z M151.927,71.658 L151.839,73.066 C151.501665,73.124667 151.135002,73.154 150.739,73.154 C149.448327,73.154 148.47667,72.81667 147.824,72.142 C147.17133,71.46733 146.845,70.5286727 146.845,69.326 L146.845,63.694 L144.755,63.694 L144.755,62.286 L146.845,62.286 L146.845,59.03 L148.627,59.03 L148.627,62.286 L151.663,62.286 L151.663,63.694 L148.627,63.694 L148.627,69.194 C148.627,70.8806751 149.404326,71.724 150.959,71.724 C151.281668,71.724 151.604332,71.7020002 151.927,71.658 Z M155.502,72.472 C154.731996,72.0173311 154.138002,71.3683376 153.72,70.525 C153.301998,69.6816625 153.093,68.7026722 153.093,67.588 C153.093,66.4733278 153.301998,65.4943375 153.72,64.651 C154.138002,63.8076625 154.731996,63.1586689 155.502,62.704 C156.272004,62.2493311 157.162995,62.022 158.175,62.022 C159.187005,62.022 160.081663,62.2493311 160.859,62.704 C161.636337,63.1586689 162.233998,63.8076625 162.652,64.651 C163.070002,65.4943375 163.279,66.4733278 163.279,67.588 C163.279,68.7026722 163.070002,69.6816625 162.652,70.525 C162.233998,71.3683376 161.636337,72.0173311 160.859,72.472 C160.081663,72.9266689 159.187005,73.154 158.175,73.154 C157.162995,73.154 156.272004,72.9266689 155.502,72.472 Z M160.606,70.635 C161.170669,69.9383299 161.453,68.9226733 161.453,67.588 C161.453,66.2826601 161.167003,65.2743369 160.595,64.563 C160.022997,63.8516631 159.216339,63.496 158.175,63.496 C157.133661,63.496 156.327003,63.8516631 155.755,64.563 C155.182997,65.2743369 154.897,66.2826601 154.897,67.588 C154.897,68.9080066 155.179331,69.9199965 155.744,70.624 C156.308669,71.3280035 157.118995,71.68 158.175,71.68 C159.231005,71.68 160.041331,71.3316702 160.606,70.635 Z M181.121,57.49 L181.121,73 L179.339,73 L179.339,71.042 C179.016332,71.71667 178.543336,72.2373315 177.92,72.604 C177.296664,72.9706685 176.567004,73.154 175.731,73.154 C174.792329,73.154 173.96367,72.9193357 173.245,72.45 C172.52633,71.9806643 171.969002,71.3243375 171.573,70.481 C171.176998,69.6376624 170.979,68.6586722 170.979,67.544 C170.979,66.4439945 171.176998,65.4760042 171.573,64.64 C171.969002,63.8039958 172.52633,63.1586689 173.245,62.704 C173.96367,62.2493311 174.792329,62.022 175.731,62.022 C176.567004,62.022 177.296664,62.2053315 177.92,62.572 C178.543336,62.9386685 179.016332,63.45933 179.339,64.134 L179.339,57.49 L181.121,57.49 Z M178.492,70.613 C179.056669,69.9016631 179.339,68.8933399 179.339,67.588 C179.339,66.2826601 179.056669,65.2780035 178.492,64.574 C177.927331,63.8699965 177.124339,63.518 176.083,63.518 C175.041661,63.518 174.231336,63.8699965 173.652,64.574 C173.072664,65.2780035 172.783,66.2679936 172.783,67.544 C172.783,68.8493399 173.072664,69.8649964 173.652,70.591 C174.231336,71.3170036 175.041661,71.68 176.083,71.68 C177.124339,71.68 177.927331,71.3243369 178.492,70.613 Z M186.192,72.472 C185.421996,72.0173311 184.828002,71.3683376 184.41,70.525 C183.991998,69.6816625 183.783,68.7026722 183.783,67.588 C183.783,66.4733278 183.991998,65.4943375 184.41,64.651 C184.828002,63.8076625 185.421996,63.1586689 186.192,62.704 C186.962004,62.2493311 187.852995,62.022 188.865,62.022 C189.877005,62.022 190.771663,62.2493311 191.549,62.704 C192.326337,63.1586689 192.923998,63.8076625 193.342,64.651 C193.760002,65.4943375 193.969,66.4733278 193.969,67.588 C193.969,68.7026722 193.760002,69.6816625 193.342,70.525 C192.923998,71.3683376 192.326337,72.0173311 191.549,72.472 C190.771663,72.9266689 189.877005,73.154 188.865,73.154 C187.852995,73.154 186.962004,72.9266689 186.192,72.472 Z M191.296,70.635 C191.860669,69.9383299 192.143,68.9226733 192.143,67.588 C192.143,66.2826601 191.857003,65.2743369 191.285,64.563 C190.712997,63.8516631 189.906339,63.496 188.865,63.496 C187.823661,63.496 187.017003,63.8516631 186.445,64.563 C185.872997,65.2743369 185.587,66.2826601 185.587,67.588 C185.587,68.9080066 185.869331,69.9199965 186.434,70.624 C186.998669,71.3280035 187.808995,71.68 188.865,71.68 C189.921005,71.68 190.731331,71.3316702 191.296,70.635 Z M207.983,71.658 L207.895,73.066 C207.557665,73.124667 207.191002,73.154 206.795,73.154 C205.504327,73.154 204.53267,72.81667 203.88,72.142 C203.22733,71.46733 202.901,70.5286727 202.901,69.326 L202.901,63.694 L200.811,63.694 L200.811,62.286 L202.901,62.286 L202.901,59.03 L204.683,59.03 L204.683,62.286 L207.719,62.286 L207.719,63.694 L204.683,63.694 L204.683,69.194 C204.683,70.8806751 205.460326,71.724 207.015,71.724 C207.337668,71.724 207.660332,71.7020002 207.983,71.658 Z M219.027,66.268 L219.027,73 L217.245,73 L217.245,66.378 C217.245,65.3806617 217.050669,64.6546689 216.662,64.2 C216.273331,63.7453311 215.653671,63.518 214.803,63.518 C213.820328,63.518 213.03567,63.8186637 212.449,64.42 C211.86233,65.0213363 211.569,65.8353282 211.569,66.862 L211.569,73 L209.787,73 L209.787,57.49 L211.569,57.49 L211.569,64.002 C211.921002,63.3566634 212.408664,62.865335 213.032,62.528 C213.655336,62.190665 214.370329,62.022 215.177,62.022 C217.743679,62.022 219.027,63.4373192 219.027,66.268 Z M231.259,67.918 L223.427,67.918 C223.485667,69.1646729 223.822997,70.1069968 224.439,70.745 C225.055003,71.3830032 225.927661,71.702 227.057,71.702 C228.303673,71.702 229.447661,71.2766709 230.489,70.426 L231.083,71.724 C230.613664,72.1640022 230.012337,72.512332 229.279,72.769 C228.545663,73.0256679 227.79767,73.154 227.035,73.154 C225.362992,73.154 224.046671,72.6626716 223.086,71.68 C222.125329,70.6973284 221.645,69.3406753 221.645,67.61 C221.645,66.5099945 221.857665,65.5383375 222.283,64.695 C222.708335,63.8516625 223.305996,63.1953357 224.076,62.726 C224.846004,62.2566643 225.722328,62.022 226.705,62.022 C228.127674,62.022 229.242329,62.487662 230.049,63.419 C230.855671,64.350338 231.259,65.6299919 231.259,67.258 L231.259,67.918 Z M224.472,64.288 C223.907331,64.8746696 223.573667,65.703328 223.471,66.774 L229.697,66.774 C229.667667,65.6886612 229.396336,64.8563362 228.883,64.277 C228.369664,63.6976638 227.651005,63.408 226.727,63.408 C225.788329,63.408 225.036669,63.7013304 224.472,64.288 Z M233.877,73 L233.877,62.286 L235.659,62.286 L235.659,73 L233.877,73 Z M233.701,57.644 L235.857,57.644 L235.857,59.646 L233.701,59.646 L233.701,57.644 Z M245.053,63.562 L243.887,63.672 C242.786995,63.7746672 241.991336,64.1193304 241.5,64.706 C241.008664,65.2926696 240.763,66.0186623 240.763,66.884 L240.763,73 L238.981,73 L238.981,62.286 L240.719,62.286 L240.719,64.156 C241.320336,62.9093271 242.500991,62.2126674 244.261,62.066 L244.899,62.022 L245.053,63.562 Z M254.799,62.286 L257.835,62.286 L257.835,63.694 L254.799,63.694 L254.799,73 L253.017,73 L253.017,63.694 L250.927,63.694 L250.927,62.286 L253.017,62.286 L253.017,61.934 C253.017,60.5113262 253.372663,59.433337 254.084,58.7 C254.795337,57.966663 255.891659,57.5560004 257.373,57.468 L258.253,57.424 L258.385,58.81 L257.373,58.876 C256.478329,58.934667 255.825669,59.1876644 255.415,59.635 C255.004331,60.0823356 254.799,60.7679954 254.799,61.692 L254.799,62.286 Z M261.3,72.472 C260.529996,72.0173311 259.936002,71.3683376 259.518,70.525 C259.099998,69.6816625 258.891,68.7026722 258.891,67.588 C258.891,66.4733278 259.099998,65.4943375 259.518,64.651 C259.936002,63.8076625 260.529996,63.1586689 261.3,62.704 C262.070004,62.2493311 262.960995,62.022 263.973,62.022 C264.985005,62.022 265.879663,62.2493311 266.657,62.704 C267.434337,63.1586689 268.031998,63.8076625 268.45,64.651 C268.868002,65.4943375 269.077,66.4733278 269.077,67.588 C269.077,68.7026722 268.868002,69.6816625 268.45,70.525 C268.031998,71.3683376 267.434337,72.0173311 266.657,72.472 C265.879663,72.9266689 264.985005,73.154 263.973,73.154 C262.960995,73.154 262.070004,72.9266689 261.3,72.472 Z M266.404,70.635 C266.968669,69.9383299 267.251,68.9226733 267.251,67.588 C267.251,66.2826601 266.965003,65.2743369 266.393,64.563 C265.820997,63.8516631 265.014339,63.496 263.973,63.496 C262.931661,63.496 262.125003,63.8516631 261.553,64.563 C260.980997,65.2743369 260.695,66.2826601 260.695,67.588 C260.695,68.9080066 260.977331,69.9199965 261.542,70.624 C262.106669,71.3280035 262.916995,71.68 263.973,71.68 C265.029005,71.68 265.839331,71.3316702 266.404,70.635 Z M273.51,72.472 C272.739996,72.0173311 272.146002,71.3683376 271.728,70.525 C271.309998,69.6816625 271.101,68.7026722 271.101,67.588 C271.101,66.4733278 271.309998,65.4943375 271.728,64.651 C272.146002,63.8076625 272.739996,63.1586689 273.51,62.704 C274.280004,62.2493311 275.170995,62.022 276.183,62.022 C277.195005,62.022 278.089663,62.2493311 278.867,62.704 C279.644337,63.1586689 280.241998,63.8076625 280.66,64.651 C281.078002,65.4943375 281.287,66.4733278 281.287,67.588 C281.287,68.7026722 281.078002,69.6816625 280.66,70.525 C280.241998,71.3683376 279.644337,72.0173311 278.867,72.472 C278.089663,72.9266689 277.195005,73.154 276.183,73.154 C275.170995,73.154 274.280004,72.9266689 273.51,72.472 Z M278.614,70.635 C279.178669,69.9383299 279.461,68.9226733 279.461,67.588 C279.461,66.2826601 279.175003,65.2743369 278.603,64.563 C278.030997,63.8516631 277.224339,63.496 276.183,63.496 C275.141661,63.496 274.335003,63.8516631 273.763,64.563 C273.190997,65.2743369 272.905,66.2826601 272.905,67.588 C272.905,68.9080066 273.187331,69.9199965 273.752,70.624 C274.316669,71.3280035 275.126995,71.68 276.183,71.68 C277.239005,71.68 278.049331,71.3316702 278.614,70.635 Z M293.453,57.49 L293.453,73 L291.671,73 L291.671,71.042 C291.348332,71.71667 290.875336,72.2373315 290.252,72.604 C289.628664,72.9706685 288.899004,73.154 288.063,73.154 C287.124329,73.154 286.29567,72.9193357 285.577,72.45 C284.85833,71.9806643 284.301002,71.3243375 283.905,70.481 C283.508998,69.6376624 283.311,68.6586722 283.311,67.544 C283.311,66.4439945 283.508998,65.4760042 283.905,64.64 C284.301002,63.8039958 284.85833,63.1586689 285.577,62.704 C286.29567,62.2493311 287.124329,62.022 288.063,62.022 C288.899004,62.022 289.628664,62.2053315 290.252,62.572 C290.875336,62.9386685 291.348332,63.45933 291.671,64.134 L291.671,57.49 L293.453,57.49 Z M290.824,70.613 C291.388669,69.9016631 291.671,68.8933399 291.671,67.588 C291.671,66.2826601 291.388669,65.2780035 290.824,64.574 C290.259331,63.8699965 289.456339,63.518 288.415,63.518 C287.373661,63.518 286.563336,63.8699965 285.984,64.574 C285.404664,65.2780035 285.115,66.2679936 285.115,67.544 C285.115,68.8493399 285.404664,69.8649964 285.984,70.591 C286.563336,71.3170036 287.373661,71.68 288.415,71.68 C289.456339,71.68 290.259331,71.3243369 290.824,70.613 Z M301.769,71.768 L302.363,70.448 C302.935003,70.9026689 303.517997,71.228999 304.112,71.427 C304.706003,71.625001 305.376996,71.724 306.125,71.724 C306.917004,71.724 307.521998,71.5883347 307.94,71.317 C308.358002,71.0456653 308.567,70.6533359 308.567,70.14 C308.567,69.7146645 308.427668,69.3773346 308.149,69.128 C307.870332,68.8786654 307.408337,68.6806674 306.763,68.534 L304.959,68.116 C304.049662,67.9106656 303.353002,67.5586692 302.869,67.06 C302.384998,66.5613308 302.143,65.945337 302.143,65.212 C302.143,64.2586619 302.516996,63.4886696 303.265,62.902 C304.013004,62.3153304 305.010327,62.022 306.257,62.022 C307.005004,62.022 307.71633,62.1429988 308.391,62.385 C309.06567,62.6270012 309.630331,62.9753311 310.085,63.43 L309.491,64.728 C308.508328,63.8919958 307.430339,63.474 306.257,63.474 C305.508996,63.474 304.926002,63.6169986 304.508,63.903 C304.089998,64.1890014 303.881,64.5886641 303.881,65.102 C303.881,65.5273355 304.009332,65.868332 304.266,66.125 C304.522668,66.381668 304.936997,66.5759993 305.509,66.708 L307.335,67.148 C308.332338,67.3826678 309.072998,67.738331 309.557,68.215 C310.041002,68.6916691 310.283,69.3113295 310.283,70.074 C310.283,71.0126714 309.905337,71.7606639 309.15,72.318 C308.394663,72.8753361 307.36434,73.154 306.059,73.154 C304.254991,73.154 302.825005,72.6920046 301.769,71.768 Z M322.229,66.268 L322.229,73 L320.447,73 L320.447,66.378 C320.447,65.3806617 320.252669,64.6546689 319.864,64.2 C319.475331,63.7453311 318.855671,63.518 318.005,63.518 C317.022328,63.518 316.23767,63.8186637 315.651,64.42 C315.06433,65.0213363 314.771,65.8353282 314.771,66.862 L314.771,73 L312.989,73 L312.989,57.49 L314.771,57.49 L314.771,64.002 C315.123002,63.3566634 315.610664,62.865335 316.234,62.528 C316.857336,62.190665 317.572329,62.022 318.379,62.022 C320.945679,62.022 322.229,63.4373192 322.229,66.268 Z M327.256,72.472 C326.485996,72.0173311 325.892002,71.3683376 325.474,70.525 C325.055998,69.6816625 324.847,68.7026722 324.847,67.588 C324.847,66.4733278 325.055998,65.4943375 325.474,64.651 C325.892002,63.8076625 326.485996,63.1586689 327.256,62.704 C328.026004,62.2493311 328.916995,62.022 329.929,62.022 C330.941005,62.022 331.835663,62.2493311 332.613,62.704 C333.390337,63.1586689 333.987998,63.8076625 334.406,64.651 C334.824002,65.4943375 335.033,66.4733278 335.033,67.588 C335.033,68.7026722 334.824002,69.6816625 334.406,70.525 C333.987998,71.3683376 333.390337,72.0173311 332.613,72.472 C331.835663,72.9266689 330.941005,73.154 329.929,73.154 C328.916995,73.154 328.026004,72.9266689 327.256,72.472 Z M332.36,70.635 C332.924669,69.9383299 333.207,68.9226733 333.207,67.588 C333.207,66.2826601 332.921003,65.2743369 332.349,64.563 C331.776997,63.8516631 330.970339,63.496 329.929,63.496 C328.887661,63.496 328.081003,63.8516631 327.509,64.563 C326.936997,65.2743369 326.651,66.2826601 326.651,67.588 C326.651,68.9080066 326.933331,69.9199965 327.498,70.624 C328.062669,71.3280035 328.872995,71.68 329.929,71.68 C330.985005,71.68 331.795331,71.3316702 332.36,70.635 Z M345.571,62.726 C346.28967,63.1953357 346.846998,63.8516625 347.243,64.695 C347.639002,65.5383375 347.837,66.5173278 347.837,67.632 C347.837,68.7466722 347.639002,69.7183292 347.243,70.547 C346.846998,71.3756708 346.293337,72.0173311 345.582,72.472 C344.870663,72.9266689 344.038338,73.154 343.085,73.154 C342.248996,73.154 341.519336,72.9706685 340.896,72.604 C340.272664,72.2373315 339.799668,71.71667 339.477,71.042 L339.477,76.96 L337.695,76.96 L337.695,62.286 L339.477,62.286 L339.477,64.134 C339.799668,63.45933 340.272664,62.9386685 340.896,62.572 C341.519336,62.2053315 342.248996,62.022 343.085,62.022 C344.023671,62.022 344.85233,62.2566643 345.571,62.726 Z M345.153,70.624 C345.725003,69.9199965 346.011,68.9226731 346.011,67.632 C346.011,66.3413269 345.725003,65.3330036 345.153,64.607 C344.580997,63.8809964 343.774339,63.518 342.733,63.518 C341.691661,63.518 340.888669,63.8699965 340.324,64.574 C339.759331,65.2780035 339.477,66.2826601 339.477,67.588 C339.477,68.8933399 339.759331,69.9016631 340.324,70.613 C340.888669,71.3243369 341.691661,71.68 342.733,71.68 C343.774339,71.68 344.580997,71.3280035 345.153,70.624 Z M358.375,62.726 C359.09367,63.1953357 359.650998,63.8516625 360.047,64.695 C360.443002,65.5383375 360.641,66.5173278 360.641,67.632 C360.641,68.7466722 360.443002,69.7183292 360.047,70.547 C359.650998,71.3756708 359.097337,72.0173311 358.386,72.472 C357.674663,72.9266689 356.842338,73.154 355.889,73.154 C355.052996,73.154 354.323336,72.9706685 353.7,72.604 C353.076664,72.2373315 352.603668,71.71667 352.281,71.042 L352.281,76.96 L350.499,76.96 L350.499,62.286 L352.281,62.286 L352.281,64.134 C352.603668,63.45933 353.076664,62.9386685 353.7,62.572 C354.323336,62.2053315 355.052996,62.022 355.889,62.022 C356.827671,62.022 357.65633,62.2566643 358.375,62.726 Z M357.957,70.624 C358.529003,69.9199965 358.815,68.9226731 358.815,67.632 C358.815,66.3413269 358.529003,65.3330036 357.957,64.607 C357.384997,63.8809964 356.578339,63.518 355.537,63.518 C354.495661,63.518 353.692669,63.8699965 353.128,64.574 C352.563331,65.2780035 352.281,66.2826601 352.281,67.588 C352.281,68.8933399 352.563331,69.9016631 353.128,70.613 C353.692669,71.3243369 354.495661,71.68 355.537,71.68 C356.578339,71.68 357.384997,71.3280035 357.957,70.624 Z M363.303,73 L363.303,62.286 L365.085,62.286 L365.085,73 L363.303,73 Z M363.127,57.644 L365.283,57.644 L365.283,59.646 L363.127,59.646 L363.127,57.644 Z M377.647,66.268 L377.647,73 L375.865,73 L375.865,66.378 C375.865,65.3806617 375.670669,64.6546689 375.282,64.2 C374.893331,63.7453311 374.273671,63.518 373.423,63.518 C372.440328,63.518 371.65567,63.8186637 371.069,64.42 C370.48233,65.0213363 370.189,65.8353282 370.189,66.862 L370.189,73 L368.407,73 L368.407,62.286 L370.167,62.286 L370.167,64.046 C370.519002,63.3859967 371.01033,62.8836684 371.641,62.539 C372.27167,62.1943316 372.990329,62.022 373.797,62.022 C376.363679,62.022 377.647,63.4373192 377.647,66.268 Z M390.495,62.286 L390.495,72.274 C390.495,73.8726747 390.084337,75.0789959 389.263,75.893 C388.441663,76.7070041 387.224341,77.114 385.611,77.114 C383.733657,77.114 382.157006,76.6300048 380.881,75.662 L381.475,74.342 C382.19367,74.8113357 382.86833,75.1486656 383.499,75.354 C384.12967,75.5593344 384.833663,75.662 385.611,75.662 C386.637672,75.662 387.414997,75.3870027 387.943,74.837 C388.471003,74.2869973 388.735,73.4840053 388.735,72.428 L388.735,70.536 C388.426998,71.2253368 387.954003,71.7533315 387.316,72.12 C386.677997,72.4866685 385.926338,72.67 385.061,72.67 C384.122329,72.67 383.290004,72.4500022 382.564,72.01 C381.837996,71.5699978 381.273335,70.9466707 380.87,70.14 C380.466665,69.3333293 380.265,68.4020053 380.265,67.346 C380.265,66.2899947 380.466665,65.3586707 380.87,64.552 C381.273335,63.7453293 381.837996,63.1220022 382.564,62.682 C383.290004,62.2419978 384.122329,62.022 385.061,62.022 C385.911671,62.022 386.65233,62.2053315 387.283,62.572 C387.91367,62.9386685 388.390332,63.45933 388.713,64.134 L388.713,62.286 L390.495,62.286 Z M387.833,70.173 C388.41967,69.4909966 388.713,68.5486727 388.713,67.346 C388.713,66.1579941 388.423336,65.2230034 387.844,64.541 C387.264664,63.8589966 386.454339,63.518 385.413,63.518 C384.371661,63.518 383.554003,63.8589966 382.96,64.541 C382.365997,65.2230034 382.069,66.1579941 382.069,67.346 C382.069,68.5486727 382.365997,69.4909966 382.96,70.173 C383.554003,70.8550034 384.371661,71.196 385.413,71.196 C386.439672,71.196 387.24633,70.8550034 387.833,70.173 Z M14.339,104.472 C13.5689962,104.017331 12.9750021,103.368338 12.557,102.525 C12.1389979,101.681662 11.93,100.702672 11.93,99.588 C11.93,98.4733278 12.1389979,97.4943375 12.557,96.651 C12.9750021,95.8076625 13.5689962,95.1586689 14.339,94.704 C15.1090039,94.2493311 15.9999949,94.022 17.012,94.022 C18.0240051,94.022 18.9186628,94.2493311 19.696,94.704 C20.4733372,95.1586689 21.0709979,95.8076625 21.489,96.651 C21.9070021,97.4943375 22.116,98.4733278 22.116,99.588 C22.116,100.702672 21.9070021,101.681662 21.489,102.525 C21.0709979,103.368338 20.4733372,104.017331 19.696,104.472 C18.9186628,104.926669 18.0240051,105.154 17.012,105.154 C15.9999949,105.154 15.1090039,104.926669 14.339,104.472 Z M19.443,102.635 C20.0076695,101.93833 20.29,100.922673 20.29,99.588 C20.29,98.2826601 20.0040029,97.2743369 19.432,96.563 C18.8599971,95.8516631 18.0533385,95.496 17.012,95.496 C15.9706615,95.496 15.1640029,95.8516631 14.592,96.563 C14.0199971,97.2743369 13.734,98.2826601 13.734,99.588 C13.734,100.908007 14.0163305,101.919996 14.581,102.624 C15.1456695,103.328004 15.9559947,103.68 17.012,103.68 C18.0680053,103.68 18.8783305,103.33167 19.443,102.635 Z M27.132,94.286 L30.168,94.286 L30.168,95.694 L27.132,95.694 L27.132,105 L25.35,105 L25.35,95.694 L23.26,95.694 L23.26,94.286 L25.35,94.286 L25.35,93.934 C25.35,92.5113262 25.7056631,91.433337 26.417,90.7 C27.1283369,89.966663 28.2246593,89.5560004 29.706,89.468 L30.586,89.424 L30.718,90.81 L29.706,90.876 C28.8113289,90.934667 28.1586687,91.1876644 27.748,91.635 C27.3373313,92.0823356 27.132,92.7679954 27.132,93.692 L27.132,94.286 Z M43.324,103.658 L43.236,105.066 C42.898665,105.124667 42.532002,105.154 42.136,105.154 C40.8453269,105.154 39.8736699,104.81667 39.221,104.142 C38.5683301,103.46733 38.242,102.528673 38.242,101.326 L38.242,95.694 L36.152,95.694 L36.152,94.286 L38.242,94.286 L38.242,91.03 L40.024,91.03 L40.024,94.286 L43.06,94.286 L43.06,95.694 L40.024,95.694 L40.024,101.194 C40.024,102.880675 40.8013256,103.724 42.356,103.724 C42.6786683,103.724 43.0013317,103.702 43.324,103.658 Z M54.368,98.268 L54.368,105 L52.586,105 L52.586,98.378 C52.586,97.3806617 52.3916686,96.6546689 52.003,96.2 C51.6143314,95.7453311 50.9946709,95.518 50.144,95.518 C49.1613284,95.518 48.3766696,95.8186637 47.79,96.42 C47.2033304,97.0213363 46.91,97.8353282 46.91,98.862 L46.91,105 L45.128,105 L45.128,89.49 L46.91,89.49 L46.91,96.002 C47.2620018,95.3566634 47.7496636,94.865335 48.373,94.528 C48.9963365,94.190665 49.7113293,94.022 50.518,94.022 C53.0846795,94.022 54.368,95.4373192 54.368,98.268 Z M66.6,99.918 L58.768,99.918 C58.826667,101.164673 59.1639969,102.106997 59.78,102.745 C60.3960031,103.383003 61.268661,103.702 62.398,103.702 C63.6446729,103.702 64.7886615,103.276671 65.83,102.426 L66.424,103.724 C65.9546643,104.164002 65.353337,104.512332 64.62,104.769 C63.886663,105.025668 63.1386705,105.154 62.376,105.154 C60.7039916,105.154 59.3876715,104.662672 58.427,103.68 C57.4663285,102.697328 56.986,101.340675 56.986,99.61 C56.986,98.5099945 57.1986645,97.5383375 57.624,96.695 C58.0493355,95.8516624 58.6469961,95.1953357 59.417,94.726 C60.1870039,94.2566643 61.0633284,94.022 62.046,94.022 C63.4686738,94.022 64.5833293,94.487662 65.39,95.419 C66.1966707,96.350338 66.6,97.6299919 66.6,99.258 L66.6,99.918 Z M59.813,96.288 C59.2483305,96.8746696 58.9146672,97.703328 58.812,98.774 L65.038,98.774 C65.0086665,97.6886612 64.7373359,96.8563362 64.224,96.277 C63.7106641,95.6976638 62.9920046,95.408 62.068,95.408 C61.1293286,95.408 60.3776695,95.7013304 59.813,96.288 Z M90.382,98.268 L90.382,105 L88.6,105 L88.6,98.356 C88.6,97.3733284 88.4276684,96.6546689 88.083,96.2 C87.7383316,95.7453311 87.1846705,95.518 86.422,95.518 C85.5273289,95.518 84.8233359,95.8186637 84.31,96.42 C83.7966641,97.0213363 83.54,97.8426615 83.54,98.884 L83.54,105 L81.758,105 L81.758,98.356 C81.758,97.3586617 81.5820018,96.6363356 81.23,96.189 C80.8779982,95.7416644 80.3206705,95.518 79.558,95.518 C78.6633289,95.518 77.9593359,95.8186637 77.446,96.42 C76.9326641,97.0213363 76.676,97.8426615 76.676,98.884 L76.676,105 L74.894,105 L74.894,94.286 L76.654,94.286 L76.654,95.98 C76.9766683,95.3493302 77.4239971,94.865335 77.996,94.528 C78.5680029,94.190665 79.2279963,94.022 79.976,94.022 C81.6333416,94.022 82.7259974,94.725993 83.254,96.134 C83.5620015,95.4739967 84.0313302,94.9570019 84.662,94.583 C85.2926698,94.2089981 86.0113293,94.022 86.818,94.022 C89.1940119,94.022 90.382,95.4373192 90.382,98.268 Z M95.409,104.472 C94.6389962,104.017331 94.0450021,103.368338 93.627,102.525 C93.2089979,101.681662 93,100.702672 93,99.588 C93,98.4733278 93.2089979,97.4943375 93.627,96.651 C94.0450021,95.8076625 94.6389962,95.1586689 95.409,94.704 C96.1790039,94.2493311 97.0699949,94.022 98.082,94.022 C99.0940051,94.022 99.9886628,94.2493311 100.766,94.704 C101.543337,95.1586689 102.140998,95.8076625 102.559,96.651 C102.977002,97.4943375 103.186,98.4733278 103.186,99.588 C103.186,100.702672 102.977002,101.681662 102.559,102.525 C102.140998,103.368338 101.543337,104.017331 100.766,104.472 C99.9886628,104.926669 99.0940051,105.154 98.082,105.154 C97.0699949,105.154 96.1790039,104.926669 95.409,104.472 Z M100.513,102.635 C101.077669,101.93833 101.36,100.922673 101.36,99.588 C101.36,98.2826601 101.074003,97.2743369 100.502,96.563 C99.9299971,95.8516631 99.1233385,95.496 98.082,95.496 C97.0406615,95.496 96.2340029,95.8516631 95.662,96.563 C95.0899971,97.2743369 94.804,98.2826601 94.804,99.588 C94.804,100.908007 95.0863305,101.919996 95.651,102.624 C96.2156695,103.328004 97.0259947,103.68 98.082,103.68 C99.1380053,103.68 99.9483305,103.33167 100.513,102.635 Z M115.088,98.268 L115.088,105 L113.306,105 L113.306,98.378 C113.306,97.3806617 113.111669,96.6546689 112.723,96.2 C112.334331,95.7453311 111.714671,95.518 110.864,95.518 C109.881328,95.518 109.09667,95.8186637 108.51,96.42 C107.92333,97.0213363 107.63,97.8353282 107.63,98.862 L107.63,105 L105.848,105 L105.848,94.286 L107.608,94.286 L107.608,96.046 C107.960002,95.3859967 108.45133,94.8836684 109.082,94.539 C109.71267,94.1943316 110.431329,94.022 111.238,94.022 C113.804679,94.022 115.088,95.4373192 115.088,98.268 Z M124.02,103.658 L123.932,105.066 C123.594665,105.124667 123.228002,105.154 122.832,105.154 C121.541327,105.154 120.56967,104.81667 119.917,104.142 C119.26433,103.46733 118.938,102.528673 118.938,101.326 L118.938,95.694 L116.848,95.694 L116.848,94.286 L118.938,94.286 L118.938,91.03 L120.72,91.03 L120.72,94.286 L123.756,94.286 L123.756,95.694 L120.72,95.694 L120.72,101.194 C120.72,102.880675 121.497326,103.724 123.052,103.724 C123.374668,103.724 123.697332,103.702 124.02,103.658 Z M135.064,98.268 L135.064,105 L133.282,105 L133.282,98.378 C133.282,97.3806617 133.087669,96.6546689 132.699,96.2 C132.310331,95.7453311 131.690671,95.518 130.84,95.518 C129.857328,95.518 129.07267,95.8186637 128.486,96.42 C127.89933,97.0213363 127.606,97.8353282 127.606,98.862 L127.606,105 L125.824,105 L125.824,89.49 L127.606,89.49 L127.606,96.002 C127.958002,95.3566634 128.445664,94.865335 129.069,94.528 C129.692336,94.190665 130.407329,94.022 131.214,94.022 C133.780679,94.022 135.064,95.4373192 135.064,98.268 Z M143.996,105 L143.996,94.286 L145.778,94.286 L145.778,105 L143.996,105 Z M143.82,89.644 L145.976,89.644 L145.976,91.646 L143.82,91.646 L143.82,89.644 Z M158.34,98.268 L158.34,105 L156.558,105 L156.558,98.378 C156.558,97.3806617 156.363669,96.6546689 155.975,96.2 C155.586331,95.7453311 154.966671,95.518 154.116,95.518 C153.133328,95.518 152.34867,95.8186637 151.762,96.42 C151.17533,97.0213363 150.882,97.8353282 150.882,98.862 L150.882,105 L149.1,105 L149.1,94.286 L150.86,94.286 L150.86,96.046 C151.212002,95.3859967 151.70333,94.8836684 152.334,94.539 C152.96467,94.1943316 153.683329,94.022 154.49,94.022 C157.056679,94.022 158.34,95.4373192 158.34,98.268 Z M167.272,105 L167.272,89.49 L169.054,89.49 L169.054,105 L167.272,105 Z M181.352,99.918 L173.52,99.918 C173.578667,101.164673 173.915997,102.106997 174.532,102.745 C175.148003,103.383003 176.020661,103.702 177.15,103.702 C178.396673,103.702 179.540661,103.276671 180.582,102.426 L181.176,103.724 C180.706664,104.164002 180.105337,104.512332 179.372,104.769 C178.638663,105.025668 177.89067,105.154 177.128,105.154 C175.455992,105.154 174.139671,104.662672 173.179,103.68 C172.218329,102.697328 171.738,101.340675 171.738,99.61 C171.738,98.5099945 171.950665,97.5383375 172.376,96.695 C172.801335,95.8516624 173.398996,95.1953357 174.169,94.726 C174.939004,94.2566643 175.815328,94.022 176.798,94.022 C178.220674,94.022 179.335329,94.487662 180.142,95.419 C180.948671,96.350338 181.352,97.6299919 181.352,99.258 L181.352,99.918 Z M174.565,96.288 C174.000331,96.8746696 173.666667,97.703328 173.564,98.774 L179.79,98.774 C179.760667,97.6886612 179.489336,96.8563362 178.976,96.277 C178.462664,95.6976638 177.744005,95.408 176.82,95.408 C175.881329,95.408 175.129669,95.7013304 174.565,96.288 Z M183.31,103.768 L183.904,102.448 C184.476003,102.902669 185.058997,103.228999 185.653,103.427 C186.247003,103.625001 186.917996,103.724 187.666,103.724 C188.458004,103.724 189.062998,103.588335 189.481,103.317 C189.899002,103.045665 190.108,102.653336 190.108,102.14 C190.108,101.714665 189.968668,101.377335 189.69,101.128 C189.411332,100.878665 188.949337,100.680667 188.304,100.534 L186.5,100.116 C185.590662,99.9106656 184.894002,99.5586692 184.41,99.06 C183.925998,98.5613308 183.684,97.945337 183.684,97.212 C183.684,96.2586619 184.057996,95.4886696 184.806,94.902 C185.554004,94.3153304 186.551327,94.022 187.798,94.022 C188.546004,94.022 189.25733,94.1429988 189.932,94.385 C190.60667,94.6270012 191.171331,94.9753311 191.626,95.43 L191.032,96.728 C190.049328,95.8919958 188.971339,95.474 187.798,95.474 C187.049996,95.474 186.467002,95.6169986 186.049,95.903 C185.630998,96.1890014 185.422,96.5886641 185.422,97.102 C185.422,97.5273355 185.550332,97.868332 185.807,98.125 C186.063668,98.381668 186.477997,98.5759993 187.05,98.708 L188.876,99.148 C189.873338,99.3826678 190.613998,99.738331 191.098,100.215 C191.582002,100.691669 191.824,101.31133 191.824,102.074 C191.824,103.012671 191.446337,103.760664 190.691,104.318 C189.935663,104.875336 188.90534,105.154 187.6,105.154 C185.795991,105.154 184.366005,104.692005 183.31,103.768 Z M193.87,103.768 L194.464,102.448 C195.036003,102.902669 195.618997,103.228999 196.213,103.427 C196.807003,103.625001 197.477996,103.724 198.226,103.724 C199.018004,103.724 199.622998,103.588335 200.041,103.317 C200.459002,103.045665 200.668,102.653336 200.668,102.14 C200.668,101.714665 200.528668,101.377335 200.25,101.128 C199.971332,100.878665 199.509337,100.680667 198.864,100.534 L197.06,100.116 C196.150662,99.9106656 195.454002,99.5586692 194.97,99.06 C194.485998,98.5613308 194.244,97.945337 194.244,97.212 C194.244,96.2586619 194.617996,95.4886696 195.366,94.902 C196.114004,94.3153304 197.111327,94.022 198.358,94.022 C199.106004,94.022 199.81733,94.1429988 200.492,94.385 C201.16667,94.6270012 201.731331,94.9753311 202.186,95.43 L201.592,96.728 C200.609328,95.8919958 199.531339,95.474 198.358,95.474 C197.609996,95.474 197.027002,95.6169986 196.609,95.903 C196.190998,96.1890014 195.982,96.5886641 195.982,97.102 C195.982,97.5273355 196.110332,97.868332 196.367,98.125 C196.623668,98.381668 197.037997,98.5759993 197.61,98.708 L199.436,99.148 C200.433338,99.3826678 201.173998,99.738331 201.658,100.215 C202.142002,100.691669 202.384,101.31133 202.384,102.074 C202.384,103.012671 202.006337,103.760664 201.251,104.318 C200.495663,104.875336 199.46534,105.154 198.16,105.154 C196.355991,105.154 194.926005,104.692005 193.87,103.768 Z M216.442,103.658 L216.354,105.066 C216.016665,105.124667 215.650002,105.154 215.254,105.154 C213.963327,105.154 212.99167,104.81667 212.339,104.142 C211.68633,103.46733 211.36,102.528673 211.36,101.326 L211.36,95.694 L209.27,95.694 L209.27,94.286 L211.36,94.286 L211.36,91.03 L213.142,91.03 L213.142,94.286 L216.178,94.286 L216.178,95.694 L213.142,95.694 L213.142,101.194 C213.142,102.880675 213.919326,103.724 215.474,103.724 C215.796668,103.724 216.119332,103.702 216.442,103.658 Z M227.486,98.268 L227.486,105 L225.704,105 L225.704,98.378 C225.704,97.3806617 225.509669,96.6546689 225.121,96.2 C224.732331,95.7453311 224.112671,95.518 223.262,95.518 C222.279328,95.518 221.49467,95.8186637 220.908,96.42 C220.32133,97.0213363 220.028,97.8353282 220.028,98.862 L220.028,105 L218.246,105 L218.246,89.49 L220.028,89.49 L220.028,96.002 C220.380002,95.3566634 220.867664,94.865335 221.491,94.528 C222.114336,94.190665 222.829329,94.022 223.636,94.022 C226.202679,94.022 227.486,95.4373192 227.486,98.268 Z M238.145,95.067 C238.812337,95.7636701 239.146,96.8233262 239.146,98.246 L239.146,105 L237.408,105 L237.408,103.174 C237.129332,103.80467 236.704003,104.292332 236.132,104.637 C235.559997,104.981668 234.900004,105.154 234.152,105.154 C233.462663,105.154 232.828336,105.014668 232.249,104.736 C231.669664,104.457332 231.211335,104.068669 230.874,103.57 C230.536665,103.071331 230.368,102.521336 230.368,101.92 C230.368,101.113329 230.573331,100.486336 230.984,100.039 C231.394669,99.5916644 232.069329,99.269001 233.008,99.071 C233.946671,98.872999 235.251992,98.774 236.924,98.774 L237.408,98.774 L237.408,98.048 C237.408,97.1533289 237.224669,96.5043354 236.858,96.101 C236.491332,95.6976647 235.897337,95.496 235.076,95.496 C233.843994,95.496 232.619339,95.8773295 231.402,96.64 L230.808,95.342 C231.365336,94.945998 232.036329,94.6270012 232.821,94.385 C233.605671,94.1429988 234.364663,94.022 235.098,94.022 C236.462007,94.022 237.477663,94.3703299 238.145,95.067 Z M236.561,102.855 C237.125669,102.260997 237.408,101.494671 237.408,100.556 L237.408,99.918 L237.012,99.918 C235.721327,99.918 234.73867,99.9729995 234.064,100.083 C233.38933,100.193001 232.909001,100.376332 232.623,100.633 C232.336999,100.889668 232.194,101.267331 232.194,101.766 C232.194,102.338003 232.402998,102.810998 232.821,103.185 C233.239002,103.559002 233.76333,103.746 234.394,103.746 C235.274004,103.746 235.996331,103.449003 236.561,102.855 Z M251.642,98.268 L251.642,105 L249.86,105 L249.86,98.378 C249.86,97.3806617 249.665669,96.6546689 249.277,96.2 C248.888331,95.7453311 248.268671,95.518 247.418,95.518 C246.435328,95.518 245.65067,95.8186637 245.064,96.42 C244.47733,97.0213363 244.184,97.8353282 244.184,98.862 L244.184,105 L242.402,105 L242.402,94.286 L244.162,94.286 L244.162,96.046 C244.514002,95.3859967 245.00533,94.8836684 245.636,94.539 C246.26667,94.1943316 246.985329,94.022 247.792,94.022 C250.35868,94.022 251.642,95.4373192 251.642,98.268 Z M270.782,103.482 L270.782,105 L260.794,105 L260.794,103.636 L266.228,97.652 C266.961337,96.8306626 267.492998,96.0936699 267.823,95.441 C268.153002,94.7883301 268.318,94.1320033 268.318,93.472 C268.318,92.6213291 268.068669,91.9686689 267.57,91.514 C267.071331,91.0593311 266.367338,90.832 265.458,90.832 C263.961993,90.832 262.495341,91.4259941 261.058,92.614 L260.376,91.228 C260.992003,90.6413304 261.765662,90.1756684 262.697,89.831 C263.628338,89.4863316 264.563329,89.314 265.502,89.314 C266.924674,89.314 268.050329,89.680663 268.879,90.414 C269.707671,91.147337 270.122,92.1373271 270.122,93.384 C270.122,94.2786711 269.920335,95.1366626 269.517,95.958 C269.113665,96.7793374 268.450005,97.6959949 267.526,98.708 L263.126,103.482 L270.782,103.482 Z M274.676,103.152 C273.751995,101.80266 273.29,99.8373462 273.29,97.256 C273.29,94.659987 273.751995,92.6873401 274.676,91.338 C275.600005,89.9886599 276.949324,89.314 278.724,89.314 C280.498676,89.314 281.847995,89.9849933 282.772,91.327 C283.696005,92.6690067 284.158,94.637987 284.158,97.234 C284.158,99.830013 283.696005,101.80266 282.772,103.152 C281.847995,104.50134 280.498676,105.176 278.724,105.176 C276.949324,105.176 275.600005,104.50134 274.676,103.152 Z M281.452,102.096 C282.03867,101.054661 282.332,99.434011 282.332,97.234 C282.332,95.0193223 282.042336,93.4023384 281.463,92.383 C280.883664,91.3636616 279.970673,90.854 278.724,90.854 C277.491994,90.854 276.58267,91.3673282 275.996,92.394 C275.40933,93.4206718 275.116,95.033989 275.116,97.234 C275.116,99.434011 275.40933,101.054661 275.996,102.096 C276.58267,103.137339 277.491994,103.658 278.724,103.658 C279.956006,103.658 280.86533,103.137339 281.452,102.096 Z M308.138,98.268 L308.138,105 L306.356,105 L306.356,98.356 C306.356,97.3733284 306.183668,96.6546689 305.839,96.2 C305.494332,95.7453311 304.94067,95.518 304.178,95.518 C303.283329,95.518 302.579336,95.8186637 302.066,96.42 C301.552664,97.0213363 301.296,97.8426615 301.296,98.884 L301.296,105 L299.514,105 L299.514,98.356 C299.514,97.3586617 299.338002,96.6363356 298.986,96.189 C298.633998,95.7416644 298.07667,95.518 297.314,95.518 C296.419329,95.518 295.715336,95.8186637 295.202,96.42 C294.688664,97.0213363 294.432,97.8426615 294.432,98.884 L294.432,105 L292.65,105 L292.65,94.286 L294.41,94.286 L294.41,95.98 C294.732668,95.3493302 295.179997,94.865335 295.752,94.528 C296.324003,94.190665 296.983996,94.022 297.732,94.022 C299.389342,94.022 300.481997,94.725993 301.01,96.134 C301.318002,95.4739967 301.78733,94.9570019 302.418,94.583 C303.04867,94.2089981 303.767329,94.022 304.574,94.022 C306.950012,94.022 308.138,95.4373192 308.138,98.268 Z M311.394,105 L311.394,94.286 L313.176,94.286 L313.176,105 L311.394,105 Z M311.218,89.644 L313.374,89.644 L313.374,91.646 L311.218,91.646 L311.218,89.644 Z M325.738,98.268 L325.738,105 L323.956,105 L323.956,98.378 C323.956,97.3806617 323.761669,96.6546689 323.373,96.2 C322.984331,95.7453311 322.364671,95.518 321.514,95.518 C320.531328,95.518 319.74667,95.8186637 319.16,96.42 C318.57333,97.0213363 318.28,97.8353282 318.28,98.862 L318.28,105 L316.498,105 L316.498,94.286 L318.258,94.286 L318.258,96.046 C318.610002,95.3859967 319.10133,94.8836684 319.732,94.539 C320.36267,94.1943316 321.081329,94.022 321.888,94.022 C324.454679,94.022 325.738,95.4373192 325.738,98.268 Z M338.014,94.286 L338.014,105 L336.276,105 L336.276,103.174 C335.938665,103.819337 335.46567,104.310665 334.857,104.648 C334.24833,104.985335 333.56267,105.154 332.8,105.154 C331.523994,105.154 330.563337,104.798337 329.918,104.087 C329.272663,103.375663 328.95,102.32334 328.95,100.93 L328.95,94.286 L330.732,94.286 L330.732,100.886 C330.732,101.839338 330.922665,102.539664 331.304,102.987 C331.685335,103.434336 332.286663,103.658 333.108,103.658 C334.046671,103.658 334.801997,103.35367 335.374,102.745 C335.946003,102.13633 336.232,101.333338 336.232,100.336 L336.232,94.286 L338.014,94.286 Z M347.012,103.658 L346.924,105.066 C346.586665,105.124667 346.220002,105.154 345.824,105.154 C344.533327,105.154 343.56167,104.81667 342.909,104.142 C342.25633,103.46733 341.93,102.528673 341.93,101.326 L341.93,95.694 L339.84,95.694 L339.84,94.286 L341.93,94.286 L341.93,91.03 L343.712,91.03 L343.712,94.286 L346.748,94.286 L346.748,95.694 L343.712,95.694 L343.712,101.194 C343.712,102.880675 344.489326,103.724 346.044,103.724 C346.366668,103.724 346.689332,103.702 347.012,103.658 Z M357.792,99.918 L349.96,99.918 C350.018667,101.164673 350.355997,102.106997 350.972,102.745 C351.588003,103.383003 352.460661,103.702 353.59,103.702 C354.836673,103.702 355.980661,103.276671 357.022,102.426 L357.616,103.724 C357.146664,104.164002 356.545337,104.512332 355.812,104.769 C355.078663,105.025668 354.33067,105.154 353.568,105.154 C351.895992,105.154 350.579671,104.662672 349.619,103.68 C348.658329,102.697328 348.178,101.340675 348.178,99.61 C348.178,98.5099945 348.390665,97.5383375 348.816,96.695 C349.241335,95.8516624 349.838996,95.1953357 350.609,94.726 C351.379004,94.2566643 352.255328,94.022 353.238,94.022 C354.660674,94.022 355.775329,94.487662 356.582,95.419 C357.388671,96.350338 357.792,97.6299919 357.792,99.258 L357.792,99.918 Z M351.005,96.288 C350.440331,96.8746696 350.106667,97.703328 350.004,98.774 L356.23,98.774 C356.200667,97.6886612 355.929336,96.8563362 355.416,96.277 C354.902664,95.6976638 354.184005,95.408 353.26,95.408 C352.321329,95.408 351.569669,95.7013304 351.005,96.288 Z M359.75,103.768 L360.344,102.448 C360.916003,102.902669 361.498997,103.228999 362.093,103.427 C362.687003,103.625001 363.357996,103.724 364.106,103.724 C364.898004,103.724 365.502998,103.588335 365.921,103.317 C366.339002,103.045665 366.548,102.653336 366.548,102.14 C366.548,101.714665 366.408668,101.377335 366.13,101.128 C365.851332,100.878665 365.389337,100.680667 364.744,100.534 L362.94,100.116 C362.030662,99.9106656 361.334002,99.5586692 360.85,99.06 C360.365998,98.5613308 360.124,97.945337 360.124,97.212 C360.124,96.2586619 360.497996,95.4886696 361.246,94.902 C361.994004,94.3153304 362.991327,94.022 364.238,94.022 C364.986004,94.022 365.69733,94.1429988 366.372,94.385 C367.04667,94.6270012 367.611331,94.9753311 368.066,95.43 L367.472,96.728 C366.489328,95.8919958 365.411339,95.474 364.238,95.474 C363.489996,95.474 362.907002,95.6169986 362.489,95.903 C362.070998,96.1890014 361.862,96.5886641 361.862,97.102 C361.862,97.5273355 361.990332,97.868332 362.247,98.125 C362.503668,98.381668 362.917997,98.5759993 363.49,98.708 L365.316,99.148 C366.313338,99.3826678 367.053998,99.738331 367.538,100.215 C368.022002,100.691669 368.264,101.31133 368.264,102.074 C368.264,103.012671 367.886337,103.760664 367.131,104.318 C366.375663,104.875336 365.34534,105.154 364.04,105.154 C362.235991,105.154 360.806005,104.692005 359.75,103.768 Z M370.596,102.756 L372.84,102.756 L372.84,105 L370.596,105 L370.596,102.756 Z M382.19,103.13 L380.936,102.624 L382.652,99.17 L380.936,95.716 L382.212,95.21 L384.302,98.708 L384.302,99.61 L382.19,103.13 Z M386.172,103.13 L384.918,102.624 L386.634,99.17 L384.918,95.716 L386.194,95.21 L388.284,98.708 L388.284,99.61 L386.172,103.13 Z" id="«-Allow-users-to-do" fill="#FFFFFF"></path>
                    <g id="logo_auchandirect_beta" stroke-width="1" fill="none" transform="translate(69.000000, 0.000000)">
                        <path d="M28.2672566,8.72666667 C27.997644,8.99339023 27.9989381,9.4237371 28.27015,9.68889699 C28.5413619,9.95405688 28.980237,9.95405688 29.2514489,9.68889699 C29.5226608,9.4237371 29.5239549,8.99339023 29.2543423,8.72666667 C29.1249256,8.5956138 28.9468394,8.52162994 28.7607995,8.52162994 C28.5747595,8.52162994 28.3966733,8.5956138 28.2672566,8.72666667" id="Shape" fill="#FFFFFF"></path>
                        <path d="M49.5646186,26.807205 C48.7263587,27.6403671 47.5982976,28.1326018 46.4059442,28.1855072 C44.4554628,28.1855072 43.3420301,27.1401656 43.3420301,25.266294 L43.3420301,12.9235197 L36.6772271,12.9235197 L36.6772271,26.1412836 C36.6772271,30.9808282 38.8882992,33.3502692 43.5236538,33.3502692 C46.9666089,33.3502692 48.9644705,32.3049275 50.409564,30.7253002 L50.835985,32.9321325 L56.1899381,32.9321325 L56.1899381,12.9235197 L49.5646186,12.9235197 L49.5646186,26.807205 L49.5646186,26.807205 Z M70.3881794,27.806087 C67.1110548,27.806087 65.4132673,25.808323 65.4132673,22.7652174 C65.4132673,19.8460041 67.1110548,18.0573085 70.3407993,18.0573085 C71.8972917,18.0323053 73.4250901,18.4695934 74.72346,19.3117184 L75.655269,13.8527122 C73.4745023,12.9177829 71.1087872,12.4707606 68.7298754,12.5440994 C62.1361426,12.5440994 58.5273571,16.2531263 58.5273571,23.0517184 C58.5273571,29.8503106 61.9308288,33.3889855 68.564045,33.3889855 C71.1863662,33.4256125 73.7754128,32.8102394 76.0895867,31.6002899 L75.1498811,26.4819876 C73.7087833,27.3070263 72.079863,27.7649115 70.4118695,27.8138302 L70.3881794,27.806087 Z M90.6984557,12.5440994 C87.974099,12.5440994 86.189448,13.1713043 84.831218,14.2553623 L84.831218,5.46674948 L78.0242747,5.46674948 L78.0242747,32.9321325 L84.6574909,32.9321325 L84.6574909,19.0561905 C85.4969954,18.225873 86.624907,17.7364685 87.8161653,17.6856315 C89.7745434,17.6856315 90.8800795,18.7232298 90.8800795,20.6048447 L90.8800795,32.9321325 L97.5606758,32.9321325 L97.5606758,19.7221118 C97.5606758,14.8903106 95.3496037,12.5131263 90.7221458,12.5131263 L90.6984557,12.5440994 Z M135.267351,12.5131263 C131.824396,12.5131263 129.826535,13.5584679 128.381441,15.1380952 L127.95502,12.9312629 L122.601067,12.9312629 L122.601067,32.9321325 L129.234283,32.9321325 L129.234283,19.0561905 C130.073788,18.225873 131.201699,17.7364685 132.392958,17.6856315 C134.351336,17.6856315 135.456872,18.7232298 135.456872,20.6048447 L135.456872,32.9321325 L142.042708,32.9321325 L142.042708,19.7221118 C142.042708,14.8903106 139.831636,12.5131263 135.243661,12.5131263 L135.267351,12.5131263 Z M99.8744048,23.6789234 C99.8744048,30.4310559 102.425034,33.3502692 107.360463,33.3502692 C110.376997,33.3502692 112.461722,32.3513872 113.606742,30.7253002 L113.946299,32.9321325 L119.347632,32.9321325 L119.347632,13.759793 C116.348147,12.8504916 113.214672,12.4395903 110.076923,12.5440994 C103.48319,12.5440994 99.8744048,16.5086542 99.8744048,23.7176398 L99.8744048,23.6789234 Z M112.564379,26.8149482 C111.774326,27.7139986 110.615705,28.2195683 109.405705,28.1932505 C107.621054,28.1932505 106.641865,26.5671636 106.641865,23.438882 C106.641865,19.6033816 107.694756,17.6856315 109.800539,17.6856315 C110.730401,17.6565415 111.660025,17.7503024 112.564379,17.9643892 L112.564379,26.807205 L112.564379,26.8149482 Z M11.93691,14.9677433 L16.0194967,11.676853 C16.8723388,9.35387164 17.7646643,7.03089027 18.6964732,5.08732919 C19.1623777,6.13267081 19.5966954,7.17801242 20.0625999,8.30078675 C22.3052587,6.49660455 23.679282,5.42028986 25.5271066,4.90923395 C24.3899838,2.47784679 23.5845218,0.751097308 23.2054809,1.77635684e-15 L14.1479821,1.77635684e-15 C13.3583135,1.54865424 10.4918165,7.46451346 7.13572498,15.4245963 L10.4128497,15.4245963 C10.9621708,15.4728605 11.509006,15.3089409 11.93691,14.9677433 L11.93691,14.9677433 Z M1,32.9321325 L9.07830973,32.9321325 L11.8105631,24.553913 L3.91387712,24.553913 C3.01365492,27.0549896 2.0107758,29.8115942 1,32.9321325 L1,32.9321325 Z M25.3691728,25.0417391 L28.2277732,32.9321325 L36.2113226,32.9321325 C34.5530186,28.1003313 32.7683676,23.5472878 31.1100635,19.3814079 C30.0321215,21.9391156 27.9652039,23.9742297 25.3612762,25.0417391 L25.3691728,25.0417391 Z M29.0648219,20.2176812 C31.5838647,16.2221532 32.4682935,9.88041408 32.4682935,9.88041408 L31.4970011,9.44679089 C31.3706542,9.40807453 31.323274,9.28418219 31.449621,9.15254658 L32.1761161,8.27755694 C31.1997329,6.79761013 29.5116746,5.91870932 27.7144886,5.95457557 C26.370265,5.96553192 25.0605208,6.37294607 23.9556661,7.12380952 C22.5850286,8.08758238 21.2670901,9.12144954 20.0073231,10.221118 C16.3732648,13.2651585 13.1040841,16.7046272 10.2628126,20.4732091 C10.2265146,20.5278867 10.2221153,20.5972242 10.2512218,20.6558918 C10.2803283,20.7145595 10.3386772,20.7539639 10.404953,20.7597101 L14.7007501,20.7597101 C17.5040736,20.7597101 21.1602392,20.2563975 24.9664419,16.3383023 C25.0224062,16.2622578 25.127381,16.2390143 25.2112391,16.2840994 C25.2485745,16.3050506 25.2755791,16.3400287 25.2860122,16.3809504 C25.2964453,16.4218722 25.2894042,16.4651963 25.2665159,16.500911 C24.2977854,18.9179071 22.628776,21.0040138 20.4653309,22.5019462 L24.1214965,22.5019462 C26.0674124,22.5718947 27.9252498,21.7043976 29.0964086,20.1789648 L29.0648219,20.2176812 Z M27.1617205,10.7786335 C26.7351184,10.3630504 26.6063198,9.73616664 26.8355327,9.19102523 C27.0647457,8.64588383 27.6066911,8.29017286 28.2080314,8.29017286 C28.8093718,8.29017286 29.3513172,8.64588383 29.5805302,9.19102523 C29.8097431,9.73616664 29.6809444,10.3630504 29.2543423,10.7786335 C28.9772389,11.0514708 28.6007214,11.2048435 28.2080314,11.2048435 C27.8153414,11.2048435 27.438824,11.0514708 27.1617205,10.7786335 L27.1617205,10.7786335 Z" id="Shape" fill="#FFFFFF"></path>
                        <path d="M23.5944824,18.1513458 C23.5106243,18.1062607 23.4056495,18.1295042 23.3496852,18.2055487 C19.5671726,22.1236439 16.5119703,21.7519669 13.6849567,21.7519669 L9.12492258,21.3301367 C9.05864679,21.3243904 9.00029791,21.284986 8.97119141,21.2263184 C8.9420849,21.1676507 8.94648422,21.0983132 8.98278224,21.0436356 C11.8104297,17.2550536 14.6232587,14.0454731 18.2498779,10.9803467 L11.055997,16.8729761 C10.4598652,17.388926 10.4209743,17.8365171 9.62606017,17.8183851 L0.568561388,17.8183851 C0.307970752,17.8183851 0.394834297,18.0274534 0.442214413,18.1513458 C1.1658825,20.3993309 3.34805644,21.8831659 5.74878737,21.7597101 L3.62457885,23.2759461 C3.57175046,23.3247083 3.55538748,23.4005269 3.58354165,23.466094 C3.61169581,23.5316611 3.67843778,23.573168 3.75092583,23.5701904 L11.8292356,23.5701904 C16.7907715,23.5701904 20.1882324,22.5817871 23.0180243,19.0805383 C23.2154415,18.7708075 23.4128586,18.4688199 23.5944824,18.1513458 Z M21.0999449,26.9322153 L23.6505744,33.9011594 L25.4905022,33.9011594 L22.8135257,26.5682816 C22.2382057,26.7094015 21.6556673,26.8205441 21.0683581,26.9012422 M23.1214965,23.5096894 L19.4416408,23.5096894 C18.6381536,24.0010185 17.7830063,24.4060069 16.8910112,24.7176398 C16.8445168,24.7376255 16.8086746,24.77578 16.7921717,24.8228557 C16.7756689,24.8699314 16.7800117,24.9216311 16.8041477,24.9654244 L20.065479,33.9243892 L21.9369936,33.9243892 L18.9362529,25.7087785 C20.8867343,25.7087785 25.5378824,25.1977226 28.0648219,21.2099379 C26.8936631,22.7353707 25.0358256,23.6028678 23.0899097,23.5329193 M36.1933526,8.30078675 L33.192612,8.30078675 L32.4661169,9.1757764 C32.3397699,9.29966874 32.3792533,9.42356108 32.513497,9.4700207 L33.492686,9.88815735 L36.2565261,8.63374741 C36.3413637,8.60863639 36.3933285,8.5249353 36.3771195,8.43950454 C36.3609106,8.35407378 36.2817236,8.29429897 36.1933526,8.30078675" id="Shape" fill="#FFFFFF"></path>
                        <path d="M151.968842,26.2496894 C151.917916,27.9577287 150.506613,29.3247497 148.764239,29.3537428 C147.021866,29.3827359 145.564074,28.0634567 145.454076,26.3580952 C145.378259,25.1826587 145.96747,24.0614959 146.987691,23.4399036 C148.007912,22.8183112 149.293993,22.7969109 150.335135,23.3842021 C151.376277,23.9714933 152.003943,25.0724072 151.968842,26.2496894 L151.968842,26.2496894 Z" id="Shape" fill="#FFFFFF"></path>
                        <path d="M148.731201,18.8548654 C147.005305,18.7894244 145.635685,17.4070536 145.618815,15.7135045 C145.601944,14.0199554 146.943765,12.6116137 148.668027,12.5131263 C149.860122,12.4450355 150.993661,13.0258998 151.617307,14.0244372 C152.240952,15.0229747 152.253445,16.2770578 151.64981,17.2873504 C151.046176,18.2976431 149.924424,18.900109 148.731201,18.8548654 L148.731201,18.8548654 Z" id="Shape" fill="#FFFFFF"></path>
                        <path d="M178.359566,19.4278675 C178.359566,27.5737888 172.405465,32.9398758 163.956011,32.9398758 L155.206483,32.9398758 L155.206483,5.91585921 L163.892838,5.91585921 C172.152771,5.91585921 178.359566,10.9954451 178.359566,19.4278675 L178.359566,19.4278675 Z M161.271138,11.7697723 L161.271138,27.0704762 L164.429812,27.0704762 C169.167824,27.0704762 172.326498,24.1512629 172.326498,19.4665839 C172.326498,15.0374327 168.946717,11.7233126 164.903614,11.7233126 L161.231655,11.7233126 L161.271138,11.7697723 Z" id="Shape" fill="#FFFFFF"></path>
                        <path d="M185.21389,5.57515528 C187.010712,5.57515528 188.467324,7.00346889 188.467324,8.76538302 C188.467324,10.5272972 187.010712,11.9556108 185.21389,11.9556108 C183.417067,11.9556108 181.960455,10.5272972 181.960455,8.76538302 C181.960455,7.00346889 183.417067,5.57515528 185.21389,5.57515528 L185.21389,5.57515528 Z M188.230424,13.3184265 L188.230424,32.947619 L182.236839,32.947619 L182.236839,13.3184265 L188.230424,13.3184265 L188.230424,13.3184265 Z" id="Shape" fill="#FFFFFF"></path>
                        <path d="M198.282905,13.3184265 L198.543496,16.0208282 C199.759585,14.5418634 201.962761,12.7763975 204.647634,12.7763975 L204.647634,18.6535404 C201.852207,18.6535404 199.467408,19.6601656 198.543496,21.8592547 L198.543496,32.947619 L192.549911,32.947619 L192.549911,13.3184265 L198.282905,13.3184265 L198.282905,13.3184265 Z" id="Shape" fill="#FFFFFF"></path>
                        <path d="M225.400125,23.1446377 L225.400125,25.0185093 L211.359817,25.0185093 C211.956746,27.0401537 213.865069,28.4157913 216.010965,28.3713458 C217.671876,28.5043581 219.305343,27.8955288 220.456799,26.7142857 L224.539386,29.8115942 C222.300177,32.0841948 219.23307,33.3930231 216.010965,33.4509317 C209.322472,33.4509317 206.053244,27.9764389 206.053244,23.1446377 C206.053244,18.1734576 209.914723,12.7299379 216.010965,12.7299379 C222.328314,12.760911 225.400125,18.8548654 225.400125,23.1446377 L225.400125,23.1446377 Z M211.580924,20.5506418 L220.069862,20.5506418 C219.504358,18.802432 217.88007,17.5908405 216.010965,17.5230228 C214.025366,17.4975756 212.243805,18.7151465 211.580924,20.5506418 L211.580924,20.5506418 Z" id="Shape" fill="#FFFFFF"></path>
                        <path d="M246.500069,29.2308489 C243.833,32.8485477 239.106376,34.3899008 234.760978,33.0589687 C230.41558,31.7280365 227.423958,27.8226967 227.330956,23.3596279 C227.237953,18.8965591 230.064385,14.874646 234.35071,13.3707647 C238.637035,11.8668834 243.423925,13.2176193 246.239479,16.7254658 L241.864715,19.9698965 C240.566399,18.2826975 238.294274,17.6285705 236.271862,18.3597574 C234.249449,19.0909444 232.954202,21.0348258 233.0836,23.1446377 C233.025192,25.3007809 234.42898,27.2345721 236.525768,27.8864035 C238.622555,28.5382348 240.906164,27.7507496 242.125305,25.9554451 L246.500069,29.2308489 Z" id="Shape" fill="#FFFFFF"></path>
                        <path d="M256.015576,8.80409938 L256.015576,13.3184265 L261.235285,13.3184265 L261.235285,18.7929193 L256.015576,18.7929193 L256.015576,27.1091925 C256.015576,27.8293168 256.1972,28.26294 256.639414,28.26294 C257.302736,28.26294 258.218751,26.9620704 258.510929,26.5361905 L262.735656,29.633499 C260.643034,32.2662112 259.024213,33.5051346 256.631518,33.5051346 C253.36229,33.5051346 250.014095,31.4531677 250.014095,27.4498965 L250.014095,18.785176 L247.597709,18.785176 L247.597709,13.3184265 L250.021991,13.3184265 L250.021991,8.80409938 L256.015576,8.80409938 L256.015576,8.80409938 Z" id="Shape" fill="#FFFFFF"></path>
                    </g>
                </g>
            </g>
        </g>
    </g>
</svg>