<?xml version="1.0" encoding="UTF-8" standalone="no"?>
<svg width="460px" height="610px" viewBox="0 0 460 610" version="1.1" xmlns="http://www.w3.org/2000/svg" xmlns:xlink="http://www.w3.org/1999/xlink">
    <!-- Generator: Sketch 48.2 (47327) - http://www.bohemiancoding.com/sketch -->
    <title>carrefour</title>
    <desc>Created with Sketch.</desc>
    <defs>
        <linearGradient x1="8.77457403%" y1="0%" x2="99.2210296%" y2="100%" id="linearGradient-1">
            <stop stop-color="#A2DAFF" offset="0%"></stop>
            <stop stop-color="#000E65" offset="100%"></stop>
        </linearGradient>
        <rect id="path-2" x="0" y="0" width="460" height="610"></rect>
    </defs>
    <g id="Page-1" stroke="none" stroke-width="1" fill="none" fill-rule="evenodd">
        <g id="carrefour">
            <mask id="mask-3" fill="white">
                <use xlink:href="#path-2"></use>
            </mask>
            <g id="Rectangle-2">
                <use fill="url(#linearGradient-1)" xlink:href="#path-2"></use>
                <use fill-opacity="0.6" fill="#D8D8D8" xlink:href="#path-2"></use>
            </g>
            <g id="Group-11" mask="url(#mask-3)">
                <g transform="translate(108.000000, 257.000000)">
                    <path d="M55.807,88.472 C55.0296628,88.0173311 54.4320021,87.3756708 54.014,86.547 C53.5959979,85.7183292 53.387,84.7466722 53.387,83.632 C53.387,82.5173278 53.6033312,81.5383375 54.036,80.695 C54.4686688,79.8516624 55.0773294,79.1953357 55.862,78.726 C56.6466706,78.2566643 57.5669947,78.022 58.623,78.022 C59.3416703,78.022 60.0456632,78.1503321 60.735,78.407 C61.4243368,78.663668 61.9816645,79.0046645 62.407,79.43 L61.813,80.75 C60.8009949,79.9286626 59.7743385,79.518 58.733,79.518 C57.6329945,79.518 56.7750031,79.8773297 56.159,80.596 C55.5429969,81.3146703 55.235,82.3266601 55.235,83.632 C55.235,84.9226731 55.5429969,85.9199965 56.159,86.624 C56.7750031,87.3280035 57.6329945,87.68 58.733,87.68 C59.7743385,87.68 60.8009949,87.2693374 61.813,86.448 L62.407,87.768 C61.9523311,88.1933355 61.3803368,88.5306654 60.691,88.78 C60.0016632,89.0293346 59.290337,89.154 58.557,89.154 C57.5009947,89.154 56.5843372,88.9266689 55.807,88.472 Z M66.334,88.472 C65.5639962,88.0173311 64.9700021,87.3683376 64.552,86.525 C64.1339979,85.6816625 63.925,84.7026722 63.925,83.588 C63.925,82.4733278 64.1339979,81.4943375 64.552,80.651 C64.9700021,79.8076625 65.5639962,79.1586689 66.334,78.704 C67.1040038,78.2493311 67.9949949,78.022 69.007,78.022 C70.0190051,78.022 70.9136628,78.2493311 71.691,78.704 C72.4683372,79.1586689 73.0659979,79.8076625 73.484,80.651 C73.9020021,81.4943375 74.111,82.4733278 74.111,83.588 C74.111,84.7026722 73.9020021,85.6816625 73.484,86.525 C73.0659979,87.3683376 72.4683372,88.0173311 71.691,88.472 C70.9136628,88.9266689 70.0190051,89.154 69.007,89.154 C67.9949949,89.154 67.1040038,88.9266689 66.334,88.472 Z M71.438,86.635 C72.0026695,85.9383299 72.285,84.9226733 72.285,83.588 C72.285,82.2826601 71.9990029,81.2743369 71.427,80.563 C70.8549971,79.8516631 70.0483385,79.496 69.007,79.496 C67.9656615,79.496 67.1590029,79.8516631 66.587,80.563 C66.0149971,81.2743369 65.729,82.2826601 65.729,83.588 C65.729,84.9080066 66.0113305,85.9199965 66.576,86.624 C67.1406695,87.3280035 67.9509947,87.68 69.007,87.68 C70.0630053,87.68 70.8733305,87.3316702 71.438,86.635 Z M92.261,82.268 L92.261,89 L90.479,89 L90.479,82.356 C90.479,81.3733284 90.3066684,80.6546689 89.962,80.2 C89.6173316,79.7453311 89.0636705,79.518 88.301,79.518 C87.4063289,79.518 86.7023359,79.8186637 86.189,80.42 C85.6756641,81.0213363 85.419,81.8426615 85.419,82.884 L85.419,89 L83.637,89 L83.637,82.356 C83.637,81.3586617 83.4610018,80.6363356 83.109,80.189 C82.7569982,79.7416644 82.1996705,79.518 81.437,79.518 C80.5423289,79.518 79.8383359,79.8186637 79.325,80.42 C78.8116641,81.0213363 78.555,81.8426615 78.555,82.884 L78.555,89 L76.773,89 L76.773,78.286 L78.533,78.286 L78.533,79.98 C78.8556683,79.3493302 79.3029971,78.865335 79.875,78.528 C80.4470029,78.190665 81.1069963,78.022 81.855,78.022 C83.5123416,78.022 84.6049974,78.725993 85.133,80.134 C85.4410015,79.4739967 85.9103302,78.9570019 86.541,78.583 C87.1716698,78.2089981 87.8903293,78.022 88.697,78.022 C91.0730119,78.022 92.261,79.4373192 92.261,82.268 Z M95.517,89 L95.517,78.286 L97.299,78.286 L97.299,89 L95.517,89 Z M95.341,73.644 L97.497,73.644 L97.497,75.646 L95.341,75.646 L95.341,73.644 Z M109.861,82.268 L109.861,89 L108.079,89 L108.079,82.378 C108.079,81.3806617 107.884669,80.6546689 107.496,80.2 C107.107331,79.7453311 106.487671,79.518 105.637,79.518 C104.654328,79.518 103.86967,79.8186637 103.283,80.42 C102.69633,81.0213363 102.403,81.8353282 102.403,82.862 L102.403,89 L100.621,89 L100.621,78.286 L102.381,78.286 L102.381,80.046 C102.733002,79.3859967 103.22433,78.8836684 103.855,78.539 C104.48567,78.1943316 105.204329,78.022 106.011,78.022 C108.577679,78.022 109.861,79.4373192 109.861,82.268 Z M122.709,78.286 L122.709,88.274 C122.709,89.8726747 122.298337,91.0789959 121.477,91.893 C120.655663,92.7070041 119.438341,93.114 117.825,93.114 C115.947657,93.114 114.371006,92.6300048 113.095,91.662 L113.689,90.342 C114.40767,90.8113357 115.08233,91.1486656 115.713,91.354 C116.34367,91.5593344 117.047663,91.662 117.825,91.662 C118.851672,91.662 119.628997,91.3870027 120.157,90.837 C120.685003,90.2869972 120.949,89.4840053 120.949,88.428 L120.949,86.536 C120.640998,87.2253368 120.168003,87.7533315 119.53,88.12 C118.891997,88.4866685 118.140338,88.67 117.275,88.67 C116.336329,88.67 115.504004,88.4500022 114.778,88.01 C114.051996,87.5699978 113.487335,86.9466707 113.084,86.14 C112.680665,85.3333293 112.479,84.4020053 112.479,83.346 C112.479,82.2899947 112.680665,81.3586707 113.084,80.552 C113.487335,79.7453293 114.051996,79.1220022 114.778,78.682 C115.504004,78.2419978 116.336329,78.022 117.275,78.022 C118.125671,78.022 118.86633,78.2053315 119.497,78.572 C120.12767,78.9386685 120.604332,79.45933 120.927,80.134 L120.927,78.286 L122.709,78.286 Z M120.047,86.173 C120.63367,85.4909966 120.927,84.5486727 120.927,83.346 C120.927,82.1579941 120.637336,81.2230034 120.058,80.541 C119.478664,79.8589966 118.668339,79.518 117.627,79.518 C116.585661,79.518 115.768003,79.8589966 115.174,80.541 C114.579997,81.2230034 114.283,82.1579941 114.283,83.346 C114.283,84.5486727 114.579997,85.4909966 115.174,86.173 C115.768003,86.8550034 116.585661,87.196 117.627,87.196 C118.653672,87.196 119.46033,86.8550034 120.047,86.173 Z M131.025,87.768 L131.619,86.448 C132.191003,86.9026689 132.773997,87.228999 133.368,87.427 C133.962003,87.625001 134.632996,87.724 135.381,87.724 C136.173004,87.724 136.777998,87.5883347 137.196,87.317 C137.614002,87.0456653 137.823,86.6533359 137.823,86.14 C137.823,85.7146645 137.683668,85.3773346 137.405,85.128 C137.126332,84.8786654 136.664337,84.6806674 136.019,84.534 L134.215,84.116 C133.305662,83.9106656 132.609002,83.5586692 132.125,83.06 C131.640998,82.5613308 131.399,81.945337 131.399,81.212 C131.399,80.2586619 131.772996,79.4886696 132.521,78.902 C133.269004,78.3153304 134.266327,78.022 135.513,78.022 C136.261004,78.022 136.97233,78.1429988 137.647,78.385 C138.32167,78.6270012 138.886331,78.9753311 139.341,79.43 L138.747,80.728 C137.764328,79.8919958 136.686339,79.474 135.513,79.474 C134.764996,79.474 134.182002,79.6169986 133.764,79.903 C133.345998,80.1890014 133.137,80.5886641 133.137,81.102 C133.137,81.5273355 133.265332,81.868332 133.522,82.125 C133.778668,82.381668 134.192997,82.5759993 134.765,82.708 L136.591,83.148 C137.588338,83.3826678 138.328998,83.738331 138.813,84.215 C139.297002,84.6916691 139.539,85.3113295 139.539,86.074 C139.539,87.0126714 139.161337,87.7606639 138.406,88.318 C137.650663,88.8753361 136.62034,89.154 135.315,89.154 C133.510991,89.154 132.081005,88.6920046 131.025,87.768 Z M144.016,88.472 C143.245996,88.0173311 142.652002,87.3683376 142.234,86.525 C141.815998,85.6816625 141.607,84.7026722 141.607,83.588 C141.607,82.4733278 141.815998,81.4943375 142.234,80.651 C142.652002,79.8076625 143.245996,79.1586689 144.016,78.704 C144.786004,78.2493311 145.676995,78.022 146.689,78.022 C147.701005,78.022 148.595663,78.2493311 149.373,78.704 C150.150337,79.1586689 150.747998,79.8076625 151.166,80.651 C151.584002,81.4943375 151.793,82.4733278 151.793,83.588 C151.793,84.7026722 151.584002,85.6816625 151.166,86.525 C150.747998,87.3683376 150.150337,88.0173311 149.373,88.472 C148.595663,88.9266689 147.701005,89.154 146.689,89.154 C145.676995,89.154 144.786004,88.9266689 144.016,88.472 Z M149.12,86.635 C149.684669,85.9383299 149.967,84.9226733 149.967,83.588 C149.967,82.2826601 149.681003,81.2743369 149.109,80.563 C148.536997,79.8516631 147.730339,79.496 146.689,79.496 C145.647661,79.496 144.841003,79.8516631 144.269,80.563 C143.696997,81.2743369 143.411,82.2826601 143.411,83.588 C143.411,84.9080066 143.693331,85.9199965 144.258,86.624 C144.822669,87.3280035 145.632995,87.68 146.689,87.68 C147.745005,87.68 148.555331,87.3316702 149.12,86.635 Z M156.226,88.472 C155.455996,88.0173311 154.862002,87.3683376 154.444,86.525 C154.025998,85.6816625 153.817,84.7026722 153.817,83.588 C153.817,82.4733278 154.025998,81.4943375 154.444,80.651 C154.862002,79.8076625 155.455996,79.1586689 156.226,78.704 C156.996004,78.2493311 157.886995,78.022 158.899,78.022 C159.911005,78.022 160.805663,78.2493311 161.583,78.704 C162.360337,79.1586689 162.957998,79.8076625 163.376,80.651 C163.794002,81.4943375 164.003,82.4733278 164.003,83.588 C164.003,84.7026722 163.794002,85.6816625 163.376,86.525 C162.957998,87.3683376 162.360337,88.0173311 161.583,88.472 C160.805663,88.9266689 159.911005,89.154 158.899,89.154 C157.886995,89.154 156.996004,88.9266689 156.226,88.472 Z M161.33,86.635 C161.894669,85.9383299 162.177,84.9226733 162.177,83.588 C162.177,82.2826601 161.891003,81.2743369 161.319,80.563 C160.746997,79.8516631 159.940339,79.496 158.899,79.496 C157.857661,79.496 157.051003,79.8516631 156.479,80.563 C155.906997,81.2743369 155.621,82.2826601 155.621,83.588 C155.621,84.9080066 155.903331,85.9199965 156.468,86.624 C157.032669,87.3280035 157.842995,87.68 158.899,87.68 C159.955005,87.68 160.765331,87.3316702 161.33,86.635 Z M175.905,82.268 L175.905,89 L174.123,89 L174.123,82.378 C174.123,81.3806617 173.928669,80.6546689 173.54,80.2 C173.151331,79.7453311 172.531671,79.518 171.681,79.518 C170.698328,79.518 169.91367,79.8186637 169.327,80.42 C168.74033,81.0213363 168.447,81.8353282 168.447,82.862 L168.447,89 L166.665,89 L166.665,78.286 L168.425,78.286 L168.425,80.046 C168.777002,79.3859967 169.26833,78.8836684 169.899,78.539 C170.52967,78.1943316 171.248329,78.022 172.055,78.022 C174.621679,78.022 175.905,79.4373192 175.905,82.268 Z M178.897,86.756 L181.141,86.756 L181.141,89 L178.897,89 L178.897,86.756 Z M183.935,86.756 L186.179,86.756 L186.179,89 L183.935,89 L183.935,86.756 Z M188.973,86.756 L191.217,86.756 L191.217,89 L188.973,89 L188.973,86.756 Z" id="coming-soon…" fill="#FFFFFF"></path>
                    <g id="Page-1" stroke-width="1" fill="none">
                        <path d="M83.7600679,46.6586639 C83.5313742,47.5900574 83.4251306,48.5539098 82.9596399,49.4140738 C82.2456472,50.7349754 81.1111823,51.4373525 79.7129092,51.4355492 C78.3119351,51.4328443 77.4457801,50.7701393 77.0613225,49.405959 C76.5400089,47.5566967 77.3998613,45.1691557 78.9295882,44.2179262 C80.5628576,43.2017787 82.5535734,43.6697295 83.5178686,45.2989918 C83.7672708,45.7200574 83.8879203,46.138418 83.7600679,46.6586639 M85.866031,37.0390738 C85.5554037,38.1120246 85.3852339,39.2237459 85.1088207,40.3075164 C84.8810273,41.1992377 84.8612192,42.145959 84.4029314,43.0764508 C82.123197,40.0703852 77.7167911,40.4283361 75.5144886,43.035877 C74.0567911,44.7616148 73.4274332,46.7650574 73.4445402,48.9839918 C73.4544443,50.2895656 73.7794775,51.5094836 74.6060162,52.576123 C76.2536915,54.7039918 80.1576915,54.9528443 82.0187542,52.7672705 C82.2348428,52.5130082 82.3951085,52.1830082 82.7102376,52.045959 C82.9902524,52.2271885 82.9164221,52.4787459 82.9758465,52.6843197 C83.1973373,53.4489098 83.6538244,53.9998115 84.4614554,54.1422705 C85.3483188,54.3000574 86.2603926,54.4298934 87.003197,53.731123 C87.1976768,53.5480902 87.6028428,53.2144836 87.0968354,52.9836639 C86.1280384,52.5436639 86.2747985,51.7357951 86.4251601,51.0027623 C87.1139424,47.6504672 87.8603483,44.3107951 88.5779424,40.9657131 C88.8327469,39.7773525 89.0749461,38.5853852 89.2964369,37.3907131 C89.3873742,36.9056311 89.3621638,36.4169426 88.911079,36.0797295 C87.9098686,35.3313689 86.2144738,35.8353852 85.866031,37.0390738" id="Fill-1" fill="#FFFFFF"></path>
                        <path d="M127.257075,36.9019344 C127.949458,36.6368525 128.053901,36.3807869 127.675746,35.770377 C127.421842,35.3601311 127.033783,35.1275082 126.579997,35.0643934 C125.17092,34.8669344 123.905001,35.1248033 122.915495,36.265377 C121.988115,37.335623 121.160676,38.478 120.378255,39.655541 C118.299303,42.7842295 116.462551,46.0598852 114.515953,49.2688197 C114.33858,49.5618525 114.262949,49.9847213 113.794757,50.1136557 C113.618285,48.6277541 113.43551,47.200459 113.335569,45.7587377 C113.26534,44.7416885 113.150093,43.7075082 112.72782,42.7544754 C112.262329,41.7022623 111.426787,41.2072623 110.28782,41.218082 C109.156956,41.2289016 108.589724,41.6625902 108.061207,42.9789836 C109.142551,43.1457869 109.644956,43.8346393 109.843938,44.7921803 C109.974492,45.417918 110.074432,46.0517705 110.168971,46.6847213 C110.4823,48.775623 110.805532,50.865623 111.085547,52.9619344 C111.169281,53.5912787 111.48351,53.9483279 112.048041,54.1421803 C113.48413,54.635377 114.870698,54.1448852 115.596396,52.8420164 C117.080204,50.1776721 118.672056,47.5800492 120.326034,45.0202951 C121.738713,42.835623 123.212617,40.6924262 124.944027,38.743082 C125.605798,37.9992295 126.296381,37.2698033 127.257075,36.9019344" id="Fill-3" fill="#FFFFFF"></path>
                        <path d="M131.214556,45.9607049 C130.386217,46.4268525 129.454335,46.5061967 128.535959,46.6089836 C128.188416,46.6486557 127.83187,46.6152951 127.479826,46.6152951 L127.479826,46.6189016 C127.095368,46.6189016 126.710911,46.630623 126.327354,46.6161967 C125.548534,46.5873443 125.437789,46.4259508 125.821346,45.7875902 C126.676697,44.3611967 127.9057,43.4721803 129.586689,43.2864426 C130.140416,43.2260328 130.668032,43.3450492 131.160534,43.6065246 C131.606217,43.8436557 131.921346,44.1628361 131.951058,44.7146393 C131.983472,45.3097213 131.68725,45.6947213 131.214556,45.9607049 M132.384136,41.2532459 C131.601715,40.9827541 130.80759,41.008 130.012564,40.9782459 C128.868195,40.8925902 127.776948,41.1134918 126.731619,41.5616066 C123.749597,42.8383279 122.222571,45.2015246 121.947959,48.3446393 C121.724667,50.8899672 122.85463,53.163 125.401774,53.9059508 C127.442911,54.5019344 129.51466,54.5244754 131.51708,53.6616066 C132.233774,53.3532459 132.855029,52.8943115 133.252092,52.1928361 C133.609538,51.5625902 133.473582,50.6708689 132.970276,50.2786557 C132.335516,49.7827541 132.186955,49.8098033 131.397331,50.5500492 C130.294379,51.5842295 128.973538,51.9638197 127.496933,51.7789836 C126.167988,51.6139836 125.230704,50.7114426 124.992106,49.4617705 C124.895767,48.9532459 124.981302,48.6223443 125.600756,48.6971803 C125.791634,48.7197213 125.985213,48.7215246 126.176992,48.7395574 C128.237036,48.9370164 130.276372,48.7999672 132.269789,48.2490656 C134.037213,47.760377 134.951088,46.5584918 134.969095,44.8408689 C134.988903,42.9807869 134.155162,41.8645574 132.384136,41.2532459" id="Fill-5" fill="#FFFFFF"></path>
                        <path d="M150.595539,41.3747869 C150.210182,41.3829016 149.823023,41.3513443 149.440366,41.3792951 C148.886639,41.4189672 148.76779,41.1367541 148.856027,40.6688033 C149.264794,38.5039672 150.663968,37.8205246 152.350359,38.9250328 C152.760927,39.1937213 152.957207,39.094541 153.216514,38.7771639 C154.054757,37.7529016 153.64599,36.3932295 152.248617,35.9856885 C149.419658,35.1606885 146.922034,36.0055246 145.837089,39.0584754 C145.697532,39.4506885 145.577783,39.8510164 145.475141,40.2549508 C145.193325,41.359459 145.198728,41.3666721 144.043554,41.3738852 C143.524041,41.3765902 143.00903,41.3576557 142.671392,41.8661803 C142.310344,42.4098689 142.188794,43.032 142.410285,43.6126557 C142.622772,44.1680656 143.247628,44.1274918 143.746432,44.1779836 C144.647702,44.2690492 144.654004,44.254623 144.468528,45.1057705 C144.03275,47.1056066 143.587067,49.1036393 143.153089,51.104377 C143.064853,51.5110164 143.022536,51.9275738 142.9352,52.3342131 C142.61917,53.8038852 142.985621,54.2556066 144.514447,54.261918 C145.855097,54.2682295 146.243156,53.9012623 146.529473,52.482082 C147.041783,49.9430656 147.589207,47.4112623 148.105119,44.8731475 C148.214964,44.329459 148.489576,44.1392131 149.037001,44.1752787 C149.642049,44.2158525 150.2552,44.232082 150.851244,44.0436393 C151.4761,43.8461803 152.051436,42.8985574 151.910979,42.2033934 C151.76692,41.492 151.219495,41.3612623 150.595539,41.3747869" id="Fill-7" fill="#FFFFFF"></path>
                        <path d="M162.72243,42.3793934 C162.559463,41.5147213 161.832865,41.2442295 161.116171,41.0566885 C160.661485,40.9376721 160.181588,40.9998852 159.69899,41.1261148 C158.52761,41.4335738 157.851433,42.318082 157.079817,43.3333279 C156.692658,41.6743115 155.919241,41.0386557 154.674931,41.2424262 C154.253559,41.3109508 153.985249,41.4434918 153.876304,41.9907869 C153.302769,44.8724262 152.640998,47.7369344 152.025145,50.6095574 C151.857677,51.390377 151.729824,52.1793115 151.609175,52.9673443 C151.54795,53.3631639 151.633485,53.7337377 151.978326,53.9988197 C152.996644,54.780541 154.831596,54.1989836 155.162931,52.9538197 C155.415935,51.998082 155.586105,51.0207049 155.786887,50.0523443 C156.11102,48.4843934 156.397337,46.9020164 157.343625,45.5549672 C158.248496,44.2665246 159.511714,43.9770984 160.847861,44.8183279 C161.265632,45.0807049 161.556452,45.0320164 161.874282,44.780459 C162.655802,44.1637377 162.902503,43.330623 162.72243,42.3793934" id="Fill-9" fill="#FFFFFF"></path>
                        <path d="M98.9380384,41.2217787 C97.5631749,41.0207131 96.4143041,41.4120246 95.5328428,42.5327623 C95.3437653,42.7735 95.2438244,43.1062049 94.9286952,43.2396475 C94.6117653,43.1125164 94.6855956,42.8068607 94.6063631,42.5796475 C94.4397948,42.0990738 94.1309683,41.7546475 93.6744812,41.5328443 C92.6705697,41.045959 91.8665402,41.3813689 91.6216399,42.4326803 C91.331721,43.6769426 91.0742155,44.9293197 90.8122081,46.1798934 C90.3449166,48.4006311 89.8929314,50.6249754 89.4157358,52.8439098 C89.3175956,53.3046475 89.4193373,53.6905492 89.7605771,53.9718607 C90.7833963,54.8175984 92.6435587,54.181041 92.9514849,52.8745656 C93.2296989,51.6925164 93.4475882,50.4969426 93.713197,49.3121885 C93.9941122,48.0607131 94.3074406,46.8137459 95.0421417,45.733582 C96.0244443,44.290959 97.1769166,44.0439098 98.6562229,44.9455492 C98.8471011,45.0618607 98.9866583,45.2178443 99.2558686,45.1096475 C99.9563557,44.8274344 100.582112,43.6823525 100.499278,42.7780082 C100.421846,41.9313689 99.8600162,41.356123 98.9380384,41.2217787" id="Fill-11" fill="#FFFFFF"></path>
                        <path d="M105.703861,41.3489098 C104.304688,40.7664508 103.181928,41.2677623 102.84519,42.7329262 C102.188821,45.5956311 101.50454,48.4556311 101.04085,51.3589098 C100.731123,53.2947295 101.536053,54.2450574 103.584393,54.2612869 C104.18764,54.2829262 104.924142,54.2657951 105.446356,53.5967787 C105.62733,53.365959 105.733573,53.145959 105.35902,53.0025984 C104.524378,52.6843197 104.424437,52.0396475 104.589204,51.275959 C105.039389,49.1841557 105.488673,47.0923525 105.941559,45.0005492 C106.09012,44.3144016 106.264791,43.6327623 106.396245,42.9430082 C106.55561,42.1080902 106.323315,41.6067787 105.703861,41.3489098" id="Fill-13" fill="#FFFFFF"></path>
                        <path d="M138.569311,49.8353197 C136.979259,49.834418 136.56689,50.2167131 136.570492,51.6863852 C136.574093,53.0731066 137.062093,53.5473689 138.501783,53.5635984 C139.981089,53.5798279 140.524912,53.0667951 140.521311,51.6593361 C140.516809,50.2663033 140.05672,49.8362213 138.569311,49.8353197" id="Fill-15" fill="#FFFFFF"></path>
                        <path d="M106.027094,35.4199098 C104.645027,35.3964672 103.809485,36.1078607 103.780673,37.3322869 C103.754562,38.4313852 104.373116,38.9967131 105.617426,39.0102377 C106.75099,39.1256475 107.741396,38.4512213 107.844939,37.0428607 C107.916968,36.0555656 107.202075,35.4397459 106.027094,35.4199098" id="Fill-17" fill="#FFFFFF"></path>
                        <path d="M56.2270539,12.3145902 C55.6030982,12.3145902 54.9908472,12.4804918 54.3029653,12.8122951 C53.614183,13.1440984 52.8362642,13.782459 51.9575041,15.0213115 C51.4848103,12.8627869 50.0829358,12.5436066 49.2419911,12.5436066 C48.5279985,12.5436066 47.6105225,12.6968852 46.462552,13.3866393 C45.3163823,14.0763934 45.1372089,14.969918 45.1372089,15.3269672 C45.1372089,15.684918 45.2389506,16.322377 45.4424339,16.3737705 C47.6357328,15.9653279 47.7887956,17.0635246 47.7887956,17.9561475 L47.7887956,26.2034426 C47.7887956,26.2034426 47.8725299,27.3494262 47.5087808,27.8886066 C46.9730613,28.6793443 46.0807956,28.807377 45.8512015,28.9092623 C45.545076,29.2158197 45.3974155,30.020082 45.8259911,30.5691803 C46.284279,31.1561475 47.5339911,31.4365574 49.9811941,31.4365574 C52.9893269,31.4365574 54.2129284,31.1561475 54.6721166,30.5691803 C55.1006923,30.020082 54.9530317,29.2158197 54.6460059,28.9092623 C54.4173122,28.807377 52.930803,28.7902459 52.4626111,27.862459 C52.1699911,27.2809016 52.1735926,26.2034426 52.1735926,26.2034426 L52.1735926,21.055082 C52.1735926,18.910082 52.6832015,16.4585246 54.3407808,15.9139344 C54.6081904,17.1518852 55.6409137,17.8163934 56.6862421,17.8163934 C58.1007218,17.8163934 59.1712605,16.6929508 59.1712605,15.1484426 C59.1712605,13.4632787 58.0755114,12.3145902 56.2270539,12.3145902" id="Fill-19" fill="#FFFFFF"></path>
                        <path d="M71.34551,12.3145902 C70.7215542,12.3145902 70.1093033,12.4804918 69.420521,12.8122951 C68.7326391,13.1440984 67.9547203,13.782459 67.0750598,15.0213115 C66.6032664,12.8627869 65.2004915,12.5436066 64.3604472,12.5436066 C63.6464546,12.5436066 62.7280782,12.6968852 61.5810081,13.3866393 C60.433938,14.0763934 60.2547646,14.969918 60.2547646,15.3269672 C60.2547646,15.684918 60.3574066,16.322377 60.56089,16.3737705 C62.7541889,15.9653279 62.9072517,17.0635246 62.9072517,17.9561475 L62.9072517,26.2034426 C62.9072517,26.2034426 62.990986,27.3494262 62.6263365,27.8886066 C62.090617,28.6793443 61.1983513,28.807377 60.9687572,28.9092623 C60.6635321,29.2158197 60.5149712,30.020082 60.9435469,30.5691803 C61.4027351,31.1561475 62.6515469,31.4365574 65.0996502,31.4365574 C68.107783,31.4365574 69.3313845,31.1561475 69.7905727,30.5691803 C70.2191483,30.020082 70.0705875,29.2158197 69.764462,28.9092623 C69.5348679,28.807377 68.0483587,28.7902459 67.5810672,27.862459 C67.2884472,27.2809016 67.2920487,26.2034426 67.2920487,26.2034426 L67.2920487,21.055082 C67.2920487,18.910082 67.8016576,16.4585246 69.4592369,15.9139344 C69.7266465,17.1518852 70.7593697,17.8163934 71.8046982,17.8163934 C73.2191779,17.8163934 74.2897166,16.6929508 74.2897166,15.1484426 C74.2897166,13.4632787 73.1939675,12.3145902 71.34551,12.3145902" id="Fill-21" fill="#FFFFFF"></path>
                        <path d="M159.849442,12.3145902 C159.225486,12.3145902 158.612335,12.4804918 157.924453,12.8122951 C157.235671,13.1440984 156.458652,13.782459 155.578992,15.0213115 C155.106298,12.8627869 153.704424,12.5436066 152.864379,12.5436066 C152.149486,12.5436066 151.23201,12.6968852 150.08494,13.3866393 C148.93787,14.0763934 148.759597,14.969918 148.759597,15.3269672 C148.759597,15.684918 148.861339,16.322377 149.064822,16.3737705 C151.258121,15.9653279 151.410283,17.0635246 151.410283,17.9561475 L151.410283,26.2034426 C151.410283,26.2034426 151.494918,27.3494262 151.130269,27.8886066 C150.594549,28.6793443 149.702283,28.807377 149.472689,28.9092623 C149.167464,29.2158197 149.018903,30.020082 149.447479,30.5691803 C149.905767,31.1561475 151.155479,31.4365574 153.602682,31.4365574 C156.611715,31.4365574 157.834416,31.1561475 158.294505,30.5691803 C158.72308,30.020082 158.57452,29.2158197 158.269294,28.9092623 C158.0388,28.807377 156.552291,28.7902459 156.084999,27.862459 C155.791479,27.2809016 155.79508,26.2034426 155.79508,26.2034426 L155.79508,21.055082 C155.79508,18.910082 156.304689,16.4585246 157.962269,15.9139344 C158.229678,17.1518852 159.263302,17.8163934 160.30863,17.8163934 C161.72311,17.8163934 162.793649,16.6929508 162.793649,15.1484426 C162.793649,13.4632787 161.6979,12.3145902 159.849442,12.3145902" id="Fill-23" fill="#FFFFFF"></path>
                        <path d="M100.485683,12.799582 L100.485683,9.41302459 C100.485683,7.48982787 101.312221,6.5899918 102.262111,6.28613934 C103.085948,6.0237623 104.296945,6.25097541 104.828162,6.72343443 C104.606672,7.0299918 104.470716,7.61786066 104.470716,8.05064754 C104.470716,9.59966393 105.67721,10.4508115 106.808074,10.4508115 C108.223454,10.4508115 109.293993,9.32736885 109.293993,7.78286066 C109.293993,6.09769672 107.564384,3.64253279 102.687085,3.64253279 C98.0979041,3.64253279 95.9136089,6.60441803 95.9136089,11.1486803 L95.9136089,12.8626967 L95.8965018,12.8626967 C94.0858598,12.8626967 93.7419188,12.9140902 93.2710258,13.4758115 C92.8226421,14.009582 92.8496531,15.0590902 93.23231,15.569418 L95.9136089,15.6217131 L95.9136089,26.2033525 C95.9136089,26.2033525 95.9973432,27.3493361 95.6326937,27.8885164 C95.0978745,28.6792541 94.2056089,28.8072869 93.9760148,28.9091721 C93.6698893,29.2166311 93.5213284,30.0199918 93.9508044,30.5690902 C94.4090923,31.1560574 96.1341993,31.4364672 98.5823026,31.4364672 C101.591336,31.4364672 102.641166,31.1181885 103.273225,30.5690902 C103.72341,30.176877 103.55414,29.2166311 103.248015,28.9091721 C103.018421,28.8072869 101.318524,28.7901557 100.851232,27.8623689 C100.557712,27.2808115 100.561314,26.2033525 100.561314,26.2033525 L100.561314,15.7127787 L102.409771,15.7488443 C104.220413,15.7488443 104.475218,15.6460574 105.048753,15.0329426 C105.525048,14.5253197 105.45662,13.1313852 105.112679,12.8122049 L100.485683,12.799582 Z" id="Fill-25" fill="#FFFFFF"></path>
                        <path d="M115.714344,28.815582 C112.867377,28.7470574 111.273724,25.7599262 111.163879,21.9910738 C111.054034,18.220418 112.561252,15.1647623 115.31458,15.1647623 C118.034595,15.1647623 119.767805,18.0590246 119.865945,21.9910738 C119.959584,25.7599262 118.306506,28.8768934 115.714344,28.815582 M115.450536,12.3399262 C110.157266,12.3399262 105.898521,16.683123 105.898521,22.0415656 C105.898521,27.4000082 109.842137,31.7423033 115.450536,31.7423033 C121.19579,31.7423033 125.002551,27.4000082 125.002551,22.0415656 C125.002551,16.683123 121.467702,12.3399262 115.450536,12.3399262" id="Fill-27" fill="#FFFFFF"></path>
                        <path d="M86.3618642,19.4626066 L79.5037535,19.4626066 C79.6054952,17.4970328 80.7039454,15.2735902 83.1754583,15.1644918 C85.2913255,15.071623 86.8714731,16.501623 86.9741151,18.6204754 C86.9993255,19.1560492 86.8210524,19.4626066 86.3618642,19.4626066 M91.690248,19.6158852 C91.690248,16.7567869 89.8291852,12.3405574 84.0416133,12.3405574 C78.3566834,12.3405574 74.7101889,16.6296557 74.5580266,22.0421967 C74.4067646,27.3979344 78.4323144,31.7429344 84.0416133,31.7429344 C86.0260266,31.7429344 87.779045,31.2244918 89.2241373,30.3255574 C91.961259,28.621459 91.077997,25.5901475 90.1857314,25.7948197 C89.982248,26.0238361 88.5290524,27.8884262 85.5461299,27.8884262 C81.1352221,27.8884262 79.4533328,24.5694918 79.4533328,22.1179344 L90.9501446,22.1179344 C91.2310598,21.6067049 91.690248,20.7393279 91.690248,19.6158852" id="Fill-29" fill="#FFFFFF"></path>
                        <path d="M147.369157,28.2454754 C145.355932,28.4753934 145.05791,27.4033443 145.05791,26.4070328 L145.05791,15.3691639 C145.05791,13.0546557 143.120316,12.4767049 142.100198,12.5443279 C141.388006,12.5921148 140.32377,12.6976066 139.1776,13.386459 C138.03053,14.0762131 137.740611,14.8976066 137.682087,15.2501475 C137.626264,15.5819508 137.682087,16.3735902 137.936892,16.3483443 C140.12929,15.9399016 140.363386,17.2671148 140.363386,18.1606393 L140.363386,22.0755574 C140.363386,24.0844098 140.264345,27.9993279 136.560227,27.9993279 C134.486677,27.9993279 133.432345,26.5350656 133.432345,22.3821148 L133.432345,15.3691639 C133.432345,13.0546557 131.494751,12.4767049 130.475534,12.5443279 C129.763342,12.5921148 128.699106,12.6976066 127.552035,13.386459 C126.404065,14.0762131 126.129452,14.9003115 126.055622,15.2501475 C125.975489,15.6333443 126.023209,16.3059672 126.225792,16.3573607 C128.419091,15.9480164 128.737821,17.2671148 128.737821,18.1606393 L128.737821,24.5947377 C128.737821,27.1472787 129.803858,31.6924426 134.98008,31.6924426 C137.656877,31.6924426 139.491829,30.2362951 140.358884,29.1380984 C140.409305,29.0749836 140.511046,29.0362131 140.538058,29.1642459 C140.818072,31.3858852 142.296478,31.8105574 143.315696,31.7429344 C144.027888,31.6951475 144.551903,31.6527705 145.891652,31.1298197 C147.395268,30.5428525 147.612257,29.6231803 147.612257,29.2661311 C147.612257,28.909082 147.573541,28.2968689 147.369157,28.2454754" id="Fill-31" fill="#FFFFFF"></path>
                        <path d="M36.9957122,26.8406311 C36.2475055,27.7206311 34.9068561,28.441041 33.6643469,28.441041 C31.824893,28.441041 30.5715793,27.1796475 30.5715793,25.4971885 C30.5715793,23.4369426 32.1310185,22.5181721 33.9704723,22.5181721 C35.4326716,22.5181721 36.4239779,22.9698934 36.9957122,23.6821885 L36.9957122,26.8406311 Z M43.9474613,28.8666148 C42.0954022,28.7485 41.584893,28.0073525 41.584893,27.0119426 L41.584893,18.9269426 C41.584893,13.9399754 39.3582804,12.3575984 34.0560074,12.3575984 C29.0760664,12.3575984 26.9556974,14.7442377 26.9556974,16.4285 C26.9556974,17.9730082 27.9668118,19.045959 29.3812915,19.045959 C30.512155,19.045959 31.7438598,18.0757951 31.7438598,16.5267787 C31.7438598,16.221123 31.6754317,15.9307951 31.590797,15.6080082 C32.0328782,15.2166967 34.2765978,14.9272705 35.4326716,15.4204672 C36.2231956,15.7576803 36.9957122,16.5267787 36.9957122,18.0929262 L36.9957122,20.4930902 C36.1637712,20.2370246 35.3300295,19.8628443 33.188952,19.8628443 C29.0247454,19.8628443 25.5574244,21.8203033 25.5574244,25.7866148 C25.5574244,29.7015328 29.1435941,31.760877 32.1688339,31.760877 C34.2937048,31.760877 36.4014686,30.7564508 37.446797,29.7439098 C37.5044207,29.6871066 37.5989594,29.6420246 37.6250701,29.7691557 C38.2877417,31.1991557 39.6563026,31.6571885 40.7007306,31.7094836 C41.3814096,31.7437459 41.7271513,31.6950574 42.3835203,31.5048115 C43.1488339,31.2839098 43.6719483,30.5517787 43.8799336,30.1775984 C44.0537048,29.8647295 44.151845,28.9180082 43.9474613,28.8666148 Z" id="Fill-33" fill="#FFFFFF"></path>
                        <path d="M20.1912251,21.0964672 C18.6209815,21.0964672 17.3478598,22.4056475 17.3478598,24.019582 C17.3478598,24.922123 17.7467232,25.7281885 18.3715793,26.2646639 C17.6332768,27.672123 15.9657934,28.6476967 13.7454834,28.6476967 C9.24183764,28.6476967 6.71,23.9934344 6.71,18.2472869 C6.71,12.5101557 9.28865683,7.84687705 13.6428413,7.84687705 C15.772214,7.84687705 17.394679,8.76564754 18.1987085,10.3038443 C17.5999631,10.839418 17.2218081,11.6256475 17.2218081,12.5056475 C17.2218081,14.1204836 18.4940295,15.4296639 20.0633727,15.4296639 C21.6336162,15.4296639 22.906738,14.1204836 22.906738,12.5056475 C22.906738,7.87212295 18.0366421,4.54417213 13.0684059,4.54417213 C6.3237417,4.54417213 0.899918819,10.6762213 0.899918819,18.2391721 C0.899918819,25.8030246 5.92307749,31.9350738 13.0684059,31.9350738 C18.6236827,31.9350738 23.2380738,28.1689262 23.0345904,24.019582 C23.0345904,22.4056475 21.7605683,21.0964672 20.1912251,21.0964672" id="Fill-35" fill="#FFFFFF"></path>
                        <path d="M189.987944,22.0413852 C189.987944,29.704418 192.778187,36.7308934 197.401582,42.1208934 C197.459206,42.1795 197.49432,42.2606475 197.49432,42.3499098 C197.49432,42.5302377 197.34756,42.6772049 197.166586,42.6772049 C197.076549,42.6772049 196.994615,42.6411393 196.935191,42.5816311 L178.335368,24.592123 C177.683501,23.9393361 177.280136,23.0376967 177.280136,22.0413852 C177.280136,21.0450738 177.683501,20.1434344 178.335368,19.4906475 L196.935191,1.50113934 C196.994615,1.44163115 197.076549,1.40556557 197.166586,1.40556557 C197.34756,1.40556557 197.49432,1.55253279 197.49432,1.7337623 C197.49432,1.82212295 197.459206,1.90327049 197.401582,1.96187705 C192.778187,7.35187705 189.987944,14.3783525 189.987944,22.0413852" id="Fill-38" fill="#FFFFFF"></path>
                        <path d="M243.647325,22.0413852 C243.647325,23.0376967 243.24396,23.9393361 242.592093,24.592123 L223.99227,42.5816311 C223.932846,42.6411393 223.851813,42.6772049 223.760875,42.6772049 C223.579901,42.6772049 223.433141,42.5302377 223.433141,42.3499098 C223.433141,42.2606475 223.469156,42.1795 223.525879,42.1208934 C226.442174,37.8579426 226.598838,34.9195 226.598838,33.3452377 C226.598838,29.3049918 223.994971,26.9084344 220.975134,26.9084344 C217.955296,26.9084344 215.40275,29.497041 215.40275,32.7158934 C215.40275,35.0601557 216.861348,36.9229426 218.180388,38.2429426 C218.756624,38.8208934 219.035739,39.7126148 218.23261,40.9541721 C217.42948,42.1966311 215.175857,43.4381885 213.341805,43.7880246 C211.837289,44.0747459 210.582174,44.2433525 209.097466,43.8583525 C207.673082,43.489582 204.511886,42.1867131 202.581495,35.6543361 C201.341687,31.4563033 200.992344,26.5757295 200.992344,22.0413852 C200.992344,17.507041 201.341687,12.6264672 202.581495,8.42843443 C204.511886,1.89605738 207.673082,0.593188525 209.097466,0.224418033 C210.582174,-0.160581967 211.837289,0.00802459016 213.341805,0.294745902 C215.175857,0.644581967 217.42948,1.88613934 218.23261,3.12859836 C219.035739,4.37015574 218.756624,5.26187705 218.180388,5.83982787 C216.861348,7.15982787 215.40275,9.02261475 215.40275,11.366877 C215.40275,14.5857295 217.955296,17.1743361 220.975134,17.1743361 C223.994971,17.1743361 226.598838,14.7777787 226.598838,10.7366311 C226.598838,9.16327049 226.442174,6.22482787 223.525879,1.96187705 C223.469156,1.90327049 223.433141,1.82212295 223.433141,1.7337623 C223.433141,1.55253279 223.579901,1.40556557 223.760875,1.40556557 C223.851813,1.40556557 223.932846,1.44163115 223.99227,1.50113934 L242.592093,19.4906475 C243.24396,20.1434344 243.647325,21.0450738 243.647325,22.0413852" id="Fill-40" fill="#FFFFFF"></path>
                    </g>
                </g>
            </g>
        </g>
    </g>
</svg>