<?xml version="1.0" encoding="UTF-8" standalone="no"?>
<svg width="288px" height="288px" viewBox="0 0 288 288" version="1.1" xmlns="http://www.w3.org/2000/svg" xmlns:xlink="http://www.w3.org/1999/xlink">
    <!-- Generator: Sketch 48.2 (47327) - http://www.bohemiancoding.com/sketch -->
    <title>dribbble-ball</title>
    <desc>Created with Sketch.</desc>
    <defs>
        <path d="M144,287.2 C65,287.2 0.72,223.01 0.72,144.11 C0.72,65.21 65,1 144,1 C223,1 287.28,65.19 287.28,144.09 C287.28,222.99 223,287.2 144,287.2 Z M264.83,163.7 C260.64,162.38 226.95,152.34 188.6,158.48 C199.006378,186.792431 206.962271,215.946195 212.38,245.62 C240.431871,226.732188 259.420024,197.080844 264.84,163.7 L264.83,163.7 Z M191.83,256.81 C186.083411,225.159035 177.340744,194.126086 165.72,164.13 L164.91,164.4 C95.91,188.4 71.1,236.23 68.91,240.72 C103.934723,267.984235 150.978234,274.141642 191.84,256.81 L191.83,256.81 Z M53.07,226 C55.84,221.26 89.43,165.72 152.55,145.35 C154.143333,144.836667 155.75,144.353333 157.37,143.9 C154.3,136.96 150.95,130.01 147.45,123.16 C86.33,141.43 27.03,140.66 21.67,140.55 C21.67,141.79 21.61,143.03 21.61,144.28 C21.5882721,174.480931 32.8021792,203.609999 53.07,226 Z M24.19,119.25 C29.66,119.32 80.08,119.54 137.33,104.36 C123.487305,80.0021027 108.342012,56.4078915 91.96,33.68 C57.2278392,50.0313591 32.1502094,81.6957059 24.19,119.25 Z M115.31,25.46 C132.077153,48.2893308 147.339463,72.1865866 161,97 C204.52,80.71 222.94,56 225.14,52.85 C195.213092,26.3217118 154.211588,16.0909384 115.33,25.45 L115.31,25.46 Z M238.72,67 C236.14,70.49 215.63,96.74 170.38,115.19 C173.23,121.01 175.96,126.93 178.5,132.89 C179.4,135.003333 180.28,137.106667 181.14,139.2 C221.86,134.09 262.32,142.28 266.36,143.13 C266.121611,115.339588 256.366336,88.4702276 238.72,67 Z" id="path-1"></path>
    </defs>
    <g id="Page-1" stroke="none" stroke-width="1" fill="none" fill-rule="evenodd">
        <g id="dribbble-ball">
            <path d="M139.963877,0.480000335 C216.307927,0.542867893 278.151929,62.4717994 278.110026,138.815864 C278.068123,215.159928 216.156176,277.020933 139.812103,276.999995 C63.4680303,276.979056 1.59002588,215.084099 1.59,138.740024 C1.62429089,62.3508637 63.5747149,0.451412435 139.963877,0.480000335 Z" id="Shape" fill="#EA4C89"></path>
            <mask id="mask-2" fill="white">
                <use xlink:href="#path-1"></use>
            </mask>
            <use id="Shape" fill="#C32361" xlink:href="#path-1"></use>
        </g>
    </g>
</svg>