<?xml version="1.0" encoding="UTF-8" standalone="no"?>
<svg width="460px" height="610px" viewBox="0 0 460 610" version="1.1" xmlns="http://www.w3.org/2000/svg" xmlns:xlink="http://www.w3.org/1999/xlink">
    <!-- Generator: Sketch 48.2 (47327) - http://www.bohemiancoding.com/sketch -->
    <title>PVO Copy</title>
    <desc>Created with Sketch.</desc>
    <defs>
        <linearGradient x1="8.77457403%" y1="0%" x2="99.2210296%" y2="100%" id="linearGradient-1">
            <stop stop-color="#6AE2BC" offset="0%"></stop>
            <stop stop-color="#196E53" offset="100%"></stop>
        </linearGradient>
        <rect id="path-2" x="0" y="0" width="460" height="610"></rect>
    </defs>
    <g id="Page-1" stroke="none" stroke-width="1" fill="none" fill-rule="evenodd">
        <g id="PVO-Copy">
            <mask id="mask-3" fill="white">
                <use xlink:href="#path-2"></use>
            </mask>
            <g id="Rectangle-2">
                <use fill="url(#linearGradient-1)" xlink:href="#path-2"></use>
                <use fill-opacity="0.6" fill="#D8D8D8" xlink:href="#path-2"></use>
            </g>
            <g id="Group-13" mask="url(#mask-3)">
                <g transform="translate(110.000000, 255.000000)">
                    <path d="M53.42,94.828 C52.6426628,94.3733311 52.0450021,93.7316708 51.627,92.903 C51.2089979,92.0743292 51,91.1026722 51,89.988 C51,88.8733278 51.2163312,87.8943375 51.649,87.051 C52.0816688,86.2076624 52.6903294,85.5513357 53.475,85.082 C54.2596706,84.6126643 55.1799947,84.378 56.236,84.378 C56.9546703,84.378 57.6586632,84.506332 58.348,84.763 C59.0373368,85.0196679 59.5946645,85.3606645 60.02,85.786 L59.426,87.106 C58.4139949,86.2846626 57.3873385,85.874 56.346,85.874 C55.2459945,85.874 54.3880031,86.2333297 53.772,86.952 C53.1559969,87.6706703 52.848,88.6826601 52.848,89.988 C52.848,91.2786731 53.1559969,92.2759965 53.772,92.98 C54.3880031,93.6840035 55.2459945,94.036 56.346,94.036 C57.3873385,94.036 58.4139949,93.6253374 59.426,92.804 L60.02,94.124 C59.5653311,94.5493355 58.9933368,94.8866654 58.304,95.136 C57.6146632,95.3853346 56.903337,95.51 56.17,95.51 C55.1139947,95.51 54.1973372,95.2826689 53.42,94.828 Z M63.947,94.828 C63.1769962,94.3733311 62.5830021,93.7243376 62.165,92.881 C61.7469979,92.0376624 61.538,91.0586722 61.538,89.944 C61.538,88.8293278 61.7469979,87.8503375 62.165,87.007 C62.5830021,86.1636625 63.1769962,85.5146689 63.947,85.06 C64.7170038,84.6053311 65.6079949,84.378 66.62,84.378 C67.6320051,84.378 68.5266628,84.6053311 69.304,85.06 C70.0813372,85.5146689 70.6789979,86.1636625 71.097,87.007 C71.5150021,87.8503375 71.724,88.8293278 71.724,89.944 C71.724,91.0586722 71.5150021,92.0376624 71.097,92.881 C70.6789979,93.7243376 70.0813372,94.3733311 69.304,94.828 C68.5266628,95.2826689 67.6320051,95.51 66.62,95.51 C65.6079949,95.51 64.7170038,95.2826689 63.947,94.828 Z M69.051,92.991 C69.6156695,92.2943298 69.898,91.2786733 69.898,89.944 C69.898,88.6386601 69.6120029,87.6303369 69.04,86.919 C68.4679971,86.2076631 67.6613385,85.852 66.62,85.852 C65.5786615,85.852 64.7720029,86.2076631 64.2,86.919 C63.6279971,87.6303369 63.342,88.6386601 63.342,89.944 C63.342,91.2640066 63.6243305,92.2759965 64.189,92.98 C64.7536695,93.6840035 65.5639947,94.036 66.62,94.036 C67.6760053,94.036 68.4863305,93.6876702 69.051,92.991 Z M89.874,88.624 L89.874,95.356 L88.092,95.356 L88.092,88.712 C88.092,87.7293284 87.9196684,87.0106689 87.575,86.556 C87.2303316,86.1013311 86.6766705,85.874 85.914,85.874 C85.0193289,85.874 84.3153359,86.1746637 83.802,86.776 C83.2886641,87.3773363 83.032,88.1986615 83.032,89.24 L83.032,95.356 L81.25,95.356 L81.25,88.712 C81.25,87.7146617 81.0740018,86.9923356 80.722,86.545 C80.3699982,86.0976644 79.8126705,85.874 79.05,85.874 C78.1553289,85.874 77.4513359,86.1746637 76.938,86.776 C76.4246641,87.3773363 76.168,88.1986615 76.168,89.24 L76.168,95.356 L74.386,95.356 L74.386,84.642 L76.146,84.642 L76.146,86.336 C76.4686683,85.7053302 76.9159971,85.221335 77.488,84.884 C78.0600029,84.546665 78.7199963,84.378 79.468,84.378 C81.1253416,84.378 82.2179974,85.081993 82.746,86.49 C83.0540015,85.8299967 83.5233302,85.3130019 84.154,84.939 C84.7846698,84.5649981 85.5033293,84.378 86.31,84.378 C88.6860119,84.378 89.874,85.7933192 89.874,88.624 Z M93.13,95.356 L93.13,84.642 L94.912,84.642 L94.912,95.356 L93.13,95.356 Z M92.954,80 L95.11,80 L95.11,82.002 L92.954,82.002 L92.954,80 Z M107.474,88.624 L107.474,95.356 L105.692,95.356 L105.692,88.734 C105.692,87.7366617 105.497669,87.0106689 105.109,86.556 C104.720331,86.1013311 104.100671,85.874 103.25,85.874 C102.267328,85.874 101.48267,86.1746637 100.896,86.776 C100.30933,87.3773363 100.016,88.1913282 100.016,89.218 L100.016,95.356 L98.234,95.356 L98.234,84.642 L99.994,84.642 L99.994,86.402 C100.346002,85.7419967 100.83733,85.2396684 101.468,84.895 C102.09867,84.5503316 102.817329,84.378 103.624,84.378 C106.190679,84.378 107.474,85.7933192 107.474,88.624 Z M120.322,84.642 L120.322,94.63 C120.322,96.2286747 119.911337,97.4349959 119.09,98.249 C118.268663,99.0630041 117.051341,99.47 115.438,99.47 C113.560657,99.47 111.984006,98.9860048 110.708,98.018 L111.302,96.698 C112.02067,97.1673357 112.69533,97.5046656 113.326,97.71 C113.95667,97.9153344 114.660663,98.018 115.438,98.018 C116.464672,98.018 117.241997,97.7430027 117.77,97.193 C118.298003,96.6429972 118.562,95.8400053 118.562,94.784 L118.562,92.892 C118.253998,93.5813368 117.781003,94.1093315 117.143,94.476 C116.504997,94.8426685 115.753338,95.026 114.888,95.026 C113.949329,95.026 113.117004,94.8060022 112.391,94.366 C111.664996,93.9259978 111.100335,93.3026707 110.697,92.496 C110.293665,91.6893293 110.092,90.7580053 110.092,89.702 C110.092,88.6459947 110.293665,87.7146707 110.697,86.908 C111.100335,86.1013293 111.664996,85.4780022 112.391,85.038 C113.117004,84.5979978 113.949329,84.378 114.888,84.378 C115.738671,84.378 116.47933,84.5613315 117.11,84.928 C117.74067,85.2946685 118.217332,85.81533 118.54,86.49 L118.54,84.642 L120.322,84.642 Z M117.66,92.529 C118.24667,91.8469966 118.54,90.9046727 118.54,89.702 C118.54,88.5139941 118.250336,87.5790034 117.671,86.897 C117.091664,86.2149966 116.281339,85.874 115.24,85.874 C114.198661,85.874 113.381003,86.2149966 112.787,86.897 C112.192997,87.5790034 111.896,88.5139941 111.896,89.702 C111.896,90.9046727 112.192997,91.8469966 112.787,92.529 C113.381003,93.2110034 114.198661,93.552 115.24,93.552 C116.266672,93.552 117.07333,93.2110034 117.66,92.529 Z M128.638,94.124 L129.232,92.804 C129.804003,93.2586689 130.386997,93.584999 130.981,93.783 C131.575003,93.981001 132.245996,94.08 132.994,94.08 C133.786004,94.08 134.390998,93.9443347 134.809,93.673 C135.227002,93.4016653 135.436,93.0093359 135.436,92.496 C135.436,92.0706645 135.296668,91.7333346 135.018,91.484 C134.739332,91.2346654 134.277337,91.0366674 133.632,90.89 L131.828,90.472 C130.918662,90.2666656 130.222002,89.9146692 129.738,89.416 C129.253998,88.9173308 129.012,88.301337 129.012,87.568 C129.012,86.6146619 129.385996,85.8446696 130.134,85.258 C130.882004,84.6713304 131.879327,84.378 133.126,84.378 C133.874004,84.378 134.58533,84.4989988 135.26,84.741 C135.93467,84.9830012 136.499331,85.3313311 136.954,85.786 L136.36,87.084 C135.377328,86.2479958 134.299339,85.83 133.126,85.83 C132.377996,85.83 131.795002,85.9729986 131.377,86.259 C130.958998,86.5450014 130.75,86.9446641 130.75,87.458 C130.75,87.8833355 130.878332,88.224332 131.135,88.481 C131.391668,88.737668 131.805997,88.9319993 132.378,89.064 L134.204,89.504 C135.201338,89.7386678 135.941998,90.0943309 136.426,90.571 C136.910002,91.047669 137.152,91.6673295 137.152,92.43 C137.152,93.3686714 136.774337,94.1166639 136.019,94.674 C135.263663,95.2313361 134.23334,95.51 132.928,95.51 C131.123991,95.51 129.694005,95.0480046 128.638,94.124 Z M141.629,94.828 C140.858996,94.3733311 140.265002,93.7243376 139.847,92.881 C139.428998,92.0376624 139.22,91.0586722 139.22,89.944 C139.22,88.8293278 139.428998,87.8503375 139.847,87.007 C140.265002,86.1636625 140.858996,85.5146689 141.629,85.06 C142.399004,84.6053311 143.289995,84.378 144.302,84.378 C145.314005,84.378 146.208663,84.6053311 146.986,85.06 C147.763337,85.5146689 148.360998,86.1636625 148.779,87.007 C149.197002,87.8503375 149.406,88.8293278 149.406,89.944 C149.406,91.0586722 149.197002,92.0376624 148.779,92.881 C148.360998,93.7243376 147.763337,94.3733311 146.986,94.828 C146.208663,95.2826689 145.314005,95.51 144.302,95.51 C143.289995,95.51 142.399004,95.2826689 141.629,94.828 Z M146.733,92.991 C147.297669,92.2943298 147.58,91.2786733 147.58,89.944 C147.58,88.6386601 147.294003,87.6303369 146.722,86.919 C146.149997,86.2076631 145.343339,85.852 144.302,85.852 C143.260661,85.852 142.454003,86.2076631 141.882,86.919 C141.309997,87.6303369 141.024,88.6386601 141.024,89.944 C141.024,91.2640066 141.306331,92.2759965 141.871,92.98 C142.435669,93.6840035 143.245995,94.036 144.302,94.036 C145.358005,94.036 146.168331,93.6876702 146.733,92.991 Z M153.839,94.828 C153.068996,94.3733311 152.475002,93.7243376 152.057,92.881 C151.638998,92.0376624 151.43,91.0586722 151.43,89.944 C151.43,88.8293278 151.638998,87.8503375 152.057,87.007 C152.475002,86.1636625 153.068996,85.5146689 153.839,85.06 C154.609004,84.6053311 155.499995,84.378 156.512,84.378 C157.524005,84.378 158.418663,84.6053311 159.196,85.06 C159.973337,85.5146689 160.570998,86.1636625 160.989,87.007 C161.407002,87.8503375 161.616,88.8293278 161.616,89.944 C161.616,91.0586722 161.407002,92.0376624 160.989,92.881 C160.570998,93.7243376 159.973337,94.3733311 159.196,94.828 C158.418663,95.2826689 157.524005,95.51 156.512,95.51 C155.499995,95.51 154.609004,95.2826689 153.839,94.828 Z M158.943,92.991 C159.507669,92.2943298 159.79,91.2786733 159.79,89.944 C159.79,88.6386601 159.504003,87.6303369 158.932,86.919 C158.359997,86.2076631 157.553339,85.852 156.512,85.852 C155.470661,85.852 154.664003,86.2076631 154.092,86.919 C153.519997,87.6303369 153.234,88.6386601 153.234,89.944 C153.234,91.2640066 153.516331,92.2759965 154.081,92.98 C154.645669,93.6840035 155.455995,94.036 156.512,94.036 C157.568005,94.036 158.378331,93.6876702 158.943,92.991 Z M173.518,88.624 L173.518,95.356 L171.736,95.356 L171.736,88.734 C171.736,87.7366617 171.541669,87.0106689 171.153,86.556 C170.764331,86.1013311 170.144671,85.874 169.294,85.874 C168.311328,85.874 167.52667,86.1746637 166.94,86.776 C166.35333,87.3773363 166.06,88.1913282 166.06,89.218 L166.06,95.356 L164.278,95.356 L164.278,84.642 L166.038,84.642 L166.038,86.402 C166.390002,85.7419967 166.88133,85.2396684 167.512,84.895 C168.14267,84.5503316 168.861329,84.378 169.668,84.378 C172.23468,84.378 173.518,85.7933192 173.518,88.624 Z M176.51,93.112 L178.754,93.112 L178.754,95.356 L176.51,95.356 L176.51,93.112 Z M181.548,93.112 L183.792,93.112 L183.792,95.356 L181.548,95.356 L181.548,93.112 Z M186.586,93.112 L188.83,93.112 L188.83,95.356 L186.586,95.356 L186.586,93.112 Z" id="coming-soon…" fill="#FFFFFF"></path>
                    <g id="groupama" stroke-width="1" fill="none" transform="translate(120.500000, 34.500000) scale(1, -1) translate(-120.500000, -34.500000) ">
                        <polyline id="path18" fill="#FFFFFF" points="22 30 33 30 30.8253359 34 24.0544932 34 22 30"></polyline>
                        <polyline id="path20" fill="#FFFFFF" points="37 32 50 32 47.2567945 36 39.9810982 36 37 32"></polyline>
                        <polyline id="path22" fill="#FFFFFF" points="31 34 38 34 34.4994041 44 31 34"></polyline>
                        <path d="M0,26 L25,26 L0.984939642,17 C0.984939642,17 0,19.4067367 0,26" id="path24" fill="#FFFFFF"></path>
                        <path d="M5,11.3724642 L30,27 L13.909533,4 C13.909533,4 8.96085786,6.74993933 5,11.3724642" id="path26" fill="#FFFFFF"></path>
                        <path d="M22,0.99143128 L33,26 L31.6842586,0.23769684 C31.6842586,0.23769684 25.7066566,-0.644933285 22,0.99143128" id="path28" fill="#FFFFFF"></path>
                        <path d="M39.8025224,2 L36,26 L48,4.94094472 C48,4.94094472 43.6020804,2 39.8025224,2" id="path30" fill="#FFFFFF"></path>
                        <path d="M54.8280897,9 L39,27 L62,15.5891297 C62,15.5891297 59.2794354,11.2804428 54.8280897,9" id="path32" fill="#FFFFFF"></path>
                        <path d="M65.2047479,19 L46,26 L68,26 C68,26 66.297182,20.4535339 65.2047479,19.3970807 L65.2047479,19" id="path34" fill="#FFFFFF"></path>
                        <path d="M54.4157643,56.5601082 C44.8756784,59.0073776 12.0121783,59.3772014 1.49107553,30 C1.45948208,30.0106123 1,30 1,30 C6.37752815,52.1077502 31.4693652,72.559011 67,68.4764769 L54.4157643,56.5601082" id="path36" fill="#FFFFFF"></path>
                        <path d="M192.607662,27.4118514 C190.121847,29.7635789 183.987829,28.9146841 181.881503,28.532608 L181.881503,25.4059518 C181.881503,25.4059518 190.799506,28.2212323 190.574683,23.0965139 C190.011826,23.0965139 186.849945,23.1724393 184.891907,22.9415608 C182.935463,22.7105191 180,21.3992143 180,18.7026386 C180,16.0065527 182.595836,14.0395139 186.057482,14 L193.962982,14.1147861 L193.998061,22.7105191 C193.998061,22.7105191 194.11127,25.8314605 192.607662,27.4118514 Z M190.536415,16.8133212 C187.412802,16.7744604 183.611528,16.5837489 183.611528,18.4327361 C183.611528,20.2817232 186.923292,20.4355334 190.536415,20.3971625 C190.536415,19.6281118 190.536415,16.8133212 190.536415,16.8133212 Z" id="path38" fill="#FFFFFF"></path>
                        <path d="M239.604861,27.4122413 C237.122786,29.7634986 230.988537,28.9156808 228.882679,28.5298193 L228.882679,25.4087984 C228.882679,25.4087984 237.798701,28.2223384 237.572333,23.0959151 C237.009602,23.0959151 233.846829,23.1718463 231.89082,22.9407866 C229.933217,22.7118497 227,21.4004429 227,18.7034942 C227,16.0040961 229.596853,14.0401701 233.05773,14 L240.959879,14.114795 L240.998139,22.7118497 C240.998139,22.7118497 241.109728,25.8328706 239.604861,27.4122413 Z M237.534074,16.81354 C234.414343,16.7753294 230.613914,16.584603 230.613914,18.433734 C230.613914,20.2802523 233.924942,20.4366871 237.534074,20.3963537 C237.534074,19.6270799 237.534074,16.81354 237.534074,16.81354 Z" id="path40" fill="#FFFFFF"></path>
                        <path d="M103.720614,32.4716318 L103.720614,35.4234198 C100.170698,36.3179009 86.1603646,37.7576368 84.0671413,25.8213371 C83.3949923,19.4451523 87.8410538,14.2728107 94.1929095,13.2631836 C98.7143226,12.6378704 104.542516,13.2631836 106,13.7292034 C106,16.0617731 106,25.8997484 106,25.8997484 L99.3487958,25.8997484 L99.3866299,23.0981938 L101.853287,23.0229124 L101.889696,16.3719588 C97.9655556,16.0617731 88.475527,15.4781365 88.475527,24.5768058 C88.475527,35.7281693 104.345272,32.4149649 103.720614,32.4716318" id="path42" fill="#FFFFFF"></path>
                        <path d="M111,14 L111,28.4938912 L114.505992,28.4554651 L114.544304,27.448995 C116.376371,28.7664871 117.253333,28.9602601 120.958481,29 C120.958481,28.2250723 121,25.8216303 121,25.8216303 C118.609451,26.556654 115.541772,25.89799 114.863966,23.0710391 C114.902954,20.8996322 114.784304,14.0789871 114.784304,14.0789871 L111,14" id="path44" fill="#FFFFFF"></path>
                        <path d="M130.499771,28 C126.772826,27.9613604 122,26.2262494 122,20.309117 C122,14.392783 126.966903,13 130.614902,13 C133.836917,13 138.963523,14.5842248 138.999707,20.346639 C139.039181,26.1157592 135.078684,27.9239981 130.499771,28 Z M130.570495,16.0006387 C128.379722,16.0006387 125.398659,16.8350631 125.398659,20.387035 C125.398659,23.9359732 128.264591,24.9770078 130.499771,24.9987227 C133.249751,24.9544947 135.624733,23.867316 135.600062,20.4108255 C135.577036,16.950503 132.501401,16.0006387 130.570495,16.0006387 Z" id="path46" fill="#FFFFFF"></path>
                        <path d="M145.395153,28 L142.037935,28 L142,18.0115257 C143.120653,13.3498864 146.402002,13 148.940464,13 C151.475764,13 152.409905,13.4282609 153.865648,14.5918596 C153.865648,14.1275398 153.826133,13.3498864 153.826133,13.3498864 L157,13.3903909 L157,28 L153.826133,28 L153.789779,19.216946 C152.78451,15.7192347 149.983667,15.9927224 149.089041,15.9927224 C148.192835,15.9927224 145.507376,16.7683999 145.434668,18.7126157 C145.358799,20.6550203 145.395153,28 145.395153,28" id="path48" fill="#FFFFFF"></path>
                        <path d="M164.230512,27.3722028 L164.192765,28.6931059 L161.075494,28.6153185 L161,8 L164.340607,8.03724568 C164.340607,8.03724568 164.450703,13.7577535 164.450703,15.2726308 C166.198073,13.1726997 177,11.654691 177,21.2622634 C177,30.8716486 166.81618,29.7058258 164.230512,27.3722028 Z M168.999214,16.5188778 C166.284577,16.5188778 164.081097,18.7025294 164.081097,21.3993802 C164.081097,24.0973847 166.284577,26.280377 168.999214,26.280377 C171.715423,26.280377 173.918903,24.0973847 173.918903,21.3993802 C173.918903,18.7025294 171.715423,16.5188778 168.999214,16.5188778 Z" id="path52" fill="#FFFFFF"></path>
                        <path d="M198,14 L198,28.5526292 L201.32647,28.5526292 L201.32647,27.6691845 C204.418093,29.3337681 207.982628,29.7269076 210.787929,26.7391467 C213.874727,29.4839935 220.292819,30.6589352 222.8118,24.7777602 C222.956569,22.8677752 223,14.0991554 223,14.0991554 L219.580234,14 L219.435465,23.3580804 C219.388817,26.9852113 212.211491,26.641981 212.211491,23.3108241 C212.211491,19.9763509 212.166452,14 212.166452,14 L208.741861,14 C208.741861,14 208.794943,18.9005646 208.741861,23.1151663 C208.695213,26.9359652 201.374727,26.7857398 201.374727,23.0148502 C201.374727,18.9491475 201.32647,14 201.32647,14 L198,14" id="path54" fill="#FFFFFF"></path>
                    </g>
                </g>
            </g>
        </g>
    </g>
</svg>