<?xml version="1.0" encoding="UTF-8" standalone="no"?>
<svg width="241px" height="69px" viewBox="0 0 241 69" version="1.1" xmlns="http://www.w3.org/2000/svg" xmlns:xlink="http://www.w3.org/1999/xlink">
    <!-- Generator: Sketch 48.2 (47327) - http://www.bohemiancoding.com/sketch -->
    <title>groupama</title>
    <desc>Created with Sketch.</desc>
    <defs></defs>
    <g id="Page-1" stroke="none" stroke-width="1" fill="none" fill-rule="evenodd">
        <g id="groupama" transform="translate(-110.000000, -255.000000)" fill="#FFFFFF" fill-rule="nonzero">
            <g id="Group-13-Clipped">
                <g id="Group-13" transform="translate(110.000000, 255.000000)">
                    <g id="Group">
                        <g id="groupama" transform="translate(120.500000, 34.500000) scale(-1, 1) rotate(-180.000000) translate(-120.500000, -34.500000) ">
                            <polyline id="path18" points="22 30 33 30 30.8253359 34 24.0544932 34 22 30"></polyline>
                            <polyline id="path20" points="37 32 50 32 47.2567945 36 39.9810982 36 37 32"></polyline>
                            <polyline id="path22" points="31 34 38 34 34.4994041 44 31 34"></polyline>
                            <path d="M0,26 L25,26 L0.984939642,17 C0.984939642,17 0,19.4067367 0,26" id="path24"></path>
                            <path d="M5,11.3724642 L30,27 L13.909533,4 C13.909533,4 8.96085786,6.74993933 5,11.3724642" id="path26"></path>
                            <path d="M22,0.99143128 L33,26 L31.6842586,0.23769684 C31.6842586,0.23769684 25.7066566,-0.644933285 22,0.99143128" id="path28"></path>
                            <path d="M39.8025224,2 L36,26 L48,4.94094472 C48,4.94094472 43.6020804,2 39.8025224,2" id="path30"></path>
                            <path d="M54.8280897,9 L39,27 L62,15.5891297 C62,15.5891297 59.2794354,11.2804428 54.8280897,9" id="path32"></path>
                            <path d="M65.2047479,19 L46,26 L68,26 C68,26 66.297182,20.4535339 65.2047479,19.3970807 L65.2047479,19" id="path34"></path>
                            <path d="M54.4157643,56.5601082 C44.8756784,59.0073776 12.0121783,59.3772014 1.49107553,30 C1.45948208,30.0106123 1,30 1,30 C6.37752815,52.1077502 31.4693652,72.559011 67,68.4764769 L54.4157643,56.5601082" id="path36"></path>
                            <path d="M192.607662,27.4118514 C190.121847,29.7635789 183.987829,28.9146841 181.881503,28.532608 L181.881503,25.4059518 C181.881503,25.4059518 190.799506,28.2212323 190.574683,23.0965139 C190.011826,23.0965139 186.849945,23.1724393 184.891907,22.9415608 C182.935463,22.7105191 180,21.3992143 180,18.7026386 C180,16.0065527 182.595836,14.0395139 186.057482,14 L193.962982,14.1147861 L193.998061,22.7105191 C193.998061,22.7105191 194.11127,25.8314605 192.607662,27.4118514 Z M190.536415,16.8133212 C187.412802,16.7744604 183.611528,16.5837489 183.611528,18.4327361 C183.611528,20.2817232 186.923292,20.4355334 190.536415,20.3971625 C190.536415,19.6281118 190.536415,16.8133212 190.536415,16.8133212 Z" id="path38"></path>
                            <path d="M239.604861,27.4122413 C237.122786,29.7634986 230.988537,28.9156808 228.882679,28.5298193 L228.882679,25.4087984 C228.882679,25.4087984 237.798701,28.2223384 237.572333,23.0959151 C237.009602,23.0959151 233.846829,23.1718463 231.89082,22.9407866 C229.933217,22.7118497 227,21.4004429 227,18.7034942 C227,16.0040961 229.596853,14.0401701 233.05773,14 L240.959879,14.114795 L240.998139,22.7118497 C240.998139,22.7118497 241.109728,25.8328706 239.604861,27.4122413 Z M237.534074,16.81354 C234.414343,16.7753294 230.613914,16.584603 230.613914,18.433734 C230.613914,20.2802523 233.924942,20.4366871 237.534074,20.3963537 C237.534074,19.6270799 237.534074,16.81354 237.534074,16.81354 Z" id="path40"></path>
                            <path d="M103.720614,32.4716318 L103.720614,35.4234198 C100.170698,36.3179009 86.1603646,37.7576368 84.0671413,25.8213371 C83.3949923,19.4451523 87.8410538,14.2728107 94.1929095,13.2631836 C98.7143226,12.6378704 104.542516,13.2631836 106,13.7292034 C106,16.0617731 106,25.8997484 106,25.8997484 L99.3487958,25.8997484 L99.3866299,23.0981938 L101.853287,23.0229124 L101.889696,16.3719588 C97.9655556,16.0617731 88.475527,15.4781365 88.475527,24.5768058 C88.475527,35.7281693 104.345272,32.4149649 103.720614,32.4716318" id="path42"></path>
                            <path d="M111,14 L111,28.4938912 L114.505992,28.4554651 L114.544304,27.448995 C116.376371,28.7664871 117.253333,28.9602601 120.958481,29 C120.958481,28.2250723 121,25.8216303 121,25.8216303 C118.609451,26.556654 115.541772,25.89799 114.863966,23.0710391 C114.902954,20.8996322 114.784304,14.0789871 114.784304,14.0789871 L111,14" id="path44"></path>
                            <path d="M130.499771,28 C126.772826,27.9613604 122,26.2262494 122,20.309117 C122,14.392783 126.966903,13 130.614902,13 C133.836917,13 138.963523,14.5842248 138.999707,20.346639 C139.039181,26.1157592 135.078684,27.9239981 130.499771,28 Z M130.570495,16.0006387 C128.379722,16.0006387 125.398659,16.8350631 125.398659,20.387035 C125.398659,23.9359732 128.264591,24.9770078 130.499771,24.9987227 C133.249751,24.9544947 135.624733,23.867316 135.600062,20.4108255 C135.577036,16.950503 132.501401,16.0006387 130.570495,16.0006387 Z" id="path46"></path>
                            <path d="M145.395153,28 L142.037935,28 L142,18.0115257 C143.120653,13.3498864 146.402002,13 148.940464,13 C151.475764,13 152.409905,13.4282609 153.865648,14.5918596 C153.865648,14.1275398 153.826133,13.3498864 153.826133,13.3498864 L157,13.3903909 L157,28 L153.826133,28 L153.789779,19.216946 C152.78451,15.7192347 149.983667,15.9927224 149.089041,15.9927224 C148.192835,15.9927224 145.507376,16.7683999 145.434668,18.7126157 C145.358799,20.6550203 145.395153,28 145.395153,28" id="path48"></path>
                            <path d="M164.230512,27.3722028 L164.192765,28.6931059 L161.075494,28.6153185 L161,8 L164.340607,8.03724568 C164.340607,8.03724568 164.450703,13.7577535 164.450703,15.2726308 C166.198073,13.1726997 177,11.654691 177,21.2622634 C177,30.8716486 166.81618,29.7058258 164.230512,27.3722028 Z M168.999214,16.5188778 C166.284577,16.5188778 164.081097,18.7025294 164.081097,21.3993802 C164.081097,24.0973847 166.284577,26.280377 168.999214,26.280377 C171.715423,26.280377 173.918903,24.0973847 173.918903,21.3993802 C173.918903,18.7025294 171.715423,16.5188778 168.999214,16.5188778 Z" id="path52"></path>
                            <path d="M198,14 L198,28.5526292 L201.32647,28.5526292 L201.32647,27.6691845 C204.418093,29.3337681 207.982628,29.7269076 210.787929,26.7391467 C213.874727,29.4839935 220.292819,30.6589352 222.8118,24.7777602 C222.956569,22.8677752 223,14.0991554 223,14.0991554 L219.580234,14 L219.435465,23.3580804 C219.388817,26.9852113 212.211491,26.641981 212.211491,23.3108241 C212.211491,19.9763509 212.166452,14 212.166452,14 L208.741861,14 C208.741861,14 208.794943,18.9005646 208.741861,23.1151663 C208.695213,26.9359652 201.374727,26.7857398 201.374727,23.0148502 C201.374727,18.9491475 201.32647,14 201.32647,14 L198,14" id="path54"></path>
                        </g>
                    </g>
                </g>
            </g>
        </g>
    </g>
</svg>