<?xml version="1.0" encoding="UTF-8" standalone="no"?>
<svg width="164px" height="16px" viewBox="0 0 164 16" version="1.1" xmlns="http://www.w3.org/2000/svg" xmlns:xlink="http://www.w3.org/1999/xlink">
    <g id="Page-1" stroke="none" stroke-width="1" fill="none" fill-rule="evenodd">
        <g id="logo" fill="#26344D" fill-rule="nonzero">
            <path d="M11.84,15 L10.04,15 L7.64,10.48 C7.3466652,9.9333306 7.0033353,9.5566677 6.61,9.35 C6.2166647,9.1433323 5.6800034,9.04 5,9.04 L2.36,9.04 L2.36,15 L0.74,15 L0.74,0.9 L6.54,0.9 C8.073341,0.9 9.2433293,1.2399966 10.05,1.92 C10.8566707,2.6000034 11.26,3.5999934 11.26,4.92 C11.26,6.0133388 10.9500031,6.8966633 10.33,7.57 C9.7099969,8.2433367 8.8266724,8.6666658 7.68,8.84 C8.0400018,8.9466672 8.3566653,9.1266654 8.63,9.38 C8.9033347,9.6333346 9.1533322,9.9733312 9.38,10.4 L11.84,15 Z M6.4,7.68 C7.4933388,7.68 8.3099973,7.4533356 8.85,7 C9.3900027,6.5466644 9.66,5.8600046 9.66,4.94 C9.66,4.0333288 9.393336,3.3600022 8.86,2.92 C8.326664,2.4799978 7.5066722,2.26 6.4,2.26 L2.36,2.26 L2.36,7.68 L6.4,7.68 Z M14.46,15 L14.46,0.9 L23.38,0.9 L23.38,2.26 L16.08,2.26 L16.08,7.16 L22.98,7.16 L22.98,8.52 L16.08,8.52 L16.08,13.64 L23.38,13.64 L23.38,15 L14.46,15 Z M38.08,0.9 L39.42,0.9 L39.42,15 L37.92,15 L37.94,4.08 L33.36,12.76 L32.2,12.76 L27.6,4.16 L27.62,15 L26.1,15 L26.1,0.9 L27.46,0.9 L32.8,11.12 L38.08,0.9 Z M53.54,0.9 L48,8.34 L48,15 L46.36,15 L46.36,8.32 L40.82,0.9 L42.72,0.9 L47.2,6.98 L51.68,0.9 L53.54,0.9 Z M62.18,14.76 C61.1533282,14.4799986 60.3200032,14.106669 59.68,13.64 L60.82,11.04 C61.5000034,11.4666688 62.2266628,11.7933322 63,12.02 C63.7733372,12.2466678 64.5533294,12.36 65.34,12.36 C66.140004,12.36 66.7499979,12.2500011 67.17,12.03 C67.5900021,11.8099989 67.8,11.500002 67.8,11.1 C67.8,10.7399982 67.6100019,10.4466678 67.23,10.22 C66.8499981,9.9933322 66.126672,9.7666678 65.06,9.54 C63.7399934,9.2599986 62.7066704,8.9266686 61.96,8.54 C61.2133296,8.1533314 60.6900015,7.7000026 60.39,7.18 C60.0899985,6.6599974 59.94,6.0200038 59.94,5.26 C59.94,4.393329 60.1833309,3.6166701 60.67,2.93 C61.1566691,2.2433299 61.8433289,1.7033353 62.73,1.31 C63.6166711,0.9166647 64.6333276,0.72 65.78,0.72 C66.7933384,0.72 67.7766619,0.8633319 68.73,1.15 C69.6833381,1.4366681 70.426664,1.8066644 70.96,2.26 L69.84,4.86 C68.5599936,3.9799956 67.2133404,3.54 65.8,3.54 C65.1199966,3.54 64.5733354,3.6699987 64.16,3.93 C63.7466646,4.1900013 63.54,4.5333312 63.54,4.96 C63.54,5.2133346 63.6133326,5.4199992 63.76,5.58 C63.9066674,5.7400008 64.179998,5.8966659 64.58,6.05 C64.980002,6.2033341 65.5733294,6.3599992 66.36,6.52 C67.6400064,6.8000014 68.646663,7.1366647 69.38,7.53 C70.113337,7.9233353 70.6333318,8.3799974 70.94,8.9 C71.2466682,9.4200026 71.4,10.0399964 71.4,10.76 C71.4,12.1466736 70.866672,13.2299961 69.8,14.01 C68.733328,14.7900039 67.233343,15.18 65.3,15.18 C64.2466614,15.18 63.2066718,15.0400014 62.18,14.76 Z M84.22,15 L82.96,12.08 L76.72,12.08 L75.46,15 L71.76,15 L78.34,0.9 L81.26,0.9 L87.86,15 L84.22,15 Z M77.9,9.32 L81.78,9.32 L79.84,4.8 L77.9,9.32 Z M88.7,0.9 L94.44,0.9 C96.0000078,0.9 97.3433277,1.1799972 98.47,1.74 C99.596672,2.3000028 100.459997,3.1099947 101.06,4.17 C101.660003,5.2300053 101.96,6.4866594 101.96,7.94 C101.96,9.406674 101.663336,10.6699947 101.07,11.73 C100.476664,12.7900053 99.616672,13.5999972 98.49,14.16 C97.3633277,14.7200028 96.0133412,15 94.44,15 L88.7,15 L88.7,0.9 Z M94.18,12.04 C95.5666736,12.04 96.5999966,11.7000034 97.28,11.02 C97.9600034,10.3399966 98.3,9.3133402 98.3,7.94 C98.3,6.5666598 97.9600034,5.5433367 97.28,4.87 C96.5999966,4.1966633 95.5666736,3.86 94.18,3.86 L92.38,3.86 L92.38,12.04 L94.18,12.04 Z M104.16,0.9 L109.9,0.9 C111.460008,0.9 112.803328,1.1799972 113.93,1.74 C115.056672,2.3000028 115.919997,3.1099947 116.52,4.17 C117.120003,5.2300053 117.42,6.4866594 117.42,7.94 C117.42,9.406674 117.123336,10.6699947 116.53,11.73 C115.936664,12.7900053 115.076672,13.5999972 113.95,14.16 C112.823328,14.7200028 111.473341,15 109.9,15 L104.16,15 L104.16,0.9 Z M109.64,12.04 C111.026674,12.04 112.059997,11.7000034 112.74,11.02 C113.420003,10.3399966 113.76,9.3133402 113.76,7.94 C113.76,6.5666598 113.420003,5.5433367 112.74,4.87 C112.059997,4.1966633 111.026674,3.86 109.64,3.86 L107.84,3.86 L107.84,12.04 L109.64,12.04 Z M122.57,14.29 C121.509995,13.6966637 120.693336,12.8566721 120.12,11.77 C119.546664,10.6833279 119.26,9.406674 119.26,7.94 C119.26,6.473326 119.546664,5.1966721 120.12,4.11 C120.693336,3.0233279 121.509995,2.1866696 122.57,1.6 C123.630005,1.0133304 124.879993,0.72 126.32,0.72 C127.760007,0.72 129.009995,1.0133304 130.07,1.6 C131.130005,2.1866696 131.94333,3.0233279 132.51,4.11 C133.076669,5.1966721 133.36,6.473326 133.36,7.94 C133.36,9.406674 133.073336,10.6833279 132.5,11.77 C131.926664,12.8566721 131.110005,13.6966637 130.05,14.29 C128.989995,14.8833363 127.746674,15.18 126.32,15.18 C124.879993,15.18 123.630005,14.8833363 122.57,14.29 Z M128.82,11.23 C129.420003,10.4766629 129.72,9.3800072 129.72,7.94 C129.72,6.4999928 129.41667,5.4066704 128.81,4.66 C128.20333,3.9133296 127.373339,3.54 126.32,3.54 C125.253328,3.54 124.420003,3.9099963 123.82,4.65 C123.219997,5.3900037 122.92,6.4866594 122.92,7.94 C122.92,9.3933406 123.219997,10.4933296 123.82,11.24 C124.420003,11.9866704 125.253328,12.36 126.32,12.36 C127.386672,12.36 128.219997,11.9833371 128.82,11.23 Z M137.05,13.62 C135.989995,12.5799948 135.46,11.06001 135.46,9.06 L135.46,0.9 L139.06,0.9 L139.06,9.2 C139.06,10.2133384 139.286664,10.9933306 139.74,11.54 C140.193336,12.0866694 140.846662,12.36 141.7,12.36 C142.553338,12.36 143.206664,12.0866694 143.66,11.54 C144.113336,10.9933306 144.34,10.2133384 144.34,9.2 L144.34,0.9 L147.96,0.9 L147.96,9.06 C147.96,11.0466766 147.423339,12.5633281 146.35,13.61 C145.276661,14.6566719 143.726677,15.18 141.7,15.18 C139.65999,15.18 138.110005,14.6600052 137.05,13.62 Z M163.12,15 L159.08,15 L156.64,10.5 C156.333332,9.9799974 155.84667,9.72 155.18,9.72 L154.06,9.72 L154.06,15 L150.44,15 L150.44,0.9 L157.16,0.9 C158.866675,0.9 160.149996,1.2699963 161.01,2.01 C161.870004,2.7500037 162.3,3.819993 162.3,5.22 C162.3,6.286672 162.00667,7.1899963 161.42,7.93 C160.83333,8.6700037 160.006672,9.1666654 158.94,9.42 C159.753337,9.5933342 160.399998,10.1199956 160.88,11 L163.12,15 Z M158.33,6.58 C158.683335,6.3266654 158.86,5.9133362 158.86,5.34 C158.86,4.7533304 158.683335,4.3300013 158.33,4.07 C157.976665,3.8099987 157.393337,3.68 156.58,3.68 L154.02,3.68 L154.02,6.96 L156.58,6.96 C157.393337,6.96 157.976665,6.8333346 158.33,6.58 Z" id="REMY-SADDOUR"></path>
        </g>
    </g>
</svg>