<?xml version="1.0" encoding="UTF-8" standalone="no"?>
<svg width="164px" height="16px" viewBox="0 0 164 16" version="1.1" xmlns="http://www.w3.org/2000/svg" xmlns:xlink="http://www.w3.org/1999/xlink">
    <!-- Generator: Sketch 48.2 (47327) - http://www.bohemiancoding.com/sketch -->
    <title>REMY SADDOUR</title>
    <desc>Created with Sketch.</desc>
    <defs></defs>
    <g id="portfolio---about-me" stroke="none" stroke-width="1" fill="none" fill-rule="evenodd" transform="translate(-33.000000, -38.000000)">
        <g id="zone1" fill="#FFFFFF">
            <g id="menu" transform="translate(32.000000, 32.000000)">
                <path d="M12.84,21 L11.04,21 L8.64,16.48 C8.3466652,15.9333306 8.0033353,15.5566677 7.61,15.35 C7.2166647,15.1433323 6.6800034,15.04 6,15.04 L3.36,15.04 L3.36,21 L1.74,21 L1.74,6.9 L7.54,6.9 C9.073341,6.9 10.2433293,7.2399966 11.05,7.92 C11.8566707,8.6000034 12.26,9.5999934 12.26,10.92 C12.26,12.0133388 11.9500031,12.8966633 11.33,13.57 C10.7099969,14.2433367 9.8266724,14.6666658 8.68,14.84 C9.0400018,14.9466672 9.3566653,15.1266654 9.63,15.38 C9.9033347,15.6333346 10.1533322,15.9733312 10.38,16.4 L12.84,21 Z M7.4,13.68 C8.4933388,13.68 9.3099973,13.4533356 9.85,13 C10.3900027,12.5466644 10.66,11.8600046 10.66,10.94 C10.66,10.0333288 10.393336,9.3600022 9.86,8.92 C9.326664,8.4799978 8.5066722,8.26 7.4,8.26 L3.36,8.26 L3.36,13.68 L7.4,13.68 Z M15.46,21 L15.46,6.9 L24.38,6.9 L24.38,8.26 L17.08,8.26 L17.08,13.16 L23.98,13.16 L23.98,14.52 L17.08,14.52 L17.08,19.64 L24.38,19.64 L24.38,21 L15.46,21 Z M39.08,6.9 L40.42,6.9 L40.42,21 L38.92,21 L38.94,10.08 L34.36,18.76 L33.2,18.76 L28.6,10.16 L28.62,21 L27.1,21 L27.1,6.9 L28.46,6.9 L33.8,17.12 L39.08,6.9 Z M54.54,6.9 L49,14.34 L49,21 L47.36,21 L47.36,14.32 L41.82,6.9 L43.72,6.9 L48.2,12.98 L52.68,6.9 L54.54,6.9 Z M63.18,20.76 C62.1533282,20.4799986 61.3200032,20.106669 60.68,19.64 L61.82,17.04 C62.5000034,17.4666688 63.2266628,17.7933322 64,18.02 C64.7733372,18.2466678 65.5533294,18.36 66.34,18.36 C67.140004,18.36 67.7499979,18.2500011 68.17,18.03 C68.5900021,17.8099989 68.8,17.500002 68.8,17.1 C68.8,16.7399982 68.6100019,16.4466678 68.23,16.22 C67.8499981,15.9933322 67.126672,15.7666678 66.06,15.54 C64.7399934,15.2599986 63.7066704,14.9266686 62.96,14.54 C62.2133296,14.1533314 61.6900015,13.7000026 61.39,13.18 C61.0899985,12.6599974 60.94,12.0200038 60.94,11.26 C60.94,10.393329 61.1833309,9.6166701 61.67,8.93 C62.1566691,8.2433299 62.8433289,7.7033353 63.73,7.31 C64.6166711,6.9166647 65.6333276,6.72 66.78,6.72 C67.7933384,6.72 68.7766619,6.8633319 69.73,7.15 C70.6833381,7.4366681 71.426664,7.8066644 71.96,8.26 L70.84,10.86 C69.5599936,9.9799956 68.2133404,9.54 66.8,9.54 C66.1199966,9.54 65.5733354,9.6699987 65.16,9.93 C64.7466646,10.1900013 64.54,10.5333312 64.54,10.96 C64.54,11.2133346 64.6133326,11.4199992 64.76,11.58 C64.9066674,11.7400008 65.179998,11.8966659 65.58,12.05 C65.980002,12.2033341 66.5733294,12.3599992 67.36,12.52 C68.6400064,12.8000014 69.646663,13.1366647 70.38,13.53 C71.113337,13.9233353 71.6333318,14.3799974 71.94,14.9 C72.2466682,15.4200026 72.4,16.0399964 72.4,16.76 C72.4,18.1466736 71.866672,19.2299961 70.8,20.01 C69.733328,20.7900039 68.233343,21.18 66.3,21.18 C65.2466614,21.18 64.2066718,21.0400014 63.18,20.76 Z M85.22,21 L83.96,18.08 L77.72,18.08 L76.46,21 L72.76,21 L79.34,6.9 L82.26,6.9 L88.86,21 L85.22,21 Z M78.9,15.32 L82.78,15.32 L80.84,10.8 L78.9,15.32 Z M89.7,6.9 L95.44,6.9 C97.0000078,6.9 98.3433277,7.1799972 99.47,7.74 C100.596672,8.3000028 101.459997,9.1099947 102.06,10.17 C102.660003,11.2300053 102.96,12.4866594 102.96,13.94 C102.96,15.406674 102.663336,16.6699947 102.07,17.73 C101.476664,18.7900053 100.616672,19.5999972 99.49,20.16 C98.3633277,20.7200028 97.0133412,21 95.44,21 L89.7,21 L89.7,6.9 Z M95.18,18.04 C96.5666736,18.04 97.5999966,17.7000034 98.28,17.02 C98.9600034,16.3399966 99.3,15.3133402 99.3,13.94 C99.3,12.5666598 98.9600034,11.5433367 98.28,10.87 C97.5999966,10.1966633 96.5666736,9.86 95.18,9.86 L93.38,9.86 L93.38,18.04 L95.18,18.04 Z M105.16,6.9 L110.9,6.9 C112.460008,6.9 113.803328,7.1799972 114.93,7.74 C116.056672,8.3000028 116.919997,9.1099947 117.52,10.17 C118.120003,11.2300053 118.42,12.4866594 118.42,13.94 C118.42,15.406674 118.123336,16.6699947 117.53,17.73 C116.936664,18.7900053 116.076672,19.5999972 114.95,20.16 C113.823328,20.7200028 112.473341,21 110.9,21 L105.16,21 L105.16,6.9 Z M110.64,18.04 C112.026674,18.04 113.059997,17.7000034 113.74,17.02 C114.420003,16.3399966 114.76,15.3133402 114.76,13.94 C114.76,12.5666598 114.420003,11.5433367 113.74,10.87 C113.059997,10.1966633 112.026674,9.86 110.64,9.86 L108.84,9.86 L108.84,18.04 L110.64,18.04 Z M123.57,20.29 C122.509995,19.6966637 121.693336,18.8566721 121.12,17.77 C120.546664,16.6833279 120.26,15.406674 120.26,13.94 C120.26,12.473326 120.546664,11.1966721 121.12,10.11 C121.693336,9.0233279 122.509995,8.1866696 123.57,7.6 C124.630005,7.0133304 125.879993,6.72 127.32,6.72 C128.760007,6.72 130.009995,7.0133304 131.07,7.6 C132.130005,8.1866696 132.94333,9.0233279 133.51,10.11 C134.076669,11.1966721 134.36,12.473326 134.36,13.94 C134.36,15.406674 134.073336,16.6833279 133.5,17.77 C132.926664,18.8566721 132.110005,19.6966637 131.05,20.29 C129.989995,20.8833363 128.746674,21.18 127.32,21.18 C125.879993,21.18 124.630005,20.8833363 123.57,20.29 Z M129.82,17.23 C130.420003,16.4766629 130.72,15.3800072 130.72,13.94 C130.72,12.4999928 130.41667,11.4066704 129.81,10.66 C129.20333,9.9133296 128.373339,9.54 127.32,9.54 C126.253328,9.54 125.420003,9.9099963 124.82,10.65 C124.219997,11.3900037 123.92,12.4866594 123.92,13.94 C123.92,15.3933406 124.219997,16.4933296 124.82,17.24 C125.420003,17.9866704 126.253328,18.36 127.32,18.36 C128.386672,18.36 129.219997,17.9833371 129.82,17.23 Z M138.05,19.62 C136.989995,18.5799948 136.46,17.06001 136.46,15.06 L136.46,6.9 L140.06,6.9 L140.06,15.2 C140.06,16.2133384 140.286664,16.9933306 140.74,17.54 C141.193336,18.0866694 141.846662,18.36 142.7,18.36 C143.553338,18.36 144.206664,18.0866694 144.66,17.54 C145.113336,16.9933306 145.34,16.2133384 145.34,15.2 L145.34,6.9 L148.96,6.9 L148.96,15.06 C148.96,17.0466766 148.423339,18.5633281 147.35,19.61 C146.276661,20.6566719 144.726677,21.18 142.7,21.18 C140.65999,21.18 139.110005,20.6600052 138.05,19.62 Z M164.12,21 L160.08,21 L157.64,16.5 C157.333332,15.9799974 156.84667,15.72 156.18,15.72 L155.06,15.72 L155.06,21 L151.44,21 L151.44,6.9 L158.16,6.9 C159.866675,6.9 161.149996,7.2699963 162.01,8.01 C162.870004,8.7500037 163.3,9.819993 163.3,11.22 C163.3,12.286672 163.00667,13.1899963 162.42,13.93 C161.83333,14.6700037 161.006672,15.1666654 159.94,15.42 C160.753337,15.5933342 161.399998,16.1199956 161.88,17 L164.12,21 Z M159.33,12.58 C159.683335,12.3266654 159.86,11.9133362 159.86,11.34 C159.86,10.7533304 159.683335,10.3300013 159.33,10.07 C158.976665,9.8099987 158.393337,9.68 157.58,9.68 L155.02,9.68 L155.02,12.96 L157.58,12.96 C158.393337,12.96 158.976665,12.8333346 159.33,12.58 Z" id="REMY-SADDOUR"></path>
            </g>
        </g>
    </g>
</svg>