<?xml version="1.0" encoding="UTF-8" standalone="no"?>
<svg width="460px" height="610px" viewBox="0 0 460 610" version="1.1" xmlns="http://www.w3.org/2000/svg" xmlns:xlink="http://www.w3.org/1999/xlink">
    <!-- Generator: Sketch 48.2 (47327) - http://www.bohemiancoding.com/sketch -->
    <title>PVO</title>
    <desc>Created with Sketch.</desc>
    <defs>
        <linearGradient x1="8.77457403%" y1="0%" x2="99.2210296%" y2="100%" id="linearGradient-1">
            <stop stop-color="#A8A8A8" stop-opacity="0.7265625" offset="0%"></stop>
            <stop stop-color="#394556" offset="100%"></stop>
        </linearGradient>
        <rect id="path-2" x="0" y="0" width="460" height="610"></rect>
    </defs>
    <g id="Page-1" stroke="none" stroke-width="1" fill="none" fill-rule="evenodd">
        <g id="PVO">
            <mask id="mask-3" fill="white">
                <use xlink:href="#path-2"></use>
            </mask>
            <g id="Rectangle-2">
                <use fill="url(#linearGradient-1)" xlink:href="#path-2"></use>
                <use fill-opacity="0.6" fill="#D8D8D8" xlink:href="#path-2"></use>
            </g>
            <g id="Group-12" mask="url(#mask-3)" fill="#FFFFFF">
                <g transform="translate(138.000000, 270.000000)">
                    <path d="M12.328,23.184 L8.418,23.184 L6.348,32.2 L0,32.2 L7.222,0.92 L16.238,0.92 C19.642017,0.92 22.1029924,1.61765969 23.621,3.013 C25.1390076,4.40834031 25.898,6.65465118 25.898,9.752 C25.898,14.1373553 24.6943454,17.4723219 22.287,19.757 C19.8796546,22.0416781 16.5600212,23.184 12.328,23.184 Z M13.156,17.664 C15.0880097,17.664 16.6059945,16.9816735 17.71,15.617 C18.8140055,14.2523265 19.366,12.3280124 19.366,9.844 C19.366,8.67866084 19.0900028,7.82000276 18.538,7.268 C17.9859972,6.71599724 17.0660064,6.44 15.778,6.44 L12.282,6.44 L9.706,17.664 L13.156,17.664 Z M24.702,32.2 L32.108,0 L38.272,0 L30.866,32.2 L24.702,32.2 Z M43.562,32.752 C41.3233221,32.752 39.6826719,31.9930076 38.64,30.475 C37.5973281,28.9569924 37.076,26.9253461 37.076,24.38 C37.076,20.8533157 37.9653244,17.4646829 39.744,14.214 C40.6333378,12.5886585 41.8599922,11.2546719 43.424,10.212 C44.9880078,9.16932812 46.7666567,8.648 48.76,8.648 C50.8760106,8.648 54.0039793,9.01599632 58.144,9.752 L60.26,10.166 L56.81,25.024 L55.568,32.062 L49.45,32.292 C49.7260014,30.421324 49.9253327,29.2253359 50.048,28.704 C48.7906604,30.3906751 47.3186751,31.5866631 45.632,32.292 C44.9266631,32.5986682 44.23667,32.752 43.562,32.752 Z M48.944,13.892 C47.7786608,13.892 46.7513378,14.489994 45.862,15.686 C44.1753249,17.9553447 43.332,20.8533157 43.332,24.38 C43.332,25.4533387 43.500665,26.2429975 43.838,26.749 C44.175335,27.2550025 44.7043297,27.508 45.425,27.508 C46.1456703,27.508 46.9583288,27.17067 47.863,26.496 C48.7676712,25.82133 49.5266636,25.14667 50.14,24.472 L51.06,23.414 L53.176,14.536 C51.1519899,14.1066645 49.7413373,13.892 48.944,13.892 Z M76.958,8.648 C80.699352,8.648 82.57,10.8099784 82.57,15.134 C82.57,16.2380055 82.2480032,18.1699862 81.604,20.93 L79.028,32.2 L72.864,32.2 L75.348,21.39 C75.9000028,19.0899885 76.176,17.4876712 76.176,16.583 C76.176,15.6783288 76.0610011,15.0190021 75.831,14.605 C75.6009989,14.1909979 75.1793364,13.984 74.566,13.984 C73.4926613,13.984 72.189341,14.6739931 70.656,16.054 L69.92,16.744 L66.378,32.2 L60.214,32.2 L65.504,9.2 L71.392,9.2 L71.116,11.454 C71.8213369,10.7486631 72.7489942,10.1046696 73.899,9.522 C75.0490057,8.93933042 76.0686622,8.648 76.958,8.648 Z M92.115,26.818 C92.7436698,27.2780023 93.5333286,27.508 94.484,27.508 C96.6000106,27.508 98.761989,27.3546682 100.97,27.048 L102.166,26.91 L101.476,31.464 C98.6239857,32.322671 95.8026806,32.752 93.012,32.752 C90.2213194,32.752 88.189673,32.1233396 86.917,30.866 C85.644327,29.6086604 85.008,27.7686788 85.008,25.346 C85.008,22.9233212 85.2533309,20.7613428 85.744,18.86 C86.2346691,16.9586572 86.9629952,15.241341 87.929,13.708 C88.8950048,12.174659 90.2136583,10.9556712 91.885,10.051 C93.5563417,9.14632881 95.4653226,8.694 97.612,8.694 C102.978693,8.694 105.662,10.9786438 105.662,15.548 C105.662,18.4613479 104.680676,20.4699945 102.718,21.574 C100.755324,22.6780055 97.4893562,23.23 92.92,23.23 L91.31,23.23 C91.2179995,23.5980018 91.172,24.1729961 91.172,24.955 C91.172,25.7370039 91.4863302,26.3579977 92.115,26.818 Z M93.886,18.676 C96.0020106,18.676 97.4816624,18.4460023 98.325,17.986 C99.1683375,17.5259977 99.59,16.7440055 99.59,15.64 C99.59,14.3213267 98.823341,13.662 97.29,13.662 C94.560653,13.662 92.7973373,15.3333166 92,18.676 L93.886,18.676 Z M114.126,26.22 C114.126,27.078671 114.570662,27.508 115.46,27.508 L118.588,27.278 L118.082,31.694 C116.456659,32.3993369 114.777675,32.752 113.045,32.752 C111.312325,32.752 109.993671,32.284338 109.089,31.349 C108.184329,30.413662 107.732,29.2790067 107.732,27.945 C107.732,26.6109933 107.961998,24.9933428 108.422,23.092 L110.446,14.444 L107.962,14.444 L109.342,9.2 L111.688,9.2 L113.022,3.312 L119.186,3.312 L117.852,9.2 L122.682,9.2 L121.394,14.444 L116.61,14.444 L114.494,23.644 C114.248665,24.6866719 114.126,25.54533 114.126,26.22 Z M154.238,0.92 L160.586,0.92 L146.418,32.2 L135.608,32.2 L136.252,0.92 L142.6,0.92 L141.496,26.68 L143.014,26.68 L154.238,0.92 Z M165.439,26.151 C166.098337,26.8716703 167.217659,27.232 168.797,27.232 C170.376341,27.232 171.687328,26.7106719 172.73,25.668 C174.171341,24.2266595 175.328996,22.0493479 176.203,19.136 C177.077004,16.2226521 177.514,13.3706806 177.514,10.58 C177.514,8.8933249 177.192003,7.68967027 176.548,6.969 C175.903997,6.24832973 174.784675,5.888 173.19,5.888 C171.595325,5.888 170.338005,6.3479954 169.418,7.268 C167.884659,8.77067418 166.673338,11.0476514 165.784,14.099 C164.894662,17.1503486 164.45,19.741656 164.45,21.873 C164.45,24.004344 164.779663,25.4303297 165.439,26.151 Z M182.16,21.689 C180.90266,25.3230182 179.070345,28.075324 176.663,29.946 C174.255655,31.816676 171.396017,32.752 168.084,32.752 C161.306633,32.752 157.918,29.5626986 157.918,23.184 C157.918,19.1666466 158.531327,15.3793511 159.758,11.822 C160.984673,8.26464888 162.778655,5.46634353 165.14,3.427 C167.501345,1.38765647 170.414649,0.368 173.88,0.368 C180.657367,0.368 184.046,3.55730144 184.046,9.936 C184.046,14.1373543 183.41734,18.0549818 182.16,21.689 Z" id="Planet-VO"></path>
                    <path d="M25.42,64.828 C24.6426628,64.3733311 24.0450021,63.7316708 23.627,62.903 C23.2089979,62.0743292 23,61.1026722 23,59.988 C23,58.8733278 23.2163312,57.8943375 23.649,57.051 C24.0816688,56.2076624 24.6903294,55.5513357 25.475,55.082 C26.2596706,54.6126643 27.1799947,54.378 28.236,54.378 C28.9546703,54.378 29.6586632,54.506332 30.348,54.763 C31.0373368,55.0196679 31.5946645,55.3606645 32.02,55.786 L31.426,57.106 C30.4139949,56.2846626 29.3873385,55.874 28.346,55.874 C27.2459945,55.874 26.3880031,56.2333297 25.772,56.952 C25.1559969,57.6706703 24.848,58.6826601 24.848,59.988 C24.848,61.2786731 25.1559969,62.2759965 25.772,62.98 C26.3880031,63.6840035 27.2459945,64.036 28.346,64.036 C29.3873385,64.036 30.4139949,63.6253374 31.426,62.804 L32.02,64.124 C31.5653311,64.5493355 30.9933368,64.8866654 30.304,65.136 C29.6146632,65.3853346 28.903337,65.51 28.17,65.51 C27.1139947,65.51 26.1973372,65.2826689 25.42,64.828 Z M35.947,64.828 C35.1769962,64.3733311 34.5830021,63.7243376 34.165,62.881 C33.7469979,62.0376625 33.538,61.0586722 33.538,59.944 C33.538,58.8293278 33.7469979,57.8503375 34.165,57.007 C34.5830021,56.1636625 35.1769962,55.5146689 35.947,55.06 C36.7170038,54.6053311 37.6079949,54.378 38.62,54.378 C39.6320051,54.378 40.5266628,54.6053311 41.304,55.06 C42.0813372,55.5146689 42.6789979,56.1636625 43.097,57.007 C43.5150021,57.8503375 43.724,58.8293278 43.724,59.944 C43.724,61.0586722 43.5150021,62.0376625 43.097,62.881 C42.6789979,63.7243376 42.0813372,64.3733311 41.304,64.828 C40.5266628,65.2826689 39.6320051,65.51 38.62,65.51 C37.6079949,65.51 36.7170038,65.2826689 35.947,64.828 Z M41.051,62.991 C41.6156695,62.2943298 41.898,61.2786733 41.898,59.944 C41.898,58.6386601 41.6120029,57.6303369 41.04,56.919 C40.4679971,56.2076631 39.6613385,55.852 38.62,55.852 C37.5786615,55.852 36.7720029,56.2076631 36.2,56.919 C35.6279971,57.6303369 35.342,58.6386601 35.342,59.944 C35.342,61.2640066 35.6243305,62.2759965 36.189,62.98 C36.7536695,63.6840035 37.5639947,64.036 38.62,64.036 C39.6760053,64.036 40.4863305,63.6876702 41.051,62.991 Z M61.874,58.624 L61.874,65.356 L60.092,65.356 L60.092,58.712 C60.092,57.7293284 59.9196684,57.0106689 59.575,56.556 C59.2303316,56.1013311 58.6766705,55.874 57.914,55.874 C57.0193289,55.874 56.3153359,56.1746637 55.802,56.776 C55.2886641,57.3773363 55.032,58.1986615 55.032,59.24 L55.032,65.356 L53.25,65.356 L53.25,58.712 C53.25,57.7146617 53.0740018,56.9923356 52.722,56.545 C52.3699982,56.0976644 51.8126705,55.874 51.05,55.874 C50.1553289,55.874 49.4513359,56.1746637 48.938,56.776 C48.4246641,57.3773363 48.168,58.1986615 48.168,59.24 L48.168,65.356 L46.386,65.356 L46.386,54.642 L48.146,54.642 L48.146,56.336 C48.4686683,55.7053302 48.9159971,55.221335 49.488,54.884 C50.0600029,54.546665 50.7199963,54.378 51.468,54.378 C53.1253416,54.378 54.2179974,55.081993 54.746,56.49 C55.0540015,55.8299967 55.5233302,55.3130019 56.154,54.939 C56.7846698,54.5649981 57.5033293,54.378 58.31,54.378 C60.6860119,54.378 61.874,55.7933192 61.874,58.624 Z M65.13,65.356 L65.13,54.642 L66.912,54.642 L66.912,65.356 L65.13,65.356 Z M64.954,50 L67.11,50 L67.11,52.002 L64.954,52.002 L64.954,50 Z M79.474,58.624 L79.474,65.356 L77.692,65.356 L77.692,58.734 C77.692,57.7366617 77.4976686,57.0106689 77.109,56.556 C76.7203314,56.1013311 76.1006709,55.874 75.25,55.874 C74.2673284,55.874 73.4826696,56.1746637 72.896,56.776 C72.3093304,57.3773363 72.016,58.1913282 72.016,59.218 L72.016,65.356 L70.234,65.356 L70.234,54.642 L71.994,54.642 L71.994,56.402 C72.3460018,55.7419967 72.8373302,55.2396684 73.468,54.895 C74.0986698,54.5503316 74.8173293,54.378 75.624,54.378 C78.1906795,54.378 79.474,55.7933192 79.474,58.624 Z M92.322,54.642 L92.322,64.63 C92.322,66.2286747 91.9113374,67.4349959 91.09,68.249 C90.2686626,69.0630041 89.0513414,69.47 87.438,69.47 C85.5606573,69.47 83.9840064,68.9860048 82.708,68.018 L83.302,66.698 C84.0206703,67.1673357 84.6953302,67.5046656 85.326,67.71 C85.9566698,67.9153344 86.6606628,68.018 87.438,68.018 C88.4646718,68.018 89.2419974,67.7430027 89.77,67.193 C90.2980026,66.6429972 90.562,65.8400053 90.562,64.784 L90.562,62.892 C90.2539985,63.5813368 89.7810032,64.1093315 89.143,64.476 C88.5049968,64.8426685 87.7533377,65.026 86.888,65.026 C85.9493286,65.026 85.1170036,64.8060022 84.391,64.366 C83.6649964,63.9259978 83.1003353,63.3026707 82.697,62.496 C82.2936647,61.6893293 82.092,60.7580053 82.092,59.702 C82.092,58.6459947 82.2936647,57.7146707 82.697,56.908 C83.1003353,56.1013293 83.6649964,55.4780022 84.391,55.038 C85.1170036,54.5979978 85.9493286,54.378 86.888,54.378 C87.7386709,54.378 88.4793302,54.5613315 89.11,54.928 C89.7406698,55.2946685 90.2173317,55.81533 90.54,56.49 L90.54,54.642 L92.322,54.642 Z M89.66,62.529 C90.2466696,61.8469966 90.54,60.9046727 90.54,59.702 C90.54,58.5139941 90.2503362,57.5790034 89.671,56.897 C89.0916638,56.2149966 88.2813385,55.874 87.24,55.874 C86.1986615,55.874 85.381003,56.2149966 84.787,56.897 C84.192997,57.5790034 83.896,58.5139941 83.896,59.702 C83.896,60.9046727 84.192997,61.8469966 84.787,62.529 C85.381003,63.2110034 86.1986615,63.552 87.24,63.552 C88.2666718,63.552 89.0733304,63.2110034 89.66,62.529 Z M100.638,64.124 L101.232,62.804 C101.804003,63.2586689 102.386997,63.584999 102.981,63.783 C103.575003,63.981001 104.245996,64.08 104.994,64.08 C105.786004,64.08 106.390998,63.9443347 106.809,63.673 C107.227002,63.4016653 107.436,63.0093359 107.436,62.496 C107.436,62.0706645 107.296668,61.7333346 107.018,61.484 C106.739332,61.2346654 106.277337,61.0366674 105.632,60.89 L103.828,60.472 C102.918662,60.2666656 102.222002,59.9146692 101.738,59.416 C101.253998,58.9173308 101.012,58.301337 101.012,57.568 C101.012,56.6146619 101.385996,55.8446696 102.134,55.258 C102.882004,54.6713304 103.879327,54.378 105.126,54.378 C105.874004,54.378 106.58533,54.4989988 107.26,54.741 C107.93467,54.9830012 108.499331,55.3313311 108.954,55.786 L108.36,57.084 C107.377328,56.2479958 106.299339,55.83 105.126,55.83 C104.377996,55.83 103.795002,55.9729986 103.377,56.259 C102.958998,56.5450014 102.75,56.9446641 102.75,57.458 C102.75,57.8833355 102.878332,58.224332 103.135,58.481 C103.391668,58.737668 103.805997,58.9319993 104.378,59.064 L106.204,59.504 C107.201338,59.7386678 107.941998,60.0943309 108.426,60.571 C108.910002,61.047669 109.152,61.6673295 109.152,62.43 C109.152,63.3686714 108.774337,64.1166639 108.019,64.674 C107.263663,65.2313361 106.23334,65.51 104.928,65.51 C103.123991,65.51 101.694005,65.0480046 100.638,64.124 Z M113.629,64.828 C112.858996,64.3733311 112.265002,63.7243376 111.847,62.881 C111.428998,62.0376625 111.22,61.0586722 111.22,59.944 C111.22,58.8293278 111.428998,57.8503375 111.847,57.007 C112.265002,56.1636625 112.858996,55.5146689 113.629,55.06 C114.399004,54.6053311 115.289995,54.378 116.302,54.378 C117.314005,54.378 118.208663,54.6053311 118.986,55.06 C119.763337,55.5146689 120.360998,56.1636625 120.779,57.007 C121.197002,57.8503375 121.406,58.8293278 121.406,59.944 C121.406,61.0586722 121.197002,62.0376625 120.779,62.881 C120.360998,63.7243376 119.763337,64.3733311 118.986,64.828 C118.208663,65.2826689 117.314005,65.51 116.302,65.51 C115.289995,65.51 114.399004,65.2826689 113.629,64.828 Z M118.733,62.991 C119.297669,62.2943298 119.58,61.2786733 119.58,59.944 C119.58,58.6386601 119.294003,57.6303369 118.722,56.919 C118.149997,56.2076631 117.343339,55.852 116.302,55.852 C115.260661,55.852 114.454003,56.2076631 113.882,56.919 C113.309997,57.6303369 113.024,58.6386601 113.024,59.944 C113.024,61.2640066 113.306331,62.2759965 113.871,62.98 C114.435669,63.6840035 115.245995,64.036 116.302,64.036 C117.358005,64.036 118.168331,63.6876702 118.733,62.991 Z M125.839,64.828 C125.068996,64.3733311 124.475002,63.7243376 124.057,62.881 C123.638998,62.0376625 123.43,61.0586722 123.43,59.944 C123.43,58.8293278 123.638998,57.8503375 124.057,57.007 C124.475002,56.1636625 125.068996,55.5146689 125.839,55.06 C126.609004,54.6053311 127.499995,54.378 128.512,54.378 C129.524005,54.378 130.418663,54.6053311 131.196,55.06 C131.973337,55.5146689 132.570998,56.1636625 132.989,57.007 C133.407002,57.8503375 133.616,58.8293278 133.616,59.944 C133.616,61.0586722 133.407002,62.0376625 132.989,62.881 C132.570998,63.7243376 131.973337,64.3733311 131.196,64.828 C130.418663,65.2826689 129.524005,65.51 128.512,65.51 C127.499995,65.51 126.609004,65.2826689 125.839,64.828 Z M130.943,62.991 C131.507669,62.2943298 131.79,61.2786733 131.79,59.944 C131.79,58.6386601 131.504003,57.6303369 130.932,56.919 C130.359997,56.2076631 129.553339,55.852 128.512,55.852 C127.470661,55.852 126.664003,56.2076631 126.092,56.919 C125.519997,57.6303369 125.234,58.6386601 125.234,59.944 C125.234,61.2640066 125.516331,62.2759965 126.081,62.98 C126.645669,63.6840035 127.455995,64.036 128.512,64.036 C129.568005,64.036 130.378331,63.6876702 130.943,62.991 Z M145.518,58.624 L145.518,65.356 L143.736,65.356 L143.736,58.734 C143.736,57.7366617 143.541669,57.0106689 143.153,56.556 C142.764331,56.1013311 142.144671,55.874 141.294,55.874 C140.311328,55.874 139.52667,56.1746637 138.94,56.776 C138.35333,57.3773363 138.06,58.1913282 138.06,59.218 L138.06,65.356 L136.278,65.356 L136.278,54.642 L138.038,54.642 L138.038,56.402 C138.390002,55.7419967 138.88133,55.2396684 139.512,54.895 C140.14267,54.5503316 140.861329,54.378 141.668,54.378 C144.23468,54.378 145.518,55.7933192 145.518,58.624 Z M148.51,63.112 L150.754,63.112 L150.754,65.356 L148.51,65.356 L148.51,63.112 Z M153.548,63.112 L155.792,63.112 L155.792,65.356 L153.548,65.356 L153.548,63.112 Z M158.586,63.112 L160.83,63.112 L160.83,65.356 L158.586,65.356 L158.586,63.112 Z" id="coming-soon…"></path>
                </g>
            </g>
        </g>
    </g>
</svg>