<?xml version="1.0" encoding="UTF-8" standalone="no"?>
<svg width="185px" height="33px" viewBox="0 0 185 33" version="1.1" xmlns="http://www.w3.org/2000/svg" xmlns:xlink="http://www.w3.org/1999/xlink">
    <!-- Generator: Sketch 48.2 (47327) - http://www.bohemiancoding.com/sketch -->
    <title>Planet-VO</title>
    <desc>Created with Sketch.</desc>
    <defs></defs>
    <g id="Page-1" stroke="none" stroke-width="1" fill="none" fill-rule="evenodd">
        <g id="planet" transform="translate(-138.000000, -270.000000)" fill="#FFFFFF" fill-rule="nonzero">
            <g id="Group-12-Clipped">
                <g id="Group-12" transform="translate(138.000000, 270.000000)">
                    <g id="Group">
                        <path d="M12.328,23.184 L8.418,23.184 L6.348,32.2 L0,32.2 L7.222,0.92 L16.238,0.92 C19.642017,0.92 22.1029924,1.61765969 23.621,3.013 C25.1390076,4.40834031 25.898,6.65465118 25.898,9.752 C25.898,14.1373553 24.6943454,17.4723219 22.287,19.757 C19.8796546,22.0416781 16.5600212,23.184 12.328,23.184 Z M13.156,17.664 C15.0880097,17.664 16.6059945,16.9816735 17.71,15.617 C18.8140055,14.2523265 19.366,12.3280124 19.366,9.844 C19.366,8.67866084 19.0900028,7.82000276 18.538,7.268 C17.9859972,6.71599724 17.0660064,6.44 15.778,6.44 L12.282,6.44 L9.706,17.664 L13.156,17.664 Z M24.702,32.2 L32.108,0 L38.272,0 L30.866,32.2 L24.702,32.2 Z M43.562,32.752 C41.3233221,32.752 39.6826719,31.9930076 38.64,30.475 C37.5973281,28.9569924 37.076,26.9253461 37.076,24.38 C37.076,20.8533157 37.9653244,17.4646829 39.744,14.214 C40.6333378,12.5886585 41.8599922,11.2546719 43.424,10.212 C44.9880078,9.16932812 46.7666567,8.648 48.76,8.648 C50.8760106,8.648 54.0039793,9.01599632 58.144,9.752 L60.26,10.166 L56.81,25.024 L55.568,32.062 L49.45,32.292 C49.7260014,30.421324 49.9253327,29.2253359 50.048,28.704 C48.7906604,30.3906751 47.3186751,31.5866631 45.632,32.292 C44.9266631,32.5986682 44.23667,32.752 43.562,32.752 Z M48.944,13.892 C47.7786608,13.892 46.7513378,14.489994 45.862,15.686 C44.1753249,17.9553447 43.332,20.8533157 43.332,24.38 C43.332,25.4533387 43.500665,26.2429975 43.838,26.749 C44.175335,27.2550025 44.7043297,27.508 45.425,27.508 C46.1456703,27.508 46.9583288,27.17067 47.863,26.496 C48.7676712,25.82133 49.5266636,25.14667 50.14,24.472 L51.06,23.414 L53.176,14.536 C51.1519899,14.1066645 49.7413373,13.892 48.944,13.892 Z M76.958,8.648 C80.699352,8.648 82.57,10.8099784 82.57,15.134 C82.57,16.2380055 82.2480032,18.1699862 81.604,20.93 L79.028,32.2 L72.864,32.2 L75.348,21.39 C75.9000028,19.0899885 76.176,17.4876712 76.176,16.583 C76.176,15.6783288 76.0610011,15.0190021 75.831,14.605 C75.6009989,14.1909979 75.1793364,13.984 74.566,13.984 C73.4926613,13.984 72.189341,14.6739931 70.656,16.054 L69.92,16.744 L66.378,32.2 L60.214,32.2 L65.504,9.2 L71.392,9.2 L71.116,11.454 C71.8213369,10.7486631 72.7489942,10.1046696 73.899,9.522 C75.0490057,8.93933042 76.0686622,8.648 76.958,8.648 Z M92.115,26.818 C92.7436698,27.2780023 93.5333286,27.508 94.484,27.508 C96.6000106,27.508 98.761989,27.3546682 100.97,27.048 L102.166,26.91 L101.476,31.464 C98.6239857,32.322671 95.8026806,32.752 93.012,32.752 C90.2213194,32.752 88.189673,32.1233396 86.917,30.866 C85.644327,29.6086604 85.008,27.7686788 85.008,25.346 C85.008,22.9233212 85.2533309,20.7613428 85.744,18.86 C86.2346691,16.9586572 86.9629952,15.241341 87.929,13.708 C88.8950048,12.174659 90.2136583,10.9556712 91.885,10.051 C93.5563417,9.14632881 95.4653226,8.694 97.612,8.694 C102.978693,8.694 105.662,10.9786438 105.662,15.548 C105.662,18.4613479 104.680676,20.4699945 102.718,21.574 C100.755324,22.6780055 97.4893562,23.23 92.92,23.23 L91.31,23.23 C91.2179995,23.5980018 91.172,24.1729961 91.172,24.955 C91.172,25.7370039 91.4863302,26.3579977 92.115,26.818 Z M93.886,18.676 C96.0020106,18.676 97.4816624,18.4460023 98.325,17.986 C99.1683375,17.5259977 99.59,16.7440055 99.59,15.64 C99.59,14.3213267 98.823341,13.662 97.29,13.662 C94.560653,13.662 92.7973373,15.3333166 92,18.676 L93.886,18.676 Z M114.126,26.22 C114.126,27.078671 114.570662,27.508 115.46,27.508 L118.588,27.278 L118.082,31.694 C116.456659,32.3993369 114.777675,32.752 113.045,32.752 C111.312325,32.752 109.993671,32.284338 109.089,31.349 C108.184329,30.413662 107.732,29.2790067 107.732,27.945 C107.732,26.6109933 107.961998,24.9933428 108.422,23.092 L110.446,14.444 L107.962,14.444 L109.342,9.2 L111.688,9.2 L113.022,3.312 L119.186,3.312 L117.852,9.2 L122.682,9.2 L121.394,14.444 L116.61,14.444 L114.494,23.644 C114.248665,24.6866719 114.126,25.54533 114.126,26.22 Z M154.238,0.92 L160.586,0.92 L146.418,32.2 L135.608,32.2 L136.252,0.92 L142.6,0.92 L141.496,26.68 L143.014,26.68 L154.238,0.92 Z M165.439,26.151 C166.098337,26.8716703 167.217659,27.232 168.797,27.232 C170.376341,27.232 171.687328,26.7106719 172.73,25.668 C174.171341,24.2266595 175.328996,22.0493479 176.203,19.136 C177.077004,16.2226521 177.514,13.3706806 177.514,10.58 C177.514,8.8933249 177.192003,7.68967027 176.548,6.969 C175.903997,6.24832973 174.784675,5.888 173.19,5.888 C171.595325,5.888 170.338005,6.3479954 169.418,7.268 C167.884659,8.77067418 166.673338,11.0476514 165.784,14.099 C164.894662,17.1503486 164.45,19.741656 164.45,21.873 C164.45,24.004344 164.779663,25.4303297 165.439,26.151 Z M182.16,21.689 C180.90266,25.3230182 179.070345,28.075324 176.663,29.946 C174.255655,31.816676 171.396017,32.752 168.084,32.752 C161.306633,32.752 157.918,29.5626986 157.918,23.184 C157.918,19.1666466 158.531327,15.3793511 159.758,11.822 C160.984673,8.26464888 162.778655,5.46634353 165.14,3.427 C167.501345,1.38765647 170.414649,0.368 173.88,0.368 C180.657367,0.368 184.046,3.55730144 184.046,9.936 C184.046,14.1373543 183.41734,18.0549818 182.16,21.689 Z" id="Planet-VO"></path>
                    </g>
                </g>
            </g>
        </g>
    </g>
</svg>