<?xml version="1.0" encoding="UTF-8" standalone="no"?>
<svg width="1440px" height="200px" viewBox="0 0 1440 200" version="1.1" xmlns="http://www.w3.org/2000/svg" xmlns:xlink="http://www.w3.org/1999/xlink">
    <!-- Generator: Sketch 48.2 (47327) - http://www.bohemiancoding.com/sketch -->
    <title>result</title>
    <desc>Created with Sketch.</desc>
    <defs></defs>
    <g id="portfolio---ADI" stroke="none" stroke-width="1" fill="none" fill-rule="evenodd" transform="translate(0.000000, -2291.000000)">
        <g id="zone-2" transform="translate(0.000000, 812.000000)">
            <g id="UX-case" transform="translate(0.000000, 128.000000)">
                <g id="result" transform="translate(0.000000, 1351.000000)">
                    <path d="M0,165.5 L1439.5,165.5" id="Line-2" stroke="#CACBCC" stroke-width="3" stroke-linecap="round"></path>
                    <path d="M0,35.5 L1439.5,35.5" id="Line-2-Copy" stroke="#CACBCC" stroke-linecap="round" stroke-dasharray="5"></path>
                    <path d="M250.5,165.5 L250.5,155.5" id="Line-3" stroke="#CACBCC" stroke-width="3" stroke-linecap="round"></path>
                    <path d="M406,165.5 L406,155.5" id="Line-3-Copy" stroke="#CACBCC" stroke-width="3" stroke-linecap="round"></path>
                    <path d="M562,165.5 L562,155.5" id="Line-3-Copy-2" stroke="#222D44" stroke-width="3" stroke-linecap="round"></path>
                    <path d="M719,165.5 L719,155.5" id="Line-3-Copy-3" stroke="#CACBCC" stroke-width="3" stroke-linecap="round"></path>
                    <path d="M877,165.5 L877,155.5" id="Line-3-Copy-4" stroke="#CACBCC" stroke-width="3" stroke-linecap="round"></path>
                    <path d="M1034,165.5 L1034,155.5" id="Line-3-Copy-5" stroke="#CACBCC" stroke-width="3" stroke-linecap="round"></path>
                    <path d="M1191,165.5 L1191,155.5" id="Line-3-Copy-6" stroke="#CACBCC" stroke-width="3" stroke-linecap="round"></path>
                    <path d="M259.064,6.392 C258.861332,6.89333584 258.584002,7.27999864 258.232,7.552 C257.879998,7.82400136 257.469336,7.96 257,7.96 C256.658665,7.96 256.328002,7.89600064 256.008,7.768 C255.687998,7.63999936 255.304002,7.45866784 254.856,7.224 C254.525332,7.04266576 254.248001,6.90666712 254.024,6.816 C253.799999,6.72533288 253.592001,6.68 253.4,6.68 C253.069332,6.68 252.797334,6.7733324 252.584,6.96 C252.370666,7.1466676 252.194667,7.40533168 252.056,7.736 L251.256,7.304 C251.448001,6.80266416 251.719998,6.41600136 252.072,6.144 C252.424002,5.87199864 252.839998,5.736 253.32,5.736 C253.661335,5.736 253.986665,5.79733272 254.296,5.92 C254.605335,6.04266728 254.994664,6.22133216 255.464,6.456 C255.794668,6.63733424 256.071999,6.77333288 256.296,6.864 C256.520001,6.95466712 256.727999,7 256.92,7 C257.250668,7 257.522666,6.90933424 257.736,6.728 C257.949334,6.54666576 258.125333,6.29066832 258.264,5.96 L259.064,6.392 Z M259.064,9.592 C258.861332,10.0933358 258.584002,10.4799986 258.232,10.752 C257.879998,11.0240014 257.469336,11.16 257,11.16 C256.658665,11.16 256.328002,11.0960006 256.008,10.968 C255.687998,10.8399994 255.304002,10.6586678 254.856,10.424 C254.525332,10.2426658 254.248001,10.1066671 254.024,10.016 C253.799999,9.92533288 253.592001,9.88 253.4,9.88 C253.069332,9.88 252.797334,9.9733324 252.584,10.16 C252.370666,10.3466676 252.194667,10.6053317 252.056,10.936 L251.256,10.504 C251.448001,10.0026642 251.719998,9.61600136 252.072,9.344 C252.424002,9.07199864 252.839998,8.936 253.32,8.936 C253.661335,8.936 253.986665,8.99733272 254.296,9.12 C254.605335,9.24266728 254.994664,9.42133216 255.464,9.656 C255.794668,9.83733424 256.071999,9.97333288 256.296,10.064 C256.520001,10.1546671 256.727999,10.2 256.92,10.2 C257.250668,10.2 257.522666,10.1093342 257.736,9.928 C257.949334,9.74666576 258.125333,9.49066832 258.264,9.16 L259.064,9.592 Z M265.912,11.896 L268.392,11.896 L268.392,13 L262.12,13 L262.12,11.896 L264.6,11.896 L264.6,3.352 L262.616,4.6 L262.008,3.592 L264.968,1.72 L265.912,1.72 L265.912,11.896 Z M271.496,11.656 C270.823997,10.6746618 270.488,9.24534272 270.488,7.368 C270.488,5.47999056 270.823997,4.04533824 271.496,3.064 C272.168003,2.08266176 273.149327,1.592 274.44,1.592 C275.730673,1.592 276.711997,2.07999512 277.384,3.056 C278.056003,4.03200488 278.392,5.46399056 278.392,7.352 C278.392,9.24000944 278.056003,10.6746618 277.384,11.656 C276.711997,12.6373382 275.730673,13.128 274.44,13.128 C273.149327,13.128 272.168003,12.6373382 271.496,11.656 Z M276.424,10.888 C276.850669,10.1306629 277.064,8.952008 277.064,7.352 C277.064,5.74132528 276.853335,4.56533704 276.432,3.824 C276.010665,3.08266296 275.346671,2.712 274.44,2.712 C273.543996,2.712 272.882669,3.0853296 272.456,3.832 C272.029331,4.5786704 271.816,5.751992 271.816,7.352 C271.816,8.952008 272.029331,10.1306629 272.456,10.888 C272.882669,11.6453371 273.543996,12.024 274.44,12.024 C275.336004,12.024 275.997331,11.6453371 276.424,10.888 Z M281.096,11.656 C280.423997,10.6746618 280.088,9.24534272 280.088,7.368 C280.088,5.47999056 280.423997,4.04533824 281.096,3.064 C281.768003,2.08266176 282.749327,1.592 284.04,1.592 C285.330673,1.592 286.311997,2.07999512 286.984,3.056 C287.656003,4.03200488 287.992,5.46399056 287.992,7.352 C287.992,9.24000944 287.656003,10.6746618 286.984,11.656 C286.311997,12.6373382 285.330673,13.128 284.04,13.128 C282.749327,13.128 281.768003,12.6373382 281.096,11.656 Z M286.024,10.888 C286.450669,10.1306629 286.664,8.952008 286.664,7.352 C286.664,5.74132528 286.453335,4.56533704 286.032,3.824 C285.610665,3.08266296 284.946671,2.712 284.04,2.712 C283.143996,2.712 282.482669,3.0853296 282.056,3.832 C281.629331,4.5786704 281.416,5.751992 281.416,7.352 C281.416,8.952008 281.629331,10.1306629 282.056,10.888 C282.482669,11.6453371 283.143996,12.024 284.04,12.024 C284.936004,12.024 285.597331,11.6453371 286.024,10.888 Z M294.168,13 L294.168,1.72 L295.464,1.72 L295.464,13 L294.168,13 Z M299.168,12.616 C298.607997,12.2853317 298.176002,11.8133364 297.872,11.2 C297.567998,10.5866636 297.416,9.87467072 297.416,9.064 C297.416,8.25332928 297.567998,7.5413364 297.872,6.928 C298.176002,6.3146636 298.607997,5.84266832 299.168,5.512 C299.728003,5.18133168 300.375996,5.016 301.112,5.016 C301.848004,5.016 302.498664,5.18133168 303.064,5.512 C303.629336,5.84266832 304.063998,6.3146636 304.368,6.928 C304.672002,7.5413364 304.824,8.25332928 304.824,9.064 C304.824,9.87467072 304.672002,10.5866636 304.368,11.2 C304.063998,11.8133364 303.629336,12.2853317 303.064,12.616 C302.498664,12.9466683 301.848004,13.112 301.112,13.112 C300.375996,13.112 299.728003,12.9466683 299.168,12.616 Z M302.88,11.28 C303.290669,10.7733308 303.496,10.0346715 303.496,9.064 C303.496,8.11466192 303.288002,7.38133592 302.872,6.864 C302.455998,6.34666408 301.869337,6.088 301.112,6.088 C300.354663,6.088 299.768002,6.34666408 299.352,6.864 C298.935998,7.38133592 298.728,8.11466192 298.728,9.064 C298.728,10.0240048 298.933331,10.7599974 299.344,11.272 C299.754669,11.7840026 300.343996,12.04 301.112,12.04 C301.880004,12.04 302.469331,11.7866692 302.88,11.28 Z M313.736,5.208 L313.736,12.472 C313.736,13.6346725 313.437336,14.511997 312.84,15.104 C312.242664,15.696003 311.357339,15.992 310.184,15.992 C308.81866,15.992 307.672005,15.6400035 306.744,14.936 L307.176,13.976 C307.698669,14.317335 308.189331,14.5626659 308.648,14.712 C309.106669,14.8613341 309.618664,14.936 310.184,14.936 C310.93067,14.936 311.495998,14.736002 311.88,14.336 C312.264002,13.935998 312.456,13.3520038 312.456,12.584 L312.456,11.208 C312.231999,11.7093358 311.888002,12.093332 311.424,12.36 C310.959998,12.626668 310.413336,12.76 309.784,12.76 C309.10133,12.76 308.496003,12.6000016 307.968,12.28 C307.439997,11.9599984 307.029335,11.5066696 306.736,10.92 C306.442665,10.3333304 306.296,9.65600384 306.296,8.888 C306.296,8.11999616 306.442665,7.4426696 306.736,6.856 C307.029335,6.2693304 307.439997,5.8160016 307.968,5.496 C308.496003,5.1759984 309.10133,5.016 309.784,5.016 C310.40267,5.016 310.941331,5.149332 311.4,5.416 C311.858669,5.682668 312.205332,6.06133088 312.44,6.552 L312.44,5.208 L313.736,5.208 Z M311.8,10.944 C312.226669,10.4479975 312.44,9.76267104 312.44,8.888 C312.44,8.02399568 312.229335,7.34400248 311.808,6.848 C311.386665,6.35199752 310.797337,6.104 310.04,6.104 C309.282663,6.104 308.688002,6.35199752 308.256,6.848 C307.823998,7.34400248 307.608,8.02399568 307.608,8.888 C307.608,9.76267104 307.823998,10.4479975 308.256,10.944 C308.688002,11.4400025 309.282663,11.688 310.04,11.688 C310.78667,11.688 311.373331,11.4400025 311.8,10.944 Z M326.792,9.304 L321.096,9.304 C321.138667,10.2106712 321.383998,10.8959977 321.832,11.36 C322.280002,11.8240023 322.914663,12.056 323.736,12.056 C324.642671,12.056 325.474663,11.7466698 326.232,11.128 L326.664,12.072 C326.322665,12.3920016 325.885336,12.6453324 325.352,12.832 C324.818664,13.0186676 324.274669,13.112 323.72,13.112 C322.503994,13.112 321.54667,12.7546702 320.848,12.04 C320.14933,11.3253298 319.8,10.338673 319.8,9.08 C319.8,8.279996 319.954665,7.5733364 320.264,6.96 C320.573335,6.3466636 321.007997,5.86933504 321.568,5.528 C322.128003,5.18666496 322.76533,5.016 323.48,5.016 C324.514672,5.016 325.32533,5.35466328 325.912,6.032 C326.49867,6.70933672 326.792,7.63999408 326.792,8.824 L326.792,9.304 Z M321.856,6.664 C321.445331,7.0906688 321.202667,7.69332944 321.128,8.472 L325.656,8.472 C325.634667,7.68266272 325.437335,7.07733544 325.064,6.656 C324.690665,6.23466456 324.168003,6.024 323.496,6.024 C322.81333,6.024 322.266669,6.2373312 321.856,6.664 Z M333.112,6.136 L332.264,6.216 C331.463996,6.29066704 330.885335,6.5413312 330.528,6.968 C330.170665,7.3946688 329.992,7.92266352 329.992,8.552 L329.992,13 L328.696,13 L328.696,5.208 L329.96,5.208 L329.96,6.568 C330.397336,5.6613288 331.255994,5.1546672 332.536,5.048 L333,5.016 L333.112,6.136 Z M338.76,6.136 L337.912,6.216 C337.111996,6.29066704 336.533335,6.5413312 336.176,6.968 C335.818665,7.3946688 335.64,7.92266352 335.64,8.552 L335.64,13 L334.344,13 L334.344,5.208 L335.608,5.208 L335.608,6.568 C336.045336,5.6613288 336.903994,5.1546672 338.184,5.048 L338.648,5.016 L338.76,6.136 Z M341.12,12.616 C340.559997,12.2853317 340.128002,11.8133364 339.824,11.2 C339.519998,10.5866636 339.368,9.87467072 339.368,9.064 C339.368,8.25332928 339.519998,7.5413364 339.824,6.928 C340.128002,6.3146636 340.559997,5.84266832 341.12,5.512 C341.680003,5.18133168 342.327996,5.016 343.064,5.016 C343.800004,5.016 344.450664,5.18133168 345.016,5.512 C345.581336,5.84266832 346.015998,6.3146636 346.32,6.928 C346.624002,7.5413364 346.776,8.25332928 346.776,9.064 C346.776,9.87467072 346.624002,10.5866636 346.32,11.2 C346.015998,11.8133364 345.581336,12.2853317 345.016,12.616 C344.450664,12.9466683 343.800004,13.112 343.064,13.112 C342.327996,13.112 341.680003,12.9466683 341.12,12.616 Z M344.832,11.28 C345.242669,10.7733308 345.448,10.0346715 345.448,9.064 C345.448,8.11466192 345.240002,7.38133592 344.824,6.864 C344.407998,6.34666408 343.821337,6.088 343.064,6.088 C342.306663,6.088 341.720002,6.34666408 341.304,6.864 C340.887998,7.38133592 340.68,8.11466192 340.68,9.064 C340.68,10.0240048 340.885331,10.7599974 341.296,11.272 C341.706669,11.7840026 342.295996,12.04 343.064,12.04 C343.832004,12.04 344.421331,11.7866692 344.832,11.28 Z M353.128,6.136 L352.28,6.216 C351.479996,6.29066704 350.901335,6.5413312 350.544,6.968 C350.186665,7.3946688 350.008,7.92266352 350.008,8.552 L350.008,13 L348.712,13 L348.712,5.208 L349.976,5.208 L349.976,6.568 C350.413336,5.6613288 351.271994,5.1546672 352.552,5.048 L353.016,5.016 L353.128,6.136 Z M353.8,12.104 L354.232,11.144 C354.648002,11.4746683 355.071998,11.7119993 355.504,11.856 C355.936002,12.0000007 356.423997,12.072 356.968,12.072 C357.544003,12.072 357.983998,11.9733343 358.288,11.776 C358.592002,11.5786657 358.744,11.2933352 358.744,10.92 C358.744,10.6106651 358.642668,10.3653342 358.44,10.184 C358.237332,10.0026658 357.901336,9.8586672 357.432,9.752 L356.12,9.448 C355.458663,9.29866592 354.952002,9.04266848 354.6,8.68 C354.247998,8.31733152 354.072,7.869336 354.072,7.336 C354.072,6.6426632 354.343997,6.0826688 354.888,5.656 C355.432003,5.2293312 356.157329,5.016 357.064,5.016 C357.608003,5.016 358.125331,5.10399912 358.616,5.28 C359.106669,5.45600088 359.517332,5.70933168 359.848,6.04 L359.416,6.984 C358.70133,6.37599696 357.917338,6.072 357.064,6.072 C356.519997,6.072 356.096002,6.17599896 355.792,6.384 C355.487998,6.59200104 355.336,6.8826648 355.336,7.256 C355.336,7.56533488 355.429332,7.8133324 355.616,8 C355.802668,8.1866676 356.103998,8.32799952 356.52,8.424 L357.848,8.744 C358.573337,8.91466752 359.111998,9.1733316 359.464,9.52 C359.816002,9.8666684 359.992,10.3173306 359.992,10.872 C359.992,11.5546701 359.717336,12.0986646 359.168,12.504 C358.618664,12.9093354 357.869338,13.112 356.92,13.112 C355.607993,13.112 354.568004,12.7760034 353.8,12.104 Z M365.64,14.04 L364.568,13.688 L368.648,0.952 L369.72,1.304 L365.64,14.04 Z M381.656,1.72 L381.656,13 L380.36,13 L380.36,11.576 C380.125332,12.0666691 379.781336,12.445332 379.328,12.712 C378.874664,12.978668 378.344003,13.112 377.736,13.112 C377.05333,13.112 376.450669,12.941335 375.928,12.6 C375.405331,12.258665 375.000001,11.7813364 374.712,11.168 C374.423999,10.5546636 374.28,9.84267072 374.28,9.032 C374.28,8.231996 374.423999,7.52800304 374.712,6.92 C375.000001,6.31199696 375.405331,5.84266832 375.928,5.512 C376.450669,5.18133168 377.05333,5.016 377.736,5.016 C378.344003,5.016 378.874664,5.149332 379.328,5.416 C379.781336,5.682668 380.125332,6.06133088 380.36,6.552 L380.36,1.72 L381.656,1.72 Z M379.744,11.264 C380.154669,10.7466641 380.36,10.0133381 380.36,9.064 C380.36,8.11466192 380.154669,7.38400256 379.744,6.872 C379.333331,6.35999744 378.749337,6.104 377.992,6.104 C377.234663,6.104 376.645335,6.35999744 376.224,6.872 C375.802665,7.38400256 375.592,8.10399536 375.592,9.032 C375.592,9.98133808 375.802665,10.7199974 376.224,11.248 C376.645335,11.7760026 377.234663,12.04 377.992,12.04 C378.749337,12.04 379.333331,11.7813359 379.744,11.264 Z M389.44,5.776 C389.925336,6.2826692 390.168,7.05332816 390.168,8.088 L390.168,13 L388.904,13 L388.904,11.672 C388.701332,12.130669 388.392002,12.4853321 387.976,12.736 C387.559998,12.9866679 387.080003,13.112 386.536,13.112 C386.034664,13.112 385.573335,13.0106677 385.152,12.808 C384.730665,12.6053323 384.397335,12.3226685 384.152,11.96 C383.906665,11.5973315 383.784,11.1973355 383.784,10.76 C383.784,10.1733304 383.933332,9.71733496 384.232,9.392 C384.530668,9.06666504 385.02133,8.83200072 385.704,8.688 C386.38667,8.54399928 387.335994,8.472 388.552,8.472 L388.904,8.472 L388.904,7.944 C388.904,7.29333008 388.770668,6.8213348 388.504,6.528 C388.237332,6.2346652 387.805336,6.088 387.208,6.088 C386.311996,6.088 385.421338,6.36533056 384.536,6.92 L384.104,5.976 C384.509335,5.68799856 384.99733,5.45600088 385.568,5.28 C386.13867,5.10399912 386.690664,5.016 387.224,5.016 C388.216005,5.016 388.954664,5.2693308 389.44,5.776 Z M388.288,11.44 C388.698669,11.0079978 388.904,10.4506701 388.904,9.768 L388.904,9.304 L388.616,9.304 C387.677329,9.304 386.962669,9.3439996 386.472,9.424 C385.981331,9.5040004 385.632001,9.6373324 385.424,9.824 C385.215999,10.0106676 385.112,10.2853315 385.112,10.648 C385.112,11.0640021 385.263998,11.4079986 385.568,11.68 C385.872002,11.9520014 386.253331,12.088 386.712,12.088 C387.352003,12.088 387.877331,11.8720022 388.288,11.44 Z M398.12,5.224 L399.416,5.224 L394.808,15.88 L393.48,15.88 L394.792,12.904 L391.496,5.224 L392.872,5.224 L395.48,11.592 L398.12,5.224 Z" id="≈100-log-errors-/-da" fill="#575A61"></path>
                    <path d="M1059.864,116.392 C1059.66133,116.893336 1059.384,117.279999 1059.032,117.552 C1058.68,117.824001 1058.26934,117.96 1057.8,117.96 C1057.45866,117.96 1057.128,117.896001 1056.808,117.768 C1056.488,117.639999 1056.104,117.458668 1055.656,117.224 C1055.32533,117.042666 1055.048,116.906667 1054.824,116.816 C1054.6,116.725333 1054.392,116.68 1054.2,116.68 C1053.86933,116.68 1053.59733,116.773332 1053.384,116.96 C1053.17067,117.146668 1052.99467,117.405332 1052.856,117.736 L1052.056,117.304 C1052.248,116.802664 1052.52,116.416001 1052.872,116.144 C1053.224,115.871999 1053.64,115.736 1054.12,115.736 C1054.46134,115.736 1054.78667,115.797333 1055.096,115.92 C1055.40533,116.042667 1055.79466,116.221332 1056.264,116.456 C1056.59467,116.637334 1056.872,116.773333 1057.096,116.864 C1057.32,116.954667 1057.528,117 1057.72,117 C1058.05067,117 1058.32267,116.909334 1058.536,116.728 C1058.74933,116.546666 1058.92533,116.290668 1059.064,115.96 L1059.864,116.392 Z M1059.864,119.592 C1059.66133,120.093336 1059.384,120.479999 1059.032,120.752 C1058.68,121.024001 1058.26934,121.16 1057.8,121.16 C1057.45866,121.16 1057.128,121.096001 1056.808,120.968 C1056.488,120.839999 1056.104,120.658668 1055.656,120.424 C1055.32533,120.242666 1055.048,120.106667 1054.824,120.016 C1054.6,119.925333 1054.392,119.88 1054.2,119.88 C1053.86933,119.88 1053.59733,119.973332 1053.384,120.16 C1053.17067,120.346668 1052.99467,120.605332 1052.856,120.936 L1052.056,120.504 C1052.248,120.002664 1052.52,119.616001 1052.872,119.344 C1053.224,119.071999 1053.64,118.936 1054.12,118.936 C1054.46134,118.936 1054.78667,118.997333 1055.096,119.12 C1055.40533,119.242667 1055.79466,119.421332 1056.264,119.656 C1056.59467,119.837334 1056.872,119.973333 1057.096,120.064 C1057.32,120.154667 1057.528,120.2 1057.72,120.2 C1058.05067,120.2 1058.32267,120.109334 1058.536,119.928 C1058.74933,119.746666 1058.92533,119.490668 1059.064,119.16 L1059.864,119.592 Z M1066.712,121.896 L1069.192,121.896 L1069.192,123 L1062.92,123 L1062.92,121.896 L1065.4,121.896 L1065.4,113.352 L1063.416,114.6 L1062.808,113.592 L1065.768,111.72 L1066.712,111.72 L1066.712,121.896 Z M1077.584,116.376 C1078.112,116.674668 1078.52,117.093331 1078.808,117.632 C1079.096,118.170669 1079.24,118.791996 1079.24,119.496 C1079.24,120.21067 1079.08267,120.839997 1078.768,121.384 C1078.45333,121.928003 1078.008,122.351998 1077.432,122.656 C1076.856,122.960002 1076.184,123.112 1075.416,123.112 C1074.73333,123.112 1074.05867,122.986668 1073.392,122.736 C1072.72533,122.485332 1072.16267,122.146669 1071.704,121.72 L1072.2,120.712 C1073.24534,121.576004 1074.31733,122.008 1075.416,122.008 C1076.20534,122.008 1076.824,121.784002 1077.272,121.336 C1077.72,120.887998 1077.944,120.280004 1077.944,119.512 C1077.944,118.76533 1077.72267,118.162669 1077.28,117.704 C1076.83733,117.245331 1076.248,117.016 1075.512,117.016 C1074.43466,117.016 1073.576,117.453329 1072.936,118.328 L1072.024,118.328 L1072.024,111.72 L1078.792,111.72 L1078.792,112.808 L1073.32,112.808 L1073.32,116.824 C1073.61867,116.535999 1073.97333,116.314667 1074.384,116.16 C1074.79467,116.005333 1075.24,115.928 1075.72,115.928 C1076.43467,115.928 1077.056,116.077332 1077.584,116.376 Z M1085.368,123 L1085.368,111.72 L1086.664,111.72 L1086.664,123 L1085.368,123 Z M1090.368,122.616 C1089.808,122.285332 1089.376,121.813336 1089.072,121.2 C1088.768,120.586664 1088.616,119.874671 1088.616,119.064 C1088.616,118.253329 1088.768,117.541336 1089.072,116.928 C1089.376,116.314664 1089.808,115.842668 1090.368,115.512 C1090.928,115.181332 1091.576,115.016 1092.312,115.016 C1093.048,115.016 1093.69866,115.181332 1094.264,115.512 C1094.82934,115.842668 1095.264,116.314664 1095.568,116.928 C1095.872,117.541336 1096.024,118.253329 1096.024,119.064 C1096.024,119.874671 1095.872,120.586664 1095.568,121.2 C1095.264,121.813336 1094.82934,122.285332 1094.264,122.616 C1093.69866,122.946668 1093.048,123.112 1092.312,123.112 C1091.576,123.112 1090.928,122.946668 1090.368,122.616 Z M1094.08,121.28 C1094.49067,120.773331 1094.696,120.034672 1094.696,119.064 C1094.696,118.114662 1094.488,117.381336 1094.072,116.864 C1093.656,116.346664 1093.06934,116.088 1092.312,116.088 C1091.55466,116.088 1090.968,116.346664 1090.552,116.864 C1090.136,117.381336 1089.928,118.114662 1089.928,119.064 C1089.928,120.024005 1090.13333,120.759997 1090.544,121.272 C1090.95467,121.784003 1091.544,122.04 1092.312,122.04 C1093.08,122.04 1093.66933,121.786669 1094.08,121.28 Z M1104.936,115.208 L1104.936,122.472 C1104.936,123.634672 1104.63734,124.511997 1104.04,125.104 C1103.44266,125.696003 1102.55734,125.992 1101.384,125.992 C1100.01866,125.992 1098.872,125.640004 1097.944,124.936 L1098.376,123.976 C1098.89867,124.317335 1099.38933,124.562666 1099.848,124.712 C1100.30667,124.861334 1100.81866,124.936 1101.384,124.936 C1102.13067,124.936 1102.696,124.736002 1103.08,124.336 C1103.464,123.935998 1103.656,123.352004 1103.656,122.584 L1103.656,121.208 C1103.432,121.709336 1103.088,122.093332 1102.624,122.36 C1102.16,122.626668 1101.61334,122.76 1100.984,122.76 C1100.30133,122.76 1099.696,122.600002 1099.168,122.28 C1098.64,121.959998 1098.22933,121.50667 1097.936,120.92 C1097.64267,120.33333 1097.496,119.656004 1097.496,118.888 C1097.496,118.119996 1097.64267,117.44267 1097.936,116.856 C1098.22933,116.26933 1098.64,115.816002 1099.168,115.496 C1099.696,115.175998 1100.30133,115.016 1100.984,115.016 C1101.60267,115.016 1102.14133,115.149332 1102.6,115.416 C1103.05867,115.682668 1103.40533,116.061331 1103.64,116.552 L1103.64,115.208 L1104.936,115.208 Z M1103,120.944 C1103.42667,120.447998 1103.64,119.762671 1103.64,118.888 C1103.64,118.023996 1103.42934,117.344002 1103.008,116.848 C1102.58666,116.351998 1101.99734,116.104 1101.24,116.104 C1100.48266,116.104 1099.888,116.351998 1099.456,116.848 C1099.024,117.344002 1098.808,118.023996 1098.808,118.888 C1098.808,119.762671 1099.024,120.447998 1099.456,120.944 C1099.888,121.440002 1100.48266,121.688 1101.24,121.688 C1101.98667,121.688 1102.57333,121.440002 1103,120.944 Z M1117.992,119.304 L1112.296,119.304 C1112.33867,120.210671 1112.584,120.895998 1113.032,121.36 C1113.48,121.824002 1114.11466,122.056 1114.936,122.056 C1115.84267,122.056 1116.67466,121.74667 1117.432,121.128 L1117.864,122.072 C1117.52266,122.392002 1117.08534,122.645332 1116.552,122.832 C1116.01866,123.018668 1115.47467,123.112 1114.92,123.112 C1113.70399,123.112 1112.74667,122.75467 1112.048,122.04 C1111.34933,121.32533 1111,120.338673 1111,119.08 C1111,118.279996 1111.15467,117.573336 1111.464,116.96 C1111.77333,116.346664 1112.208,115.869335 1112.768,115.528 C1113.328,115.186665 1113.96533,115.016 1114.68,115.016 C1115.71467,115.016 1116.52533,115.354663 1117.112,116.032 C1117.69867,116.709337 1117.992,117.639994 1117.992,118.824 L1117.992,119.304 Z M1113.056,116.664 C1112.64533,117.090669 1112.40267,117.693329 1112.328,118.472 L1116.856,118.472 C1116.83467,117.682663 1116.63734,117.077335 1116.264,116.656 C1115.89066,116.234665 1115.368,116.024 1114.696,116.024 C1114.01333,116.024 1113.46667,116.237331 1113.056,116.664 Z M1124.312,116.136 L1123.464,116.216 C1122.664,116.290667 1122.08534,116.541331 1121.728,116.968 C1121.37066,117.394669 1121.192,117.922664 1121.192,118.552 L1121.192,123 L1119.896,123 L1119.896,115.208 L1121.16,115.208 L1121.16,116.568 C1121.59734,115.661329 1122.45599,115.154667 1123.736,115.048 L1124.2,115.016 L1124.312,116.136 Z M1129.96,116.136 L1129.112,116.216 C1128.312,116.290667 1127.73334,116.541331 1127.376,116.968 C1127.01866,117.394669 1126.84,117.922664 1126.84,118.552 L1126.84,123 L1125.544,123 L1125.544,115.208 L1126.808,115.208 L1126.808,116.568 C1127.24534,115.661329 1128.10399,115.154667 1129.384,115.048 L1129.848,115.016 L1129.96,116.136 Z M1132.32,122.616 C1131.76,122.285332 1131.328,121.813336 1131.024,121.2 C1130.72,120.586664 1130.568,119.874671 1130.568,119.064 C1130.568,118.253329 1130.72,117.541336 1131.024,116.928 C1131.328,116.314664 1131.76,115.842668 1132.32,115.512 C1132.88,115.181332 1133.528,115.016 1134.264,115.016 C1135,115.016 1135.65066,115.181332 1136.216,115.512 C1136.78134,115.842668 1137.216,116.314664 1137.52,116.928 C1137.824,117.541336 1137.976,118.253329 1137.976,119.064 C1137.976,119.874671 1137.824,120.586664 1137.52,121.2 C1137.216,121.813336 1136.78134,122.285332 1136.216,122.616 C1135.65066,122.946668 1135,123.112 1134.264,123.112 C1133.528,123.112 1132.88,122.946668 1132.32,122.616 Z M1136.032,121.28 C1136.44267,120.773331 1136.648,120.034672 1136.648,119.064 C1136.648,118.114662 1136.44,117.381336 1136.024,116.864 C1135.608,116.346664 1135.02134,116.088 1134.264,116.088 C1133.50666,116.088 1132.92,116.346664 1132.504,116.864 C1132.088,117.381336 1131.88,118.114662 1131.88,119.064 C1131.88,120.024005 1132.08533,120.759997 1132.496,121.272 C1132.90667,121.784003 1133.496,122.04 1134.264,122.04 C1135.032,122.04 1135.62133,121.786669 1136.032,121.28 Z M1144.328,116.136 L1143.48,116.216 C1142.68,116.290667 1142.10134,116.541331 1141.744,116.968 C1141.38666,117.394669 1141.208,117.922664 1141.208,118.552 L1141.208,123 L1139.912,123 L1139.912,115.208 L1141.176,115.208 L1141.176,116.568 C1141.61334,115.661329 1142.47199,115.154667 1143.752,115.048 L1144.216,115.016 L1144.328,116.136 Z M1145,122.104 L1145.432,121.144 C1145.848,121.474668 1146.272,121.711999 1146.704,121.856 C1147.136,122.000001 1147.624,122.072 1148.168,122.072 C1148.744,122.072 1149.184,121.973334 1149.488,121.776 C1149.792,121.578666 1149.944,121.293335 1149.944,120.92 C1149.944,120.610665 1149.84267,120.365334 1149.64,120.184 C1149.43733,120.002666 1149.10134,119.858667 1148.632,119.752 L1147.32,119.448 C1146.65866,119.298666 1146.152,119.042668 1145.8,118.68 C1145.448,118.317332 1145.272,117.869336 1145.272,117.336 C1145.272,116.642663 1145.544,116.082669 1146.088,115.656 C1146.632,115.229331 1147.35733,115.016 1148.264,115.016 C1148.808,115.016 1149.32533,115.103999 1149.816,115.28 C1150.30667,115.456001 1150.71733,115.709332 1151.048,116.04 L1150.616,116.984 C1149.90133,116.375997 1149.11734,116.072 1148.264,116.072 C1147.72,116.072 1147.296,116.175999 1146.992,116.384 C1146.688,116.592001 1146.536,116.882665 1146.536,117.256 C1146.536,117.565335 1146.62933,117.813332 1146.816,118 C1147.00267,118.186668 1147.304,118.328 1147.72,118.424 L1149.048,118.744 C1149.77334,118.914668 1150.312,119.173332 1150.664,119.52 C1151.016,119.866668 1151.192,120.317331 1151.192,120.872 C1151.192,121.55467 1150.91734,122.098665 1150.368,122.504 C1149.81866,122.909335 1149.06934,123.112 1148.12,123.112 C1146.80799,123.112 1145.768,122.776003 1145,122.104 Z M1156.84,124.04 L1155.768,123.688 L1159.848,110.952 L1160.92,111.304 L1156.84,124.04 Z M1172.856,111.72 L1172.856,123 L1171.56,123 L1171.56,121.576 C1171.32533,122.066669 1170.98134,122.445332 1170.528,122.712 C1170.07466,122.978668 1169.544,123.112 1168.936,123.112 C1168.25333,123.112 1167.65067,122.941335 1167.128,122.6 C1166.60533,122.258665 1166.2,121.781336 1165.912,121.168 C1165.624,120.554664 1165.48,119.842671 1165.48,119.032 C1165.48,118.231996 1165.624,117.528003 1165.912,116.92 C1166.2,116.311997 1166.60533,115.842668 1167.128,115.512 C1167.65067,115.181332 1168.25333,115.016 1168.936,115.016 C1169.544,115.016 1170.07466,115.149332 1170.528,115.416 C1170.98134,115.682668 1171.32533,116.061331 1171.56,116.552 L1171.56,111.72 L1172.856,111.72 Z M1170.944,121.264 C1171.35467,120.746664 1171.56,120.013338 1171.56,119.064 C1171.56,118.114662 1171.35467,117.384003 1170.944,116.872 C1170.53333,116.359997 1169.94934,116.104 1169.192,116.104 C1168.43466,116.104 1167.84534,116.359997 1167.424,116.872 C1167.00266,117.384003 1166.792,118.103995 1166.792,119.032 C1166.792,119.981338 1167.00266,120.719997 1167.424,121.248 C1167.84534,121.776003 1168.43466,122.04 1169.192,122.04 C1169.94934,122.04 1170.53333,121.781336 1170.944,121.264 Z M1180.64,115.776 C1181.12534,116.282669 1181.368,117.053328 1181.368,118.088 L1181.368,123 L1180.104,123 L1180.104,121.672 C1179.90133,122.130669 1179.592,122.485332 1179.176,122.736 C1178.76,122.986668 1178.28,123.112 1177.736,123.112 C1177.23466,123.112 1176.77334,123.010668 1176.352,122.808 C1175.93066,122.605332 1175.59733,122.322668 1175.352,121.96 C1175.10667,121.597332 1174.984,121.197336 1174.984,120.76 C1174.984,120.17333 1175.13333,119.717335 1175.432,119.392 C1175.73067,119.066665 1176.22133,118.832001 1176.904,118.688 C1177.58667,118.543999 1178.53599,118.472 1179.752,118.472 L1180.104,118.472 L1180.104,117.944 C1180.104,117.29333 1179.97067,116.821335 1179.704,116.528 C1179.43733,116.234665 1179.00534,116.088 1178.408,116.088 C1177.512,116.088 1176.62134,116.365331 1175.736,116.92 L1175.304,115.976 C1175.70934,115.687999 1176.19733,115.456001 1176.768,115.28 C1177.33867,115.103999 1177.89066,115.016 1178.424,115.016 C1179.416,115.016 1180.15466,115.269331 1180.64,115.776 Z M1179.488,121.44 C1179.89867,121.007998 1180.104,120.45067 1180.104,119.768 L1180.104,119.304 L1179.816,119.304 C1178.87733,119.304 1178.16267,119.344 1177.672,119.424 C1177.18133,119.504 1176.832,119.637332 1176.624,119.824 C1176.416,120.010668 1176.312,120.285332 1176.312,120.648 C1176.312,121.064002 1176.464,121.407999 1176.768,121.68 C1177.072,121.952001 1177.45333,122.088 1177.912,122.088 C1178.552,122.088 1179.07733,121.872002 1179.488,121.44 Z M1189.32,115.224 L1190.616,115.224 L1186.008,125.88 L1184.68,125.88 L1185.992,122.904 L1182.696,115.224 L1184.072,115.224 L1186.68,121.592 L1189.32,115.224 Z" id="≈15-log-errors-/-day" fill="#575A61"></path>
                    <polyline id="Line-4" stroke="#F85E5E" stroke-width="4" stroke-linecap="round" points="252.5 35.5 563.657904 35.5 563.657904 144.868922 1190.4087 144.868922"></polyline>
                    <path d="M230.28,197.896 L232.76,197.896 L232.76,199 L226.488,199 L226.488,197.896 L228.968,197.896 L228.968,189.352 L226.984,190.6 L226.376,189.592 L229.336,187.72 L230.28,187.72 L230.28,197.896 Z M235.08,187.72 L242.536,187.72 L242.536,188.696 L237.256,199 L235.832,199 L241.096,188.824 L235.08,188.824 L235.08,187.72 Z M248.488,200.04 L247.416,199.688 L251.496,186.952 L252.568,187.304 L248.488,200.04 Z M258.248,197.656 C257.575997,196.674662 257.24,195.245343 257.24,193.368 C257.24,191.479991 257.575997,190.045338 258.248,189.064 C258.920003,188.082662 259.901327,187.592 261.192,187.592 C262.482673,187.592 263.463997,188.079995 264.136,189.056 C264.808003,190.032005 265.144,191.463991 265.144,193.352 C265.144,195.240009 264.808003,196.674662 264.136,197.656 C263.463997,198.637338 262.482673,199.128 261.192,199.128 C259.901327,199.128 258.920003,198.637338 258.248,197.656 Z M263.176,196.888 C263.602669,196.130663 263.816,194.952008 263.816,193.352 C263.816,191.741325 263.605335,190.565337 263.184,189.824 C262.762665,189.082663 262.098671,188.712 261.192,188.712 C260.295996,188.712 259.634669,189.08533 259.208,189.832 C258.781331,190.57867 258.568,191.751992 258.568,193.352 C258.568,194.952008 258.781331,196.130663 259.208,196.888 C259.634669,197.645337 260.295996,198.024 261.192,198.024 C262.088004,198.024 262.749331,197.645337 263.176,196.888 Z M273.136,192.376 C273.664003,192.674668 274.071999,193.093331 274.36,193.632 C274.648001,194.170669 274.792,194.791996 274.792,195.496 C274.792,196.21067 274.634668,196.839997 274.32,197.384 C274.005332,197.928003 273.560003,198.351998 272.984,198.656 C272.407997,198.960002 271.736004,199.112 270.968,199.112 C270.28533,199.112 269.61067,198.986668 268.944,198.736 C268.27733,198.485332 267.714669,198.146669 267.256,197.72 L267.752,196.712 C268.797339,197.576004 269.869328,198.008 270.968,198.008 C271.757337,198.008 272.375998,197.784002 272.824,197.336 C273.272002,196.887998 273.496,196.280004 273.496,195.512 C273.496,194.76533 273.274669,194.162669 272.832,193.704 C272.389331,193.245331 271.800004,193.016 271.064,193.016 C269.986661,193.016 269.128003,193.453329 268.488,194.328 L267.576,194.328 L267.576,187.72 L274.344,187.72 L274.344,188.808 L268.872,188.808 L268.872,192.824 C269.170668,192.535999 269.525331,192.314667 269.936,192.16 C270.346669,192.005333 270.791998,191.928 271.272,191.928 C271.98667,191.928 272.607997,192.077332 273.136,192.376 Z" id="17-/-05" fill="#CACBCC"></path>
                    <path d="M388.28,197.896 L390.76,197.896 L390.76,199 L384.488,199 L384.488,197.896 L386.968,197.896 L386.968,189.352 L384.984,190.6 L384.376,189.592 L387.336,187.72 L388.28,187.72 L388.28,197.896 Z M400.304,194.248 C400.672002,194.738669 400.856,195.32533 400.856,196.008 C400.856,196.978672 400.504004,197.738664 399.8,198.288 C399.095996,198.837336 398.098673,199.112 396.808,199.112 C395.517327,199.112 394.520004,198.837336 393.816,198.288 C393.111996,197.738664 392.76,196.978672 392.76,196.008 C392.76,195.314663 392.946665,194.722669 393.32,194.232 C393.693335,193.741331 394.210663,193.400001 394.872,193.208 C394.306664,192.994666 393.858668,192.658669 393.528,192.2 C393.197332,191.741331 393.032,191.20267 393.032,190.584 C393.032,189.666662 393.36533,188.938669 394.032,188.4 C394.69867,187.861331 395.623994,187.592 396.808,187.592 C397.992006,187.592 398.91733,187.861331 399.584,188.4 C400.25067,188.938669 400.584,189.666662 400.584,190.584 C400.584,191.20267 400.418668,191.743998 400.088,192.208 C399.757332,192.672002 399.314669,193.005332 398.76,193.208 C399.421337,193.410668 399.935998,193.757331 400.304,194.248 Z M394.96,192.2 C395.381335,192.552002 395.997329,192.728 396.808,192.728 C397.618671,192.728 398.234665,192.552002 398.656,192.2 C399.077335,191.847998 399.288,191.341337 399.288,190.68 C399.288,190.050664 399.077335,189.560002 398.656,189.208 C398.234665,188.855998 397.618671,188.68 396.808,188.68 C395.997329,188.68 395.381335,188.855998 394.96,189.208 C394.538665,189.560002 394.328,190.050664 394.328,190.68 C394.328,191.341337 394.538665,191.847998 394.96,192.2 Z M399.56,195.928 C399.56,194.53066 398.642676,193.832 396.808,193.832 C394.973324,193.832 394.056,194.53066 394.056,195.928 C394.056,197.32534 394.973324,198.024 396.808,198.024 C398.642676,198.024 399.56,197.32534 399.56,195.928 Z M406.488,200.04 L405.416,199.688 L409.496,186.952 L410.568,187.304 L406.488,200.04 Z M416.248,197.656 C415.575997,196.674662 415.24,195.245343 415.24,193.368 C415.24,191.479991 415.575997,190.045338 416.248,189.064 C416.920003,188.082662 417.901327,187.592 419.192,187.592 C420.482673,187.592 421.463997,188.079995 422.136,189.056 C422.808003,190.032005 423.144,191.463991 423.144,193.352 C423.144,195.240009 422.808003,196.674662 422.136,197.656 C421.463997,198.637338 420.482673,199.128 419.192,199.128 C417.901327,199.128 416.920003,198.637338 416.248,197.656 Z M421.176,196.888 C421.602669,196.130663 421.816,194.952008 421.816,193.352 C421.816,191.741325 421.605335,190.565337 421.184,189.824 C420.762665,189.082663 420.098671,188.712 419.192,188.712 C418.295996,188.712 417.634669,189.08533 417.208,189.832 C416.781331,190.57867 416.568,191.751992 416.568,193.352 C416.568,194.952008 416.781331,196.130663 417.208,196.888 C417.634669,197.645337 418.295996,198.024 419.192,198.024 C420.088004,198.024 420.749331,197.645337 421.176,196.888 Z M431.136,192.376 C431.664003,192.674668 432.071999,193.093331 432.36,193.632 C432.648001,194.170669 432.792,194.791996 432.792,195.496 C432.792,196.21067 432.634668,196.839997 432.32,197.384 C432.005332,197.928003 431.560003,198.351998 430.984,198.656 C430.407997,198.960002 429.736004,199.112 428.968,199.112 C428.28533,199.112 427.61067,198.986668 426.944,198.736 C426.27733,198.485332 425.714669,198.146669 425.256,197.72 L425.752,196.712 C426.797339,197.576004 427.869328,198.008 428.968,198.008 C429.757337,198.008 430.375998,197.784002 430.824,197.336 C431.272002,196.887998 431.496,196.280004 431.496,195.512 C431.496,194.76533 431.274669,194.162669 430.832,193.704 C430.389331,193.245331 429.800004,193.016 429.064,193.016 C427.986661,193.016 427.128003,193.453329 426.488,194.328 L425.576,194.328 L425.576,187.72 L432.344,187.72 L432.344,188.808 L426.872,188.808 L426.872,192.824 C427.170668,192.535999 427.525331,192.314667 427.936,192.16 C428.346669,192.005333 428.791998,191.928 429.272,191.928 C429.98667,191.928 430.607997,192.077332 431.136,192.376 Z" id="18-/-05" fill="#CACBCC"></path>
                    <path d="M543.28,197.896 L545.76,197.896 L545.76,199 L539.488,199 L539.488,197.896 L541.968,197.896 L541.968,189.352 L539.984,190.6 L539.376,189.592 L542.336,187.72 L543.28,187.72 L543.28,197.896 Z M554.616,189.016 C555.357337,189.965338 555.728,191.319991 555.728,193.08 C555.728,194.989343 555.344004,196.474661 554.576,197.536 C553.807996,198.597339 552.736007,199.128 551.36,199.128 C550.719997,199.128 550.09067,199.008001 549.472,198.768 C548.85333,198.527999 548.309336,198.184002 547.84,197.736 L548.336,196.728 C548.869336,197.176002 549.378664,197.503999 549.864,197.712 C550.349336,197.920001 550.842664,198.024 551.344,198.024 C552.314672,198.024 553.066664,197.594671 553.6,196.736 C554.133336,195.877329 554.4,194.664008 554.4,193.096 L554.4,192.888 C554.154665,193.485336 553.757336,193.954665 553.208,194.296 C552.658664,194.637335 552.037337,194.808 551.344,194.808 C550.66133,194.808 550.053336,194.658668 549.52,194.36 C548.986664,194.061332 548.570668,193.640003 548.272,193.096 C547.973332,192.551997 547.824,191.928004 547.824,191.224 C547.824,190.530663 547.978665,189.906669 548.288,189.352 C548.597335,188.797331 549.029331,188.365335 549.584,188.056 C550.138669,187.746665 550.762663,187.592 551.456,187.592 C552.82134,187.592 553.874663,188.066662 554.616,189.016 Z M553.336,193.008 C553.800002,192.543998 554.032,191.944004 554.032,191.208 C554.032,190.46133 553.800002,189.856002 553.336,189.392 C552.871998,188.927998 552.26667,188.696 551.52,188.696 C550.794663,188.696 550.213336,188.925331 549.776,189.384 C549.338664,189.842669 549.12,190.450663 549.12,191.208 C549.12,191.965337 549.341331,192.570664 549.784,193.024 C550.226669,193.477336 550.810663,193.704 551.536,193.704 C552.272004,193.704 552.871998,193.472002 553.336,193.008 Z M561.488,200.04 L560.416,199.688 L564.496,186.952 L565.568,187.304 L561.488,200.04 Z M571.248,197.656 C570.575997,196.674662 570.24,195.245343 570.24,193.368 C570.24,191.479991 570.575997,190.045338 571.248,189.064 C571.920003,188.082662 572.901327,187.592 574.192,187.592 C575.482673,187.592 576.463997,188.079995 577.136,189.056 C577.808003,190.032005 578.144,191.463991 578.144,193.352 C578.144,195.240009 577.808003,196.674662 577.136,197.656 C576.463997,198.637338 575.482673,199.128 574.192,199.128 C572.901327,199.128 571.920003,198.637338 571.248,197.656 Z M576.176,196.888 C576.602669,196.130663 576.816,194.952008 576.816,193.352 C576.816,191.741325 576.605335,190.565337 576.184,189.824 C575.762665,189.082663 575.098671,188.712 574.192,188.712 C573.295996,188.712 572.634669,189.08533 572.208,189.832 C571.781331,190.57867 571.568,191.751992 571.568,193.352 C571.568,194.952008 571.781331,196.130663 572.208,196.888 C572.634669,197.645337 573.295996,198.024 574.192,198.024 C575.088004,198.024 575.749331,197.645337 576.176,196.888 Z M586.136,192.376 C586.664003,192.674668 587.071999,193.093331 587.36,193.632 C587.648001,194.170669 587.792,194.791996 587.792,195.496 C587.792,196.21067 587.634668,196.839997 587.32,197.384 C587.005332,197.928003 586.560003,198.351998 585.984,198.656 C585.407997,198.960002 584.736004,199.112 583.968,199.112 C583.28533,199.112 582.61067,198.986668 581.944,198.736 C581.27733,198.485332 580.714669,198.146669 580.256,197.72 L580.752,196.712 C581.797339,197.576004 582.869328,198.008 583.968,198.008 C584.757337,198.008 585.375998,197.784002 585.824,197.336 C586.272002,196.887998 586.496,196.280004 586.496,195.512 C586.496,194.76533 586.274669,194.162669 585.832,193.704 C585.389331,193.245331 584.800004,193.016 584.064,193.016 C582.986661,193.016 582.128003,193.453329 581.488,194.328 L580.576,194.328 L580.576,187.72 L587.344,187.72 L587.344,188.808 L581.872,188.808 L581.872,192.824 C582.170668,192.535999 582.525331,192.314667 582.936,192.16 C583.346669,192.005333 583.791998,191.928 584.272,191.928 C584.98667,191.928 585.607997,192.077332 586.136,192.376 Z" id="19-/-05" fill="#222D44"></path>
                    <path d="M703.032,197.896 L703.032,199 L695.768,199 L695.768,198.008 L699.72,193.656 C700.253336,193.058664 700.639999,192.522669 700.88,192.048 C701.120001,191.573331 701.24,191.096002 701.24,190.616 C701.24,189.99733 701.058668,189.522668 700.696,189.192 C700.333332,188.861332 699.821337,188.696 699.16,188.696 C698.071995,188.696 697.005339,189.127996 695.96,189.992 L695.464,188.984 C695.912002,188.557331 696.474663,188.218668 697.152,187.968 C697.829337,187.717332 698.50933,187.592 699.192,187.592 C700.226672,187.592 701.04533,187.858664 701.648,188.392 C702.25067,188.925336 702.552,189.645329 702.552,190.552 C702.552,191.20267 702.405335,191.826664 702.112,192.424 C701.818665,193.021336 701.336003,193.687996 700.664,194.424 L697.464,197.896 L703.032,197.896 Z M705.864,197.656 C705.191997,196.674662 704.856,195.245343 704.856,193.368 C704.856,191.479991 705.191997,190.045338 705.864,189.064 C706.536003,188.082662 707.517327,187.592 708.808,187.592 C710.098673,187.592 711.079997,188.079995 711.752,189.056 C712.424003,190.032005 712.76,191.463991 712.76,193.352 C712.76,195.240009 712.424003,196.674662 711.752,197.656 C711.079997,198.637338 710.098673,199.128 708.808,199.128 C707.517327,199.128 706.536003,198.637338 705.864,197.656 Z M710.792,196.888 C711.218669,196.130663 711.432,194.952008 711.432,193.352 C711.432,191.741325 711.221335,190.565337 710.8,189.824 C710.378665,189.082663 709.714671,188.712 708.808,188.712 C707.911996,188.712 707.250669,189.08533 706.824,189.832 C706.397331,190.57867 706.184,191.751992 706.184,193.352 C706.184,194.952008 706.397331,196.130663 706.824,196.888 C707.250669,197.645337 707.911996,198.024 708.808,198.024 C709.704004,198.024 710.365331,197.645337 710.792,196.888 Z M718.488,200.04 L717.416,199.688 L721.496,186.952 L722.568,187.304 L718.488,200.04 Z M728.248,197.656 C727.575997,196.674662 727.24,195.245343 727.24,193.368 C727.24,191.479991 727.575997,190.045338 728.248,189.064 C728.920003,188.082662 729.901327,187.592 731.192,187.592 C732.482673,187.592 733.463997,188.079995 734.136,189.056 C734.808003,190.032005 735.144,191.463991 735.144,193.352 C735.144,195.240009 734.808003,196.674662 734.136,197.656 C733.463997,198.637338 732.482673,199.128 731.192,199.128 C729.901327,199.128 728.920003,198.637338 728.248,197.656 Z M733.176,196.888 C733.602669,196.130663 733.816,194.952008 733.816,193.352 C733.816,191.741325 733.605335,190.565337 733.184,189.824 C732.762665,189.082663 732.098671,188.712 731.192,188.712 C730.295996,188.712 729.634669,189.08533 729.208,189.832 C728.781331,190.57867 728.568,191.751992 728.568,193.352 C728.568,194.952008 728.781331,196.130663 729.208,196.888 C729.634669,197.645337 730.295996,198.024 731.192,198.024 C732.088004,198.024 732.749331,197.645337 733.176,196.888 Z M743.136,192.376 C743.664003,192.674668 744.071999,193.093331 744.36,193.632 C744.648001,194.170669 744.792,194.791996 744.792,195.496 C744.792,196.21067 744.634668,196.839997 744.32,197.384 C744.005332,197.928003 743.560003,198.351998 742.984,198.656 C742.407997,198.960002 741.736004,199.112 740.968,199.112 C740.28533,199.112 739.61067,198.986668 738.944,198.736 C738.27733,198.485332 737.714669,198.146669 737.256,197.72 L737.752,196.712 C738.797339,197.576004 739.869328,198.008 740.968,198.008 C741.757337,198.008 742.375998,197.784002 742.824,197.336 C743.272002,196.887998 743.496,196.280004 743.496,195.512 C743.496,194.76533 743.274669,194.162669 742.832,193.704 C742.389331,193.245331 741.800004,193.016 741.064,193.016 C739.986661,193.016 739.128003,193.453329 738.488,194.328 L737.576,194.328 L737.576,187.72 L744.344,187.72 L744.344,188.808 L738.872,188.808 L738.872,192.824 C739.170668,192.535999 739.525331,192.314667 739.936,192.16 C740.346669,192.005333 740.791998,191.928 741.272,191.928 C741.98667,191.928 742.607997,192.077332 743.136,192.376 Z" id="20-/-05" fill="#CACBCC"></path>
                    <path d="M858.032,197.896 L858.032,199 L850.768,199 L850.768,198.008 L854.72,193.656 C855.253336,193.058664 855.639999,192.522669 855.88,192.048 C856.120001,191.573331 856.24,191.096002 856.24,190.616 C856.24,189.99733 856.058668,189.522668 855.696,189.192 C855.333332,188.861332 854.821337,188.696 854.16,188.696 C853.071995,188.696 852.005339,189.127996 850.96,189.992 L850.464,188.984 C850.912002,188.557331 851.474663,188.218668 852.152,187.968 C852.829337,187.717332 853.50933,187.592 854.192,187.592 C855.226672,187.592 856.04533,187.858664 856.648,188.392 C857.25067,188.925336 857.552,189.645329 857.552,190.552 C857.552,191.20267 857.405335,191.826664 857.112,192.424 C856.818665,193.021336 856.336003,193.687996 855.664,194.424 L852.464,197.896 L858.032,197.896 Z M864.88,197.896 L867.36,197.896 L867.36,199 L861.088,199 L861.088,197.896 L863.568,197.896 L863.568,189.352 L861.584,190.6 L860.976,189.592 L863.936,187.72 L864.88,187.72 L864.88,197.896 Z M873.488,200.04 L872.416,199.688 L876.496,186.952 L877.568,187.304 L873.488,200.04 Z M883.248,197.656 C882.575997,196.674662 882.24,195.245343 882.24,193.368 C882.24,191.479991 882.575997,190.045338 883.248,189.064 C883.920003,188.082662 884.901327,187.592 886.192,187.592 C887.482673,187.592 888.463997,188.079995 889.136,189.056 C889.808003,190.032005 890.144,191.463991 890.144,193.352 C890.144,195.240009 889.808003,196.674662 889.136,197.656 C888.463997,198.637338 887.482673,199.128 886.192,199.128 C884.901327,199.128 883.920003,198.637338 883.248,197.656 Z M888.176,196.888 C888.602669,196.130663 888.816,194.952008 888.816,193.352 C888.816,191.741325 888.605335,190.565337 888.184,189.824 C887.762665,189.082663 887.098671,188.712 886.192,188.712 C885.295996,188.712 884.634669,189.08533 884.208,189.832 C883.781331,190.57867 883.568,191.751992 883.568,193.352 C883.568,194.952008 883.781331,196.130663 884.208,196.888 C884.634669,197.645337 885.295996,198.024 886.192,198.024 C887.088004,198.024 887.749331,197.645337 888.176,196.888 Z M898.136,192.376 C898.664003,192.674668 899.071999,193.093331 899.36,193.632 C899.648001,194.170669 899.792,194.791996 899.792,195.496 C899.792,196.21067 899.634668,196.839997 899.32,197.384 C899.005332,197.928003 898.560003,198.351998 897.984,198.656 C897.407997,198.960002 896.736004,199.112 895.968,199.112 C895.28533,199.112 894.61067,198.986668 893.944,198.736 C893.27733,198.485332 892.714669,198.146669 892.256,197.72 L892.752,196.712 C893.797339,197.576004 894.869328,198.008 895.968,198.008 C896.757337,198.008 897.375998,197.784002 897.824,197.336 C898.272002,196.887998 898.496,196.280004 898.496,195.512 C898.496,194.76533 898.274669,194.162669 897.832,193.704 C897.389331,193.245331 896.800004,193.016 896.064,193.016 C894.986661,193.016 894.128003,193.453329 893.488,194.328 L892.576,194.328 L892.576,187.72 L899.344,187.72 L899.344,188.808 L893.872,188.808 L893.872,192.824 C894.170668,192.535999 894.525331,192.314667 894.936,192.16 C895.346669,192.005333 895.791998,191.928 896.272,191.928 C896.98667,191.928 897.607997,192.077332 898.136,192.376 Z" id="21-/-05" fill="#CACBCC"></path>
                    <path d="M1016.032,197.896 L1016.032,199 L1008.768,199 L1008.768,198.008 L1012.72,193.656 C1013.25334,193.058664 1013.64,192.522669 1013.88,192.048 C1014.12,191.573331 1014.24,191.096002 1014.24,190.616 C1014.24,189.99733 1014.05867,189.522668 1013.696,189.192 C1013.33333,188.861332 1012.82134,188.696 1012.16,188.696 C1011.07199,188.696 1010.00534,189.127996 1008.96,189.992 L1008.464,188.984 C1008.912,188.557331 1009.47466,188.218668 1010.152,187.968 C1010.82934,187.717332 1011.50933,187.592 1012.192,187.592 C1013.22667,187.592 1014.04533,187.858664 1014.648,188.392 C1015.25067,188.925336 1015.552,189.645329 1015.552,190.552 C1015.552,191.20267 1015.40533,191.826664 1015.112,192.424 C1014.81867,193.021336 1014.336,193.687996 1013.664,194.424 L1010.464,197.896 L1016.032,197.896 Z M1025.632,197.896 L1025.632,199 L1018.368,199 L1018.368,198.008 L1022.32,193.656 C1022.85334,193.058664 1023.24,192.522669 1023.48,192.048 C1023.72,191.573331 1023.84,191.096002 1023.84,190.616 C1023.84,189.99733 1023.65867,189.522668 1023.296,189.192 C1022.93333,188.861332 1022.42134,188.696 1021.76,188.696 C1020.67199,188.696 1019.60534,189.127996 1018.56,189.992 L1018.064,188.984 C1018.512,188.557331 1019.07466,188.218668 1019.752,187.968 C1020.42934,187.717332 1021.10933,187.592 1021.792,187.592 C1022.82667,187.592 1023.64533,187.858664 1024.248,188.392 C1024.85067,188.925336 1025.152,189.645329 1025.152,190.552 C1025.152,191.20267 1025.00533,191.826664 1024.712,192.424 C1024.41867,193.021336 1023.936,193.687996 1023.264,194.424 L1020.064,197.896 L1025.632,197.896 Z M1031.488,200.04 L1030.416,199.688 L1034.496,186.952 L1035.568,187.304 L1031.488,200.04 Z M1041.248,197.656 C1040.576,196.674662 1040.24,195.245343 1040.24,193.368 C1040.24,191.479991 1040.576,190.045338 1041.248,189.064 C1041.92,188.082662 1042.90133,187.592 1044.192,187.592 C1045.48267,187.592 1046.464,188.079995 1047.136,189.056 C1047.808,190.032005 1048.144,191.463991 1048.144,193.352 C1048.144,195.240009 1047.808,196.674662 1047.136,197.656 C1046.464,198.637338 1045.48267,199.128 1044.192,199.128 C1042.90133,199.128 1041.92,198.637338 1041.248,197.656 Z M1046.176,196.888 C1046.60267,196.130663 1046.816,194.952008 1046.816,193.352 C1046.816,191.741325 1046.60534,190.565337 1046.184,189.824 C1045.76266,189.082663 1045.09867,188.712 1044.192,188.712 C1043.296,188.712 1042.63467,189.08533 1042.208,189.832 C1041.78133,190.57867 1041.568,191.751992 1041.568,193.352 C1041.568,194.952008 1041.78133,196.130663 1042.208,196.888 C1042.63467,197.645337 1043.296,198.024 1044.192,198.024 C1045.088,198.024 1045.74933,197.645337 1046.176,196.888 Z M1056.136,192.376 C1056.664,192.674668 1057.072,193.093331 1057.36,193.632 C1057.648,194.170669 1057.792,194.791996 1057.792,195.496 C1057.792,196.21067 1057.63467,196.839997 1057.32,197.384 C1057.00533,197.928003 1056.56,198.351998 1055.984,198.656 C1055.408,198.960002 1054.736,199.112 1053.968,199.112 C1053.28533,199.112 1052.61067,198.986668 1051.944,198.736 C1051.27733,198.485332 1050.71467,198.146669 1050.256,197.72 L1050.752,196.712 C1051.79734,197.576004 1052.86933,198.008 1053.968,198.008 C1054.75734,198.008 1055.376,197.784002 1055.824,197.336 C1056.272,196.887998 1056.496,196.280004 1056.496,195.512 C1056.496,194.76533 1056.27467,194.162669 1055.832,193.704 C1055.38933,193.245331 1054.8,193.016 1054.064,193.016 C1052.98666,193.016 1052.128,193.453329 1051.488,194.328 L1050.576,194.328 L1050.576,187.72 L1057.344,187.72 L1057.344,188.808 L1051.872,188.808 L1051.872,192.824 C1052.17067,192.535999 1052.52533,192.314667 1052.936,192.16 C1053.34667,192.005333 1053.792,191.928 1054.272,191.928 C1054.98667,191.928 1055.608,192.077332 1056.136,192.376 Z" id="22-/-05" fill="#CACBCC"></path>
                    <path d="M1173.032,197.896 L1173.032,199 L1165.768,199 L1165.768,198.008 L1169.72,193.656 C1170.25334,193.058664 1170.64,192.522669 1170.88,192.048 C1171.12,191.573331 1171.24,191.096002 1171.24,190.616 C1171.24,189.99733 1171.05867,189.522668 1170.696,189.192 C1170.33333,188.861332 1169.82134,188.696 1169.16,188.696 C1168.07199,188.696 1167.00534,189.127996 1165.96,189.992 L1165.464,188.984 C1165.912,188.557331 1166.47466,188.218668 1167.152,187.968 C1167.82934,187.717332 1168.50933,187.592 1169.192,187.592 C1170.22667,187.592 1171.04533,187.858664 1171.648,188.392 C1172.25067,188.925336 1172.552,189.645329 1172.552,190.552 C1172.552,191.20267 1172.40533,191.826664 1172.112,192.424 C1171.81867,193.021336 1171.336,193.687996 1170.664,194.424 L1167.464,197.896 L1173.032,197.896 Z M1181.88,194.192 C1182.232,194.656002 1182.408,195.239996 1182.408,195.944 C1182.408,196.925338 1182.07467,197.698664 1181.408,198.264 C1180.74133,198.829336 1179.83734,199.112 1178.696,199.112 C1177.97066,199.112 1177.272,198.989335 1176.6,198.744 C1175.928,198.498665 1175.36267,198.157336 1174.904,197.72 L1175.4,196.712 C1176.42401,197.576004 1177.51199,198.008 1178.664,198.008 C1179.464,198.008 1180.072,197.829335 1180.488,197.472 C1180.904,197.114665 1181.112,196.589337 1181.112,195.896 C1181.112,194.519993 1180.24801,193.832 1178.52,193.832 L1177.224,193.832 L1177.224,192.728 L1178.264,192.728 C1179.096,192.728 1179.736,192.544002 1180.184,192.176 C1180.632,191.807998 1180.856,191.277337 1180.856,190.584 C1180.856,189.975997 1180.67467,189.509335 1180.312,189.184 C1179.94933,188.858665 1179.432,188.696 1178.76,188.696 C1177.67199,188.696 1176.60534,189.127996 1175.56,189.992 L1175.064,188.984 C1175.52267,188.546664 1176.08266,188.205335 1176.744,187.96 C1177.40534,187.714665 1178.09333,187.592 1178.808,187.592 C1179.83201,187.592 1180.64533,187.850664 1181.248,188.368 C1181.85067,188.885336 1182.152,189.581329 1182.152,190.456 C1182.152,191.10667 1181.99467,191.674664 1181.68,192.16 C1181.36533,192.645336 1180.92534,192.994666 1180.36,193.208 C1181.02134,193.400001 1181.528,193.727998 1181.88,194.192 Z M1188.488,200.04 L1187.416,199.688 L1191.496,186.952 L1192.568,187.304 L1188.488,200.04 Z M1198.248,197.656 C1197.576,196.674662 1197.24,195.245343 1197.24,193.368 C1197.24,191.479991 1197.576,190.045338 1198.248,189.064 C1198.92,188.082662 1199.90133,187.592 1201.192,187.592 C1202.48267,187.592 1203.464,188.079995 1204.136,189.056 C1204.808,190.032005 1205.144,191.463991 1205.144,193.352 C1205.144,195.240009 1204.808,196.674662 1204.136,197.656 C1203.464,198.637338 1202.48267,199.128 1201.192,199.128 C1199.90133,199.128 1198.92,198.637338 1198.248,197.656 Z M1203.176,196.888 C1203.60267,196.130663 1203.816,194.952008 1203.816,193.352 C1203.816,191.741325 1203.60534,190.565337 1203.184,189.824 C1202.76266,189.082663 1202.09867,188.712 1201.192,188.712 C1200.296,188.712 1199.63467,189.08533 1199.208,189.832 C1198.78133,190.57867 1198.568,191.751992 1198.568,193.352 C1198.568,194.952008 1198.78133,196.130663 1199.208,196.888 C1199.63467,197.645337 1200.296,198.024 1201.192,198.024 C1202.088,198.024 1202.74933,197.645337 1203.176,196.888 Z M1213.136,192.376 C1213.664,192.674668 1214.072,193.093331 1214.36,193.632 C1214.648,194.170669 1214.792,194.791996 1214.792,195.496 C1214.792,196.21067 1214.63467,196.839997 1214.32,197.384 C1214.00533,197.928003 1213.56,198.351998 1212.984,198.656 C1212.408,198.960002 1211.736,199.112 1210.968,199.112 C1210.28533,199.112 1209.61067,198.986668 1208.944,198.736 C1208.27733,198.485332 1207.71467,198.146669 1207.256,197.72 L1207.752,196.712 C1208.79734,197.576004 1209.86933,198.008 1210.968,198.008 C1211.75734,198.008 1212.376,197.784002 1212.824,197.336 C1213.272,196.887998 1213.496,196.280004 1213.496,195.512 C1213.496,194.76533 1213.27467,194.162669 1212.832,193.704 C1212.38933,193.245331 1211.8,193.016 1211.064,193.016 C1209.98666,193.016 1209.128,193.453329 1208.488,194.328 L1207.576,194.328 L1207.576,187.72 L1214.344,187.72 L1214.344,188.808 L1208.872,188.808 L1208.872,192.824 C1209.17067,192.535999 1209.52533,192.314667 1209.936,192.16 C1210.34667,192.005333 1210.792,191.928 1211.272,191.928 C1211.98667,191.928 1212.608,192.077332 1213.136,192.376 Z" id="23-/-05" fill="#CACBCC"></path>
                </g>
            </g>
        </g>
    </g>
</svg>