<svg width="407" height="75" viewBox="0 0 407 75" xmlns="http://www.w3.org/2000/svg"><title>UX CASE</title><path d="M2.82 24.11c-.126-.82-.284-1.326-.473-1.515.442-1.137.773-2.258.994-3.363.221-1.105.395-2.163.521-3.173a39.51 39.51 0 0 1 .427-2.463 15.79 15.79 0 0 1 .615-2.179c1.074-.253 1.879-.71 2.416-1.374a18.25 18.25 0 0 0 1.279-1.752c1.136-.063 1.878.095 2.226.474.347.379.742 1.01 1.184 1.894.316.695.758 1.437 1.326 2.226.568.79 1.42 1.405 2.558 1.847a18.2 18.2 0 0 0 .663 1.99c.252.631.536 1.294.852 1.989a69.937 69.937 0 0 1 1.61 4.12c.506 1.421.79 2.763.853 4.026-.758 1.453-1.342 3.126-1.752 5.02a35.18 35.18 0 0 0-.758 5.732 35.588 35.588 0 0 0 .142 5.541c.19 1.769.505 3.253.947 4.453l.569 1.515 2.084-.19c2.273-.568 4.325-1.215 6.157-1.941a29.922 29.922 0 0 0 5.115-2.605 35.989 35.989 0 0 0 4.547-3.458c1.452-1.294 2.968-2.826 4.547-4.594 1.515-1.768 2.873-3.773 4.073-6.015a43.602 43.602 0 0 0 2.984-6.962c.79-2.4 1.405-4.8 1.847-7.2.442-2.4.726-4.641.853-6.725 1.2-.569 1.863-1.484 1.989-2.747l-.284-1.232c-.19-.316-.269-.616-.237-.9.031-.284.11-.552.237-.805.505-1.452 1.578-2.526 3.22-3.22a27.396 27.396 0 0 1 3.174 2.462 43.15 43.15 0 0 1 2.7 2.653c.126 1.705.378 3.173.757 4.404.38 1.232.79 2.416 1.232 3.553a56.239 56.239 0 0 1 1.184 3.126c.347 1.01.584 2.242.71 3.694-.631 1.895-1.09 3.679-1.373 5.352a171.025 171.025 0 0 0-.806 5.257l-.189 1.042a214.546 214.546 0 0 0-3.363 6.016c-1.105 2.052-2.005 3.836-2.7 5.352a6.07 6.07 0 0 0-.994 1.326c-.284.505-.553 1.01-.805 1.515-.127.19-.3.506-.521.948-.221.442-.427.757-.616.947l-2.273-.853-.569 2.937-1.515.379-1.137 1.326c-1.453 2.526-2.984 4.642-4.594 6.347a31.209 31.209 0 0 1-5.4 4.547c-1.989 1.326-4.23 2.573-6.725 3.741a199.351 199.351 0 0 1-8.573 3.742c-1.263-.19-2.352-.3-3.268-.332a73.399 73.399 0 0 1-2.7-.142c-.884 0-1.737-.031-2.558-.094a71.79 71.79 0 0 1-2.841-.285c-.253-.568-.6-.978-1.042-1.231-.442-.253-.853-.379-1.232-.379-1.263-.631-2.21-1.516-2.842-2.652a99.07 99.07 0 0 1-1.989-3.79 70.958 70.958 0 0 0-.994-2.273 12.684 12.684 0 0 0-1.28-2.179l1.895-.568-2.463-2.842c-.189-.19-.394-.379-.615-.568a4.14 4.14 0 0 1-.616-.663v-1.8C.957 45.361.847 40.577.878 36.188c.032-4.389.616-8.257 1.753-11.604l.19-.474zm65.551 50.11c-2.463-1.83-4.278-4.088-5.447-6.772-1.168-2.684-1.31-5.352-.426-8.005a15.366 15.366 0 0 1 1.468-5.636c.853-1.8 1.895-3.52 3.126-5.162a43.283 43.283 0 0 1 4.026-4.642l4.073-4.073a4.61 4.61 0 0 1 1.327-1.99 27.28 27.28 0 0 1 2.036-1.657 35.31 35.31 0 0 0 2.179-1.753 7.724 7.724 0 0 0 1.752-2.178c-.252-.885-.663-1.769-1.231-2.653a34.466 34.466 0 0 0-1.895-2.652 80.482 80.482 0 0 0-2.178-2.652 28.58 28.58 0 0 1-2.084-2.748c-.063-.315-.3-.41-.71-.284-.411.127-.711.095-.9-.094.126-1.01-.08-2.1-.616-3.269a9.346 9.346 0 0 0-2.132-2.983c.316-.758.616-1.737.9-2.937.284-1.2.205-2.494-.237-3.884a3.842 3.842 0 0 1 .237-1.8c.221-.568.458-1.105.71-1.61.253-.505.443-.994.569-1.468.126-.474.095-.963-.095-1.468.948-.127 1.816-.08 2.605.142.79.22 1.516.473 2.179.758.663.284 1.295.52 1.894.71a2.4 2.4 0 0 0 1.753-.095c-.126.38-.142.648-.047.805.094.158.22.285.378.38.158.094.316.173.474.236.158.063.237.221.237.474 1.2.379 2.51 1.2 3.931 2.463a46.78 46.78 0 0 1 4.12 4.168 62.341 62.341 0 0 1 3.6 4.5c1.074 1.483 1.863 2.636 2.368 3.457 1.832-1.137 3.805-2.495 5.92-4.074a906.433 906.433 0 0 1 6.537-4.83 137.69 137.69 0 0 1 6.82-4.69c2.305-1.484 4.563-2.668 6.773-3.552 1.263.569 2.258 1.295 2.984 2.179a14.015 14.015 0 0 1 1.8 2.794c.474.98.916 1.958 1.326 2.937.41.979.963 1.847 1.658 2.605-.632 1.263-1.295 2.32-1.99 3.173-.694.853-1.2 1.879-1.515 3.079-1.579.631-3.473 1.642-5.684 3.031-1.894 1.2-4.294 2.842-7.199 4.926-2.905 2.084-6.347 4.83-10.325 8.241.947 1.074 1.72 2.084 2.32 3.031.6.948 1.09 1.768 1.469 2.463.442.821.79 1.579 1.042 2.274a6.59 6.59 0 0 1 1.705 1.8c.442.694.868 1.404 1.279 2.13.41.727.868 1.406 1.373 2.037.506.632 1.169 1.137 1.99 1.516.252 1.137.568 2.194.947 3.173.379.98.742 1.942 1.09 2.89.347.947.63 1.878.852 2.794.22.916.3 1.847.237 2.794-.506 1.705-1.263 3.126-2.274 4.263-1.01 1.137-1.736 2.305-2.179 3.505a38.34 38.34 0 0 0-2.036.616c-.663.22-1.216.552-1.658.994l-6.441-4.547c-1.137-3.789-2.779-7.42-4.926-10.893-2.147-3.473-4.231-6.473-6.252-9a83.415 83.415 0 0 0-8.715 7.768 74.177 74.177 0 0 0-7.578 9.094c-.126 1.579-.316 2.89-.568 3.931-.253 1.042-.663 1.91-1.232 2.605-.568.695-1.294 1.295-2.178 1.8-.885.505-1.99 1.01-3.316 1.516zm100.22-11.461c-1.83-1.39-3.33-3.126-4.499-5.21a30.582 30.582 0 0 1-2.747-6.631 39.135 39.135 0 0 1-1.326-7.247 61.699 61.699 0 0 1-.237-7.151 25.399 25.399 0 0 1 2.084-4.69 35.38 35.38 0 0 1 2.747-4.073 51.314 51.314 0 0 1 3.174-3.694 174.079 174.079 0 0 0 3.268-3.552c.379 0 .726.094 1.042.284a4.858 4.858 0 0 1 1.136-1.8 13.23 13.23 0 0 1 1.61-1.373l1.706-1.232c.568-.41 1.042-.9 1.42-1.468 1.58-.379 2.985-.916 4.216-1.61a37.687 37.687 0 0 0 3.552-2.274 41.482 41.482 0 0 1 3.505-2.273c1.2-.695 2.59-1.232 4.168-1.61.569-.632 1.279-1.169 2.132-1.611a47.213 47.213 0 0 1 2.557-1.231 30.08 30.08 0 0 0 2.463-1.232 5.58 5.58 0 0 0 1.942-1.8c.379.505.916.68 1.61.521a20.102 20.102 0 0 0 1.895-.52c.379-.064.694 0 .947.189.253.19.49.394.71.615.222.221.411.364.569.427.158.063.331-.127.52-.569.506.063.648.285.427.663a17.11 17.11 0 0 0-.426.758c.631-.126 1.152-.016 1.563.332.41.347 1.058.584 1.942.71.315.316.41.569.284.758-.126.19-.221.505-.284.947 2.273.695 3.726 1.784 4.357 3.268.632 1.484.695 3.032.19 4.642-.506 1.61-1.437 3.094-2.795 4.452-1.358 1.358-2.857 2.258-4.5 2.7a139.69 139.69 0 0 0-5.446 1.515 54.317 54.317 0 0 0-4.831 1.706 28.19 28.19 0 0 0-4.358 2.226 16.347 16.347 0 0 0-3.552 2.983c-1.768.506-3.363 1.2-4.784 2.084a30.813 30.813 0 0 0-3.978 2.937 59.582 59.582 0 0 0-3.552 3.363 354.541 354.541 0 0 1-3.41 3.457c0 1.074-.19 1.895-.569 2.463-.379.569-.79 1.137-1.231 1.705.126 1.2.394 2.226.805 3.079.41.852.837 1.72 1.279 2.605 5.052 1.516 10.404 2.447 16.056 2.794 5.652.348 11.257.553 16.814.616a15.385 15.385 0 0 0 1.942 2.131c.726.663 1.39 1.342 1.989 2.037a7.97 7.97 0 0 1 1.42 2.416c.348.915.427 2.005.238 3.268a37.004 37.004 0 0 1-3.505 3.078 301.407 301.407 0 0 1-3.79 2.89c-.568.063-1.246.063-2.036 0a30.51 30.51 0 0 0-2.463-.095c-.852 0-1.705.047-2.557.142-.853.094-1.658.3-2.416.615-3.978-.126-8.052-.615-12.22-1.468-4.168-.852-8.02-1.879-11.556-3.078a30.483 30.483 0 0 0-2.179-2.321c-.758-.726-1.768-1.247-3.031-1.563zM216.619 62l1.232-.947.094-1.99a228.482 228.482 0 0 1 4.879-11.083 814.814 814.814 0 0 1 5.257-10.893c.568-1.2 1.153-2.4 1.753-3.6.6-1.2 1.184-2.431 1.752-3.694a3.31 3.31 0 0 1-.095-.805c0-.284.063-.616.19-.995.884-1.263 1.594-2.4 2.131-3.41a72.086 72.086 0 0 0 1.563-3.126 69.574 69.574 0 0 1 1.847-3.79 20.65 20.65 0 0 1 2.51-3.693l.664-.948 1.042.095c.252-.126.52-.237.805-.331.284-.095.647-.143 1.09-.143l1.704.285c2.084-.948 3.931-2.321 5.542-4.121 1.61-1.8 3.236-3.963 4.878-6.489l1.137-1.61 1.515.947c.316.19.821.38 1.516.569.695.189 1.42.41 2.179.663 1.326.315 2.62.678 3.884 1.089 1.263.41 2.241.963 2.936 1.658l.474.852c.126.695.236 1.326.331 1.895.095.568.205 1.136.332 1.705a92.92 92.92 0 0 1 .663 3.931c.19 1.295.316 2.731.379 4.31.316 1.263.615 2.542.9 3.836.284 1.295.552 2.574.805 3.837.316 1.831.663 3.584 1.042 5.257a29.145 29.145 0 0 0 1.515 4.784c.632 0 1.01.031 1.137.095.758-.316 1.642-.506 2.653-.569l1.231-.094.379 1.136c.126.19.284.38.474.569.189.19.41.379.663.568 1.01.063 1.752.268 2.226.616.473.347.868.679 1.184.994.126.127.284.269.473.427.19.157.348.268.474.331l1.705.663-.947 1.8c-.695 1.326-1.753 2.62-3.174 3.884a19.54 19.54 0 0 1-4.783 3.126c.126.442.205.852.237 1.231.031.38.11.821.236 1.326.253 1.263.458 2.574.616 3.932a17.168 17.168 0 0 1-.047 4.215c-.632 1.642-1.374 3.11-2.226 4.405a17.79 17.79 0 0 1-3.032 3.505 15.603 15.603 0 0 1-3.93 2.557 12.005 12.005 0 0 1-4.548 1.09c-.884-.19-1.531-.41-1.941-.664a10.84 10.84 0 0 1-1.09-.757c-.505-.38-.916-.632-1.231-.758l-1.232-.569.38-1.42c.189-.506.173-.948-.048-1.327-.221-.379-.679-.884-1.374-1.515a4.14 4.14 0 0 1-.663-.616c-.19-.221-.41-.458-.663-.71l-1.894-2.18 3.126-.852c1.894-.505 3.157-1.152 3.789-1.942.631-.789.884-2.194.757-4.215-1.578-.316-2.873-.363-3.883-.142-1.01.221-2.021.458-3.032.71-1.452.38-2.873.71-4.262.995-1.39.284-2.905.426-4.547.426a21.83 21.83 0 0 1-3.41-.284l-1.042-.095-.284-1.042c0-.126-.08-.268-.237-.426l-.427-.426a23.405 23.405 0 0 1-1.136-1.516c-.442-.631-.537-1.42-.284-2.368-.443-.695-.695-1.42-.758-2.179-.253.506-.458.995-.616 1.469-.158.473-.3.931-.426 1.373l-.38 1.232-1.23.19c-.127.125-.237.315-.332.568-.095.252-.11.442-.048.568l.38 1.042-.948.852c-.126.19-.284.348-.474.474a3.104 3.104 0 0 0-.473.379c-.126.695-.3 1.358-.521 1.99a46.163 46.163 0 0 1-.71 1.894c-.316 1.01-.616 1.989-.9 2.936a9.846 9.846 0 0 0-.427 2.842l-.379 1.231c-.315.506-.71.885-1.184 1.137-.473.253-.931.474-1.373.663-.632.253-1.074.505-1.326.758l-.285 1.232-1.42.189a43.96 43.96 0 0 1-1.753.379 6.663 6.663 0 0 1-1.184.095l-1.232-.095a37.678 37.678 0 0 0-1.847-1.753 7.931 7.931 0 0 0-1.657-1.089l-.569-.758c-.252-.505-.41-.963-.473-1.373a10.5 10.5 0 0 0-.285-1.279c-.126-.821-.315-1.39-.568-1.705L216.62 62zm30.218-24.629a61.426 61.426 0 0 0-2.558 3.979 9.045 9.045 0 0 1 1.28-.095c.41 0 .836-.032 1.278-.095 2.21-.126 4.263-.284 6.157-.474a64.074 64.074 0 0 0 6.157-.947 253.406 253.406 0 0 0-1.657-7.152c-.6-2.43-1.248-4.878-1.942-7.34l-.474.946a65.659 65.659 0 0 0-4.547 5.494c-1.452 1.958-2.652 3.821-3.6 5.59l-.094.094zm41.585-9.094c.19-.947.316-1.72.379-2.32.063-.6-.158-1.248-.663-1.942.252-1.01.458-1.8.615-2.369.158-.568.174-1.357.048-2.368.568-1.642 1.436-3.03 2.605-4.168a18.81 18.81 0 0 1 3.836-2.889 27.15 27.15 0 0 1 4.358-1.99 72.451 72.451 0 0 1 4.262-1.373c0-.252-.126-.379-.379-.379-.252 0-.315-.157-.189-.473a69.834 69.834 0 0 0 10.278-2.747 140.66 140.66 0 0 1 10.562-3.22A56.327 56.327 0 0 1 335.216.286c3.789-.221 7.767.268 11.935 1.468.253.758.6 1.484 1.042 2.179.442.694.9 1.373 1.374 2.036.474.663.9 1.31 1.279 1.942.379.632.6 1.295.663 1.99a10.035 10.035 0 0 1 1.847 2.225c.474.79.553 1.848.237 3.174a65.274 65.274 0 0 1-2.179 1.515c-.758.506-1.547.98-2.368 1.421a27.892 27.892 0 0 0-8.525-.758c-2.842.19-5.4.411-7.673.664-.695-.758-1.516-1.121-2.463-1.09-.948.032-1.942.19-2.984.474s-2.068.568-3.079.852c-1.01.285-1.957.364-2.842.237-.694.632-1.61 1.058-2.747 1.279a39.427 39.427 0 0 1-3.6.521c-.062.316 0 .537.19.663s.221.379.095.758c.442.568 1.042.963 1.8 1.184a49.77 49.77 0 0 0 2.32.616c.79.19 1.5.458 2.132.805.631.347 1.042.9 1.231 1.658 1.137.063 2.116.363 2.937.9a8.162 8.162 0 0 1 2.084 1.941 7.614 7.614 0 0 1 1.231 2.416c.253.852.348 1.626.284 2.32.253.632.521.885.806.759.284-.127.615.031.994.473.253.947.837 1.942 1.753 2.984a12.33 12.33 0 0 1 2.131 3.363c.126 1.894.237 3.6.332 5.115.094 1.516-.174 3-.806 4.452a23.608 23.608 0 0 1-4.641 7.484 35.873 35.873 0 0 1-6.868 5.825 53.91 53.91 0 0 1-8.099 4.358 73.831 73.831 0 0 1-8.43 3.078c-.253-.063-.553-.063-.9 0-.348.064-.427-.126-.237-.568a3.874 3.874 0 0 1-1.942.947c-.726.127-1.516.174-2.368.142a69.38 69.38 0 0 1-2.558-.142 11.076 11.076 0 0 0-2.51.095 19.87 19.87 0 0 1-1.374-1.516 6.17 6.17 0 0 1-.994-1.8c-.316-.063-.458-.268-.427-.615.032-.347-.11-.521-.426-.521 0-.253.032-.442.095-.569l.19-.378c.252-.19.362-.332.33-.427-.03-.094-.126-.19-.283-.284a4.31 4.31 0 0 1-.474-.331c-.158-.127-.205-.285-.142-.474.316-.568.426-1.247.331-2.037a56.908 56.908 0 0 1-.236-2.415 7.01 7.01 0 0 1 .189-2.321c.19-.726.726-1.342 1.61-1.847 2.59.252 5.037.126 7.342-.38a35.914 35.914 0 0 0 6.536-2.083 63.418 63.418 0 0 0 5.873-2.89 133.236 133.236 0 0 1 5.447-2.888c.19-.632.49-1.169.9-1.61.41-.443.836-.87 1.278-1.28.442-.41.853-.852 1.232-1.326.379-.473.663-1.057.852-1.752.064-.253.064-.442 0-.569a.94.94 0 0 0-.284-.331 3.557 3.557 0 0 1-.379-.332c-.126-.126-.19-.315-.19-.568a9.48 9.48 0 0 1-.52-.19 1.164 1.164 0 0 0-.426-.094 34.476 34.476 0 0 0-5.21-2.084c-1.832-.568-3.379-1.2-4.642-1.895-.758.506-1.516.632-2.273.38a32.046 32.046 0 0 0-2.748-.759 68.258 68.258 0 0 1-7.53-.757 29 29 0 0 1-6.868-1.99 4.15 4.15 0 0 0-.474-.994c-.189-.284-.631-.363-1.326-.237a19.85 19.85 0 0 0-1.373-1.753c-.474-.536-.9-1.152-1.28-1.847zm59.962 39.501a4.388 4.388 0 0 1-1.09-1.8c-.22-.694-.742-1.263-1.563-1.705-.126-.947-.3-2.036-.52-3.268a452.972 452.972 0 0 1-.664-3.789 40.723 40.723 0 0 1-.473-3.884c-.095-1.294-.048-2.478.142-3.552a5.86 5.86 0 0 1 .616-1.61 60.6 60.6 0 0 1 .852-1.468c.284-.474.505-.963.663-1.469.158-.505.174-1.01.048-1.515.378-.063.615-.269.71-.616.095-.347.395-.458.9-.332a46.258 46.258 0 0 1 1.42-3.883 59.228 59.228 0 0 1 1.611-3.505 360.57 360.57 0 0 1 1.753-3.458 30.678 30.678 0 0 0 1.657-3.93c-1.073-1.011-1.847-2.1-2.32-3.269a20.903 20.903 0 0 1-1.09-3.552 35.048 35.048 0 0 1-.568-3.647 20.173 20.173 0 0 0-.758-3.742 10.073 10.073 0 0 1 2.747-2.794 16.31 16.31 0 0 1 3.552-1.8c1.295-.474 2.7-.853 4.216-1.137 1.515-.284 3.126-.616 4.83-.994 3.032-.948 5.747-1.69 8.147-2.227 2.4-.536 4.736-.978 7.01-1.326 2.273-.347 4.642-.663 7.104-.947 2.463-.284 5.305-.71 8.526-1.279.063.19.173.284.331.284h.616c.19.442.537.664 1.042.664 0-.19-.016-.364-.047-.521a2.195 2.195 0 0 1-.048-.427c.127 0 .3.032.521.095a5.8 5.8 0 0 1 .569.19c.158.063.3.047.426-.048s.158-.3.095-.616a10.09 10.09 0 0 0 2.936 3.268 21.96 21.96 0 0 0 3.979 2.226c.063.569.079.98.047 1.232a4.62 4.62 0 0 1-.142.71 2.763 2.763 0 0 0-.095.758c0 .284.063.68.19 1.184-1.01 1.705-2.163 3.032-3.458 3.979a15.673 15.673 0 0 1-4.12 2.178 26.418 26.418 0 0 1-4.595 1.137c-1.61.253-3.252.521-4.925.805a43.429 43.429 0 0 0-5.068 1.184c-1.705.506-3.379 1.263-5.02 2.274-.506-.19-.964-.268-1.374-.237-.41.032-.837.11-1.28.237-.441.126-.93.253-1.467.379s-1.184.126-1.942 0a4.505 4.505 0 0 1-1.753.947c-.663.19-1.342.379-2.036.568.315.695.458 1.39.426 2.084-.032.695.047 1.295.237 1.8 2.652.253 5.589.237 8.81-.047 3.22-.284 6.378-.49 9.472-.616.063.316.032.537-.095.663-.126.127-.19.348-.19.663a8.39 8.39 0 0 1 1.611 1.421 38.267 38.267 0 0 0 1.563 1.658c.537.537 1.09.979 1.658 1.326.568.347 1.231.49 1.99.426.315.632.536 1.295.662 1.99.126.694.032 1.42-.284 2.178a107.944 107.944 0 0 0-3.694 2.51 35.137 35.137 0 0 1-3.742 2.321 21.79 21.79 0 0 1-4.215 1.705c-1.516.443-3.158.632-4.926.569h-.805c-.221 0-.49-.126-.805-.38-.632.317-1.469.427-2.51.332-1.043-.094-1.911.016-2.606.332-.884-.316-1.91-.474-3.078-.474-1.169 0-2.195-.157-3.079-.473a64.74 64.74 0 0 0-3.22 5.162 41.327 41.327 0 0 0-2.653 5.731c2.59.38 4.736.537 6.441.474a55.605 55.605 0 0 0 4.831-.379c1.516-.19 3.08-.379 4.69-.568 1.61-.19 3.583-.253 5.92-.19 1.579-.758 3.394-1.279 5.447-1.563 2.052-.284 3.962-.71 5.73-1.279.632.19 1.169.553 1.61 1.09.443.537.87 1.073 1.28 1.61.41.537.836.995 1.279 1.374.442.379 1.01.505 1.705.379.315.315.52.694.615 1.136.095.442.19.853.285 1.232.094.379.236.679.426.9.19.22.537.3 1.042.236-1.2 2.463-2.542 4.358-4.026 5.684a16.427 16.427 0 0 1-5.02 3.079c-1.864.726-3.948 1.263-6.253 1.61-2.305.347-4.878.774-7.72 1.279-.694.126-1.279.11-1.752-.048a4.613 4.613 0 0 0-1.468-.236 136.38 136.38 0 0 1-6.3.947 47.47 47.47 0 0 1-7.341.379 32.66 32.66 0 0 1-7.105-.947c-2.273-.569-4.168-1.58-5.683-3.032z" fill="#CACBCC" fill-rule="evenodd"/></svg>