<?xml version="1.0" encoding="UTF-8" standalone="no"?>
<svg width="407px" height="75px" viewBox="0 0 407 75" version="1.1" xmlns="http://www.w3.org/2000/svg" xmlns:xlink="http://www.w3.org/1999/xlink">
    <!-- Generator: Sketch 48.2 (47327) - http://www.bohemiancoding.com/sketch -->
    <title>UX CASE</title>
    <desc>Created with Sketch.</desc>
    <defs></defs>
    <g id="portfolio---ADI" stroke="none" stroke-width="1" fill="none" fill-rule="evenodd" transform="translate(-502.000000, -941.000000)">
        <g id="zone-2" transform="translate(0.000000, 812.000000)" fill="#CACBCC">
            <g id="UX-case" transform="translate(0.000000, 94.000000)">
                <path d="M504.820312,59.1103516 C504.69401,58.2893839 504.536134,57.7841806 504.34668,57.5947266 C504.788739,56.4580021 505.120279,55.3370823 505.341309,54.2319336 C505.562338,53.1267848 505.736002,52.0690155 505.862305,51.0585938 C505.988607,50.1744747 506.130696,49.3535194 506.288574,48.5957031 C506.446453,47.8378868 506.651691,47.1116571 506.904297,46.4169922 C507.97787,46.1643868 508.783038,45.7065463 509.319824,45.043457 C509.856611,44.3803678 510.282876,43.7962265 510.598633,43.2910156 C511.735357,43.2278643 512.477375,43.3857403 512.824707,43.7646484 C513.172039,44.1435566 513.56673,44.7750607 514.008789,45.6591797 C514.324546,46.3538446 514.766599,47.0958619 515.334961,47.8852539 C515.903323,48.6746459 516.755854,49.2903624 517.892578,49.7324219 C518.082032,50.4270868 518.303059,51.0901661 518.555664,51.7216797 C518.808269,52.3531933 519.092446,53.0162726 519.408203,53.7109375 C519.976565,55.037116 520.513344,56.4106374 521.018555,57.831543 C521.523766,59.2524485 521.807942,60.5943947 521.871094,61.8574219 C521.113277,63.3099031 520.529136,64.983389 520.118652,66.8779297 C519.708169,68.7724704 519.455567,70.6827703 519.36084,72.6088867 C519.266113,74.5350031 519.313476,76.3821526 519.50293,78.1503906 C519.692384,79.9186286 520.008136,81.4026633 520.450195,82.6025391 L521.018555,84.1181641 L523.102539,83.9287109 C525.375988,83.3603487 527.428376,82.713057 529.259766,81.9868164 C531.091155,81.2605758 532.796216,80.3922577 534.375,79.3818359 C535.953784,78.3714142 537.469394,77.2189192 538.921875,75.9243164 C540.374356,74.6297136 541.889966,73.0983161 543.46875,71.3300781 C544.984383,69.5618401 546.342116,67.5568146 547.541992,65.3149414 C548.741868,63.0730682 549.736487,60.7522906 550.525879,58.3525391 C551.315271,55.9527875 551.930987,53.5530719 552.373047,51.1533203 C552.815106,48.7535687 553.099283,46.5117292 553.225586,44.4277344 C554.425462,43.8593722 555.088541,42.9436912 555.214844,41.6806641 L554.930664,40.4492188 C554.74121,40.133462 554.662272,39.8334975 554.693848,39.5493164 C554.725423,39.2651353 554.804361,38.9967461 554.930664,38.7441406 C555.435875,37.2916594 556.509432,36.2181024 558.151367,35.5234375 C559.288092,36.2812538 560.345861,37.1022091 561.324707,37.9863281 C562.303553,38.8704471 563.203446,39.7545529 564.024414,40.6386719 C564.150717,42.3437585 564.403318,43.8120056 564.782227,45.043457 C565.161135,46.2749085 565.571612,47.4589787 566.013672,48.5957031 C566.455731,49.6692762 566.850421,50.711258 567.197754,51.7216797 C567.545086,52.7321014 567.7819,53.9635344 567.908203,55.4160156 C567.27669,57.3105563 566.818849,59.0945554 566.534668,60.7680664 C566.250487,62.4415774 565.982098,64.1940013 565.729492,66.0253906 L565.540039,67.0673828 C564.403315,69.0250749 563.282395,71.0301004 562.177246,73.0825195 C561.072097,75.1349386 560.172204,76.9189377 559.477539,78.4345703 C559.098631,78.8134785 558.767091,79.2555313 558.48291,79.7607422 C558.198729,80.265953 557.93034,80.7711563 557.677734,81.2763672 C557.551432,81.4658213 557.377768,81.7815733 557.156738,82.2236328 C556.935709,82.6656923 556.73047,82.9814444 556.541016,83.1708984 L554.267578,82.3183594 L553.699219,85.2548828 L552.183594,85.6337891 L551.046875,86.9599609 C549.594394,89.4860152 548.062996,91.601554 546.452637,93.3066406 C544.842277,95.0117273 543.04249,96.5273371 541.053223,97.8535156 C539.063955,99.1796941 536.822115,100.426915 534.327637,101.595215 C531.833158,102.763515 528.975602,104.010736 525.754883,105.336914 C524.491856,105.14746 523.402511,105.036947 522.486816,105.005371 C521.571122,104.973795 520.671228,104.926433 519.787109,104.863281 C518.90299,104.863281 518.05046,104.831706 517.229492,104.768555 C516.408525,104.705403 515.461268,104.610678 514.387695,104.484375 C514.13509,103.916013 513.787763,103.505535 513.345703,103.25293 C512.903644,103.000324 512.493166,102.874023 512.114258,102.874023 C510.851231,102.24251 509.903975,101.358404 509.272461,100.22168 C508.640947,99.0849553 507.977868,97.8219471 507.283203,96.4326172 C506.967446,95.6748009 506.635907,94.916996 506.288574,94.1591797 C505.941242,93.4013634 505.514976,92.6751337 505.009766,91.9804688 L506.904297,91.4121094 L504.441406,88.5703125 C504.251952,88.3808584 504.046713,88.1914072 503.825684,88.0019531 C503.604654,87.8124991 503.399415,87.5914726 503.209961,87.3388672 L503.209961,85.5390625 C502.957356,80.3606512 502.846842,75.5770076 502.878418,71.1879883 C502.909994,66.7989689 503.494135,62.9310063 504.630859,59.5839844 L504.820312,59.1103516 Z M570.371094,109.220703 C567.908191,107.389314 566.092617,105.131687 564.924316,102.447754 C563.756016,99.7638212 563.613928,97.0957164 564.498047,94.4433594 C564.62435,92.4856673 565.113765,90.6069426 565.966309,88.8071289 C566.818852,87.0073152 567.860834,85.2864665 569.092285,83.6445312 C570.323737,82.002596 571.665683,80.4554109 573.118164,79.0029297 L577.191406,74.9296875 C577.444012,74.1718712 577.886065,73.5087919 578.517578,72.9404297 C579.149092,72.3720675 579.827959,71.8195014 580.554199,71.2827148 C581.28044,70.7459283 582.00667,70.161787 582.73291,69.5302734 C583.459151,68.8987599 584.043292,68.1725301 584.485352,67.3515625 C584.232746,66.4674435 583.822268,65.5833378 583.253906,64.6992188 C582.685544,63.8150997 582.05404,62.930994 581.359375,62.046875 C580.66471,61.162756 579.93848,60.2786503 579.180664,59.3945312 C578.422848,58.5104122 577.728193,57.5947313 577.09668,56.6474609 C577.033528,56.3317042 576.796714,56.2369785 576.38623,56.3632812 C575.975747,56.489584 575.675782,56.4580088 575.486328,56.2685547 C575.612631,55.258133 575.407392,54.1687884 574.870605,53.0004883 C574.333819,51.8321882 573.623377,50.8375692 572.739258,50.0166016 C573.055015,49.2587853 573.354979,48.2799539 573.63916,47.0800781 C573.923341,45.8802023 573.844403,44.5856189 573.402344,43.1962891 C573.339192,42.5647755 573.41813,41.9648466 573.63916,41.3964844 C573.86019,40.8281222 574.097004,40.2913437 574.349609,39.7861328 C574.602215,39.280922 574.791666,38.7915063 574.917969,38.3178711 C575.044271,37.8442359 575.012696,37.3548202 574.823242,36.8496094 C575.770513,36.7233067 576.638831,36.7706695 577.428223,36.9916992 C578.217615,37.212729 578.943844,37.4653306 579.606934,37.7495117 C580.270023,38.0336928 580.901527,38.2705069 581.501465,38.4599609 C582.101403,38.649415 582.685544,38.6178398 583.253906,38.3652344 C583.127604,38.7441425 583.111816,39.0125318 583.206543,39.1704102 C583.30127,39.3282885 583.427571,39.4545894 583.585449,39.5493164 C583.743328,39.6440434 583.901204,39.7229815 584.059082,39.7861328 C584.21696,39.8492842 584.295898,40.0071602 584.295898,40.2597656 C585.495774,40.6386738 586.806145,41.4596291 588.227051,42.7226562 C589.647956,43.9856834 591.021478,45.3749924 592.347656,46.890625 C593.673835,48.4062576 594.873693,49.9060798 595.947266,51.3901367 C597.020839,52.8741936 597.810219,54.0266886 598.31543,54.8476562 C600.146819,53.7109318 602.120269,52.353198 604.23584,50.7744141 C606.35141,49.1956301 608.530099,47.5852947 610.771973,45.9433594 C613.013846,44.3014241 615.287261,42.7384514 617.592285,41.2543945 C619.89731,39.7703376 622.154937,38.5862674 624.365234,37.7021484 C625.628262,38.2705107 626.62288,38.9967404 627.349121,39.8808594 C628.075362,40.7649784 628.675291,41.6964469 629.148926,42.675293 C629.622561,43.654139 630.064614,44.6329704 630.475098,45.6118164 C630.885581,46.5906624 631.438148,47.4589806 632.132812,48.2167969 C631.501299,49.479824 630.83822,50.5375934 630.143555,51.3901367 C629.44889,52.24268 628.943686,53.2688742 628.62793,54.46875 C627.049146,55.1002636 625.154633,56.1106701 622.944336,57.5 C621.049795,58.6998758 618.65008,60.3417865 615.745117,62.4257812 C612.840155,64.509776 609.398457,67.2568189 605.419922,70.6669922 C606.367192,71.7405653 607.140785,72.7509718 607.740723,73.6982422 C608.340661,74.6455125 608.830076,75.4664679 609.208984,76.1611328 C609.651044,76.9821005 609.998371,77.7399054 610.250977,78.4345703 C610.945641,78.9397812 611.513995,79.5397101 611.956055,80.234375 C612.398114,80.9290399 612.824379,81.639482 613.234863,82.3657227 C613.645347,83.0919633 614.103188,83.7708302 614.608398,84.4023438 C615.113609,85.0338573 615.776689,85.5390606 616.597656,85.9179688 C616.850262,87.0546932 617.166014,88.1124626 617.544922,89.0913086 C617.92383,90.0701546 618.286945,91.0331984 618.634277,91.9804688 C618.98161,92.9277391 619.265787,93.8592077 619.486816,94.7749023 C619.707846,95.690597 619.786784,96.6220656 619.723633,97.5693359 C619.218422,99.2744226 618.460617,100.695307 617.450195,101.832031 C616.439774,102.968756 615.713544,104.137038 615.271484,105.336914 C614.576819,105.526368 613.897953,105.731607 613.234863,105.952637 C612.571774,106.173666 612.019208,106.505206 611.577148,106.947266 L605.135742,102.400391 C603.999018,98.6113092 602.357107,94.9801606 600.209961,91.5068359 C598.062815,88.0335113 595.978851,85.0338668 593.958008,82.5078125 C590.926743,84.8444127 588.021824,87.4335795 585.243164,90.2753906 C582.464504,93.1172017 579.938488,96.1484214 577.665039,99.3691406 C577.538736,100.947925 577.349285,102.258296 577.09668,103.300293 C576.844074,104.34229 576.433597,105.210609 575.865234,105.905273 C575.296872,106.599938 574.570642,107.199867 573.686523,107.705078 C572.802404,108.210289 571.697272,108.715492 570.371094,109.220703 Z M670.591797,97.7587891 C668.760408,96.3694592 667.260585,94.6328229 666.092285,92.5488281 C664.923985,90.4648333 664.008304,88.254569 663.345215,85.9179688 C662.682126,83.5813685 662.240073,81.1658653 662.019043,78.6713867 C661.798013,76.1769081 661.719075,73.7929801 661.782227,71.5195312 C662.350589,69.8144446 663.045243,68.2514719 663.866211,66.8305664 C664.687179,65.4096609 665.60286,64.051927 666.613281,62.7573242 C667.623703,61.4627214 668.681472,60.2312884 669.786621,59.0629883 C670.89177,57.8946882 671.981114,56.710618 673.054688,55.5107422 C673.433596,55.5107422 673.780923,55.6054678 674.09668,55.7949219 C674.349285,55.1002569 674.728188,54.500328 675.233398,53.9951172 C675.738609,53.4899063 676.275388,53.0320659 676.84375,52.621582 L678.548828,51.3901367 C679.11719,50.9796529 679.590818,50.4902372 679.969727,49.921875 C681.54851,49.5429669 682.953607,49.0061884 684.185059,48.3115234 C685.41651,47.6168585 686.60058,46.8590536 687.737305,46.0380859 C688.874029,45.2171183 690.042312,44.4593134 691.242188,43.7646484 C692.442063,43.0699835 693.831372,42.533205 695.410156,42.1542969 C695.978518,41.5227833 696.688961,40.9860048 697.541504,40.5439453 C698.394047,40.1018858 699.246578,39.6914081 700.099121,39.3125 C700.951664,38.9335919 701.77262,38.5231142 702.562012,38.0810547 C703.351404,37.6389952 703.998695,37.0390663 704.503906,36.28125 C704.882814,36.7864609 705.419593,36.9601245 706.114258,36.8022461 C706.808923,36.6443677 707.440427,36.4707041 708.008789,36.28125 C708.387697,36.2180986 708.703449,36.2812491 708.956055,36.4707031 C709.20866,36.6601572 709.445474,36.865396 709.666504,37.0864258 C709.887534,37.3074555 710.076985,37.449544 710.234863,37.5126953 C710.392742,37.5758467 710.566405,37.3863954 710.755859,36.9443359 C711.26107,37.0074873 711.403159,37.2285137 711.182129,37.6074219 C710.961099,37.98633 710.819011,38.2389317 710.755859,38.3652344 C711.387373,38.2389317 711.908364,38.3494449 712.318848,38.6967773 C712.729331,39.0441098 713.376623,39.2809238 714.260742,39.4072266 C714.576499,39.7229833 714.671225,39.975585 714.544922,40.1650391 C714.418619,40.3544931 714.323894,40.6702452 714.260742,41.1123047 C716.534191,41.8069696 717.98665,42.8963142 718.618164,44.3803711 C719.249678,45.864428 719.312828,47.411613 718.807617,49.0219727 C718.302406,50.6323323 717.370938,52.1163669 716.013184,53.4741211 C714.655429,54.8318753 713.155607,55.7317686 711.513672,56.1738281 C709.55598,56.679039 707.740406,57.1842423 706.066895,57.6894531 C704.393384,58.194664 702.783048,58.7630177 701.23584,59.3945312 C699.688632,60.0260448 698.236172,60.7680621 696.878418,61.6206055 C695.520664,62.4731488 694.336594,63.4677678 693.326172,64.6044922 C691.557934,65.109703 689.963386,65.8043576 688.54248,66.6884766 C687.121575,67.5725956 685.795416,68.5514269 684.563965,69.625 C683.332513,70.6985731 682.148443,71.8194929 681.011719,72.987793 C679.874994,74.1560931 678.738287,75.3085881 677.601562,76.4453125 C677.601562,77.5188856 677.412111,78.3398409 677.033203,78.9082031 C676.654295,79.4765653 676.243817,80.044919 675.801758,80.6132812 C675.928061,81.813157 676.19645,82.8393512 676.606934,83.6918945 C677.017417,84.5444379 677.443683,85.412756 677.885742,86.296875 C682.937851,87.8125076 688.289848,88.7439761 693.941895,89.0913086 C699.593941,89.4386411 705.19854,89.6438799 710.755859,89.7070312 C711.324222,90.4648475 711.971513,91.1752897 712.697754,91.8383789 C713.423995,92.5014682 714.087074,93.1803351 714.687012,93.875 C715.28695,94.5696649 715.760578,95.3748327 716.10791,96.2905273 C716.455243,97.206222 716.534181,98.2955666 716.344727,99.5585938 C715.271153,100.632167 714.102871,101.658361 712.839844,102.637207 C711.576817,103.616053 710.313808,104.579097 709.050781,105.526367 C708.482419,105.589519 707.803552,105.589519 707.01416,105.526367 C706.224768,105.463216 705.403813,105.431641 704.55127,105.431641 C703.698726,105.431641 702.846196,105.479003 701.993652,105.57373 C701.141109,105.668458 700.335941,105.873696 699.578125,106.189453 C695.599589,106.06315 691.526388,105.573735 687.358398,104.721191 C683.190409,103.868648 679.338234,102.842454 675.801758,101.642578 C675.107093,100.82161 674.380863,100.048018 673.623047,99.3217773 C672.865231,98.5955367 671.854824,98.0745458 670.591797,97.7587891 Z M718.618164,97.0009766 L719.849609,96.0537109 L719.944336,94.0644531 C721.52312,90.2122203 723.149243,86.5179213 724.822754,82.9814453 C726.496265,79.4449693 728.248689,75.8138207 730.080078,72.0878906 C730.64844,70.8880148 731.232582,69.688157 731.83252,68.4882812 C732.432457,67.2884055 733.016599,66.0569725 733.584961,64.7939453 C733.52181,64.5413399 733.490234,64.2729506 733.490234,63.9887695 C733.490234,63.7045884 733.553385,63.3730488 733.679688,62.9941406 C734.563807,61.7311135 735.274249,60.5944061 735.811035,59.5839844 C736.347822,58.5735627 736.868813,57.5315809 737.374023,56.4580078 C737.942386,55.1949807 738.558102,53.9319725 739.221191,52.6689453 C739.884281,51.4059182 740.721024,50.1744852 741.731445,48.9746094 L742.394531,48.0273438 L743.436523,48.1220703 C743.689129,47.9957676 743.957518,47.8852544 744.241699,47.7905273 C744.52588,47.6958003 744.888995,47.6484375 745.331055,47.6484375 L747.036133,47.9326172 C749.120128,46.9853468 750.967277,45.6118254 752.577637,43.8120117 C754.187996,42.012198 755.814119,39.8492965 757.456055,37.3232422 L758.592773,35.7128906 L760.108398,36.6601562 C760.424155,36.8496103 760.929359,37.0390616 761.624023,37.2285156 C762.318688,37.4179697 763.044918,37.6389961 763.802734,37.8916016 C765.128913,38.2073583 766.423496,38.5704732 767.686523,38.980957 C768.949551,39.3914409 769.928382,39.9440069 770.623047,40.6386719 L771.09668,41.4912109 C771.222982,42.1858759 771.333496,42.81738 771.428223,43.3857422 C771.52295,43.9541044 771.633463,44.5224581 771.759766,45.0908203 C772.012371,46.4169988 772.233397,47.7273698 772.422852,49.0219727 C772.612306,50.3165755 772.738606,51.7532473 772.801758,53.3320312 C773.117515,54.5950584 773.417479,55.8738542 773.70166,57.168457 C773.985841,58.4630599 774.254231,59.7418557 774.506836,61.0048828 C774.822593,62.8362722 775.16992,64.5886961 775.548828,66.262207 C775.927736,67.935718 776.43294,69.5302659 777.064453,71.0458984 C777.695967,71.0458984 778.074869,71.0774736 778.201172,71.140625 C778.958988,70.8248682 779.843094,70.635417 780.853516,70.5722656 L782.084961,70.4775391 L782.463867,71.6142578 C782.59017,71.8037119 782.748046,71.9931631 782.9375,72.1826172 C783.126954,72.3720713 783.347981,72.5615225 783.600586,72.7509766 C784.611008,72.8141279 785.353025,73.0193668 785.82666,73.3666992 C786.300295,73.7140317 786.694985,74.0455713 787.010742,74.3613281 C787.137045,74.4876308 787.294921,74.6297193 787.484375,74.7875977 C787.673829,74.945476 787.831705,75.0559893 787.958008,75.1191406 L789.663086,75.7822266 L788.71582,77.5820312 C788.021155,78.9082098 786.963386,80.2027932 785.54248,81.4658203 C784.121575,82.7288475 782.527027,83.7708292 780.758789,84.5917969 C780.885092,85.0338564 780.96403,85.444334 780.995605,85.8232422 C781.027181,86.2021503 781.106119,86.6442032 781.232422,87.1494141 C781.485027,88.4124412 781.690266,89.7228122 781.848145,91.0805664 C782.006023,92.4383206 781.990235,93.8434172 781.800781,95.2958984 C781.169268,96.9378337 780.42725,98.4060808 779.574707,99.7006836 C778.722164,100.995286 777.711757,102.163569 776.543457,103.205566 C775.375157,104.247564 774.064786,105.100094 772.612305,105.763184 C771.159823,106.426273 769.644214,106.789388 768.06543,106.852539 C767.181311,106.663085 766.534019,106.442059 766.123535,106.189453 C765.713051,105.936848 765.349936,105.684246 765.03418,105.431641 C764.528969,105.052732 764.118491,104.800131 763.802734,104.673828 L762.571289,104.105469 L762.950195,102.68457 C763.139649,102.179359 763.123862,101.737307 762.902832,101.358398 C762.681802,100.97949 762.223962,100.474287 761.529297,99.8427734 C761.276691,99.6533194 761.055665,99.4480805 760.866211,99.2270508 C760.676757,99.006021 760.45573,98.769207 760.203125,98.5166016 L758.308594,96.3378906 L761.43457,95.4853516 C763.329111,94.9801407 764.592119,94.332849 765.223633,93.543457 C765.855146,92.7540651 766.107748,91.3489684 765.981445,89.328125 C764.402661,89.0123682 763.108078,88.9650054 762.097656,89.1860352 C761.087235,89.4070649 760.076828,89.6438789 759.066406,89.8964844 C757.613925,90.2753925 756.193041,90.6069322 754.803711,90.8911133 C753.414381,91.1752944 751.898771,91.3173828 750.256836,91.3173828 C749.183263,91.3173828 748.046555,91.2226572 746.84668,91.0332031 L745.804688,90.9384766 L745.520508,89.8964844 C745.520508,89.7701817 745.44157,89.6280932 745.283691,89.4702148 L744.857422,89.0439453 C744.541665,88.6650372 744.162763,88.1598339 743.720703,87.5283203 C743.278644,86.8968067 743.183918,86.1074266 743.436523,85.1601562 C742.994464,84.4654913 742.741862,83.7392616 742.678711,82.9814453 C742.426106,83.4866562 742.220867,83.9760719 742.062988,84.449707 C741.90511,84.9233422 741.763021,85.3811827 741.636719,85.8232422 L741.257812,87.0546875 L740.026367,87.2441406 C739.900064,87.3704433 739.789551,87.5598946 739.694824,87.8125 C739.600097,88.0651054 739.58431,88.2545567 739.647461,88.3808594 L740.026367,89.4228516 L739.079102,90.2753906 C738.952799,90.4648447 738.794923,90.6227207 738.605469,90.7490234 C738.416015,90.8753262 738.258139,91.001627 738.131836,91.1279297 C738.005533,91.8225946 737.83187,92.4856739 737.61084,93.1171875 C737.38981,93.7487011 737.152996,94.3802052 736.900391,95.0117188 C736.584634,96.0221405 736.284669,97.0009718 736.000488,97.9482422 C735.716307,98.8955125 735.574219,99.8427687 735.574219,100.790039 L735.195312,102.021484 C734.879556,102.526695 734.484866,102.905598 734.01123,103.158203 C733.537595,103.410809 733.079755,103.631835 732.637695,103.821289 C732.006182,104.073894 731.564129,104.326496 731.311523,104.579102 L731.027344,105.810547 L729.606445,106 C728.785478,106.189454 728.201336,106.315755 727.854004,106.378906 C727.506671,106.442058 727.111981,106.473633 726.669922,106.473633 L725.438477,106.378906 C724.68066,105.62109 724.064944,105.036949 723.591309,104.626465 C723.117673,104.215981 722.565107,103.852866 721.933594,103.537109 L721.365234,102.779297 C721.112629,102.274086 720.954753,101.816246 720.891602,101.405762 C720.82845,100.995278 720.733725,100.569013 720.607422,100.126953 C720.481119,99.3059855 720.291668,98.7376318 720.039062,98.421875 L718.618164,97.0009766 Z M748.835938,72.3720703 C747.951818,73.6350975 747.099288,74.9612561 746.27832,76.3505859 C746.72038,76.2874346 747.146645,76.2558594 747.557129,76.2558594 C747.967613,76.2558594 748.393878,76.2242842 748.835938,76.1611328 C751.046235,76.0348301 753.098623,75.8769541 754.993164,75.6875 C756.887705,75.4980459 758.940093,75.1822939 761.150391,74.7402344 C760.64518,72.4036342 760.092614,70.0197062 759.492676,67.5883789 C758.892738,65.1570516 758.245446,62.7099733 757.550781,60.2470703 L757.077148,61.1943359 C755.498365,62.8994226 753.982755,64.7307845 752.530273,66.6884766 C751.077792,68.6461686 749.877934,70.5091057 748.930664,72.2773438 L748.835938,72.3720703 Z M790.420898,63.2783203 C790.610353,62.33105 790.736653,61.5574574 790.799805,60.9575195 C790.862956,60.3575816 790.64193,59.7102899 790.136719,59.015625 C790.389324,58.0052033 790.594563,57.2158232 790.752441,56.6474609 C790.91032,56.0790987 790.926107,55.2897186 790.799805,54.2792969 C791.368167,52.6373616 792.236485,51.2480526 793.404785,50.1113281 C794.573085,48.9746037 795.851881,48.0115599 797.241211,47.222168 C798.630541,46.432776 800.083,45.7696967 801.598633,45.2329102 C803.114265,44.6961236 804.53515,44.2382831 805.861328,43.859375 C805.861328,43.6067696 805.735027,43.4804688 805.482422,43.4804688 C805.229816,43.4804688 805.166666,43.3225927 805.292969,43.0068359 C808.703142,42.3753224 812.129052,41.4596414 815.570801,40.2597656 C819.01255,39.0598898 822.533185,37.9863329 826.132812,37.0390625 C829.73244,36.0917921 833.426739,35.5076508 837.21582,35.2866211 C841.004902,35.0655913 844.983378,35.555007 849.151367,36.7548828 C849.403973,37.5126991 849.7513,38.2389288 850.193359,38.9335938 C850.635419,39.6282587 851.093259,40.3071256 851.566895,40.9702148 C852.04053,41.6333041 852.466795,42.2805958 852.845703,42.9121094 C853.224611,43.5436229 853.445638,44.2067023 853.508789,44.9013672 C854.266605,45.5960321 854.882322,46.3380494 855.355957,47.1274414 C855.829592,47.9168334 855.90853,48.9746027 855.592773,50.3007812 C854.898109,50.8059921 854.171879,51.3111954 853.414062,51.8164062 C852.656246,52.3216171 851.866866,52.7952452 851.045898,53.2373047 C848.204087,52.5426398 845.362319,52.2900381 842.520508,52.4794922 C839.678697,52.6689463 837.121105,52.8899727 834.847656,53.1425781 C834.152991,52.3847618 833.332036,52.021647 832.384766,52.0532227 C831.437495,52.0847983 830.442876,52.2426744 829.400879,52.5268555 C828.358882,52.8110366 827.332687,53.0952134 826.322266,53.3793945 C825.311844,53.6635756 824.364588,53.7425137 823.480469,53.6162109 C822.785804,54.2477245 821.870123,54.6739898 820.733398,54.8950195 C819.596674,55.1160493 818.396816,55.2897129 817.133789,55.4160156 C817.070638,55.7317724 817.133788,55.9527988 817.323242,56.0791016 C817.512696,56.2054043 817.544271,56.4580059 817.417969,56.8369141 C817.860028,57.4052763 818.459957,57.7999663 819.217773,58.0209961 C819.97559,58.2420258 820.749182,58.4472647 821.538574,58.6367188 C822.327966,58.8261728 823.038408,59.0945621 823.669922,59.4418945 C824.301435,59.789227 824.711913,60.3417931 824.901367,61.0996094 C826.038092,61.1627607 827.016923,61.4627252 827.837891,61.9995117 C828.658858,62.5362983 829.353513,63.18359 829.921875,63.9414062 C830.490237,64.6992225 830.900715,65.5043903 831.15332,66.3569336 C831.405926,67.2094769 831.500651,67.9830694 831.4375,68.6777344 C831.690105,69.3092479 831.958495,69.5618496 832.242676,69.4355469 C832.526857,69.3092442 832.858397,69.4671202 833.237305,69.9091797 C833.48991,70.85645 834.074051,71.851069 834.989746,72.8930664 C835.905441,73.9350638 836.615883,75.0559836 837.121094,76.2558594 C837.247396,78.1504001 837.35791,79.8554612 837.452637,81.3710938 C837.547364,82.8867263 837.278975,84.370761 836.647461,85.8232422 C835.573888,88.6019019 834.026703,91.0963431 832.005859,93.3066406 C829.985016,95.5169381 827.695814,97.4588132 825.138184,99.1323242 C822.580554,100.805835 819.880874,102.258295 817.039062,103.489746 C814.197251,104.721198 811.387058,105.747392 808.608398,106.568359 C808.355793,106.505208 808.055829,106.505208 807.708496,106.568359 C807.361164,106.631511 807.282226,106.44206 807.47168,106 C806.903317,106.505211 806.256026,106.820963 805.529785,106.947266 C804.803545,107.073568 804.014164,107.120931 803.161621,107.089355 C802.309078,107.05778 801.456547,107.010417 800.604004,106.947266 C799.751461,106.884114 798.914718,106.915689 798.09375,107.041992 C797.588539,106.536781 797.130699,106.031578 796.720215,105.526367 C796.309731,105.021156 795.978191,104.421227 795.725586,103.726562 C795.409829,103.663411 795.267741,103.458172 795.299316,103.11084 C795.330892,102.763507 795.188804,102.589844 794.873047,102.589844 C794.873047,102.337238 794.904622,102.147787 794.967773,102.021484 L795.157227,101.642578 C795.409832,101.453124 795.520345,101.311036 795.48877,101.216309 C795.457194,101.121582 795.362468,101.026856 795.20459,100.932129 C795.046711,100.837402 794.888835,100.726889 794.730957,100.600586 C794.573079,100.474283 794.525716,100.316407 794.588867,100.126953 C794.904624,99.5585909 795.015137,98.879724 794.92041,98.090332 C794.825683,97.3009401 794.746745,96.4957723 794.683594,95.6748047 C794.620442,94.853837 794.683593,94.0802445 794.873047,93.3540039 C795.062501,92.6277633 795.599279,92.0120468 796.483398,91.5068359 C799.072604,91.7594414 801.519682,91.6331405 803.824707,91.1279297 C806.129732,90.6227188 808.308421,89.9280643 810.36084,89.0439453 C812.413259,88.1598263 814.370922,87.1967826 816.233887,86.1547852 C818.096852,85.1127878 819.912426,84.149744 821.680664,83.265625 C821.870118,82.6341114 822.170083,82.0973329 822.580566,81.6552734 C822.99105,81.2132139 823.417315,80.7869487 823.859375,80.3764648 C824.301435,79.965981 824.711912,79.5239281 825.09082,79.050293 C825.469728,78.5766578 825.753905,77.9925165 825.943359,77.2978516 C826.006511,77.0452461 826.006511,76.8557949 825.943359,76.7294922 C825.880208,76.6031895 825.785482,76.4926763 825.65918,76.3979492 C825.532877,76.3032222 825.406576,76.192709 825.280273,76.0664062 C825.153971,75.9401035 825.09082,75.7506523 825.09082,75.4980469 C824.901366,75.4348955 824.727703,75.3717451 824.569824,75.3085938 C824.411946,75.2454424 824.269857,75.2138672 824.143555,75.2138672 C822.501619,74.3928995 820.764983,73.698245 818.933594,73.1298828 C817.102204,72.5615206 815.555019,71.9300165 814.291992,71.2353516 C813.534176,71.7405624 812.776371,71.8668632 812.018555,71.6142578 C811.260738,71.3616524 810.345057,71.1090507 809.271484,70.8564453 C806.619127,70.7301426 804.108899,70.477541 801.740723,70.0986328 C799.372547,69.7197247 797.083344,69.0566454 794.873047,68.109375 C794.746744,67.7304669 794.588868,67.3989272 794.399414,67.1147461 C794.20996,66.830565 793.767907,66.751627 793.073242,66.8779297 C792.631183,66.2464161 792.173342,65.6622748 791.699707,65.1254883 C791.226072,64.5887017 790.799807,63.9729852 790.420898,63.2783203 Z M850.382812,102.779297 C849.877602,102.274086 849.514487,101.674157 849.293457,100.979492 C849.072427,100.284827 848.551436,99.7164736 847.730469,99.2744141 C847.604166,98.3271437 847.430502,97.2377991 847.209473,96.0063477 C846.988443,94.7748962 846.767416,93.511888 846.546387,92.2172852 C846.325357,90.9226823 846.167481,89.6280989 846.072754,88.3334961 C845.978027,87.0388933 846.02539,85.8548231 846.214844,84.78125 C846.341146,84.2128878 846.546385,83.6761093 846.830566,83.1708984 C847.114748,82.6656876 847.398924,82.1762719 847.683105,81.7026367 C847.967287,81.2290015 848.188313,80.7395859 848.346191,80.234375 C848.50407,79.7291641 848.519857,79.2239609 848.393555,78.71875 C848.772463,78.6555986 849.009277,78.4503598 849.104004,78.1030273 C849.198731,77.7556949 849.498695,77.6451817 850.003906,77.7714844 C850.445966,76.3821545 850.919594,75.0875711 851.424805,73.8876953 C851.930016,72.6878195 852.466794,71.5195369 853.035156,70.3828125 C853.603518,69.2460881 854.18766,68.0935931 854.787598,66.925293 C855.387536,65.7569929 855.940102,64.4466218 856.445312,62.9941406 C855.371739,61.9837189 854.598147,60.8943743 854.124512,59.7260742 C853.650877,58.5577741 853.287762,57.3737039 853.035156,56.1738281 C852.782551,54.9739523 852.5931,53.7583069 852.466797,52.5268555 C852.340494,51.295404 852.087893,50.0481834 851.708984,48.7851562 C852.466801,47.6484318 853.382482,46.7169633 854.456055,45.9907227 C855.529628,45.264482 856.713698,44.6645531 858.008301,44.190918 C859.302904,43.7172828 860.708,43.3383803 862.223633,43.0541992 C863.739265,42.7700181 865.349601,42.4384785 867.054688,42.0595703 C870.085953,41.1123 872.80142,40.3702826 875.201172,39.8334961 C877.600923,39.2967096 879.937489,38.8546567 882.210938,38.5073242 C884.484386,38.1599918 886.852527,37.8442397 889.31543,37.5600586 C891.778333,37.2758775 894.620101,36.8496122 897.84082,36.28125 C897.903972,36.4707041 898.014485,36.5654297 898.172363,36.5654297 L898.788086,36.5654297 C898.97754,37.0074892 899.324867,37.2285156 899.830078,37.2285156 C899.830078,37.0390616 899.814291,36.8653979 899.782715,36.7075195 C899.751139,36.5496411 899.735352,36.4075527 899.735352,36.28125 C899.861654,36.28125 900.035318,36.3128252 900.256348,36.3759766 C900.477377,36.4391279 900.666829,36.5022783 900.824707,36.5654297 C900.982585,36.628581 901.124674,36.6127934 901.250977,36.5180664 C901.377279,36.4233394 901.408854,36.2181005 901.345703,35.9023438 C902.103519,37.2285223 903.082351,38.3178668 904.282227,39.1704102 C905.482102,40.0229535 906.808261,40.7649708 908.260742,41.3964844 C908.323894,41.9648466 908.339681,42.3753243 908.308105,42.6279297 C908.27653,42.8805351 908.229167,43.1173492 908.166016,43.3383789 C908.102864,43.5594087 908.071289,43.8120103 908.071289,44.0961914 C908.071289,44.3803725 908.134439,44.7750626 908.260742,45.2802734 C907.25032,46.9853601 906.097825,48.3115187 904.803223,49.2587891 C903.50862,50.2060594 902.135098,50.9322891 900.682617,51.4375 C899.230136,51.9427109 897.698739,52.3216133 896.088379,52.5742188 C894.478019,52.8268242 892.836109,53.0952134 891.162598,53.3793945 C889.489087,53.6635756 887.799813,54.0582657 886.094727,54.5634766 C884.38964,55.0686874 882.716154,55.8264923 881.074219,56.8369141 C880.569008,56.64746 880.111167,56.568522 879.700684,56.6000977 C879.2902,56.6316733 878.863935,56.7106113 878.421875,56.8369141 C877.979815,56.9632168 877.4904,57.0895176 876.953613,57.2158203 C876.416827,57.342123 875.769535,57.342123 875.011719,57.2158203 C874.506508,57.6578798 873.922367,57.9736319 873.259277,58.1630859 C872.596188,58.35254 871.917321,58.5419912 871.222656,58.7314453 C871.538413,59.4261102 871.680501,60.1207648 871.648926,60.8154297 C871.61735,61.5100946 871.696288,62.1100235 871.885742,62.6152344 C874.538099,62.8678398 877.474593,62.8520522 880.695312,62.5678711 C883.916032,62.28369 887.073552,62.0784512 890.167969,61.9521484 C890.23112,62.2679052 890.199545,62.4889317 890.073242,62.6152344 C889.946939,62.7415371 889.883789,62.9625635 889.883789,63.2783203 C890.452151,63.6572285 890.98893,64.1308565 891.494141,64.6992188 C891.999351,65.267581 892.520342,65.8201471 893.057129,66.3569336 C893.593915,66.8937201 894.146482,67.335773 894.714844,67.6831055 C895.283206,68.0304379 895.946285,68.1725264 896.704102,68.109375 C897.019858,68.7408886 897.240885,69.4039679 897.367188,70.0986328 C897.49349,70.7932977 897.398765,71.5195275 897.083008,72.2773438 C895.819981,73.0983114 894.588548,73.9350543 893.388672,74.7875977 C892.188796,75.640141 890.941575,76.4137335 889.646973,77.1083984 C888.35237,77.8030634 886.947273,78.3714171 885.431641,78.8134766 C883.916008,79.2555361 882.274097,79.4449873 880.505859,79.3818359 L879.700684,79.3818359 C879.479654,79.3818359 879.211265,79.2555351 878.895508,79.0029297 C878.263994,79.3186865 877.427251,79.4291997 876.385254,79.3344727 C875.343257,79.2397456 874.474938,79.3502588 873.780273,79.6660156 C872.896154,79.3502588 871.86996,79.1923828 870.70166,79.1923828 C869.53336,79.1923828 868.507166,79.0345068 867.623047,78.71875 C866.486322,80.3606853 865.412765,82.081534 864.402344,83.8813477 C863.391922,85.6811613 862.507816,87.5914613 861.75,89.6123047 C864.339206,89.9912128 866.48632,90.1490889 868.191406,90.0859375 C869.896493,90.0227861 871.506828,89.8964853 873.022461,89.7070312 C874.538094,89.5175772 876.101066,89.3281259 877.711426,89.1386719 C879.321785,88.9492178 881.295236,88.8860674 883.631836,88.9492188 C885.21062,88.1914025 887.026194,87.6704116 889.078613,87.3862305 C891.131032,87.1020494 893.041332,86.6757841 894.80957,86.1074219 C895.441084,86.2968759 895.977862,86.6599908 896.419922,87.1967773 C896.861981,87.7335639 897.288247,88.2703424 897.69873,88.8071289 C898.109214,89.3439154 898.53548,89.8017559 898.977539,90.1806641 C899.419599,90.5595722 899.987952,90.685873 900.682617,90.5595703 C900.998374,90.8753271 901.203613,91.2542296 901.29834,91.6962891 C901.393067,92.1383486 901.487792,92.5488262 901.58252,92.9277344 C901.677247,93.3066425 901.819335,93.606607 902.008789,93.8276367 C902.198243,94.0486665 902.54557,94.1276045 903.050781,94.0644531 C901.850905,96.5273561 900.508959,98.4218684 899.024902,99.7480469 C897.540845,101.074225 895.86736,102.10042 894.004395,102.82666 C892.141429,103.552901 890.057466,104.089679 887.752441,104.437012 C885.447417,104.784344 882.874038,105.210609 880.032227,105.71582 C879.337562,105.842123 878.75342,105.826335 878.279785,105.668457 C877.80615,105.510579 877.316734,105.431641 876.811523,105.431641 C875.043285,105.747397 872.943534,106.063149 870.512207,106.378906 C868.08088,106.694663 865.633801,106.820964 863.170898,106.757812 C860.707995,106.694661 858.339855,106.378909 856.066406,105.810547 C853.792957,105.242185 851.898445,104.231778 850.382812,102.779297 Z" id="UX-CASE"></path>
            </g>
        </g>
    </g>
</svg>