<?xml version="1.0" encoding="UTF-8" standalone="no"?>
<svg width="940px" height="164px" viewBox="0 0 940 164" version="1.1" xmlns="http://www.w3.org/2000/svg" xmlns:xlink="http://www.w3.org/1999/xlink">
    <!-- Generator: Sketch 48.2 (47327) - http://www.bohemiancoding.com/sketch -->
    <title>illu ux 1</title>
    <desc>Created with Sketch.</desc>
    <defs></defs>
    <g id="portfolio---ADI" stroke="none" stroke-width="1" fill="none" fill-rule="evenodd" transform="translate(-250.000000, -1434.000000)">
        <g id="zone-2" transform="translate(0.000000, 812.000000)">
            <g id="UX-case" transform="translate(0.000000, 128.000000)">
                <g id="situation-/-hypothèse" transform="translate(0.000000, 388.000000)">
                    <g id="illu-ux-1" transform="translate(250.000000, 106.000000)">
                        <path d="M170,36 L195,36" id="Path-2" stroke="#222D44" stroke-width="4"></path>
                        <path d="M194.195832,35.7628459 L190.675725,32.5360809 C190.268606,32.1628885 189.636038,32.1903914 189.262846,32.5975104 C189.093785,32.7819402 189,33.0230434 189,33.273235 L189,39.726765 C189,40.2790497 189.447715,40.726765 190,40.726765 C190.250192,40.726765 190.491295,40.6329798 190.675725,40.4639191 L194.195832,37.2371541 C194.602951,36.8639617 194.630454,36.2313944 194.257261,35.8242754 C194.237684,35.8029187 194.217189,35.7824228 194.195832,35.7628459 Z" id="Path-3" fill="#222D44"></path>
                        <path d="M362,36 L387,36" id="Path-2-Copy" stroke="#222D44" stroke-width="4"></path>
                        <path d="M386.195832,35.7628459 L382.675725,32.5360809 C382.268606,32.1628885 381.636038,32.1903914 381.262846,32.5975104 C381.093785,32.7819402 381,33.0230434 381,33.273235 L381,39.726765 C381,40.2790497 381.447715,40.726765 382,40.726765 C382.250192,40.726765 382.491295,40.6329798 382.675725,40.4639191 L386.195832,37.2371541 C386.602951,36.8639617 386.630454,36.2313944 386.257261,35.8242754 C386.237684,35.8029187 386.217189,35.7824228 386.195832,35.7628459 Z" id="Path-3-Copy" fill="#222D44"></path>
                        <path d="M555,36 L580,36" id="Path-2-Copy-3" stroke="#222D44" stroke-width="4"></path>
                        <path d="M579.195832,35.7628459 L575.675725,32.5360809 C575.268606,32.1628885 574.636038,32.1903914 574.262846,32.5975104 C574.093785,32.7819402 574,33.0230434 574,33.273235 L574,39.726765 C574,40.2790497 574.447715,40.726765 575,40.726765 C575.250192,40.726765 575.491295,40.6329798 575.675725,40.4639191 L579.195832,37.2371541 C579.602951,36.8639617 579.630454,36.2313944 579.257261,35.8242754 C579.237684,35.8029187 579.217189,35.7824228 579.195832,35.7628459 Z" id="Path-3-Copy-3" fill="#222D44"></path>
                        <path d="M747,36 L772,36" id="Path-2-Copy-4" stroke="#222D44" stroke-width="4"></path>
                        <path d="M771.195832,35.7628459 L767.675725,32.5360809 C767.268606,32.1628885 766.636038,32.1903914 766.262846,32.5975104 C766.093785,32.7819402 766,33.0230434 766,33.273235 L766,39.726765 C766,40.2790497 766.447715,40.726765 767,40.726765 C767.250192,40.726765 767.491295,40.6329798 767.675725,40.4639191 L771.195832,37.2371541 C771.602951,36.8639617 771.630454,36.2313944 771.257261,35.8242754 C771.237684,35.8029187 771.217189,35.7824228 771.195832,35.7628459 Z" id="Path-3-Copy-4" fill="#222D44"></path>
                        <path d="M278,69 L278,94" id="Path-2-Copy-2" stroke="#222D44" stroke-width="4"></path>
                        <path d="M280.435778,89.5229054 L276.915671,86.2961404 C276.508552,85.922948 275.875985,85.9504509 275.502792,86.3575699 C275.333732,86.5419997 275.239946,86.7831029 275.239946,87.0332945 L275.239946,93.4868245 C275.239946,94.0391092 275.687662,94.4868245 276.239946,94.4868245 C276.490138,94.4868245 276.731241,94.3930393 276.915671,94.2239786 L280.435778,90.9972136 C280.842897,90.6240212 280.8704,89.9914539 280.497208,89.5843349 C280.477631,89.5629782 280.457135,89.5424823 280.435778,89.5229054 Z" id="Path-3-Copy-2" fill="#222D44" transform="translate(278.000003, 90.260057) rotate(90.000000) translate(-278.000003, -90.260057) "></path>
                        <path d="M41.432,40.432 C40.6053292,39.957331 39.9706689,39.282671 39.528,38.408 C39.0853311,37.533329 38.864,36.5146725 38.864,35.352 C38.864,34.1893275 39.0853311,33.1733377 39.528,32.304 C39.9706689,31.4346623 40.6053292,30.762669 41.432,30.288 C42.2586708,29.813331 43.2266611,29.576 44.336,29.576 C45.0933371,29.576 45.8079966,29.6933322 46.48,29.928 C47.1520034,30.1626678 47.717331,30.4933312 48.176,30.92 L47.488,32.424 C46.9759974,32.0186646 46.4693358,31.7226676 45.968,31.536 C45.4666642,31.3493324 44.9333362,31.256 44.368,31.256 C43.2799946,31.256 42.440003,31.6079965 41.848,32.312 C41.255997,33.0160035 40.96,34.0293267 40.96,35.352 C40.96,36.68534 41.255997,37.7039965 41.848,38.408 C42.440003,39.1120035 43.2799946,39.464 44.368,39.464 C44.9333362,39.464 45.4666642,39.3706676 45.968,39.184 C46.4693358,38.9973324 46.9759974,38.7013354 47.488,38.296 L48.176,39.8 C47.717331,40.2266688 47.1520034,40.5573322 46.48,40.792 C45.8079966,41.0266678 45.0933371,41.144 44.336,41.144 C43.2266611,41.144 42.2586708,40.906669 41.432,40.432 Z M52.232,40.44 C51.4266626,39.9706643 50.8053355,39.298671 50.368,38.424 C49.9306645,37.549329 49.712,36.5253392 49.712,35.352 C49.712,34.1786608 49.9279978,33.1573377 50.36,32.288 C50.7920022,31.4186623 51.4133293,30.7493357 52.224,30.28 C53.0346707,29.8106643 53.9893278,29.576 55.088,29.576 C56.1866722,29.576 57.1386626,29.8106643 57.944,30.28 C58.7493374,30.7493357 59.3679978,31.4186623 59.8,32.288 C60.2320022,33.1573377 60.448,34.1786608 60.448,35.352 C60.448,36.5253392 60.2293355,37.549329 59.792,38.424 C59.3546645,39.298671 58.7333374,39.9706643 57.928,40.44 C57.1226626,40.9093357 56.1760054,41.144 55.088,41.144 C53.9893278,41.144 53.0373374,40.9093357 52.232,40.44 Z M57.512,38.424 C58.0933362,37.7093298 58.384,36.68534 58.384,35.352 C58.384,34.01866 58.0933362,32.9973369 57.512,32.288 C56.9306638,31.5786631 56.1226718,31.224 55.088,31.224 C54.0426614,31.224 53.2293362,31.5786631 52.648,32.288 C52.0666638,32.9973369 51.776,34.01866 51.776,35.352 C51.776,36.68534 52.0666638,37.7093298 52.648,38.424 C53.2293362,39.1386702 54.0426614,39.496 55.088,39.496 C56.1226718,39.496 56.9306638,39.1386702 57.512,38.424 Z M70.112,29.72 L72.048,29.72 L72.048,41 L70.496,41 L64.448,33.128 L64.448,41 L62.528,41 L62.528,29.72 L64.064,29.72 L70.112,37.576 L70.112,29.72 Z M82.064,29.72 L84,29.72 L84,41 L82.448,41 L76.4,33.128 L76.4,41 L74.48,41 L74.48,29.72 L76.016,29.72 L82.064,37.576 L82.064,29.72 Z M86.432,41 L86.432,29.72 L93.984,29.72 L93.984,31.352 L88.448,31.352 L88.448,34.456 L93.664,34.456 L93.664,36.072 L88.448,36.072 L88.448,39.368 L93.984,39.368 L93.984,41 L86.432,41 Z M101.12,35.272 L105.408,41 L103.008,41 L99.952,36.776 L96.88,41 L94.48,41 L98.784,35.256 L94.64,29.72 L97.04,29.72 L99.952,33.768 L102.88,29.72 L105.28,29.72 L101.12,35.272 Z M106.48,41 L106.48,29.72 L108.544,29.72 L108.544,41 L106.48,41 Z M113.144,40.44 C112.338663,39.9706643 111.717336,39.298671 111.28,38.424 C110.842664,37.549329 110.624,36.5253392 110.624,35.352 C110.624,34.1786608 110.839998,33.1573377 111.272,32.288 C111.704002,31.4186623 112.325329,30.7493357 113.136,30.28 C113.946671,29.8106643 114.901328,29.576 116,29.576 C117.098672,29.576 118.050663,29.8106643 118.856,30.28 C119.661337,30.7493357 120.279998,31.4186623 120.712,32.288 C121.144002,33.1573377 121.36,34.1786608 121.36,35.352 C121.36,36.5253392 121.141336,37.549329 120.704,38.424 C120.266664,39.298671 119.645337,39.9706643 118.84,40.44 C118.034663,40.9093357 117.088005,41.144 116,41.144 C114.901328,41.144 113.949337,40.9093357 113.144,40.44 Z M118.424,38.424 C119.005336,37.7093298 119.296,36.68534 119.296,35.352 C119.296,34.01866 119.005336,32.9973369 118.424,32.288 C117.842664,31.5786631 117.034672,31.224 116,31.224 C114.954661,31.224 114.141336,31.5786631 113.56,32.288 C112.978664,32.9973369 112.688,34.01866 112.688,35.352 C112.688,36.68534 112.978664,37.7093298 113.56,38.424 C114.141336,39.1386702 114.954661,39.496 116,39.496 C117.034672,39.496 117.842664,39.1386702 118.424,38.424 Z M131.024,29.72 L132.96,29.72 L132.96,41 L131.408,41 L125.36,33.128 L125.36,41 L123.44,41 L123.44,29.72 L124.976,29.72 L131.024,37.576 L131.024,29.72 Z" id="Connexion" fill="#222D44"></path>
                        <path d="M236.672,41 L234.432,41 L232.496,37.4 C232.314666,37.058665 232.090668,36.8186674 231.824,36.68 C231.557332,36.5413326 231.221335,36.472 230.816,36.472 L229.248,36.472 L229.248,41 L227.216,41 L227.216,29.72 L232.208,29.72 C233.488006,29.72 234.46133,30.0053305 235.128,30.576 C235.79467,31.1466695 236.128,31.9706613 236.128,33.048 C236.128,33.9120043 235.885336,34.6239972 235.4,35.184 C234.914664,35.7440028 234.229338,36.1093325 233.344,36.28 C233.941336,36.4400008 234.421332,36.8613299 234.784,37.544 L236.672,41 Z M233.632,34.448 C233.994668,34.1546652 234.176,33.704003 234.176,33.096 C234.176,32.4773302 233.994668,32.0266681 233.632,31.744 C233.269332,31.4613319 232.698671,31.32 231.92,31.32 L229.232,31.32 L229.232,34.888 L231.92,34.888 C232.698671,34.888 233.269332,34.7413348 233.632,34.448 Z M238.336,41 L238.336,29.72 L245.888,29.72 L245.888,31.352 L240.352,31.352 L240.352,34.456 L245.568,34.456 L245.568,36.072 L240.352,36.072 L240.352,39.368 L245.888,39.368 L245.888,41 L238.336,41 Z M249.152,40.792 C248.394663,40.5573322 247.754669,40.2266688 247.232,39.8 L247.92,38.296 C248.464003,38.7120021 249.03733,39.015999 249.64,39.208 C250.24267,39.400001 250.895996,39.496 251.6,39.496 C252.378671,39.496 252.978665,39.3600014 253.4,39.088 C253.821335,38.8159986 254.032,38.4346691 254.032,37.944 C254.032,37.5173312 253.837335,37.1920011 253.448,36.968 C253.058665,36.7439989 252.410671,36.5306677 251.504,36.328 C250.565329,36.1253323 249.80267,35.890668 249.216,35.624 C248.62933,35.357332 248.186668,35.0160021 247.888,34.6 C247.589332,34.1839979 247.44,33.6560032 247.44,33.016 C247.44,32.3546634 247.621332,31.7626693 247.984,31.24 C248.346668,30.7173307 248.858663,30.3093348 249.52,30.016 C250.181337,29.7226652 250.943996,29.576 251.808,29.576 C252.597337,29.576 253.34933,29.6959988 254.064,29.936 C254.77867,30.1760012 255.365331,30.5039979 255.824,30.92 L255.136,32.424 C254.133328,31.623996 253.024006,31.224 251.808,31.224 C251.082663,31.224 250.509335,31.3706652 250.088,31.664 C249.666665,31.9573348 249.456,32.3653307 249.456,32.888 C249.456,33.3253355 249.642665,33.6613322 250.016,33.896 C250.389335,34.1306678 251.023996,34.3493323 251.92,34.552 C252.869338,34.7653344 253.639997,35.0026654 254.232,35.264 C254.824003,35.5253346 255.277332,35.8586646 255.592,36.264 C255.906668,36.6693354 256.064,37.1813302 256.064,37.8 C256.064,38.4720034 255.885335,39.0613308 255.528,39.568 C255.170665,40.0746692 254.653337,40.4639986 253.976,40.736 C253.298663,41.0080014 252.501338,41.144 251.584,41.144 C250.719996,41.144 249.909337,41.0266678 249.152,40.792 Z M257.968,41 L257.968,29.72 L265.52,29.72 L265.52,31.352 L259.984,31.352 L259.984,34.456 L265.2,34.456 L265.2,36.072 L259.984,36.072 L259.984,39.368 L265.52,39.368 L265.52,41 L257.968,41 Z M270.048,41 L270.048,31.416 L266.368,31.416 L266.368,29.72 L275.792,29.72 L275.792,31.416 L272.112,31.416 L272.112,41 L270.048,41 Z M281.536,29.72 L286.464,29.72 C287.669339,29.72 288.607997,30.0213303 289.28,30.624 C289.952003,31.2266697 290.288,32.0719946 290.288,33.16 C290.288,34.2480054 289.952003,35.095997 289.28,35.704 C288.607997,36.312003 287.669339,36.616 286.464,36.616 L283.6,36.616 L283.6,41 L281.536,41 L281.536,29.72 Z M286.208,35.032 C287.626674,35.032 288.336,34.4133395 288.336,33.176 C288.336,32.5466635 288.160002,32.0800015 287.808,31.776 C287.455998,31.4719985 286.92267,31.32 286.208,31.32 L283.6,31.32 L283.6,35.032 L286.208,35.032 Z M294.264,40.44 C293.458663,39.9706643 292.837336,39.298671 292.4,38.424 C291.962664,37.549329 291.744,36.5253392 291.744,35.352 C291.744,34.1786608 291.959998,33.1573377 292.392,32.288 C292.824002,31.4186623 293.445329,30.7493357 294.256,30.28 C295.066671,29.8106643 296.021328,29.576 297.12,29.576 C298.218672,29.576 299.170663,29.8106643 299.976,30.28 C300.781337,30.7493357 301.399998,31.4186623 301.832,32.288 C302.264002,33.1573377 302.48,34.1786608 302.48,35.352 C302.48,36.5253392 302.261336,37.549329 301.824,38.424 C301.386664,39.298671 300.765337,39.9706643 299.96,40.44 C299.154663,40.9093357 298.208005,41.144 297.12,41.144 C296.021328,41.144 295.069337,40.9093357 294.264,40.44 Z M299.544,38.424 C300.125336,37.7093298 300.416,36.68534 300.416,35.352 C300.416,34.01866 300.125336,32.9973369 299.544,32.288 C298.962664,31.5786631 298.154672,31.224 297.12,31.224 C296.074661,31.224 295.261336,31.5786631 294.68,32.288 C294.098664,32.9973369 293.808,34.01866 293.808,35.352 C293.808,36.68534 294.098664,37.7093298 294.68,38.424 C295.261336,39.1386702 296.074661,39.496 297.12,39.496 C298.154672,39.496 298.962664,39.1386702 299.544,38.424 Z M304.56,29.72 L309.488,29.72 C310.693339,29.72 311.631997,30.0213303 312.304,30.624 C312.976003,31.2266697 313.312,32.0719946 313.312,33.16 C313.312,34.2480054 312.976003,35.095997 312.304,35.704 C311.631997,36.312003 310.693339,36.616 309.488,36.616 L306.624,36.616 L306.624,41 L304.56,41 L304.56,29.72 Z M309.232,35.032 C310.650674,35.032 311.36,34.4133395 311.36,33.176 C311.36,32.5466635 311.184002,32.0800015 310.832,31.776 C310.479998,31.4719985 309.94667,31.32 309.232,31.32 L306.624,31.32 L306.624,35.032 L309.232,35.032 Z M315.12,41 L315.12,29.72 L317.184,29.72 L317.184,41 L315.12,41 Z M327.2,29.72 L329.136,29.72 L329.136,41 L327.584,41 L321.536,33.128 L321.536,41 L319.616,41 L319.616,29.72 L321.152,29.72 L327.2,37.576 L327.2,29.72 Z" id="reset-POPIN" fill="#222D44"></path>
                        <path d="M433.608,29.72 L435.224,29.72 L435.224,41 L433.4,41 L433.4,33.544 L430.424,39.176 L429.048,39.176 L426.056,33.624 L426.072,41 L424.248,41 L424.248,29.72 L425.88,29.72 L429.752,37.096 L433.608,29.72 Z M446.296,41 L445.16,38.36 L439.672,38.36 L438.536,41 L436.456,41 L441.56,29.72 L443.24,29.72 L448.344,41 L446.296,41 Z M440.344,36.76 L444.472,36.76 L442.408,31.96 L440.344,36.76 Z M449.544,41 L449.544,29.72 L451.608,29.72 L451.608,41 L449.544,41 Z M454.04,41 L454.04,29.72 L456.104,29.72 L456.104,39.304 L461.368,39.304 L461.368,41 L454.04,41 Z M476.712,41 L474.472,41 L472.536,37.4 C472.354666,37.058665 472.130668,36.8186674 471.864,36.68 C471.597332,36.5413326 471.261335,36.472 470.856,36.472 L469.288,36.472 L469.288,41 L467.256,41 L467.256,29.72 L472.248,29.72 C473.528006,29.72 474.50133,30.0053305 475.168,30.576 C475.83467,31.1466695 476.168,31.9706613 476.168,33.048 C476.168,33.9120043 475.925336,34.6239972 475.44,35.184 C474.954664,35.7440028 474.269338,36.1093325 473.384,36.28 C473.981336,36.4400008 474.461332,36.8613299 474.824,37.544 L476.712,41 Z M473.672,34.448 C474.034668,34.1546652 474.216,33.704003 474.216,33.096 C474.216,32.4773302 474.034668,32.0266681 473.672,31.744 C473.309332,31.4613319 472.738671,31.32 471.96,31.32 L469.272,31.32 L469.272,34.888 L471.96,34.888 C472.738671,34.888 473.309332,34.7413348 473.672,34.448 Z M478.376,41 L478.376,29.72 L485.928,29.72 L485.928,31.352 L480.392,31.352 L480.392,34.456 L485.608,34.456 L485.608,36.072 L480.392,36.072 L480.392,39.368 L485.928,39.368 L485.928,41 L478.376,41 Z M489.192,40.792 C488.434663,40.5573322 487.794669,40.2266688 487.272,39.8 L487.96,38.296 C488.504003,38.7120021 489.07733,39.015999 489.68,39.208 C490.28267,39.400001 490.935996,39.496 491.64,39.496 C492.418671,39.496 493.018665,39.3600014 493.44,39.088 C493.861335,38.8159986 494.072,38.4346691 494.072,37.944 C494.072,37.5173312 493.877335,37.1920011 493.488,36.968 C493.098665,36.7439989 492.450671,36.5306677 491.544,36.328 C490.605329,36.1253323 489.84267,35.890668 489.256,35.624 C488.66933,35.357332 488.226668,35.0160021 487.928,34.6 C487.629332,34.1839979 487.48,33.6560032 487.48,33.016 C487.48,32.3546634 487.661332,31.7626693 488.024,31.24 C488.386668,30.7173307 488.898663,30.3093348 489.56,30.016 C490.221337,29.7226652 490.983996,29.576 491.848,29.576 C492.637337,29.576 493.38933,29.6959988 494.104,29.936 C494.81867,30.1760012 495.405331,30.5039979 495.864,30.92 L495.176,32.424 C494.173328,31.623996 493.064006,31.224 491.848,31.224 C491.122663,31.224 490.549335,31.3706652 490.128,31.664 C489.706665,31.9573348 489.496,32.3653307 489.496,32.888 C489.496,33.3253355 489.682665,33.6613322 490.056,33.896 C490.429335,34.1306678 491.063996,34.3493323 491.96,34.552 C492.909338,34.7653344 493.679997,35.0026654 494.272,35.264 C494.864003,35.5253346 495.317332,35.8586646 495.632,36.264 C495.946668,36.6693354 496.104,37.1813302 496.104,37.8 C496.104,38.4720034 495.925335,39.0613308 495.568,39.568 C495.210665,40.0746692 494.693337,40.4639986 494.016,40.736 C493.338663,41.0080014 492.541338,41.144 491.624,41.144 C490.759996,41.144 489.949337,41.0266678 489.192,40.792 Z M498.008,41 L498.008,29.72 L505.56,29.72 L505.56,31.352 L500.024,31.352 L500.024,34.456 L505.24,34.456 L505.24,36.072 L500.024,36.072 L500.024,39.368 L505.56,39.368 L505.56,41 L498.008,41 Z M510.088,41 L510.088,31.416 L506.408,31.416 L506.408,29.72 L515.832,29.72 L515.832,31.416 L512.152,31.416 L512.152,41 L510.088,41 Z" id="mail-reset" fill="#222D44"></path>
                        <path d="M626.672,41 L624.432,41 L622.496,37.4 C622.314666,37.058665 622.090668,36.8186674 621.824,36.68 C621.557332,36.5413326 621.221335,36.472 620.816,36.472 L619.248,36.472 L619.248,41 L617.216,41 L617.216,29.72 L622.208,29.72 C623.488006,29.72 624.46133,30.0053305 625.128,30.576 C625.79467,31.1466695 626.128,31.9706613 626.128,33.048 C626.128,33.9120043 625.885336,34.6239972 625.4,35.184 C624.914664,35.7440028 624.229338,36.1093325 623.344,36.28 C623.941336,36.4400008 624.421332,36.8613299 624.784,37.544 L626.672,41 Z M623.632,34.448 C623.994668,34.1546652 624.176,33.704003 624.176,33.096 C624.176,32.4773302 623.994668,32.0266681 623.632,31.744 C623.269332,31.4613319 622.698671,31.32 621.92,31.32 L619.232,31.32 L619.232,34.888 L621.92,34.888 C622.698671,34.888 623.269332,34.7413348 623.632,34.448 Z M628.336,41 L628.336,29.72 L635.888,29.72 L635.888,31.352 L630.352,31.352 L630.352,34.456 L635.568,34.456 L635.568,36.072 L630.352,36.072 L630.352,39.368 L635.888,39.368 L635.888,41 L628.336,41 Z M639.152,40.792 C638.394663,40.5573322 637.754669,40.2266688 637.232,39.8 L637.92,38.296 C638.464003,38.7120021 639.03733,39.015999 639.64,39.208 C640.24267,39.400001 640.895996,39.496 641.6,39.496 C642.378671,39.496 642.978665,39.3600014 643.4,39.088 C643.821335,38.8159986 644.032,38.4346691 644.032,37.944 C644.032,37.5173312 643.837335,37.1920011 643.448,36.968 C643.058665,36.7439989 642.410671,36.5306677 641.504,36.328 C640.565329,36.1253323 639.80267,35.890668 639.216,35.624 C638.62933,35.357332 638.186668,35.0160021 637.888,34.6 C637.589332,34.1839979 637.44,33.6560032 637.44,33.016 C637.44,32.3546634 637.621332,31.7626693 637.984,31.24 C638.346668,30.7173307 638.858663,30.3093348 639.52,30.016 C640.181337,29.7226652 640.943996,29.576 641.808,29.576 C642.597337,29.576 643.34933,29.6959988 644.064,29.936 C644.77867,30.1760012 645.365331,30.5039979 645.824,30.92 L645.136,32.424 C644.133328,31.623996 643.024006,31.224 641.808,31.224 C641.082663,31.224 640.509335,31.3706652 640.088,31.664 C639.666665,31.9573348 639.456,32.3653307 639.456,32.888 C639.456,33.3253355 639.642665,33.6613322 640.016,33.896 C640.389335,34.1306678 641.023996,34.3493323 641.92,34.552 C642.869338,34.7653344 643.639997,35.0026654 644.232,35.264 C644.824003,35.5253346 645.277332,35.8586646 645.592,36.264 C645.906668,36.6693354 646.064,37.1813302 646.064,37.8 C646.064,38.4720034 645.885335,39.0613308 645.528,39.568 C645.170665,40.0746692 644.653337,40.4639986 643.976,40.736 C643.298663,41.0080014 642.501338,41.144 641.584,41.144 C640.719996,41.144 639.909337,41.0266678 639.152,40.792 Z M647.968,41 L647.968,29.72 L655.52,29.72 L655.52,31.352 L649.984,31.352 L649.984,34.456 L655.2,34.456 L655.2,36.072 L649.984,36.072 L649.984,39.368 L655.52,39.368 L655.52,41 L647.968,41 Z M660.048,41 L660.048,31.416 L656.368,31.416 L656.368,29.72 L665.792,29.72 L665.792,31.416 L662.112,31.416 L662.112,41 L660.048,41 Z M671.536,29.72 L676.464,29.72 C677.669339,29.72 678.607997,30.0213303 679.28,30.624 C679.952003,31.2266697 680.288,32.0719946 680.288,33.16 C680.288,34.2480054 679.952003,35.095997 679.28,35.704 C678.607997,36.312003 677.669339,36.616 676.464,36.616 L673.6,36.616 L673.6,41 L671.536,41 L671.536,29.72 Z M676.208,35.032 C677.626674,35.032 678.336,34.4133395 678.336,33.176 C678.336,32.5466635 678.160002,32.0800015 677.808,31.776 C677.455998,31.4719985 676.92267,31.32 676.208,31.32 L673.6,31.32 L673.6,35.032 L676.208,35.032 Z M690.72,41 L689.584,38.36 L684.096,38.36 L682.96,41 L680.88,41 L685.984,29.72 L687.664,29.72 L692.768,41 L690.72,41 Z M684.768,36.76 L688.896,36.76 L686.832,31.96 L684.768,36.76 Z M703.376,34.904 L703.376,40.312 C702.863997,40.5680013 702.24267,40.7706659 701.512,40.92 C700.78133,41.0693341 700.037337,41.144 699.28,41.144 C698.117328,41.144 697.109338,40.9120023 696.256,40.448 C695.402662,39.9839977 694.749336,39.3173377 694.296,38.448 C693.842664,37.5786623 693.616,36.5466726 693.616,35.352 C693.616,34.1679941 693.842664,33.1413377 694.296,32.272 C694.749336,31.4026623 695.394662,30.7360023 696.232,30.272 C697.069338,29.8079977 698.053328,29.576 699.184,29.576 C699.973337,29.576 700.714663,29.6906655 701.408,29.92 C702.101337,30.1493345 702.677331,30.4773312 703.136,30.904 L702.448,32.392 C701.925331,31.9866646 701.410669,31.6960009 700.904,31.52 C700.397331,31.3439991 699.840003,31.256 699.232,31.256 C698.069328,31.256 697.192003,31.5999966 696.6,32.288 C696.007997,32.9760034 695.712,33.9973266 695.712,35.352 C695.712,38.1253472 696.927988,39.512 699.36,39.512 C700.085337,39.512 700.810663,39.4106677 701.536,39.208 L701.536,36.376 L699.104,36.376 L699.104,34.904 L703.376,34.904 Z M705.696,41 L705.696,29.72 L713.248,29.72 L713.248,31.352 L707.712,31.352 L707.712,34.456 L712.928,34.456 L712.928,36.072 L707.712,36.072 L707.712,39.368 L713.248,39.368 L713.248,41 L705.696,41 Z" id="reset-page" fill="#222D44"></path>
                        <path d="M817.024,29.72 L819.04,29.72 L819.04,41 L817.024,41 L817.024,36.104 L811.248,36.104 L811.248,41 L809.216,41 L809.216,29.72 L811.248,29.72 L811.248,34.44 L817.024,34.44 L817.024,29.72 Z M821.472,29.72 L826.4,29.72 C827.605339,29.72 828.543997,30.0213303 829.216,30.624 C829.888003,31.2266697 830.224,32.0719946 830.224,33.16 C830.224,34.2480054 829.888003,35.095997 829.216,35.704 C828.543997,36.312003 827.605339,36.616 826.4,36.616 L823.536,36.616 L823.536,41 L821.472,41 L821.472,29.72 Z M826.144,35.032 C827.562674,35.032 828.272,34.4133395 828.272,33.176 C828.272,32.5466635 828.096002,32.0800015 827.744,31.776 C827.391998,31.4719985 826.85867,31.32 826.144,31.32 L823.536,31.32 L823.536,35.032 L826.144,35.032 Z M836.368,41 L836.368,29.72 L838.432,29.72 L838.432,39.304 L843.696,39.304 L843.696,41 L836.368,41 Z M847.416,40.44 C846.610663,39.9706643 845.989336,39.298671 845.552,38.424 C845.114664,37.549329 844.896,36.5253392 844.896,35.352 C844.896,34.1786608 845.111998,33.1573377 845.544,32.288 C845.976002,31.4186623 846.597329,30.7493357 847.408,30.28 C848.218671,29.8106643 849.173328,29.576 850.272,29.576 C851.370672,29.576 852.322663,29.8106643 853.128,30.28 C853.933337,30.7493357 854.551998,31.4186623 854.984,32.288 C855.416002,33.1573377 855.632,34.1786608 855.632,35.352 C855.632,36.5253392 855.413336,37.549329 854.976,38.424 C854.538664,39.298671 853.917337,39.9706643 853.112,40.44 C852.306663,40.9093357 851.360005,41.144 850.272,41.144 C849.173328,41.144 848.221337,40.9093357 847.416,40.44 Z M852.696,38.424 C853.277336,37.7093298 853.568,36.68534 853.568,35.352 C853.568,34.01866 853.277336,32.9973369 852.696,32.288 C852.114664,31.5786631 851.306672,31.224 850.272,31.224 C849.226661,31.224 848.413336,31.5786631 847.832,32.288 C847.250664,32.9973369 846.96,34.01866 846.96,35.352 C846.96,36.68534 847.250664,37.7093298 847.832,38.424 C848.413336,39.1386702 849.226661,39.496 850.272,39.496 C851.306672,39.496 852.114664,39.1386702 852.696,38.424 Z M867.12,34.904 L867.12,40.312 C866.607997,40.5680013 865.98667,40.7706659 865.256,40.92 C864.52533,41.0693341 863.781337,41.144 863.024,41.144 C861.861328,41.144 860.853338,40.9120023 860,40.448 C859.146662,39.9839977 858.493336,39.3173377 858.04,38.448 C857.586664,37.5786623 857.36,36.5466726 857.36,35.352 C857.36,34.1679941 857.586664,33.1413377 858.04,32.272 C858.493336,31.4026623 859.138662,30.7360023 859.976,30.272 C860.813338,29.8079977 861.797328,29.576 862.928,29.576 C863.717337,29.576 864.458663,29.6906655 865.152,29.92 C865.845337,30.1493345 866.421331,30.4773312 866.88,30.904 L866.192,32.392 C865.669331,31.9866646 865.154669,31.6960009 864.648,31.52 C864.141331,31.3439991 863.584003,31.256 862.976,31.256 C861.813328,31.256 860.936003,31.5999966 860.344,32.288 C859.751997,32.9760034 859.456,33.9973266 859.456,35.352 C859.456,38.1253472 860.671988,39.512 863.104,39.512 C863.829337,39.512 864.554663,39.4106677 865.28,39.208 L865.28,36.376 L862.848,36.376 L862.848,34.904 L867.12,34.904 Z M878.848,34.904 L878.848,40.312 C878.335997,40.5680013 877.71467,40.7706659 876.984,40.92 C876.25333,41.0693341 875.509337,41.144 874.752,41.144 C873.589328,41.144 872.581338,40.9120023 871.728,40.448 C870.874662,39.9839977 870.221336,39.3173377 869.768,38.448 C869.314664,37.5786623 869.088,36.5466726 869.088,35.352 C869.088,34.1679941 869.314664,33.1413377 869.768,32.272 C870.221336,31.4026623 870.866662,30.7360023 871.704,30.272 C872.541338,29.8079977 873.525328,29.576 874.656,29.576 C875.445337,29.576 876.186663,29.6906655 876.88,29.92 C877.573337,30.1493345 878.149331,30.4773312 878.608,30.904 L877.92,32.392 C877.397331,31.9866646 876.882669,31.6960009 876.376,31.52 C875.869331,31.3439991 875.312003,31.256 874.704,31.256 C873.541328,31.256 872.664003,31.5999966 872.072,32.288 C871.479997,32.9760034 871.184,33.9973266 871.184,35.352 C871.184,38.1253472 872.399988,39.512 874.832,39.512 C875.557337,39.512 876.282663,39.4106677 877.008,39.208 L877.008,36.376 L874.576,36.376 L874.576,34.904 L878.848,34.904 Z M881.168,41 L881.168,29.72 L888.72,29.72 L888.72,31.352 L883.184,31.352 L883.184,34.456 L888.4,34.456 L888.4,36.072 L883.184,36.072 L883.184,39.368 L888.72,39.368 L888.72,41 L881.168,41 Z M890.592,29.72 L894.752,29.72 C896.597343,29.72 898.029328,30.2133284 899.048,31.2 C900.066672,32.1866716 900.576,33.5706578 900.576,35.352 C900.576,37.1333422 900.066672,38.519995 899.048,39.512 C898.029328,40.504005 896.597343,41 894.752,41 L890.592,41 L890.592,29.72 Z M894.624,39.32 C897.216013,39.32 898.512,37.9973466 898.512,35.352 C898.512,32.7173202 897.216013,31.4 894.624,31.4 L892.656,31.4 L892.656,39.32 L894.624,39.32 Z" id="HP-logged" fill="#222D44"></path>
                        <rect id="Rectangle-2" stroke="#222D44" stroke-width="4" x="2" y="2" width="166" height="68" rx="4"></rect>
                        <rect id="Rectangle-2-Copy" stroke="#222D44" stroke-width="4" x="195" y="2" width="166" height="68" rx="4"></rect>
                        <path d="M244.736,121.432 C243.909329,120.957331 243.274669,120.282671 242.832,119.408 C242.389331,118.533329 242.168,117.514672 242.168,116.352 C242.168,115.189328 242.389331,114.173338 242.832,113.304 C243.274669,112.434662 243.909329,111.762669 244.736,111.288 C245.562671,110.813331 246.530661,110.576 247.64,110.576 C248.397337,110.576 249.111997,110.693332 249.784,110.928 C250.456003,111.162668 251.021331,111.493331 251.48,111.92 L250.792,113.424 C250.279997,113.018665 249.773336,112.722668 249.272,112.536 C248.770664,112.349332 248.237336,112.256 247.672,112.256 C246.583995,112.256 245.744003,112.607996 245.152,113.312 C244.559997,114.016004 244.264,115.029327 244.264,116.352 C244.264,117.68534 244.559997,118.703996 245.152,119.408 C245.744003,120.112004 246.583995,120.464 247.672,120.464 C248.237336,120.464 248.770664,120.370668 249.272,120.184 C249.773336,119.997332 250.279997,119.701335 250.792,119.296 L251.48,120.8 C251.021331,121.226669 250.456003,121.557332 249.784,121.792 C249.111997,122.026668 248.397337,122.144 247.64,122.144 C246.530661,122.144 245.562671,121.906669 244.736,121.432 Z M255.536,121.44 C254.730663,120.970664 254.109336,120.298671 253.672,119.424 C253.234664,118.549329 253.016,117.525339 253.016,116.352 C253.016,115.178661 253.231998,114.157338 253.664,113.288 C254.096002,112.418662 254.717329,111.749336 255.528,111.28 C256.338671,110.810664 257.293328,110.576 258.392,110.576 C259.490672,110.576 260.442663,110.810664 261.248,111.28 C262.053337,111.749336 262.671998,112.418662 263.104,113.288 C263.536002,114.157338 263.752,115.178661 263.752,116.352 C263.752,117.525339 263.533336,118.549329 263.096,119.424 C262.658664,120.298671 262.037337,120.970664 261.232,121.44 C260.426663,121.909336 259.480005,122.144 258.392,122.144 C257.293328,122.144 256.341337,121.909336 255.536,121.44 Z M260.816,119.424 C261.397336,118.70933 261.688,117.68534 261.688,116.352 C261.688,115.01866 261.397336,113.997337 260.816,113.288 C260.234664,112.578663 259.426672,112.224 258.392,112.224 C257.346661,112.224 256.533336,112.578663 255.952,113.288 C255.370664,113.997337 255.08,115.01866 255.08,116.352 C255.08,117.68534 255.370664,118.70933 255.952,119.424 C256.533336,120.13867 257.346661,120.496 258.392,120.496 C259.426672,120.496 260.234664,120.13867 260.816,119.424 Z M273.416,110.72 L275.352,110.72 L275.352,122 L273.8,122 L267.752,114.128 L267.752,122 L265.832,122 L265.832,110.72 L267.368,110.72 L273.416,118.576 L273.416,110.72 Z M277.784,122 L277.784,110.72 L285.176,110.72 L285.176,112.368 L279.816,112.368 L279.816,115.44 L284.856,115.44 L284.856,117.088 L279.816,117.088 L279.816,122 L277.784,122 Z M286.84,122 L286.84,110.72 L288.904,110.72 L288.904,122 L286.84,122 Z M300.792,122 L298.552,122 L296.616,118.4 C296.434666,118.058665 296.210668,117.818667 295.944,117.68 C295.677332,117.541333 295.341335,117.472 294.936,117.472 L293.368,117.472 L293.368,122 L291.336,122 L291.336,110.72 L296.328,110.72 C297.608006,110.72 298.58133,111.00533 299.248,111.576 C299.91467,112.14667 300.248,112.970661 300.248,114.048 C300.248,114.912004 300.005336,115.623997 299.52,116.184 C299.034664,116.744003 298.349338,117.109332 297.464,117.28 C298.061336,117.440001 298.541332,117.86133 298.904,118.544 L300.792,122 Z M297.752,115.448 C298.114668,115.154665 298.296,114.704003 298.296,114.096 C298.296,113.47733 298.114668,113.026668 297.752,112.744 C297.389332,112.461332 296.818671,112.32 296.04,112.32 L293.352,112.32 L293.352,115.888 L296.04,115.888 C296.818671,115.888 297.389332,115.741335 297.752,115.448 Z M311.848,110.72 L313.464,110.72 L313.464,122 L311.64,122 L311.64,114.544 L308.664,120.176 L307.288,120.176 L304.296,114.624 L304.312,122 L302.488,122 L302.488,110.72 L304.12,110.72 L307.992,118.096 L311.848,110.72 Z M237.128,144 L237.128,132.72 L244.52,132.72 L244.52,134.368 L239.16,134.368 L239.16,137.44 L244.2,137.44 L244.2,139.088 L239.16,139.088 L239.16,144 L237.128,144 Z M246.184,144 L246.184,132.72 L253.736,132.72 L253.736,134.352 L248.2,134.352 L248.2,137.456 L253.416,137.456 L253.416,139.072 L248.2,139.072 L248.2,142.368 L253.736,142.368 L253.736,144 L246.184,144 Z M255.608,144 L255.608,132.72 L263.16,132.72 L263.16,134.352 L257.624,134.352 L257.624,137.456 L262.84,137.456 L262.84,139.072 L257.624,139.072 L257.624,142.368 L263.16,142.368 L263.16,144 L255.608,144 Z M265.032,132.72 L269.192,132.72 C271.037343,132.72 272.469328,133.213328 273.488,134.2 C274.506672,135.186672 275.016,136.570658 275.016,138.352 C275.016,140.133342 274.506672,141.519995 273.488,142.512 C272.469328,143.504005 271.037343,144 269.192,144 L265.032,144 L265.032,132.72 Z M269.064,142.32 C271.656013,142.32 272.952,140.997347 272.952,138.352 C272.952,135.71732 271.656013,134.4 269.064,134.4 L267.096,134.4 L267.096,142.32 L269.064,142.32 Z M285.552,139.168 C285.909335,139.648002 286.088,140.234663 286.088,140.928 C286.088,141.888005 285.744003,142.639997 285.056,143.184 C284.367997,143.728003 283.421339,144 282.216,144 L277.096,144 L277.096,132.72 L282.056,132.72 C283.229339,132.72 284.14933,132.978664 284.816,133.496 C285.48267,134.013336 285.816,134.735995 285.816,135.664 C285.816,136.261336 285.658668,136.778664 285.344,137.216 C285.029332,137.653336 284.594669,137.973332 284.04,138.176 C284.69067,138.357334 285.194665,138.687998 285.552,139.168 Z M279.112,137.472 L281.72,137.472 C283.138674,137.472 283.848,136.944005 283.848,135.888 C283.848,135.354664 283.672002,134.960001 283.32,134.704 C282.967998,134.447999 282.43467,134.32 281.72,134.32 L279.112,134.32 L279.112,137.472 Z M283.624,142 C283.965335,141.733332 284.136,141.317336 284.136,140.752 C284.136,140.186664 283.962668,139.765335 283.616,139.488 C283.269332,139.210665 282.728004,139.072 281.992,139.072 L279.112,139.072 L279.112,142.4 L281.992,142.4 C282.73867,142.4 283.282665,142.266668 283.624,142 Z M296.648,144 L295.512,141.36 L290.024,141.36 L288.888,144 L286.808,144 L291.912,132.72 L293.592,132.72 L298.696,144 L296.648,144 Z M290.696,139.76 L294.824,139.76 L292.76,134.96 L290.696,139.76 Z M302.112,143.432 C301.285329,142.957331 300.650669,142.282671 300.208,141.408 C299.765331,140.533329 299.544,139.514672 299.544,138.352 C299.544,137.189328 299.765331,136.173338 300.208,135.304 C300.650669,134.434662 301.285329,133.762669 302.112,133.288 C302.938671,132.813331 303.906661,132.576 305.016,132.576 C305.773337,132.576 306.487997,132.693332 307.16,132.928 C307.832003,133.162668 308.397331,133.493331 308.856,133.92 L308.168,135.424 C307.655997,135.018665 307.149336,134.722668 306.648,134.536 C306.146664,134.349332 305.613336,134.256 305.048,134.256 C303.959995,134.256 303.120003,134.607996 302.528,135.312 C301.935997,136.016004 301.64,137.029327 301.64,138.352 C301.64,139.68534 301.935997,140.703996 302.528,141.408 C303.120003,142.112004 303.959995,142.464 305.048,142.464 C305.613336,142.464 306.146664,142.370668 306.648,142.184 C307.149336,141.997332 307.655997,141.701335 308.168,141.296 L308.856,142.8 C308.397331,143.226669 307.832003,143.557332 307.16,143.792 C306.487997,144.026668 305.773337,144.144 305.016,144.144 C303.906661,144.144 302.938671,143.906669 302.112,143.432 Z M320.552,144 L318.04,144 L312.808,138.752 L312.808,144 L310.744,144 L310.744,132.72 L312.808,132.72 L312.808,137.76 L317.832,132.72 L320.296,132.72 L314.84,138.144 L320.552,144 Z" id="confirm-feedback" fill="#222D44"></path>
                        <rect id="Rectangle-2-Copy-5" stroke="#222D44" stroke-width="4" x="195" y="94" width="166" height="68" rx="4"></rect>
                        <rect id="Rectangle-2-Copy-2" stroke="#222D44" stroke-width="4" x="387" y="2" width="166" height="68" rx="4"></rect>
                        <rect id="Rectangle-2-Copy-3" stroke="#222D44" stroke-width="4" x="580" y="2" width="166" height="68" rx="4"></rect>
                        <rect id="Rectangle-2-Copy-4" stroke="#222D44" stroke-width="4" x="772" y="2" width="166" height="68" rx="4"></rect>
                        <path d="M570,62.6469185 L588.34448,73.9701748" id="Path-2-Copy-10" stroke="#F85E5E" stroke-width="8" stroke-linecap="round" stroke-linejoin="round"></path>
                        <path d="M585.572087,60 L576.000125,76.9307377" id="Path-2-Copy-9" stroke="#F85E5E" stroke-width="8" stroke-linecap="round" stroke-linejoin="round"></path>
                        <path d="M579.544922,91.6171875 C579.731121,91.9895852 579.972329,92.2900379 580.268555,92.5185547 C580.56478,92.7470715 580.856769,92.9798165 581.144531,93.2167969 C581.500002,93.8769564 581.720052,94.6132772 581.804688,95.4257812 C581.889323,96.2382853 581.982421,97.1269483 582.083984,98.0917969 C582.083984,98.8704466 582.033204,99.6025356 581.931641,100.288086 C581.830078,100.973636 581.698894,101.642249 581.538086,102.293945 C581.377278,102.945641 581.195314,103.593096 580.992188,104.236328 C580.789061,104.879561 580.594402,105.556637 580.408203,106.267578 C580.171223,106.521486 579.989258,106.881183 579.862305,107.34668 C579.735351,107.812177 579.722656,108.264972 579.824219,108.705078 C579.604166,108.975913 579.384116,109.23828 579.164062,109.492188 C578.944009,109.746095 578.698569,109.983072 578.427734,110.203125 C578.326171,110.101562 578.194988,110.04655 578.03418,110.038086 C577.873372,110.029622 577.708334,110.029622 577.539062,110.038086 C577.369791,110.04655 577.213217,110.063476 577.069336,110.088867 C576.925455,110.114258 576.819662,110.11849 576.751953,110.101562 C576.667317,109.966145 576.553061,109.822266 576.40918,109.669922 C576.265299,109.517577 576.138347,109.356772 576.02832,109.1875 C575.918294,109.018228 575.833659,108.853191 575.774414,108.692383 C575.715169,108.531575 575.727864,108.375001 575.8125,108.222656 C575.8125,108.036457 575.710939,107.943359 575.507812,107.943359 C575.558594,107.16471 575.685546,106.398767 575.888672,105.645508 C576.091798,104.892249 576.320311,104.155928 576.574219,103.436523 C576.828126,102.717119 577.077798,102.001957 577.323242,101.291016 C577.568686,100.580075 577.754882,99.8776076 577.881836,99.1835938 C578.00879,98.4895799 578.042644,97.7955764 577.983398,97.1015625 C577.924153,96.4075486 577.725262,95.7050817 577.386719,94.9941406 C577.386719,94.7571603 577.382487,94.558269 577.374023,94.3974609 C577.36556,94.2366528 577.357096,94.0927741 577.348633,93.9658203 C577.340169,93.8388666 577.327474,93.7161464 577.310547,93.5976562 C577.29362,93.4791661 577.259766,93.3522142 577.208984,93.2167969 C577.29362,92.9798165 577.357096,92.7597666 577.399414,92.5566406 C577.441732,92.3535146 577.4375,92.1673186 577.386719,91.9980469 C577.403646,91.8795567 577.4375,91.7822269 577.488281,91.7060547 C577.539063,91.6298824 577.598307,91.5537113 577.666016,91.4775391 C577.733724,91.4013668 577.7972,91.3251957 577.856445,91.2490234 C577.91569,91.1728512 577.953776,91.0755214 577.970703,90.9570312 L578.529297,90.9570312 C578.715496,91.1093758 578.876301,91.2490228 579.011719,91.3759766 C579.147136,91.5029303 579.324869,91.5833332 579.544922,91.6171875 Z" id="1" fill="#F85E5E"></path>
                        <path d="M761,63.6469185 L779.34448,74.9701748" id="Path-2-Copy-12" stroke="#F85E5E" stroke-width="8" stroke-linecap="round" stroke-linejoin="round"></path>
                        <path d="M776.572087,61 L767.000125,77.9307377" id="Path-2-Copy-11" stroke="#F85E5E" stroke-width="8" stroke-linecap="round" stroke-linejoin="round"></path>
                        <path d="M783.849609,106.582031 C784.255861,106.785157 784.463216,107.039061 784.47168,107.34375 C784.480143,107.648439 784.387045,107.931965 784.192383,108.194336 C783.99772,108.456707 783.743817,108.655598 783.430664,108.791016 C783.117511,108.926433 782.833986,108.91797 782.580078,108.765625 C782.546224,108.901042 782.474284,108.989909 782.364258,109.032227 C782.254231,109.074544 782.182292,109.154947 782.148438,109.273438 C780.506502,109.527345 778.830738,109.840493 777.121094,110.212891 C775.41145,110.585288 773.701831,110.864582 771.992188,111.050781 C770.671868,111 769.571619,110.80534 768.691406,110.466797 C768.335936,110.162108 768.069337,109.781252 767.891602,109.324219 C767.713866,108.867185 767.608073,108.384768 767.574219,107.876953 C767.540364,107.369138 767.557291,106.874026 767.625,106.391602 C767.692709,105.909177 767.79427,105.490236 767.929688,105.134766 C768.8099,104.017573 769.728185,102.946945 770.68457,101.922852 C771.640955,100.898758 772.72851,99.9889363 773.947266,99.1933594 C774.302736,98.753253 774.717446,98.3766292 775.191406,98.0634766 C775.665367,97.750324 776.097003,97.3990905 776.486328,97.0097656 C775.978513,96.8235668 775.445315,96.7304688 774.886719,96.7304688 C774.328122,96.7304688 773.777997,96.7770178 773.236328,96.8701172 C772.694659,96.9632166 772.186851,97.0774733 771.712891,97.2128906 C771.23893,97.348308 770.824221,97.4498695 770.46875,97.5175781 C770.197915,97.3821608 769.880536,97.3059897 769.516602,97.2890625 C769.152667,97.2721353 768.792971,97.2044277 768.4375,97.0859375 C768.234374,96.9166658 768.094727,96.6966159 768.018555,96.4257812 C767.942382,96.1549466 767.895833,95.8756525 767.878906,95.5878906 C767.861979,95.3001288 767.853516,95.0250664 767.853516,94.7626953 C767.853516,94.5003242 767.819662,94.2845061 767.751953,94.1152344 C767.88737,93.8951812 768.010091,93.6751313 768.120117,93.4550781 C768.230144,93.2350249 768.361327,93.031902 768.513672,92.8457031 C769.309249,92.6256499 770.189448,92.4436856 771.154297,92.2998047 C772.119145,92.1559238 773.092443,92.0924478 774.074219,92.109375 C775.055994,92.1263022 776.003902,92.2490223 776.917969,92.4775391 C777.832036,92.7060558 778.644528,93.0826797 779.355469,93.6074219 C779.440105,94.0813826 779.617837,94.4580064 779.888672,94.7373047 C780.159507,95.016603 780.489581,95.2324211 780.878906,95.3847656 C781.065105,95.723309 781.225911,96.066079 781.361328,96.4130859 C781.496745,96.7600929 781.589843,97.1282533 781.640625,97.5175781 C781.302082,98.414718 780.823896,99.1721974 780.206055,99.7900391 C779.588213,100.407881 778.966149,100.970701 778.339844,101.478516 C778.0013,101.766277 777.637372,102.011718 777.248047,102.214844 C776.858722,102.41797 776.520184,102.654947 776.232422,102.925781 C776.164713,102.99349 776.122396,103.082356 776.105469,103.192383 C776.088542,103.302409 776.046224,103.382812 775.978516,103.433594 C775.673827,103.704428 775.335288,103.945637 774.962891,104.157227 C774.590493,104.368816 774.251955,104.610025 773.947266,104.880859 C773.727212,105.067058 773.545248,105.270181 773.401367,105.490234 C773.257486,105.710288 773.067058,105.904947 772.830078,106.074219 C773.134767,106.175782 773.43522,106.218099 773.731445,106.201172 C774.027671,106.184245 774.332355,106.150391 774.645508,106.099609 C774.95866,106.048828 775.280272,105.998047 775.610352,105.947266 C775.940431,105.896484 776.283201,105.879557 776.638672,105.896484 C777.12956,105.727213 777.671221,105.579102 778.263672,105.452148 C778.856123,105.325195 779.448565,105.278646 780.041016,105.3125 C780.548831,105.109374 781.035479,104.961263 781.500977,104.868164 C781.966474,104.775065 782.410805,104.753906 782.833984,104.804688 C783.054038,104.889323 783.219075,105.041666 783.329102,105.261719 C783.439128,105.481772 783.612629,105.634114 783.849609,105.71875 C783.798828,105.904949 783.786133,106.040364 783.811523,106.125 C783.836914,106.209636 783.849609,106.361978 783.849609,106.582031 Z" id="2" fill="#F85E5E"></path>
                    </g>
                </g>
            </g>
        </g>
    </g>
</svg>