<svg width="940" height="164" viewBox="0 0 940 164" xmlns="http://www.w3.org/2000/svg"><title>illu ux 1</title><g fill="none" fill-rule="evenodd"><path d="M170 36h25" stroke="#222D44" stroke-width="4"/><path d="M194.196 35.763l-3.52-3.227a1 1 0 0 0-1.676.737v6.454a1 1 0 0 0 1.676.737l3.52-3.227a1 1 0 0 0 0-1.474z" fill="#222D44"/><path d="M362 36h25" stroke="#222D44" stroke-width="4"/><path d="M386.196 35.763l-3.52-3.227a1 1 0 0 0-1.676.737v6.454a1 1 0 0 0 1.676.737l3.52-3.227a1 1 0 0 0 0-1.474z" fill="#222D44"/><path d="M555 36h25" stroke="#222D44" stroke-width="4"/><path d="M579.196 35.763l-3.52-3.227a1 1 0 0 0-1.676.737v6.454a1 1 0 0 0 1.676.737l3.52-3.227a1 1 0 0 0 0-1.474z" fill="#222D44"/><path d="M747 36h25" stroke="#222D44" stroke-width="4"/><path d="M771.196 35.763l-3.52-3.227a1 1 0 0 0-1.676.737v6.454a1 1 0 0 0 1.676.737l3.52-3.227a1 1 0 0 0 0-1.474z" fill="#222D44"/><path d="M278 69v25" stroke="#222D44" stroke-width="4"/><path d="M278.737 92.696l3.227-3.52a1 1 0 0 0-.737-1.676h-6.454a1 1 0 0 0-.737 1.676l3.227 3.52a1 1 0 0 0 1.474 0zM41.432 40.432a4.752 4.752 0 0 1-1.904-2.024c-.443-.875-.664-1.893-.664-3.056s.221-2.179.664-3.048a4.762 4.762 0 0 1 1.904-2.016c.827-.475 1.795-.712 2.904-.712a6.45 6.45 0 0 1 2.144.352c.672.235 1.237.565 1.696.992l-.688 1.504c-.512-.405-1.019-.701-1.52-.888a4.548 4.548 0 0 0-1.6-.28c-1.088 0-1.928.352-2.52 1.056-.592.704-.888 1.717-.888 3.04 0 1.333.296 2.352.888 3.056.592.704 1.432 1.056 2.52 1.056a4.54 4.54 0 0 0 1.6-.28c.501-.187 1.008-.483 1.52-.888l.688 1.504c-.459.427-1.024.757-1.696.992a6.457 6.457 0 0 1-2.144.352c-1.11 0-2.077-.237-2.904-.712zm10.8.008c-.805-.47-1.427-1.141-1.864-2.016-.437-.875-.656-1.899-.656-3.072s.216-2.195.648-3.064a4.655 4.655 0 0 1 1.864-2.008c.81-.47 1.765-.704 2.864-.704s2.05.235 2.856.704a4.677 4.677 0 0 1 1.856 2.008c.432.87.648 1.89.648 3.064 0 1.173-.219 2.197-.656 3.072-.437.875-1.059 1.547-1.864 2.016-.805.47-1.752.704-2.84.704-1.099 0-2.05-.235-2.856-.704zm5.28-2.016c.581-.715.872-1.739.872-3.072s-.29-2.355-.872-3.064c-.581-.71-1.39-1.064-2.424-1.064-1.045 0-1.859.355-2.44 1.064-.581.71-.872 1.73-.872 3.064 0 1.333.29 2.357.872 3.072.581.715 1.395 1.072 2.44 1.072 1.035 0 1.843-.357 2.424-1.072zm12.6-8.704h1.936V41h-1.552l-6.048-7.872V41h-1.92V29.72h1.536l6.048 7.856V29.72zm11.952 0H84V41h-1.552L76.4 33.128V41h-1.92V29.72h1.536l6.048 7.856V29.72zM86.432 41V29.72h7.552v1.632h-5.536v3.104h5.216v1.616h-5.216v3.296h5.536V41h-7.552zm14.688-5.728L105.408 41h-2.4l-3.056-4.224L96.88 41h-2.4l4.304-5.744-4.144-5.536h2.4l2.912 4.048 2.928-4.048h2.4l-4.16 5.552zM106.48 41V29.72h2.064V41h-2.064zm6.664-.56c-.805-.47-1.427-1.141-1.864-2.016-.437-.875-.656-1.899-.656-3.072s.216-2.195.648-3.064a4.655 4.655 0 0 1 1.864-2.008c.81-.47 1.765-.704 2.864-.704s2.05.235 2.856.704a4.677 4.677 0 0 1 1.856 2.008c.432.87.648 1.89.648 3.064 0 1.173-.219 2.197-.656 3.072-.437.875-1.059 1.547-1.864 2.016-.805.47-1.752.704-2.84.704-1.099 0-2.05-.235-2.856-.704zm5.28-2.016c.581-.715.872-1.739.872-3.072s-.29-2.355-.872-3.064c-.581-.71-1.39-1.064-2.424-1.064-1.045 0-1.859.355-2.44 1.064-.581.71-.872 1.73-.872 3.064 0 1.333.29 2.357.872 3.072.581.715 1.395 1.072 2.44 1.072 1.035 0 1.843-.357 2.424-1.072zm12.6-8.704h1.936V41h-1.552l-6.048-7.872V41h-1.92V29.72h1.536l6.048 7.856V29.72zM236.672 41h-2.24l-1.936-3.6c-.181-.341-.405-.581-.672-.72s-.603-.208-1.008-.208h-1.568V41h-2.032V29.72h4.992c1.28 0 2.253.285 2.92.856.667.57 1 1.395 1 2.472 0 .864-.243 1.576-.728 2.136s-1.17.925-2.056 1.096c.597.16 1.077.581 1.44 1.264L236.672 41zm-3.04-6.552c.363-.293.544-.744.544-1.352 0-.619-.181-1.07-.544-1.352-.363-.283-.933-.424-1.712-.424h-2.688v3.568h2.688c.779 0 1.35-.147 1.712-.44zM238.336 41V29.72h7.552v1.632h-5.536v3.104h5.216v1.616h-5.216v3.296h5.536V41h-7.552zm10.816-.208c-.757-.235-1.397-.565-1.92-.992l.688-1.504c.544.416 1.117.72 1.72.912a6.425 6.425 0 0 0 1.96.288c.779 0 1.379-.136 1.8-.408.421-.272.632-.653.632-1.144 0-.427-.195-.752-.584-.976-.39-.224-1.037-.437-1.944-.64-.939-.203-1.701-.437-2.288-.704-.587-.267-1.03-.608-1.328-1.024-.299-.416-.448-.944-.448-1.584 0-.661.181-1.253.544-1.776.363-.523.875-.93 1.536-1.224.661-.293 1.424-.44 2.288-.44.79 0 1.541.12 2.256.36.715.24 1.301.568 1.76.984l-.688 1.504c-1.003-.8-2.112-1.2-3.328-1.2-.725 0-1.299.147-1.72.44-.421.293-.632.701-.632 1.224 0 .437.187.773.56 1.008.373.235 1.008.453 1.904.656.95.213 1.72.45 2.312.712.592.261 1.045.595 1.36 1 .315.405.472.917.472 1.536 0 .672-.179 1.261-.536 1.768-.357.507-.875.896-1.552 1.168-.677.272-1.475.408-2.392.408a8.174 8.174 0 0 1-2.432-.352zm8.816.208V29.72h7.552v1.632h-5.536v3.104h5.216v1.616h-5.216v3.296h5.536V41h-7.552zm12.08 0v-9.584h-3.68V29.72h9.424v1.696h-3.68V41h-2.064zm11.488-11.28h4.928c1.205 0 2.144.301 2.816.904.672.603 1.008 1.448 1.008 2.536s-.336 1.936-1.008 2.544c-.672.608-1.61.912-2.816.912H283.6V41h-2.064V29.72zm4.672 5.312c1.419 0 2.128-.619 2.128-1.856 0-.63-.176-1.096-.528-1.4-.352-.304-.885-.456-1.6-.456H283.6v3.712h2.608zm8.056 5.408c-.805-.47-1.427-1.141-1.864-2.016-.437-.875-.656-1.899-.656-3.072s.216-2.195.648-3.064a4.655 4.655 0 0 1 1.864-2.008c.81-.47 1.765-.704 2.864-.704s2.05.235 2.856.704a4.677 4.677 0 0 1 1.856 2.008c.432.87.648 1.89.648 3.064 0 1.173-.219 2.197-.656 3.072-.437.875-1.059 1.547-1.864 2.016-.805.47-1.752.704-2.84.704-1.099 0-2.05-.235-2.856-.704zm5.28-2.016c.581-.715.872-1.739.872-3.072s-.29-2.355-.872-3.064c-.581-.71-1.39-1.064-2.424-1.064-1.045 0-1.859.355-2.44 1.064-.581.71-.872 1.73-.872 3.064 0 1.333.29 2.357.872 3.072.581.715 1.395 1.072 2.44 1.072 1.035 0 1.843-.357 2.424-1.072zm5.016-8.704h4.928c1.205 0 2.144.301 2.816.904.672.603 1.008 1.448 1.008 2.536s-.336 1.936-1.008 2.544c-.672.608-1.61.912-2.816.912h-2.864V41h-2.064V29.72zm4.672 5.312c1.419 0 2.128-.619 2.128-1.856 0-.63-.176-1.096-.528-1.4-.352-.304-.885-.456-1.6-.456h-2.608v3.712h2.608zM315.12 41V29.72h2.064V41h-2.064zm12.08-11.28h1.936V41h-1.552l-6.048-7.872V41h-1.92V29.72h1.536l6.048 7.856V29.72zm106.408 0h1.616V41H433.4v-7.456l-2.976 5.632h-1.376l-2.992-5.552.016 7.376h-1.824V29.72h1.632l3.872 7.376 3.856-7.376zM446.296 41l-1.136-2.64h-5.488L438.536 41h-2.08l5.104-11.28h1.68L448.344 41h-2.048zm-5.952-4.24h4.128l-2.064-4.8-2.064 4.8zm9.2 4.24V29.72h2.064V41h-2.064zm4.496 0V29.72h2.064v9.584h5.264V41h-7.328zm22.672 0h-2.24l-1.936-3.6c-.181-.341-.405-.581-.672-.72s-.603-.208-1.008-.208h-1.568V41h-2.032V29.72h4.992c1.28 0 2.253.285 2.92.856.667.57 1 1.395 1 2.472 0 .864-.243 1.576-.728 2.136s-1.17.925-2.056 1.096c.597.16 1.077.581 1.44 1.264L476.712 41zm-3.04-6.552c.363-.293.544-.744.544-1.352 0-.619-.181-1.07-.544-1.352-.363-.283-.933-.424-1.712-.424h-2.688v3.568h2.688c.779 0 1.35-.147 1.712-.44zM478.376 41V29.72h7.552v1.632h-5.536v3.104h5.216v1.616h-5.216v3.296h5.536V41h-7.552zm10.816-.208c-.757-.235-1.397-.565-1.92-.992l.688-1.504c.544.416 1.117.72 1.72.912a6.425 6.425 0 0 0 1.96.288c.779 0 1.379-.136 1.8-.408.421-.272.632-.653.632-1.144 0-.427-.195-.752-.584-.976-.39-.224-1.037-.437-1.944-.64-.939-.203-1.701-.437-2.288-.704-.587-.267-1.03-.608-1.328-1.024-.299-.416-.448-.944-.448-1.584 0-.661.181-1.253.544-1.776.363-.523.875-.93 1.536-1.224.661-.293 1.424-.44 2.288-.44.79 0 1.541.12 2.256.36.715.24 1.301.568 1.76.984l-.688 1.504c-1.003-.8-2.112-1.2-3.328-1.2-.725 0-1.299.147-1.72.44-.421.293-.632.701-.632 1.224 0 .437.187.773.56 1.008.373.235 1.008.453 1.904.656.95.213 1.72.45 2.312.712.592.261 1.045.595 1.36 1 .315.405.472.917.472 1.536 0 .672-.179 1.261-.536 1.768-.357.507-.875.896-1.552 1.168-.677.272-1.475.408-2.392.408a8.174 8.174 0 0 1-2.432-.352zm8.816.208V29.72h7.552v1.632h-5.536v3.104h5.216v1.616h-5.216v3.296h5.536V41h-7.552zm12.08 0v-9.584h-3.68V29.72h9.424v1.696h-3.68V41h-2.064zm116.584 0h-2.24l-1.936-3.6c-.181-.341-.405-.581-.672-.72s-.603-.208-1.008-.208h-1.568V41h-2.032V29.72h4.992c1.28 0 2.253.285 2.92.856.667.57 1 1.395 1 2.472 0 .864-.243 1.576-.728 2.136s-1.17.925-2.056 1.096c.597.16 1.077.581 1.44 1.264L626.672 41zm-3.04-6.552c.363-.293.544-.744.544-1.352 0-.619-.181-1.07-.544-1.352-.363-.283-.933-.424-1.712-.424h-2.688v3.568h2.688c.779 0 1.35-.147 1.712-.44zM628.336 41V29.72h7.552v1.632h-5.536v3.104h5.216v1.616h-5.216v3.296h5.536V41h-7.552zm10.816-.208c-.757-.235-1.397-.565-1.92-.992l.688-1.504c.544.416 1.117.72 1.72.912a6.425 6.425 0 0 0 1.96.288c.779 0 1.379-.136 1.8-.408.421-.272.632-.653.632-1.144 0-.427-.195-.752-.584-.976-.39-.224-1.037-.437-1.944-.64-.939-.203-1.701-.437-2.288-.704-.587-.267-1.03-.608-1.328-1.024-.299-.416-.448-.944-.448-1.584 0-.661.181-1.253.544-1.776.363-.523.875-.93 1.536-1.224.661-.293 1.424-.44 2.288-.44.79 0 1.541.12 2.256.36.715.24 1.301.568 1.76.984l-.688 1.504c-1.003-.8-2.112-1.2-3.328-1.2-.725 0-1.299.147-1.72.44-.421.293-.632.701-.632 1.224 0 .437.187.773.56 1.008.373.235 1.008.453 1.904.656.95.213 1.72.45 2.312.712.592.261 1.045.595 1.36 1 .315.405.472.917.472 1.536 0 .672-.179 1.261-.536 1.768-.357.507-.875.896-1.552 1.168-.677.272-1.475.408-2.392.408a8.174 8.174 0 0 1-2.432-.352zm8.816.208V29.72h7.552v1.632h-5.536v3.104h5.216v1.616h-5.216v3.296h5.536V41h-7.552zm12.08 0v-9.584h-3.68V29.72h9.424v1.696h-3.68V41h-2.064zm11.488-11.28h4.928c1.205 0 2.144.301 2.816.904.672.603 1.008 1.448 1.008 2.536s-.336 1.936-1.008 2.544c-.672.608-1.61.912-2.816.912H673.6V41h-2.064V29.72zm4.672 5.312c1.419 0 2.128-.619 2.128-1.856 0-.63-.176-1.096-.528-1.4-.352-.304-.885-.456-1.6-.456H673.6v3.712h2.608zM690.72 41l-1.136-2.64h-5.488L682.96 41h-2.08l5.104-11.28h1.68L692.768 41h-2.048zm-5.952-4.24h4.128l-2.064-4.8-2.064 4.8zm18.608-1.856v5.408c-.512.256-1.133.459-1.864.608-.73.15-1.475.224-2.232.224-1.163 0-2.17-.232-3.024-.696a4.697 4.697 0 0 1-1.96-2c-.453-.87-.68-1.901-.68-3.096 0-1.184.227-2.21.68-3.08a4.734 4.734 0 0 1 1.936-2c.837-.464 1.821-.696 2.952-.696.79 0 1.53.115 2.224.344.693.23 1.27.557 1.728.984l-.688 1.488c-.523-.405-1.037-.696-1.544-.872a5.066 5.066 0 0 0-1.672-.264c-1.163 0-2.04.344-2.632 1.032-.592.688-.888 1.71-.888 3.064 0 2.773 1.216 4.16 3.648 4.16.725 0 1.45-.101 2.176-.304v-2.832h-2.432v-1.472h4.272zm2.32 6.096V29.72h7.552v1.632h-5.536v3.104h5.216v1.616h-5.216v3.296h5.536V41h-7.552zm111.328-11.28h2.016V41h-2.016v-4.896h-5.776V41h-2.032V29.72h2.032v4.72h5.776v-4.72zm4.448 0h4.928c1.205 0 2.144.301 2.816.904.672.603 1.008 1.448 1.008 2.536s-.336 1.936-1.008 2.544c-.672.608-1.61.912-2.816.912h-2.864V41h-2.064V29.72zm4.672 5.312c1.419 0 2.128-.619 2.128-1.856 0-.63-.176-1.096-.528-1.4-.352-.304-.885-.456-1.6-.456h-2.608v3.712h2.608zM836.368 41V29.72h2.064v9.584h5.264V41h-7.328zm11.048-.56c-.805-.47-1.427-1.141-1.864-2.016-.437-.875-.656-1.899-.656-3.072s.216-2.195.648-3.064a4.655 4.655 0 0 1 1.864-2.008c.81-.47 1.765-.704 2.864-.704s2.05.235 2.856.704a4.677 4.677 0 0 1 1.856 2.008c.432.87.648 1.89.648 3.064 0 1.173-.219 2.197-.656 3.072-.437.875-1.059 1.547-1.864 2.016-.805.47-1.752.704-2.84.704-1.099 0-2.05-.235-2.856-.704zm5.28-2.016c.581-.715.872-1.739.872-3.072s-.29-2.355-.872-3.064c-.581-.71-1.39-1.064-2.424-1.064-1.045 0-1.859.355-2.44 1.064-.581.71-.872 1.73-.872 3.064 0 1.333.29 2.357.872 3.072.581.715 1.395 1.072 2.44 1.072 1.035 0 1.843-.357 2.424-1.072zm14.424-3.52v5.408c-.512.256-1.133.459-1.864.608-.73.15-1.475.224-2.232.224-1.163 0-2.17-.232-3.024-.696a4.697 4.697 0 0 1-1.96-2c-.453-.87-.68-1.901-.68-3.096 0-1.184.227-2.21.68-3.08a4.734 4.734 0 0 1 1.936-2c.837-.464 1.821-.696 2.952-.696.79 0 1.53.115 2.224.344.693.23 1.27.557 1.728.984l-.688 1.488c-.523-.405-1.037-.696-1.544-.872a5.066 5.066 0 0 0-1.672-.264c-1.163 0-2.04.344-2.632 1.032-.592.688-.888 1.71-.888 3.064 0 2.773 1.216 4.16 3.648 4.16.725 0 1.45-.101 2.176-.304v-2.832h-2.432v-1.472h4.272zm11.728 0v5.408c-.512.256-1.133.459-1.864.608-.73.15-1.475.224-2.232.224-1.163 0-2.17-.232-3.024-.696a4.697 4.697 0 0 1-1.96-2c-.453-.87-.68-1.901-.68-3.096 0-1.184.227-2.21.68-3.08a4.734 4.734 0 0 1 1.936-2c.837-.464 1.821-.696 2.952-.696.79 0 1.53.115 2.224.344.693.23 1.27.557 1.728.984l-.688 1.488c-.523-.405-1.037-.696-1.544-.872a5.066 5.066 0 0 0-1.672-.264c-1.163 0-2.04.344-2.632 1.032-.592.688-.888 1.71-.888 3.064 0 2.773 1.216 4.16 3.648 4.16.725 0 1.45-.101 2.176-.304v-2.832h-2.432v-1.472h4.272zm2.32 6.096V29.72h7.552v1.632h-5.536v3.104h5.216v1.616h-5.216v3.296h5.536V41h-7.552zm9.424-11.28h4.16c1.845 0 3.277.493 4.296 1.48 1.019.987 1.528 2.37 1.528 4.152 0 1.781-.51 3.168-1.528 4.16-1.019.992-2.45 1.488-4.296 1.488h-4.16V29.72zm4.032 9.6c2.592 0 3.888-1.323 3.888-3.968 0-2.635-1.296-3.952-3.888-3.952h-1.968v7.92h1.968z" fill="#222D44"/><rect stroke="#222D44" stroke-width="4" x="2" y="2" width="166" height="68" rx="4"/><rect stroke="#222D44" stroke-width="4" x="195" y="2" width="166" height="68" rx="4"/><path d="M244.736 121.432a4.752 4.752 0 0 1-1.904-2.024c-.443-.875-.664-1.893-.664-3.056s.221-2.179.664-3.048a4.762 4.762 0 0 1 1.904-2.016c.827-.475 1.795-.712 2.904-.712a6.45 6.45 0 0 1 2.144.352c.672.235 1.237.565 1.696.992l-.688 1.504c-.512-.405-1.019-.701-1.52-.888a4.548 4.548 0 0 0-1.6-.28c-1.088 0-1.928.352-2.52 1.056-.592.704-.888 1.717-.888 3.04 0 1.333.296 2.352.888 3.056.592.704 1.432 1.056 2.52 1.056a4.54 4.54 0 0 0 1.6-.28c.501-.187 1.008-.483 1.52-.888l.688 1.504c-.459.427-1.024.757-1.696.992a6.457 6.457 0 0 1-2.144.352c-1.11 0-2.077-.237-2.904-.712zm10.8.008c-.805-.47-1.427-1.141-1.864-2.016-.437-.875-.656-1.899-.656-3.072s.216-2.195.648-3.064a4.655 4.655 0 0 1 1.864-2.008c.81-.47 1.765-.704 2.864-.704s2.05.235 2.856.704a4.677 4.677 0 0 1 1.856 2.008c.432.87.648 1.89.648 3.064 0 1.173-.219 2.197-.656 3.072-.437.875-1.059 1.547-1.864 2.016-.805.47-1.752.704-2.84.704-1.099 0-2.05-.235-2.856-.704zm5.28-2.016c.581-.715.872-1.739.872-3.072s-.29-2.355-.872-3.064c-.581-.71-1.39-1.064-2.424-1.064-1.045 0-1.859.355-2.44 1.064-.581.71-.872 1.73-.872 3.064 0 1.333.29 2.357.872 3.072.581.715 1.395 1.072 2.44 1.072 1.035 0 1.843-.357 2.424-1.072zm12.6-8.704h1.936V122H273.8l-6.048-7.872V122h-1.92v-11.28h1.536l6.048 7.856v-7.856zm4.368 11.28v-11.28h7.392v1.648h-5.36v3.072h5.04v1.648h-5.04V122h-2.032zm9.056 0v-11.28h2.064V122h-2.064zm13.952 0h-2.24l-1.936-3.6c-.181-.341-.405-.581-.672-.72s-.603-.208-1.008-.208h-1.568V122h-2.032v-11.28h4.992c1.28 0 2.253.285 2.92.856.667.57 1 1.395 1 2.472 0 .864-.243 1.576-.728 2.136s-1.17.925-2.056 1.096c.597.16 1.077.581 1.44 1.264l1.888 3.456zm-3.04-6.552c.363-.293.544-.744.544-1.352 0-.619-.181-1.07-.544-1.352-.363-.283-.933-.424-1.712-.424h-2.688v3.568h2.688c.779 0 1.35-.147 1.712-.44zm14.096-4.728h1.616V122h-1.824v-7.456l-2.976 5.632h-1.376l-2.992-5.552.016 7.376h-1.824v-11.28h1.632l3.872 7.376 3.856-7.376zM237.128 144v-11.28h7.392v1.648h-5.36v3.072h5.04v1.648h-5.04V144h-2.032zm9.056 0v-11.28h7.552v1.632H248.2v3.104h5.216v1.616H248.2v3.296h5.536V144h-7.552zm9.424 0v-11.28h7.552v1.632h-5.536v3.104h5.216v1.616h-5.216v3.296h5.536V144h-7.552zm9.424-11.28h4.16c1.845 0 3.277.493 4.296 1.48 1.019.987 1.528 2.37 1.528 4.152 0 1.781-.51 3.168-1.528 4.16-1.019.992-2.45 1.488-4.296 1.488h-4.16v-11.28zm4.032 9.6c2.592 0 3.888-1.323 3.888-3.968 0-2.635-1.296-3.952-3.888-3.952h-1.968v7.92h1.968zm16.488-3.152c.357.48.536 1.067.536 1.76 0 .96-.344 1.712-1.032 2.256-.688.544-1.635.816-2.84.816h-5.12v-11.28h4.96c1.173 0 2.093.259 2.76.776.667.517 1 1.24 1 2.168 0 .597-.157 1.115-.472 1.552-.315.437-.75.757-1.304.96.65.181 1.155.512 1.512.992zm-6.44-1.696h2.608c1.419 0 2.128-.528 2.128-1.584 0-.533-.176-.928-.528-1.184-.352-.256-.885-.384-1.6-.384h-2.608v3.152zm4.512 4.528c.341-.267.512-.683.512-1.248s-.173-.987-.52-1.264c-.347-.277-.888-.416-1.624-.416h-2.88v3.328h2.88c.747 0 1.29-.133 1.632-.4zm13.024 2l-1.136-2.64h-5.488l-1.136 2.64h-2.08l5.104-11.28h1.68l5.104 11.28h-2.048zm-5.952-4.24h4.128l-2.064-4.8-2.064 4.8zm11.416 3.672a4.752 4.752 0 0 1-1.904-2.024c-.443-.875-.664-1.893-.664-3.056s.221-2.179.664-3.048a4.762 4.762 0 0 1 1.904-2.016c.827-.475 1.795-.712 2.904-.712a6.45 6.45 0 0 1 2.144.352c.672.235 1.237.565 1.696.992l-.688 1.504c-.512-.405-1.019-.701-1.52-.888a4.548 4.548 0 0 0-1.6-.28c-1.088 0-1.928.352-2.52 1.056-.592.704-.888 1.717-.888 3.04 0 1.333.296 2.352.888 3.056.592.704 1.432 1.056 2.52 1.056a4.54 4.54 0 0 0 1.6-.28c.501-.187 1.008-.483 1.52-.888l.688 1.504c-.459.427-1.024.757-1.696.992a6.457 6.457 0 0 1-2.144.352c-1.11 0-2.077-.237-2.904-.712zm18.44.568h-2.512l-5.232-5.248V144h-2.064v-11.28h2.064v5.04l5.024-5.04h2.464l-5.456 5.424 5.712 5.856z" fill="#222D44"/><rect stroke="#222D44" stroke-width="4" x="195" y="94" width="166" height="68" rx="4"/><rect stroke="#222D44" stroke-width="4" x="387" y="2" width="166" height="68" rx="4"/><rect stroke="#222D44" stroke-width="4" x="580" y="2" width="166" height="68" rx="4"/><rect stroke="#222D44" stroke-width="4" x="772" y="2" width="166" height="68" rx="4"/><path d="M570 62.647l18.344 11.323M585.572 60L576 76.93" stroke="#F85E5E" stroke-width="8" stroke-linecap="round" stroke-linejoin="round"/><path d="M579.545 91.617c.186.373.427.673.724.902.296.228.588.46.876.698a5.9 5.9 0 0 1 .66 2.209l.279 2.666a15 15 0 0 1-.152 2.196 21.553 21.553 0 0 1-.394 2.006c-.16.652-.343 1.3-.546 1.942-.203.644-.398 1.32-.584 2.032-.237.253-.419.613-.546 1.079-.127.465-.14.918-.038 1.358-.22.27-.44.533-.66.787a5.84 5.84 0 0 1-.736.711.578.578 0 0 0-.394-.165 4.83 4.83 0 0 0-.495 0c-.17.009-.326.025-.47.05a.836.836 0 0 1-.317.014 2.817 2.817 0 0 0-.343-.432 3.405 3.405 0 0 1-.38-.483 2.5 2.5 0 0 1-.255-.495.54.54 0 0 1 .038-.47c0-.186-.101-.279-.304-.279.05-.778.178-1.544.38-2.297.204-.754.432-1.49.686-2.21.254-.719.504-1.434.75-2.145.245-.71.43-1.413.558-2.107.127-.694.16-1.388.101-2.082s-.258-1.397-.596-2.108c0-.237-.005-.436-.013-.597-.008-.16-.017-.304-.025-.431a4.917 4.917 0 0 0-.038-.368 1.828 1.828 0 0 0-.102-.381 4.92 4.92 0 0 0 .19-.66c.043-.203.038-.39-.012-.559a.7.7 0 0 1 .101-.292c.051-.076.11-.152.178-.228.068-.077.131-.153.19-.229a.606.606 0 0 0 .115-.292h.558c.186.152.347.292.483.419a.974.974 0 0 0 .533.241z" fill="#F85E5E"/><path d="M761 63.647l18.344 11.323M776.572 61L767 77.93" stroke="#F85E5E" stroke-width="8" stroke-linecap="round" stroke-linejoin="round"/><path d="M783.85 106.582c.406.203.613.457.622.762.008.304-.085.588-.28.85a1.836 1.836 0 0 1-.761.597c-.313.135-.597.127-.85-.025-.035.135-.107.224-.217.266a.345.345 0 0 0-.216.241 83.81 83.81 0 0 0-5.027.94c-1.71.372-3.42.652-5.129.838-1.32-.051-2.42-.246-3.3-.584a2.826 2.826 0 0 1-.8-1.143 4.86 4.86 0 0 1-.318-1.447 7.21 7.21 0 0 1 .051-1.485 5.82 5.82 0 0 1 .305-1.257 50.419 50.419 0 0 1 2.755-3.212 17.616 17.616 0 0 1 3.262-2.73c.356-.44.77-.816 1.244-1.13a8.279 8.279 0 0 0 1.295-1.053 4.61 4.61 0 0 0-1.6-.28 9.74 9.74 0 0 0-1.65.14 14.28 14.28 0 0 0-1.523.343c-.474.135-.889.237-1.244.305a2.354 2.354 0 0 0-.952-.229 3.983 3.983 0 0 1-1.08-.203 1.29 1.29 0 0 1-.418-.66 3.94 3.94 0 0 1-.14-.838 14.074 14.074 0 0 1-.025-.825 1.76 1.76 0 0 0-.102-.648c.135-.22.258-.44.368-.66.11-.22.241-.423.394-.61.795-.22 1.675-.401 2.64-.545a17.695 17.695 0 0 1 2.92-.19c.982.016 1.93.139 2.844.368a6.858 6.858 0 0 1 2.437 1.13c.085.473.263.85.534 1.13.27.279.6.494.99.647.186.338.347.681.482 1.028.136.347.229.715.28 1.105-.339.897-.817 1.654-1.435 2.272a24.2 24.2 0 0 1-1.866 1.689 5.883 5.883 0 0 1-1.092.736c-.39.203-.728.44-1.016.71a.465.465 0 0 0-.127.267.356.356 0 0 1-.126.242c-.305.27-.644.512-1.016.723a5.944 5.944 0 0 0-1.016.724 2.83 2.83 0 0 0-.546.61c-.144.22-.334.414-.57.583.304.102.604.144.9.127a8.85 8.85 0 0 0 .915-.101c.313-.051.634-.102.964-.153a5.2 5.2 0 0 1 1.029-.05 13.77 13.77 0 0 1 1.625-.445 6.639 6.639 0 0 1 1.777-.14 8.36 8.36 0 0 1 1.46-.444c.465-.093.91-.114 1.333-.063a.9.9 0 0 1 .495.457.9.9 0 0 0 .52.457c-.05.186-.063.321-.037.406.025.085.038.237.038.457z" fill="#F85E5E"/></g></svg>